<?xml version="1.0" encoding="UTF-8"?>
<svg xmlns="http://www.w3.org/2000/svg" xmlns:xlink="http://www.w3.org/1999/xlink" width="613px" height="344px" viewBox="0 0 613 344" version="1.1">
  <title>VIVES-LOGO-2COLORS-ENGELS 2018 outline</title>
  <g id="VIVES-LOGO-2COLORS-ENGELS-2018-outline" stroke="none" stroke-width="1" fill="none" fill-rule="evenodd">
    <path d="M43.4939735,43.6051051 C101.486937,-14.535035 195.512065,-14.535035 253.506027,43.6051051 C311.497991,101.745245 311.497991,196.00637 253.506027,254.145509 L253.506027,254.145509 L174.78346,333.067503 C174.771477,333.077514 174.762491,333.089527 174.750508,333.098536 C160.253765,347.633821 136.746235,347.633821 122.249492,333.098536 L122.249492,333.098536 L122.188581,333.037472 L122.185586,333.037472 L43.494972,254.147511 C43.494972,254.14651 43.494972,254.14651 43.4939735,254.145509 C-14.4979912,196.00637 -14.4979912,101.745245 43.4939735,43.6051051 Z M204.536432,126.868164 C199.730479,126.868164 195.527642,127.703042 191.923926,129.373799 C188.318213,131.045557 185.297643,133.318948 182.856222,136.190968 C180.414802,139.067994 178.572504,142.447548 177.333321,146.330631 C176.093139,150.217719 175.474047,154.373089 175.474047,158.802747 C175.474047,163.308485 176.074167,167.465857 177.275406,171.27286 C178.475646,175.079864 180.33492,178.363317 182.856222,181.120216 C185.373531,183.879117 188.628758,186.035385 192.621903,187.589018 C196.611053,189.141651 201.397035,189.919469 206.978851,189.919469 C214.572716,189.919469 221.393714,188.754244 227.43885,186.423793 C227.359965,183.938179 227.011476,181.605726 226.392384,179.430439 C225.771295,177.256152 225.034375,175.391191 224.183623,173.836556 C221.702261,174.768536 219.088095,175.487292 216.33613,175.992824 C213.584165,176.498355 210.891114,176.750621 208.256977,176.750621 C203.450025,176.750621 199.577703,175.701518 196.632023,173.603311 C193.685343,171.505105 192.05773,168.126552 191.748184,163.463648 L230.34359,163.463648 C230.498363,162.608749 230.636161,161.464546 230.750993,160.026033 C230.86882,158.588522 230.926735,157.13199 230.926735,155.655437 C230.926735,151.616189 230.34359,147.828206 229.181295,144.291487 C228.018999,140.75677 226.294528,137.706562 224.008879,135.142866 C221.722232,132.57917 218.952294,130.559046 215.697067,129.082493 C212.440842,127.606941 208.723293,126.868164 204.536432,126.868164 Z M263.47401,126.868164 C256.187694,126.868164 250.431135,128.538921 246.209326,131.879434 C241.982524,135.221949 239.874615,139.844811 239.874615,145.748018 C239.874615,150.644167 241.094825,154.314026 243.534248,156.762601 C245.976667,159.210175 249.365698,161.057117 253.70833,162.298423 L260.914763,164.395628 C262.930807,165.019284 264.498508,165.736038 265.623858,166.550895 C266.746212,167.367754 267.309386,168.709164 267.309386,170.573124 C267.309386,171.894514 266.940927,172.961636 266.204007,173.777494 C265.467088,174.594353 264.557422,175.255048 263.47401,175.759579 C262.386605,176.266111 261.206335,176.615479 259.927211,176.808682 C258.648087,177.003887 257.46582,177.099988 256.382409,177.099988 C253.901047,177.099988 251.515545,176.848724 249.230895,176.342191 C246.944248,175.837661 244.523797,175.079864 241.966547,174.068801 C241.03691,176.090927 240.281019,178.168111 239.698872,180.304358 C239.118723,182.442606 238.749265,184.558832 238.594492,186.656037 C240.222105,187.279693 241.73289,187.783223 243.128843,188.171631 C244.523797,188.559038 245.936726,188.888385 247.371622,189.162673 C248.805519,189.433959 250.297332,189.628163 251.846061,189.744285 C253.397785,189.862409 255.103284,189.919469 256.962558,189.919469 C261.069536,189.919469 264.752136,189.394917 268.008361,188.345814 C271.263588,187.297712 274.032528,185.8602 276.320173,184.033279 C278.602826,182.209361 280.34627,180.053094 281.549506,177.565478 C282.750744,175.079864 283.351863,172.399045 283.351863,169.524021 C283.351863,166.72708 283.001377,164.357588 282.306396,162.414545 C281.609418,160.473504 280.637842,158.841788 279.399658,157.519397 C278.158478,156.199009 276.667664,155.091844 274.92422,154.198905 C273.17878,153.305966 271.22165,152.549171 269.051831,151.925515 L262.426546,149.944431 C260.489387,149.322778 258.996576,148.662083 257.951109,147.963348 C256.905642,147.262611 256.382409,146.060347 256.382409,144.349548 C256.382409,142.56367 257.117331,141.262301 258.589173,140.445442 C260.060016,139.629584 262.117,139.222156 264.752136,139.222156 C267.2315,139.222156 269.596033,139.513462 271.843737,140.096075 C274.090443,140.678688 276.144431,141.359403 278.004703,142.135219 C278.857453,140.503503 279.591377,138.601503 280.212466,136.424214 C280.833555,134.250928 281.219989,132.152722 281.376759,130.131596 C278.353192,129.044453 275.369567,128.228595 272.425884,127.684022 C269.478206,127.141452 266.49558,126.868164 263.47401,126.868164 Z M105.148168,128.266635 L81.1992851,128.266635 C80.7359644,130.28776 80.5023071,132.345925 80.5023071,134.44313 C80.5023071,135.454193 80.5612207,136.522317 80.6770508,137.648501 C80.792881,138.775686 80.9676247,139.844811 81.1992851,140.852871 L88.988863,140.852871 L88.988863,188.520998 C91.7797706,188.987489 94.452851,189.219733 97.0110997,189.219733 C99.6442387,189.219733 102.359258,188.987489 105.148168,188.520998 L105.148168,128.266635 Z M65.9686182,127.5679 C64.4947794,127.5679 63.021939,127.625961 61.5510958,127.742083 C60.0772569,127.859207 58.6823024,128.03339 57.3662322,128.266635 L44.4611553,173.13682 L31.3254166,128.266635 C30.0053523,127.956309 28.5734519,127.761103 27.0227258,127.684022 C25.4719996,127.606941 23.9232706,127.5679 22.373543,127.5679 C21.2102488,127.5679 19.8342664,127.606941 18.2455959,127.684022 C16.6569255,127.761103 14.9334526,127.99535 13.0721819,128.383758 L35.5092817,188.404876 C36.8263504,188.713201 38.2223035,188.909407 39.6951438,188.987489 C41.1669856,189.063569 42.4850529,189.104612 43.6483471,189.104612 C44.7317585,189.104612 46.0897672,189.063569 47.716382,188.987489 C49.3429969,188.909407 50.8927245,188.754244 52.3665633,188.520998 L75.1521521,128.383758 C73.2139941,127.99535 71.4905213,127.761103 69.9787381,127.684022 C68.4679534,127.606941 67.1299154,127.5679 65.9686182,127.5679 Z M164.898554,127.5679 C163.424715,127.5679 161.951875,127.625961 160.480033,127.742083 C159.007193,127.859207 157.612238,128.03339 156.296168,128.266635 L143.39209,173.13682 L130.254354,128.266635 C128.935288,127.956309 127.502389,127.761103 125.952662,127.684022 C124.400937,127.606941 122.852208,127.5679 121.303479,127.5679 C120.141183,127.5679 118.763204,127.606941 117.175532,127.684022 C115.585863,127.761103 113.86239,127.99535 112.002118,128.383758 L134.438219,188.404876 C135.756286,188.713201 137.15224,188.909407 138.62508,188.987489 C140.094925,189.063569 141.414989,189.104612 142.577285,189.104612 C143.662693,189.104612 145.018705,189.063569 146.647317,188.987489 C148.273931,188.909407 149.822661,188.754244 151.295501,188.520998 L174.08109,128.383758 C172.14393,127.99535 170.41846,127.761103 168.909673,127.684022 C167.396891,127.606941 166.061849,127.5679 164.898554,127.5679 Z M204.304772,139.455401 C207.713773,139.455401 210.367881,140.602608 212.268095,142.894017 C214.166312,145.185427 215.191808,148.195592 215.348578,151.925515 L191.865013,151.925515 C192.251446,147.963348 193.452685,144.895122 195.468728,142.717832 C197.482775,140.543545 200.427457,139.455401 204.304772,139.455401 Z M95.6983247,98.0379466 C89.9857013,98.0379466 85.3534936,102.68183 85.3534936,108.410855 C85.3534936,114.138878 89.9857013,118.783763 95.6983247,118.783763 C101.412945,118.783763 106.046151,114.138878 106.046151,108.410855 C106.046151,102.68183 101.412945,98.0379466 95.6983247,98.0379466 Z" id="Combined-Shape" fill="#000000"></path>
    <path d="M322,121.18982 C322.468345,121.11349 322.925935,121.063273 323.369836,121.037161 C323.814715,121.012052 324.271327,121 324.74065,121 C325.160108,121 325.593253,121.012052 326.037155,121.037161 C326.482034,121.063273 326.938646,121.11349 327.406991,121.18982 L327.406991,135.380143 C327.406991,136.926827 327.462723,138.252556 327.574187,139.355321 C327.684674,140.459091 327.907602,141.372036 328.241017,142.095161 C328.574432,142.818286 329.042777,143.350586 329.648008,143.693066 C330.252261,144.035546 331.037399,144.206284 332.000489,144.206284 C332.963579,144.206284 333.740895,144.035546 334.333415,143.693066 C334.925935,143.350586 335.388414,142.818286 335.721828,142.095161 C336.055243,141.372036 336.278172,140.459091 336.389636,139.355321 C336.500122,138.252556 336.555854,136.926827 336.555854,135.380143 L336.555854,121.18982 C337.049621,121.11349 337.518944,121.063273 337.962845,121.037161 C338.406747,121.012052 338.839892,121 339.25935,121 C339.703251,121 340.153997,121.012052 340.610609,121.037161 C341.068198,121.063273 341.530677,121.11349 342,121.18982 L342,136.559238 C342,138.411241 341.852359,140.104559 341.556099,141.638186 C341.258861,143.172818 340.727939,144.485491 339.963334,145.576204 C339.197751,146.666918 338.172085,147.510564 336.889269,148.106137 C335.604498,148.701711 333.975556,149 332.000489,149 C330.024444,149 328.394525,148.701711 327.111709,148.106137 C325.826937,147.510564 324.802249,146.666918 324.036666,145.576204 C323.272061,144.485491 322.741139,143.172818 322.444879,141.638186 C322.147641,140.104559 322,138.411241 322,136.559238 L322,121.18982 Z" id="Fill-7" fill="#000000"></path>
    <path d="M347,129.449028 C347.346879,129.374025 347.692778,129.31876 348.039656,129.281259 C348.385555,129.243758 348.76967,129.225007 349.19004,129.225007 C349.61041,129.225007 349.981786,129.243758 350.303188,129.281259 C350.624589,129.31876 350.95873,129.374025 351.306588,129.449028 C351.38008,129.574361 351.447692,129.754959 351.510404,129.990822 C351.571157,130.228659 351.62701,130.477351 351.676984,130.738873 C351.725978,131.000395 351.770073,131.256982 351.806329,131.504688 C351.843564,131.754367 351.874921,131.966545 351.899418,132.141222 C352.147328,131.767196 352.444233,131.393171 352.790132,131.019145 C353.137011,130.64512 353.538763,130.309583 353.997349,130.009573 C354.453974,129.71055 354.967433,129.467779 355.537726,129.281259 C356.106058,129.093753 356.738083,129 357.430861,129 C359.607182,129 361.246527,129.599033 362.347916,130.795125 C363.449305,131.991217 364,133.873187 364,136.43906 L364,148.775979 C363.109286,148.924998 362.23033,149 361.364113,149 C360.497896,149 359.61992,148.924998 358.729206,148.775979 L358.729206,137.86016 C358.729206,136.51505 358.525391,135.480805 358.116779,134.757426 C357.709148,134.035034 356.996772,133.673838 355.982593,133.673838 C355.561243,133.673838 355.129114,133.736011 354.683267,133.860357 C354.2384,133.98569 353.835668,134.228461 353.47703,134.588671 C353.118393,134.950854 352.827368,135.455147 352.604934,136.103523 C352.3825,136.7519 352.270794,137.598638 352.270794,138.644725 L352.270794,148.775979 C351.38008,148.924998 350.501124,149 349.634907,149 C348.76967,149 347.890714,148.924998 347,148.775979 L347,129.449028 Z" id="Fill-9" fill="#000000"></path>
    <path d="M369.962396,125.226654 C369.811979,124.381006 369.735276,123.5462 369.735276,122.725193 C369.735276,121.928825 369.811979,121.095991 369.962396,120.223732 C370.38974,120.149812 370.84896,120.093632 371.340057,120.056179 C371.830158,120.018726 372.276429,120 372.679866,120 C373.106213,120 373.571411,120.018726 374.075458,120.056179 C374.578508,120.093632 375.043706,120.149812 375.47105,120.223732 C375.54576,120.647541 375.596563,121.063466 375.622463,121.474462 C375.647366,121.885459 375.660316,122.302369 375.660316,122.725193 C375.660316,123.123376 375.647366,123.534373 375.622463,123.957197 C375.596563,124.381006 375.54576,124.80383 375.47105,125.226654 C375.043706,125.301559 374.584485,125.351825 374.093388,125.37548 C373.603287,125.401105 373.144067,125.412933 372.716723,125.412933 C372.313286,125.412933 371.861038,125.401105 371.357988,125.37548 C370.854937,125.351825 370.38974,125.301559 369.962396,125.226654 L369.962396,125.226654 Z M370.754327,132.507304 L368.226124,132.507304 C368.151413,132.184026 368.094633,131.841036 368.05678,131.480306 C368.018927,131.119575 368,130.77757 368,130.453307 C368,129.782111 368.07471,129.122743 368.226124,128.474216 L376,128.474216 L376,147.776268 C375.093513,147.92608 374.213921,148 373.358237,148 C372.527456,148 371.659818,147.92608 370.754327,147.776268 L370.754327,132.507304 Z" id="Fill-11" fill="#000000"></path>
    <path d="M379,129.265 C379.599169,129.139 380.154835,129.063 380.666996,129.037 C381.178169,129.013 381.621119,129 381.995847,129 C382.495155,129 382.994463,129.013 383.49476,129.037 C383.994068,129.063 384.455804,129.126 384.879968,129.227 L389.112715,143.811 L393.26933,129.227 C393.693494,129.151 394.142377,129.095 394.617955,129.057 C395.091556,129.019 395.566146,129 396.040736,129 C396.415464,129 396.846549,129.013 397.333004,129.037 C397.819458,129.063 398.375124,129.139 399,129.265 L391.65968,148.811 C391.184101,148.887 390.684793,148.937 390.160767,148.962 C389.636741,148.987 389.198734,149 388.849713,149 C388.475974,149 388.049832,148.987 387.57722,148.962 C387.101641,148.937 386.652759,148.873 386.228594,148.773 L379,129.265 Z" id="Fill-13" fill="#000000"></path>
    <path d="M412.943104,136.948668 C412.892296,135.765883 412.559553,134.810481 411.943879,134.083439 C411.327208,133.356397 410.465464,132.993364 409.358645,132.993364 C408.100398,132.993364 407.145008,133.338831 406.49048,134.027813 C405.835953,134.718747 405.446425,135.691715 405.320899,136.948668 L412.943104,136.948668 Z M405.283042,140.608276 C405.382665,142.086757 405.910671,143.159266 406.867058,143.823851 C407.823445,144.489412 409.081691,144.822192 410.640801,144.822192 C411.496569,144.822192 412.371264,144.742168 413.263892,144.582122 C414.157516,144.422075 415.006309,144.193715 415.811269,143.898019 C416.088222,144.390846 416.326323,144.983215 416.528559,145.672197 C416.729799,146.362155 416.842373,147.101883 416.868275,147.890407 C414.90569,148.630136 412.692052,149 410.226367,149 C408.415209,149 406.862077,148.753098 405.565973,148.260271 C404.269869,147.767444 403.212863,147.083341 402.395949,146.208939 C401.578039,145.334537 400.974319,144.292281 400.584791,143.085098 C400.194266,141.877915 400,140.559481 400,139.129794 C400,137.724505 400.20124,136.407046 400.603719,135.17449 C401.006199,133.941934 401.602944,132.870401 402.395949,131.957939 C403.188953,131.046453 404.16925,130.325266 405.339827,129.795355 C406.509409,129.265444 407.873257,129 409.434359,129 C410.793226,129 412.000664,129.235191 413.056675,129.702645 C414.113682,130.171074 415.012287,130.812238 415.754483,131.625159 C416.496679,132.438079 417.056564,133.406168 417.434138,134.527471 C417.811711,135.648775 418,136.850102 418,138.131453 C418,138.599883 417.982068,139.062457 417.944211,139.517225 C417.905358,139.973944 417.861523,140.336977 417.811711,140.608276 L405.283042,140.608276 Z" id="Fill-15" fill="#000000"></path>
    <path d="M422,129.22657 C422.384837,129.150714 422.750381,129.09482 423.096632,129.056892 C423.442884,129.018964 423.820613,129 424.230834,129 C424.615671,129 424.9934,129.024953 425.365036,129.075856 C425.737688,129.125761 426.102217,129.188642 426.462684,129.264497 C426.538839,129.391257 426.608902,129.57391 426.673887,129.812456 C426.736842,130.052999 426.79472,130.304521 426.846505,130.569019 C426.897275,130.833516 426.942968,131.098014 426.980538,131.363509 C427.019123,131.628007 427.051616,131.848588 427.077001,132.024254 C427.641564,131.243737 428.333051,130.544066 429.15451,129.92624 C429.974953,129.309412 431.000508,129 432.231173,129 C432.487054,129 432.782535,129.012975 433.115586,129.037928 C433.448638,129.062881 433.693349,129.100808 433.846675,129.150714 C433.89846,129.403234 433.93603,129.693682 433.96243,130.02106 C433.987815,130.348438 434,130.688791 434,131.041122 C434,131.470306 433.981723,131.936421 433.943138,132.440463 C433.904552,132.945504 433.833474,133.423595 433.731934,133.876734 C433.448638,133.826829 433.135894,133.800878 432.788628,133.800878 L432.154002,133.800878 C431.71738,133.800878 431.232019,133.845793 430.692841,133.933626 C430.153664,134.022457 429.640887,134.255015 429.15451,134.633297 C428.666103,135.011578 428.262989,135.578501 427.943138,136.335063 C427.621256,137.090628 427.461838,138.149616 427.461838,139.510031 L427.461838,148.811358 C427.000846,148.887214 426.538839,148.937119 426.077847,148.962072 C425.61584,148.987025 425.167033,149 424.730411,149 C424.294805,149 423.85209,148.987025 423.404299,148.962072 C422.954476,148.937119 422.486377,148.887214 422,148.811358 L422,129.22657 Z" id="Fill-17" fill="#000000"></path>
    <path d="M441.064801,140.238411 C439.610368,139.84415 438.473771,139.258612 437.656038,138.482775 C436.838305,137.705963 436.427895,136.54172 436.427895,134.98907 C436.427895,133.116327 437.135569,131.650532 438.551944,130.589734 C439.967291,129.530887 441.895906,129 444.337791,129 C445.350957,129 446.350751,129.086855 447.338202,129.259588 C448.325653,129.432322 449.324419,129.690934 450.338613,130.035425 C450.286155,130.676588 450.156552,131.342149 449.948776,132.032107 C449.741,132.722065 449.493108,133.326144 449.208188,133.843369 C448.584859,133.597443 447.896729,133.380794 447.142769,133.19635 C446.389837,133.011906 445.596791,132.919196 444.766715,132.919196 C443.883152,132.919196 443.193993,133.048014 442.701296,133.306626 C442.20757,133.566215 441.960708,133.979018 441.960708,134.546013 C441.960708,135.087635 442.136597,135.470186 442.487348,135.691715 C442.838099,135.913243 443.337996,136.12306 443.98704,136.320191 L446.207776,136.948668 C446.934993,137.145799 447.591236,137.385869 448.175478,137.668879 C448.75972,137.952864 449.259617,138.304187 449.67517,138.722846 C450.090722,139.141505 450.415758,139.659705 450.649249,140.275495 C450.883769,140.891285 451,141.642725 451,142.530789 C451,143.442276 450.799424,144.292281 450.396215,145.080804 C449.994034,145.870304 449.408764,146.554406 448.643489,147.132136 C447.876157,147.711818 446.948365,148.167561 445.857025,148.500342 C444.766715,148.833122 443.532401,149 442.156141,149 C441.532812,149 440.959885,148.980482 440.441473,148.944374 C439.922033,148.90729 439.421107,148.844833 438.941782,148.758954 C438.460399,148.673075 437.987245,148.567678 437.519235,148.444716 C437.052253,148.321753 436.545155,148.161706 436,147.964575 C436.05143,147.299014 436.174861,146.627598 436.370294,145.950327 C436.564699,145.27208 436.817733,144.61335 437.129397,143.972187 C437.987245,144.292281 438.798807,144.532351 439.56511,144.692398 C440.330385,144.853421 441.128574,144.933444 441.960708,144.933444 C442.32483,144.933444 442.720839,144.902215 443.148735,144.840734 C443.577659,144.779252 443.973668,144.668976 444.337791,144.507954 C444.700885,144.347907 445.006377,144.138089 445.25324,143.879477 C445.500103,143.620865 445.623534,143.282229 445.623534,142.862594 C445.623534,142.271201 445.434273,141.846687 445.058836,141.588075 C444.68237,141.329462 444.155729,141.101103 443.480971,140.903972 L441.064801,140.238411 Z" id="Fill-19" fill="#000000"></path>
    <path d="M454.962396,125.226654 C454.811979,124.381006 454.735276,123.5462 454.735276,122.725193 C454.735276,121.928825 454.811979,121.095991 454.962396,120.223732 C455.38974,120.149812 455.84896,120.093632 456.340057,120.056179 C456.830158,120.018726 457.276429,120 457.679866,120 C458.106213,120 458.571411,120.018726 459.075458,120.056179 C459.578508,120.093632 460.043706,120.149812 460.47105,120.223732 C460.54576,120.647541 460.596563,121.063466 460.622463,121.474462 C460.647366,121.885459 460.660316,122.302369 460.660316,122.725193 C460.660316,123.123376 460.647366,123.534373 460.622463,123.957197 C460.596563,124.381006 460.54576,124.80383 460.47105,125.226654 C460.043706,125.301559 459.584485,125.351825 459.093388,125.37548 C458.603287,125.401105 458.144067,125.412933 457.716723,125.412933 C457.313286,125.412933 456.861038,125.401105 456.357988,125.37548 C455.854937,125.351825 455.38974,125.301559 454.962396,125.226654 L454.962396,125.226654 Z M455.754327,132.507304 L453.226124,132.507304 C453.151413,132.184026 453.094633,131.841036 453.05678,131.480306 C453.018927,131.119575 453,130.77757 453,130.453307 C453,129.782111 453.07471,129.122743 453.226124,128.474216 L461,128.474216 L461,147.776268 C460.093513,147.92608 459.213921,148 458.358237,148 C457.527456,148 456.659818,147.92608 455.754327,147.776268 L455.754327,132.507304 Z" id="Fill-21" fill="#000000"></path>
    <path d="M466.570139,132.991226 L464.183235,132.991226 L464,132.219302 L470.867925,123 L471.712357,123 L471.712357,128.825075 L476.155567,128.825075 C476.229249,129.211038 476.277724,129.557283 476.301961,129.866868 C476.326199,130.175434 476.338802,130.497239 476.338802,130.830246 C476.338802,131.190749 476.326199,131.538013 476.301961,131.872038 C476.277724,132.207082 476.229249,132.579805 476.155567,132.991226 L471.712357,132.991226 L471.712357,140.821472 C471.712357,141.619874 471.772466,142.262465 471.895593,142.750264 C472.017749,143.239082 472.195167,143.625044 472.427847,143.908151 C472.660527,144.191258 472.947498,144.384748 473.29167,144.486585 C473.632933,144.58944 474.037214,144.640359 474.503542,144.640359 C474.870982,144.640359 475.231635,144.608789 475.586472,144.544632 C475.940339,144.480475 476.252517,144.422428 476.523007,144.370491 C476.693639,144.859308 476.815795,145.367475 476.890447,145.893972 C476.963159,146.421488 477,146.890956 477,147.302378 C477,147.586503 476.994183,147.822764 476.98158,148.016255 C476.969946,148.208727 476.950556,148.396107 476.927288,148.57534 C475.800731,148.858447 474.636364,149 473.438064,149 C471.209188,149 469.507719,148.454154 468.332687,147.360425 C467.157655,146.267714 466.570139,144.486585 466.570139,142.018056 L466.570139,132.991226 Z" id="Fill-23" fill="#000000"></path>
    <path d="M478,129.225114 C478.584412,129.100161 479.100307,129.031734 479.54567,129.018842 C479.991032,129.00595 480.405159,129 480.786035,129 C481.294876,129 481.816817,129.012892 482.350849,129.037684 C482.885888,129.062476 483.368532,129.124953 483.801804,129.225114 L487.923926,146.167151 L492.58008,129.225114 C493.420424,129.075368 494.283944,129 495.175676,129 C495.55756,129 495.963625,129.00595 496.396897,129.018842 C496.82916,129.031734 497.3642,129.100161 498,129.225114 L490.633382,153.228978 C490.328077,154.181001 489.965338,154.969394 489.545166,155.596143 C489.126001,156.221899 488.648395,156.709811 488.114363,157.060869 C487.580332,157.410936 486.981813,157.654892 486.320822,157.793728 C485.658824,157.930582 484.946446,158 484.183687,158 C483.470301,158 482.828455,157.956366 482.256134,157.868105 C481.682805,157.779845 481.11653,157.661834 480.557308,157.511097 C480.532117,157.386144 480.519019,157.280033 480.519019,157.192764 L480.519019,156.910132 C480.519019,156.31016 480.588544,155.739938 480.728601,155.20145 C480.868658,154.662962 481.040959,154.143316 481.244496,153.642513 C481.473223,153.717881 481.778528,153.786308 482.160411,153.848784 C482.542294,153.911261 482.924178,153.942995 483.306061,153.942995 C483.610358,153.942995 483.915663,153.924153 484.220968,153.886469 C484.527281,153.848784 484.824525,153.736723 485.117739,153.548302 C485.409945,153.360873 485.684014,153.066341 485.938939,152.665698 C486.192856,152.265055 486.421583,151.701775 486.626127,150.975857 L487.275026,148.646377 C486.994912,148.671169 486.682553,148.690011 486.338959,148.702903 C485.996373,148.714804 485.645725,148.721745 485.29004,148.721745 L484.487984,148.721745 C484.234067,148.721745 484.004333,148.695961 483.801804,148.646377 L478,129.225114 Z" id="Fill-25" fill="#000000"></path>
    <path d="M517.48133,145.007417 C518.908323,145.007417 519.934668,144.496023 520.558347,143.473235 C521.183035,142.450446 521.495884,140.977748 521.495884,139.055141 C521.495884,137.133509 521.183035,135.660811 520.558347,134.638023 C519.934668,133.615234 518.908323,133.10384 517.48133,133.10384 C516.079567,133.10384 515.066341,133.615234 514.441653,134.638023 C513.816965,135.660811 513.506135,137.133509 513.506135,139.055141 C513.506135,140.977748 513.816965,142.450446 514.441653,143.473235 C515.066341,144.496023 516.079567,145.007417 517.48133,145.007417 M517.48133,149 C515.87571,149 514.480002,148.747231 513.296224,148.241692 C512.110427,147.73713 511.128486,147.034451 510.352419,146.134631 C509.574335,145.234812 508.987996,144.181769 508.593403,142.974528 C508.197801,141.76631 508,140.460499 508,139.055141 C508,137.650759 508.197801,136.33226 508.593403,135.099644 C508.987996,133.867028 509.574335,132.802274 510.352419,131.901479 C511.128486,131.002635 512.110427,130.2941 513.296224,129.776851 C514.480002,129.258625 515.87571,129 517.48133,129 C519.08695,129 520.487704,129.258625 521.68662,129.776851 C522.884528,130.2941 523.877569,131.002635 524.667764,131.901479 C525.45695,132.802274 526.044298,133.867028 526.426781,135.099644 C526.808254,136.33226 527,137.650759 527,139.055141 C527,140.460499 526.808254,141.76631 526.426781,142.974528 C526.044298,144.181769 525.45695,145.234812 524.667764,146.134631 C523.877569,147.034451 522.884528,147.73713 521.68662,148.241692 C520.487704,148.747231 519.08695,149 517.48133,149" id="Fill-27" fill="#000000"></path>
    <path d="M532.390016,132.486113 L529.19542,132.486113 C529.117252,132.08741 529.065826,131.726209 529.039084,131.401523 C529.013371,131.077823 529,130.741294 529,130.391936 C529,130.069223 529.013371,129.757366 529.039084,129.458339 C529.065826,129.158325 529.117252,128.822783 529.19542,128.448752 L532.390016,128.448752 L532.390016,127.514169 C532.390016,126.31806 532.578236,125.25222 532.954676,124.317637 C533.331116,123.383054 533.870063,122.59749 534.571517,121.962921 C535.27297,121.327365 536.110189,120.840829 537.084202,120.5043 C538.059243,120.168758 539.129937,120 540.298341,120 C541.077962,120 541.734161,120.03158 542.266936,120.093754 C542.798683,120.155928 543.376714,120.274355 544,120.449034 C543.947545,121.271112 543.863206,122.013253 543.746983,122.673481 C543.63076,123.333709 543.441511,123.988016 543.182323,124.635415 C542.896393,124.586071 542.598121,124.529818 542.28545,124.467644 C541.973807,124.40547 541.558283,124.37389 541.038878,124.37389 C540.129663,124.37389 539.390154,124.579163 538.818294,124.990695 C538.246434,125.402228 537.93582,126.280558 537.883365,127.626674 L537.883365,128.448752 L542.559037,128.448752 C542.636177,128.847455 542.688631,129.209643 542.714344,129.532356 C542.740058,129.857042 542.753428,130.193571 542.753428,130.541943 C542.753428,130.865642 542.740058,131.177499 542.714344,131.476526 C542.688631,131.775553 542.636177,132.112082 542.559037,132.486113 L537.883365,132.486113 L537.883365,147.775976 C536.948437,147.924996 536.039221,148 535.155719,148 C534.247532,148 533.324945,147.924996 532.390016,147.775976 L532.390016,132.486113 Z" id="Fill-29" fill="#000000"></path>
    <path d="M334.472742,179.620079 L331.36869,168.053016 L328.115556,179.620079 L334.472742,179.620079 Z M328.488753,162.230553 C329.013007,162.153702 329.51159,162.096064 329.984504,162.057638 C330.458405,162.019213 330.981671,162 331.556276,162 C332.054859,162 332.540608,162.019213 333.013522,162.057638 C333.487423,162.096064 334.010689,162.153702 334.585294,162.230553 L343,189.770459 C341.977163,189.923149 340.979997,190 340.007512,190 C339.05971,190 338.137577,189.923149 337.241114,189.770459 L335.744377,184.254388 L326.842934,184.254388 L325.310654,189.770459 C324.413204,189.923149 323.552284,190 322.72888,190 C321.806748,190 320.89745,189.923149 320,189.770459 L328.488753,162.230553 Z" id="Fill-31" fill="#000000"></path>
    <path d="M351.291976,184.760049 C351.962943,184.961617 352.732291,185.060912 353.602973,185.060912 C355.142654,185.060912 356.322256,184.559474 357.142763,183.556598 C357.962287,182.553722 358.37254,181.036499 358.37254,179.005923 C358.37254,178.228446 358.31056,177.507567 358.186598,176.842293 C358.061653,176.179004 357.851115,175.60806 357.552033,175.131446 C357.254919,174.655824 356.876148,174.279497 356.415719,174.003458 C355.956275,173.727419 355.391561,173.589399 354.719611,173.589399 C354.099803,173.589399 353.570507,173.708553 353.136642,173.94686 C352.701793,174.185167 352.347617,174.510854 352.074115,174.924913 C351.801596,175.337978 351.60188,175.821544 351.477919,176.372629 C351.352973,176.924707 351.291976,177.514518 351.291976,178.140074 L351.291976,184.760049 Z M346,169.414059 C346.348273,169.339588 346.688675,169.288947 347.025142,169.264124 C347.360625,169.2393 347.739397,169.226392 348.161456,169.226392 C348.856034,169.226392 349.564386,169.301856 350.286511,169.451791 C350.360297,169.577895 350.428181,169.759604 350.491146,169.996918 C350.552143,170.236219 350.615107,170.492399 350.677088,170.768438 C350.739069,171.044477 350.78826,171.313566 350.825645,171.57769 C350.86303,171.84082 350.894512,172.060262 350.919108,172.23502 C351.143419,171.83387 351.415938,171.43967 351.738631,171.050435 C352.061325,170.662193 352.452886,170.31764 352.912331,170.015784 C353.371775,169.714922 353.888282,169.470657 354.459882,169.28299 C355.030498,169.09433 355.66408,169 356.359641,169 C357.428072,169 358.428618,169.201568 359.360297,169.602719 C360.290993,170.003869 361.105597,170.611552 361.801159,171.426762 C362.496721,172.241971 363.036839,173.263713 363.422497,174.491988 C363.807171,175.720263 364,177.17493 364,178.854996 C364,180.485414 363.763883,181.946038 363.291648,183.236869 C362.819414,184.528693 362.135658,185.625899 361.241364,186.528487 C360.348054,187.430083 359.254045,188.127131 357.962287,188.615661 C356.670529,189.104191 355.205619,189.349449 353.565588,189.349449 C353.142545,189.349449 352.726388,189.330583 352.317118,189.292851 C351.906865,189.255119 351.564495,189.210436 351.291976,189.160789 L351.291976,197.812333 C350.819742,197.886804 350.3662,197.937444 349.931351,197.962268 C349.496502,197.986099 349.067556,198 348.64648,198 C348.223437,198 347.794491,197.986099 347.360625,197.962268 C346.925776,197.937444 346.472234,197.886804 346,197.812333 L346,169.414059 Z" id="Fill-33" fill="#000000"></path>
    <path d="M373.291976,184.760049 C373.962943,184.961617 374.732291,185.060912 375.602973,185.060912 C377.142654,185.060912 378.322256,184.559474 379.142763,183.556598 C379.962287,182.553722 380.37254,181.036499 380.37254,179.005923 C380.37254,178.228446 380.31056,177.507567 380.186598,176.842293 C380.061653,176.179004 379.851115,175.60806 379.552033,175.131446 C379.254919,174.655824 378.876148,174.279497 378.415719,174.003458 C377.956275,173.727419 377.391561,173.589399 376.719611,173.589399 C376.099803,173.589399 375.570507,173.708553 375.136642,173.94686 C374.701793,174.185167 374.347617,174.510854 374.074115,174.924913 C373.801596,175.337978 373.60188,175.821544 373.477919,176.372629 C373.352973,176.924707 373.291976,177.514518 373.291976,178.140074 L373.291976,184.760049 Z M368,169.414059 C368.348273,169.339588 368.688675,169.288947 369.025142,169.264124 C369.360625,169.2393 369.739397,169.226392 370.161456,169.226392 C370.856034,169.226392 371.564386,169.301856 372.286511,169.451791 C372.360297,169.577895 372.428181,169.759604 372.491146,169.996918 C372.552143,170.236219 372.615107,170.492399 372.677088,170.768438 C372.739069,171.044477 372.78826,171.313566 372.825645,171.57769 C372.86303,171.84082 372.894512,172.060262 372.919108,172.23502 C373.143419,171.83387 373.415938,171.43967 373.738631,171.050435 C374.061325,170.662193 374.452886,170.31764 374.912331,170.015784 C375.371775,169.714922 375.888282,169.470657 376.459882,169.28299 C377.030498,169.09433 377.66408,169 378.359641,169 C379.428072,169 380.428618,169.201568 381.360297,169.602719 C382.290993,170.003869 383.105597,170.611552 383.801159,171.426762 C384.496721,172.241971 385.035855,173.263713 385.422497,174.491988 C385.807171,175.720263 386,177.17493 386,178.854996 C386,180.485414 385.763883,181.946038 385.291648,183.236869 C384.819414,184.528693 384.135658,185.625899 383.241364,186.528487 C382.348054,187.430083 381.254045,188.127131 379.962287,188.615661 C378.670529,189.104191 377.205619,189.349449 375.565588,189.349449 C375.142545,189.349449 374.726388,189.330583 374.317118,189.292851 C373.906865,189.255119 373.564495,189.210436 373.291976,189.160789 L373.291976,197.812333 C372.819742,197.886804 372.3662,197.937444 371.931351,197.962268 C371.496502,197.986099 371.067556,198 370.64648,198 C370.223437,198 369.794491,197.986099 369.360625,197.962268 C368.925776,197.937444 368.472234,197.886804 368,197.812333 L368,169.414059 Z" id="Fill-35" fill="#000000"></path>
    <path d="M390,162.226825 C390.952231,162.075608 391.891892,162 392.816887,162 C393.71674,162 394.642782,162.075608 395.595014,162.226825 L395.595014,182.01137 C395.595014,182.790336 395.641106,183.418085 395.734339,183.895612 C395.826524,184.373139 395.972135,184.743223 396.171171,185.006857 C396.36916,185.270492 396.626859,185.453544 396.94427,185.553029 C397.26168,185.654503 397.658705,185.704246 398.135345,185.704246 C398.345904,185.704246 398.577415,185.691313 398.829876,185.666442 C399.080243,185.64157 399.324324,185.604761 399.563168,185.553029 C399.853342,186.583692 400,187.588488 400,188.568414 L400,189.114585 C400,189.27774 399.973811,189.460792 399.920386,189.660757 C399.496124,189.786108 398.988058,189.874649 398.393044,189.924392 C397.796983,189.975129 397.248062,190 396.745234,190 C394.708779,190 393.075634,189.466761 391.845799,188.398295 C390.614917,187.330823 390,185.590833 390,183.179321 L390,162.226825 Z" id="Fill-37" fill="#000000"></path>
    <path d="M402.962396,166.226654 C402.811979,165.381006 402.735276,164.5462 402.735276,163.725193 C402.735276,162.928825 402.811979,162.095991 402.962396,161.223732 C403.38974,161.149812 403.84896,161.093632 404.340057,161.056179 C404.830158,161.018726 405.276429,161 405.679866,161 C406.106213,161 406.571411,161.018726 407.075458,161.056179 C407.578508,161.093632 408.043706,161.149812 408.47105,161.223732 C408.54576,161.647541 408.596563,162.063466 408.622463,162.474462 C408.647366,162.885459 408.660316,163.302369 408.660316,163.725193 C408.660316,164.123376 408.647366,164.534373 408.622463,164.957197 C408.596563,165.381006 408.54576,165.80383 408.47105,166.226654 C408.043706,166.301559 407.584485,166.351825 407.093388,166.37548 C406.603287,166.401105 406.144067,166.412933 405.716723,166.412933 C405.313286,166.412933 404.861038,166.401105 404.357988,166.37548 C403.854937,166.351825 403.38974,166.301559 402.962396,166.226654 L402.962396,166.226654 Z M403.754327,173.507304 L401.226124,173.507304 C401.151413,173.184026 401.094633,172.841036 401.05678,172.480306 C401.018927,172.119575 401,171.77757 401,171.453307 C401,170.782111 401.07471,170.122743 401.226124,169.474216 L409,169.474216 L409,188.776268 C408.093513,188.92608 407.213921,189 406.358237,189 C405.527456,189 404.659818,188.92608 403.754327,188.776268 L403.754327,173.507304 Z" id="Fill-39" fill="#000000"></path>
    <path d="M426.943104,177.948668 C426.892296,176.765883 426.559553,175.810481 425.943879,175.083439 C425.327208,174.356397 424.465464,173.993364 423.358645,173.993364 C422.100398,173.993364 421.145008,174.338831 420.49048,175.027813 C419.835953,175.718747 419.446425,176.691715 419.320899,177.948668 L426.943104,177.948668 Z M419.283042,181.608276 C419.382665,183.086757 419.910671,184.159266 420.867058,184.823851 C421.823445,185.489412 423.081691,185.822192 424.640801,185.822192 C425.496569,185.822192 426.371264,185.742168 427.263892,185.582122 C428.157516,185.422075 429.006309,185.193715 429.811269,184.898019 C430.088222,185.390846 430.326323,185.983215 430.528559,186.672197 C430.729799,187.362155 430.842373,188.101883 430.868275,188.890407 C428.90569,189.630136 426.692052,190 424.226367,190 C422.415209,190 420.862077,189.753098 419.565973,189.260271 C418.269869,188.767444 417.212863,188.083341 416.395949,187.208939 C415.578039,186.334537 414.974319,185.292281 414.584791,184.085098 C414.194266,182.877915 414,181.559481 414,180.129794 C414,178.724505 414.20124,177.407046 414.603719,176.17449 C415.006199,174.941934 415.602944,173.870401 416.395949,172.957939 C417.188953,172.046453 418.16925,171.325266 419.339827,170.795355 C420.509409,170.265444 421.873257,170 423.434359,170 C424.793226,170 426.000664,170.235191 427.056675,170.702645 C428.113682,171.171074 429.012287,171.812238 429.754483,172.625159 C430.496679,173.438079 431.056564,174.406168 431.434138,175.527471 C431.811711,176.648775 432,177.850102 432,179.131453 C432,179.599883 431.982068,180.062457 431.944211,180.517225 C431.905358,180.973944 431.861523,181.336977 431.811711,181.608276 L419.283042,181.608276 Z" id="Fill-41" fill="#000000"></path>
    <path d="M447.712754,174.203431 C447.211846,174.078916 446.805973,173.997882 446.494143,173.96033 C446.180333,173.922778 445.787329,173.904002 445.31216,173.904002 C444.487543,173.904002 443.76885,174.072987 443.15608,174.408979 C442.54331,174.745959 442.037453,175.195595 441.637519,175.7569 C441.237585,176.318204 440.943574,176.980306 440.756476,177.74123 C440.568388,178.502153 440.475334,179.294699 440.475334,180.11788 C440.475334,181.141667 440.600066,182.008329 440.84953,182.719842 C441.099984,183.430366 441.443491,183.998588 441.881043,184.422531 C442.318594,184.847462 442.837321,185.15282 443.438212,185.34058 C444.037123,185.526364 444.68751,185.620244 445.387395,185.620244 C445.812077,185.620244 446.200132,185.602456 446.549579,185.564904 C446.900016,185.526364 447.287081,185.446319 447.712754,185.320816 L447.712754,174.203431 Z M447.712754,162.18776 C448.162184,162.112656 448.605676,162.063246 449.044217,162.037552 C449.480779,162.013835 449.912391,162 450.337073,162 C450.761755,162 451.199307,162.013835 451.650718,162.037552 C452.100148,162.063246 452.549579,162.112656 453,162.18776 L453,188.914943 C451.823956,189.26477 450.631084,189.532576 449.419403,189.719348 C448.205742,189.907108 446.737667,190 445.012209,190 C443.687675,190 442.418578,189.819157 441.206897,189.457472 C439.993235,189.095786 438.925095,188.521635 437.999505,187.735018 C437.074905,186.949389 436.344333,185.933507 435.806798,184.684407 C435.269262,183.437284 435,181.914449 435,180.11788 C435,178.694854 435.231645,177.35385 435.693945,176.09388 C436.156245,174.83391 436.819502,173.741935 437.681736,172.818945 C438.54397,171.895955 439.587362,171.165667 440.812902,170.629068 C442.037453,170.092468 443.400594,169.823675 444.900346,169.823675 C445.349777,169.823675 445.819007,169.842451 446.306055,169.880003 C446.793103,169.917555 447.262333,169.998588 447.712754,170.123103 L447.712754,162.18776 Z" id="Fill-43" fill="#000000"></path>
    <path d="M471.225058,176.998863 C470.374656,176.672541 469.612364,176.314383 468.936201,175.924389 C468.262017,175.535389 467.686833,175.070779 467.211638,174.530557 C466.737433,173.990335 466.368166,173.343661 466.105819,172.58954 C465.842482,171.836413 465.712793,170.931069 465.712793,169.875497 C465.712793,168.595082 465.930591,167.464895 466.368166,166.484935 C466.805742,165.504974 467.424486,164.682206 468.224398,164.015634 C469.02431,163.350057 469.98757,162.847641 471.112199,162.508385 C472.236828,162.16913 473.499065,162 474.899901,162 C476.175008,162 477.367946,162.113417 478.480695,162.339255 C479.593444,162.565094 480.762622,162.891416 481.98724,163.319215 C481.837752,164.775725 481.436806,166.208357 480.787372,167.615122 C480.412166,167.464895 480.03102,167.313673 479.643934,167.16245 C479.254867,167.012223 478.843032,166.885873 478.406446,166.785389 C477.96887,166.685901 477.473875,166.604321 476.924431,166.540648 C476.373996,166.47797 475.749313,166.447129 475.04939,166.447129 C474.624684,166.447129 474.193048,166.484935 473.756462,166.559551 C473.317897,166.635162 472.924871,166.773451 472.574414,166.974417 C472.224948,167.175384 471.937851,167.470864 471.712133,167.859864 C471.487405,168.249858 471.374546,168.758243 471.374546,169.386015 C471.374546,169.889426 471.461665,170.309267 471.636894,170.648522 C471.812122,170.987777 472.04972,171.277288 472.349687,171.515065 C472.649654,171.754832 472.98724,171.955799 473.362446,172.117965 C473.736663,172.282121 474.111869,172.439312 474.487075,172.58954 L476.736333,173.456083 C477.686723,173.833144 478.549005,174.223138 479.325157,174.624076 C480.099329,175.027004 480.755692,175.523451 481.293257,176.113417 C481.830822,176.703383 482.249588,177.419699 482.549555,178.26137 C482.849522,179.103042 483,180.13971 483,181.370381 C483,182.651791 482.768342,183.819784 482.306017,184.875355 C481.843692,185.930927 481.174458,186.834281 480.299307,187.588403 C479.424156,188.342524 478.343087,188.93249 477.056099,189.359295 C475.768122,189.787095 474.287097,190 472.612034,190 C471.786382,190 471.04884,189.975128 470.399406,189.925384 C469.748983,189.874645 469.130239,189.793064 468.543175,189.680642 C467.95512,189.567226 467.373996,189.422968 466.798812,189.246873 C466.223628,189.070779 465.624684,188.856879 465,188.606168 C465.074249,187.877914 465.211858,187.116828 465.411836,186.325895 C465.611814,185.534963 465.848422,184.737067 466.124629,183.933201 C467.174018,184.360006 468.162028,184.680358 469.087669,184.894258 C470.01133,185.107163 470.99934,185.214611 472.04972,185.214611 C473.624794,185.214611 474.862281,184.91913 475.762182,184.329164 C476.662083,183.738204 477.111539,182.839824 477.111539,181.634025 C477.111539,181.031126 477.00561,180.528709 476.793752,180.126777 C476.580904,179.724844 476.305687,179.385588 475.9681,179.109011 C475.630514,178.833428 475.249368,178.600625 474.824662,178.411597 C474.398966,178.223565 473.96238,178.041501 473.512925,177.865406 L471.225058,176.998863 Z" id="Fill-45" fill="#000000"></path>
    <path d="M499.960076,185.046113 C500.257057,185.538965 500.504051,186.111843 500.703019,186.764749 C500.900026,187.418631 501,188.18865 501,189.074806 C500.009083,189.470063 499.081874,189.722832 498.215434,189.833114 C497.348014,189.944371 496.445308,190 495.504378,190 C493.895975,190 492.497321,189.746255 491.309396,189.241692 C490.121472,188.73713 489.137415,188.040306 488.357227,187.153174 C487.578019,186.266042 486.989937,185.212024 486.593962,183.992095 C486.197987,182.772166 486,181.447811 486,180.018055 C486,178.613673 486.191127,177.306885 486.57632,176.099644 C486.958573,174.892402 487.540774,173.832528 488.320962,172.920021 C489.10017,172.008491 490.071485,171.2941 491.235886,170.775875 C492.398327,170.258625 493.746994,170 495.282867,170 C495.825863,170 496.327692,170.012687 496.785416,170.037086 C497.244119,170.061484 497.68224,170.110282 498.102718,170.184453 C498.524177,170.258625 498.944655,170.357195 499.366113,170.480164 C499.786592,170.604109 500.257057,170.764163 500.776529,170.960328 C500.776529,171.528327 500.703019,172.16269 500.554038,172.865369 C500.405058,173.567072 500.169825,174.23852 499.84932,174.879715 C499.106377,174.633777 498.456547,174.466891 497.89885,174.380032 C497.342133,174.294149 496.705044,174.251208 495.987585,174.251208 C494.452692,174.251208 493.295152,174.749915 492.515944,175.748304 C491.735755,176.746694 491.346641,178.169619 491.346641,180.018055 C491.346641,182.014834 491.76712,183.468989 492.609056,184.38052 C493.450013,185.292051 494.588931,185.748792 496.02385,185.748792 C496.395321,185.748792 496.735429,185.741961 497.045152,185.730249 C497.354875,185.717562 497.657737,185.687308 497.954718,185.637535 C498.252679,185.588738 498.554561,185.514566 498.865264,185.41502 C499.174007,185.317425 499.538617,185.193481 499.960076,185.046113" id="Fill-47" fill="#000000"></path>
    <path d="M505.962396,166.226654 C505.811979,165.381006 505.735276,164.5462 505.735276,163.725193 C505.735276,162.928825 505.811979,162.095991 505.962396,161.223732 C506.38974,161.149812 506.84896,161.093632 507.340057,161.056179 C507.830158,161.018726 508.276429,161 508.679866,161 C509.106213,161 509.571411,161.018726 510.075458,161.056179 C510.578508,161.093632 511.043706,161.149812 511.47105,161.223732 C511.54576,161.647541 511.596563,162.063466 511.622463,162.474462 C511.647366,162.885459 511.660316,163.302369 511.660316,163.725193 C511.660316,164.123376 511.647366,164.534373 511.622463,164.957197 C511.596563,165.381006 511.54576,165.80383 511.47105,166.226654 C511.043706,166.301559 510.584485,166.351825 510.093388,166.37548 C509.603287,166.401105 509.144067,166.412933 508.716723,166.412933 C508.313286,166.412933 507.861038,166.401105 507.357988,166.37548 C506.854937,166.351825 506.38974,166.301559 505.962396,166.226654 L505.962396,166.226654 Z M506.754327,173.507304 L504.226124,173.507304 C504.151413,173.184026 504.094633,172.841036 504.05678,172.480306 C504.018927,172.119575 504,171.77757 504,171.453307 C504,170.782111 504.07471,170.122743 504.226124,169.474216 L512,169.474216 L512,188.776268 C511.093513,188.92608 510.213921,189 509.358237,189 C508.527456,189 507.659818,188.92608 506.754327,188.776268 L506.754327,173.507304 Z" id="Fill-49" fill="#000000"></path>
    <path d="M528.943104,177.948668 C528.892296,176.765883 528.559553,175.810481 527.943879,175.083439 C527.327208,174.356397 526.465464,173.993364 525.358645,173.993364 C524.100398,173.993364 523.145008,174.338831 522.49048,175.027813 C521.835953,175.718747 521.446425,176.691715 521.320899,177.948668 L528.943104,177.948668 Z M521.283042,181.608276 C521.382665,183.086757 521.910671,184.159266 522.867058,184.823851 C523.823445,185.489412 525.081691,185.822192 526.640801,185.822192 C527.496569,185.822192 528.371264,185.742168 529.263892,185.582122 C530.157516,185.422075 531.006309,185.193715 531.811269,184.898019 C532.088222,185.390846 532.326323,185.983215 532.528559,186.672197 C532.729799,187.362155 532.842373,188.101883 532.868275,188.890407 C530.90569,189.630136 528.692052,190 526.226367,190 C524.415209,190 522.862077,189.753098 521.565973,189.260271 C520.269869,188.767444 519.212863,188.083341 518.395949,187.208939 C517.578039,186.334537 516.974319,185.292281 516.584791,184.085098 C516.194266,182.877915 516,181.559481 516,180.129794 C516,178.724505 516.20124,177.407046 516.603719,176.17449 C517.006199,174.941934 517.602944,173.870401 518.395949,172.957939 C519.188953,172.046453 520.16925,171.325266 521.339827,170.795355 C522.509409,170.265444 523.873257,170 525.434359,170 C526.793226,170 528.000664,170.235191 529.056675,170.702645 C530.113682,171.171074 531.012287,171.812238 531.754483,172.625159 C532.496679,173.438079 533.056564,174.406168 533.434138,175.527471 C533.811711,176.648775 534,177.850102 534,179.131453 C534,179.599883 533.982068,180.062457 533.944211,180.517225 C533.905358,180.973944 533.861523,181.336977 533.811711,181.608276 L521.283042,181.608276 Z" id="Fill-51" fill="#000000"></path>
    <path d="M538,170.449028 C538.346879,170.374025 538.692778,170.31876 539.039656,170.281259 C539.385555,170.243758 539.76967,170.225007 540.19004,170.225007 C540.61041,170.225007 540.981786,170.243758 541.303188,170.281259 C541.624589,170.31876 541.95873,170.374025 542.306588,170.449028 C542.38008,170.574361 542.447692,170.754959 542.510404,170.990822 C542.571157,171.228659 542.62701,171.477351 542.676984,171.738873 C542.725978,172.000395 542.770073,172.256982 542.806329,172.504688 C542.843564,172.754367 542.874921,172.966545 542.899418,173.141222 C543.147328,172.767196 543.444233,172.393171 543.790132,172.019145 C544.137011,171.64512 544.538763,171.309583 544.997349,171.009573 C545.453974,170.71055 545.967433,170.467779 546.537726,170.281259 C547.106058,170.093753 547.738083,170 548.430861,170 C550.607182,170 552.246527,170.599033 553.347916,171.795125 C554.449305,172.991217 555,174.873187 555,177.43906 L555,189.775979 C554.109286,189.924998 553.23033,190 552.364113,190 C551.497896,190 550.61992,189.924998 549.729206,189.775979 L549.729206,178.86016 C549.729206,177.51505 549.525391,176.480805 549.116779,175.757426 C548.709148,175.035034 547.996772,174.673838 546.982593,174.673838 C546.561243,174.673838 546.129114,174.736011 545.683267,174.860357 C545.2384,174.98569 544.835668,175.228461 544.47703,175.588671 C544.118393,175.950854 543.827368,176.455147 543.604934,177.103523 C543.3825,177.7519 543.270794,178.598638 543.270794,179.644725 L543.270794,189.775979 C542.38008,189.924998 541.501124,190 540.634907,190 C539.76967,190 538.890714,189.924998 538,189.775979 L538,170.449028 Z" id="Fill-53" fill="#000000"></path>
    <path d="M572.960076,185.046113 C573.257057,185.538965 573.504051,186.111843 573.703019,186.764749 C573.900026,187.418631 574,188.18865 574,189.074806 C573.009083,189.470063 572.081874,189.722832 571.215434,189.833114 C570.348014,189.944371 569.445308,190 568.504378,190 C566.895975,190 565.497321,189.746255 564.309396,189.241692 C563.121472,188.73713 562.137415,188.040306 561.357227,187.153174 C560.578019,186.266042 559.989937,185.212024 559.593962,183.992095 C559.197987,182.772166 559,181.447811 559,180.018055 C559,178.613673 559.191127,177.306885 559.57632,176.099644 C559.958573,174.892402 560.540774,173.832528 561.320962,172.920021 C562.10017,172.008491 563.071485,171.2941 564.235886,170.775875 C565.398327,170.258625 566.746994,170 568.282867,170 C568.825863,170 569.327692,170.012687 569.785416,170.037086 C570.244119,170.061484 570.68224,170.110282 571.102718,170.184453 C571.524177,170.258625 571.944655,170.357195 572.366113,170.480164 C572.786592,170.604109 573.257057,170.764163 573.776529,170.960328 C573.776529,171.528327 573.703019,172.16269 573.554038,172.865369 C573.405058,173.567072 573.169825,174.23852 572.84932,174.879715 C572.106377,174.633777 571.456547,174.466891 570.89885,174.380032 C570.342133,174.294149 569.705044,174.251208 568.987585,174.251208 C567.452692,174.251208 566.295152,174.749915 565.515944,175.748304 C564.735755,176.746694 564.346641,178.169619 564.346641,180.018055 C564.346641,182.014834 564.76712,183.468989 565.609056,184.38052 C566.450013,185.292051 567.588931,185.748792 569.02385,185.748792 C569.395321,185.748792 569.735429,185.741961 570.045152,185.730249 C570.354875,185.717562 570.657737,185.687308 570.954718,185.637535 C571.252679,185.588738 571.554561,185.514566 571.865264,185.41502 C572.174007,185.317425 572.538617,185.193481 572.960076,185.046113" id="Fill-55" fill="#000000"></path>
    <path d="M589.943104,177.948668 C589.892296,176.765883 589.559553,175.810481 588.943879,175.083439 C588.327208,174.356397 587.465464,173.993364 586.358645,173.993364 C585.100398,173.993364 584.145008,174.338831 583.49048,175.027813 C582.835953,175.718747 582.446425,176.691715 582.320899,177.948668 L589.943104,177.948668 Z M582.283042,181.608276 C582.382665,183.086757 582.910671,184.159266 583.867058,184.823851 C584.823445,185.489412 586.081691,185.822192 587.640801,185.822192 C588.496569,185.822192 589.371264,185.742168 590.263892,185.582122 C591.157516,185.422075 592.006309,185.193715 592.811269,184.898019 C593.088222,185.390846 593.326323,185.983215 593.528559,186.672197 C593.729799,187.362155 593.842373,188.101883 593.868275,188.890407 C591.90569,189.630136 589.692052,190 587.226367,190 C585.415209,190 583.862077,189.753098 582.565973,189.260271 C581.269869,188.767444 580.212863,188.083341 579.395949,187.208939 C578.578039,186.334537 577.974319,185.292281 577.584791,184.085098 C577.194266,182.877915 577,181.559481 577,180.129794 C577,178.724505 577.20124,177.407046 577.603719,176.17449 C578.006199,174.941934 578.602944,173.870401 579.395949,172.957939 C580.188953,172.046453 581.16925,171.325266 582.339827,170.795355 C583.509409,170.265444 584.873257,170 586.434359,170 C587.793226,170 589.000664,170.235191 590.056675,170.702645 C591.113682,171.171074 592.012287,171.812238 592.754483,172.625159 C593.496679,173.438079 594.056564,174.406168 594.434138,175.527471 C594.811711,176.648775 595,177.850102 595,179.131453 C595,179.599883 594.982068,180.062457 594.944211,180.517225 C594.905358,180.973944 594.861523,181.336977 594.811711,181.608276 L582.283042,181.608276 Z" id="Fill-57" fill="#000000"></path>
    <path d="M603.064801,181.238411 C601.610368,180.84415 600.473771,180.258612 599.656038,179.482775 C598.838305,178.705963 598.427895,177.54172 598.427895,175.98907 C598.427895,174.116327 599.135569,172.650532 600.551944,171.589734 C601.967291,170.530887 603.895906,170 606.337791,170 C607.350957,170 608.350751,170.086855 609.338202,170.259588 C610.325653,170.432322 611.324419,170.690934 612.338613,171.035425 C612.286155,171.676588 612.156552,172.342149 611.948776,173.032107 C611.741,173.722065 611.493108,174.326144 611.208188,174.843369 C610.584859,174.597443 609.896729,174.380794 609.142769,174.19635 C608.389837,174.011906 607.596791,173.919196 606.766715,173.919196 C605.883152,173.919196 605.193993,174.048014 604.701296,174.306626 C604.20757,174.566215 603.960708,174.979018 603.960708,175.546013 C603.960708,176.087635 604.136597,176.470186 604.487348,176.691715 C604.838099,176.913243 605.337996,177.12306 605.98704,177.320191 L608.207776,177.948668 C608.934993,178.145799 609.591236,178.385869 610.175478,178.668879 C610.75972,178.952864 611.259617,179.304187 611.67517,179.722846 C612.090722,180.141505 612.415758,180.659705 612.649249,181.275495 C612.883769,181.891285 613,182.642725 613,183.530789 C613,184.442276 612.799424,185.292281 612.396215,186.080804 C611.994034,186.870304 611.408764,187.554406 610.643489,188.132136 C609.876157,188.711818 608.948365,189.167561 607.857025,189.500342 C606.766715,189.833122 605.532401,190 604.156141,190 C603.532812,190 602.959885,189.980482 602.441473,189.944374 C601.922033,189.90729 601.421107,189.844833 600.941782,189.758954 C600.460399,189.673075 599.987245,189.567678 599.519235,189.444716 C599.052253,189.321753 598.545155,189.161706 598,188.964575 C598.05143,188.299014 598.174861,187.627598 598.370294,186.950327 C598.564699,186.27208 598.817733,185.61335 599.129397,184.972187 C599.987245,185.292281 600.798807,185.532351 601.56511,185.692398 C602.330385,185.853421 603.128574,185.933444 603.960708,185.933444 C604.32483,185.933444 604.720839,185.902215 605.148735,185.840734 C605.577659,185.779252 605.973668,185.668976 606.337791,185.507954 C606.700885,185.347907 607.006377,185.138089 607.25324,184.879477 C607.500103,184.620865 607.623534,184.282229 607.623534,183.862594 C607.623534,183.271201 607.434273,182.846687 607.058836,182.588075 C606.68237,182.329462 606.155729,182.101103 605.480971,181.903972 L603.064801,181.238411 Z" id="Fill-59" fill="#000000"></path>
  </g>
</svg>
