<?xml version="1.0" encoding="UTF-8"?>
<svg xmlns="http://www.w3.org/2000/svg" xmlns:xlink="http://www.w3.org/1999/xlink" width="207px" height="150px" viewBox="0 0 207 150" version="1.1">
  <!-- Generator: Sketch 64 (93537) - https://sketch.com -->
  <title>AP_logo_staand_ENG_zwart</title>
  <desc>Created with Sketch.</desc>
  <defs>
    <polygon id="path-1" points="0.06 0.76 206.826 0.76 206.826 149.57 0.06 149.57"></polygon>
    <polygon id="path-3" points="0.756 0.099 18.571 0.099 18.571 11.94 0.756 11.94"></polygon>
  </defs>
  <g id="AP_logo_staand_ENG_zwart" stroke="none" stroke-width="1" fill="none" fill-rule="evenodd">
    <polyline id="Fill-1" fill="#1A1919" points="87.065 0.76 41.002 92.881 87.065 92.881 87.065 0.76"></polyline>
    <polyline id="Fill-2" fill="#1A1919" points="87.065 0.76 87.065 92.881 133.127 92.881 87.065 0.76"></polyline>
    <g id="Group-7">
      <mask id="mask-2" fill="white">
        <use xlink:href="#path-1"></use>
      </mask>
      <g id="Clip-4"></g>
      <path d="M174.582,0.76 L142.333,0.76 L142.333,65.252 L174.582,65.252 C192.382,65.252 206.826,50.801 206.826,32.999 C206.826,15.197 192.382,0.76 174.582,0.76" id="Fill-3" fill="#1A1919" mask="url(#mask-2)"></path>
      <polygon id="Fill-5" fill="#1A1919" mask="url(#mask-2)" points="142.333 92.881 165.361 92.881 165.361 0.76 142.333 0.76"></polygon>
      <polygon id="Fill-6" fill="#1A1919" mask="url(#mask-2)" points="0.06 149.57 4.244 149.57 4.244 0.768 0.06 0.768"></polygon>
    </g>
    <path d="M44.974,108.378 L43.427,113.222 L46.47,113.222 L44.974,108.378 Z M47.881,117.711 L46.912,114.923 L42.985,114.923 L42.05,117.711 L39.738,117.711 L43.682,106.49 C43.819,106.434 44.008,106.38 44.252,106.329 C44.495,106.278 44.759,106.253 45.042,106.253 C45.167,106.253 45.306,106.263 45.459,106.287 C45.612,106.309 45.762,106.357 45.909,106.431 C46.056,106.505 46.195,106.609 46.326,106.746 C46.456,106.882 46.561,107.068 46.64,107.306 L50.296,117.711 L47.881,117.711 L47.881,117.711 Z" id="Fill-8" fill="#1A1919"></path>
    <path d="M56.993,109.789 C56.993,109.097 56.792,108.604 56.39,108.309 C55.987,108.014 55.463,107.868 54.817,107.868 C54.454,107.868 54.148,107.884 53.899,107.919 L53.899,111.999 L54.46,111.999 C55.287,111.999 55.916,111.837 56.347,111.514 C56.777,111.191 56.993,110.616 56.993,109.789 Z M59.373,109.67 C59.373,110.406 59.248,111.029 58.999,111.54 C58.75,112.049 58.413,112.461 57.987,112.772 C57.563,113.084 57.069,113.307 56.508,113.443 C55.947,113.58 55.355,113.647 54.732,113.647 L53.916,113.647 L53.916,117.711 L51.57,117.711 L51.57,106.388 C52.08,106.332 52.601,106.29 53.134,106.26 C53.667,106.233 54.148,106.218 54.579,106.218 C56.245,106.218 57.461,106.51 58.226,107.093 C58.99,107.677 59.373,108.536 59.373,109.67 L59.373,109.67 Z" id="Fill-9" fill="#1A1919"></path>
    <path d="M73.619,113.121 C73.619,113.347 73.613,113.574 73.602,113.8 C73.591,114.027 73.574,114.259 73.551,114.498 C73.506,114.973 73.39,115.424 73.203,115.849 C73.016,116.274 72.744,116.642 72.387,116.954 C72.029,117.265 71.585,117.512 71.052,117.693 C70.519,117.875 69.89,117.966 69.165,117.966 C68.428,117.966 67.805,117.886 67.295,117.727 C66.785,117.569 66.36,117.34 66.02,117.039 C65.68,116.739 65.419,116.371 65.238,115.934 C65.057,115.498 64.932,114.996 64.864,114.429 C64.841,114.225 64.824,114.016 64.813,113.8 C64.802,113.586 64.796,113.358 64.796,113.121 L64.796,106.338 C64.955,106.315 65.11,106.295 65.264,106.278 C65.417,106.26 65.533,106.253 65.612,106.253 C65.782,106.253 65.955,106.269 66.131,106.303 C66.306,106.338 66.468,106.403 66.615,106.499 C66.762,106.595 66.884,106.728 66.981,106.898 C67.077,107.068 67.125,107.296 67.125,107.579 L67.125,113.273 C67.125,113.681 67.15,114.049 67.202,114.379 C67.253,114.708 67.355,114.988 67.507,115.219 C67.661,115.452 67.873,115.633 68.145,115.764 C68.417,115.894 68.774,115.96 69.216,115.96 C69.987,115.96 70.525,115.736 70.831,115.288 C71.137,114.841 71.29,114.215 71.29,113.41 L71.29,106.338 C71.449,106.315 71.605,106.295 71.757,106.278 C71.911,106.26 72.026,106.253 72.106,106.253 C72.276,106.253 72.449,106.269 72.625,106.303 C72.8,106.338 72.962,106.403 73.109,106.499 C73.256,106.595 73.378,106.728 73.475,106.898 C73.571,107.068 73.619,107.296 73.619,107.579 L73.619,113.121" id="Fill-10" fill="#1A1919"></path>
    <path d="M84.839,117.711 L82.867,117.711 L78.022,110.23 L78.022,117.711 L75.795,117.711 L75.795,106.354 C75.908,106.332 76.061,106.309 76.254,106.287 C76.447,106.263 76.639,106.253 76.832,106.253 C77.195,106.253 77.478,106.315 77.682,106.439 C77.886,106.564 78.067,106.757 78.226,107.017 L82.612,114.174 L82.612,106.338 C82.771,106.315 82.918,106.295 83.054,106.278 C83.19,106.26 83.298,106.253 83.377,106.253 C83.547,106.253 83.717,106.269 83.887,106.303 C84.057,106.338 84.213,106.403 84.355,106.499 C84.496,106.595 84.612,106.728 84.703,106.898 C84.794,107.068 84.839,107.296 84.839,107.579 L84.839,117.711" id="Fill-11" fill="#1A1919"></path>
    <path d="M87.015,106.338 C87.173,106.315 87.329,106.295 87.483,106.278 C87.635,106.26 87.752,106.253 87.831,106.253 C88.001,106.253 88.173,106.269 88.349,106.303 C88.525,106.338 88.687,106.403 88.834,106.499 C88.981,106.595 89.103,106.728 89.199,106.898 C89.296,107.068 89.344,107.296 89.344,107.579 L89.344,117.711 L87.015,117.711 L87.015,106.338" id="Fill-12" fill="#1A1919"></path>
    <path d="M96.943,117.796 L94.359,117.796 L90.534,106.423 C90.647,106.378 90.82,106.338 91.052,106.303 C91.284,106.269 91.531,106.253 91.792,106.253 C92.222,106.253 92.565,106.36 92.82,106.576 C93.075,106.791 93.265,107.102 93.39,107.51 L95.719,115.246 L98.099,107.46 C98.223,107.063 98.407,106.762 98.651,106.558 C98.895,106.354 99.232,106.253 99.663,106.253 C99.991,106.253 100.377,106.309 100.819,106.423 L96.943,117.796" id="Fill-13" fill="#1A1919"></path>
    <path d="M108.078,115.909 C108.622,115.909 108.993,116.033 109.191,116.282 C109.389,116.532 109.488,116.809 109.488,117.115 C109.488,117.24 109.485,117.344 109.48,117.43 C109.474,117.515 109.465,117.608 109.455,117.711 L102.093,117.711 L102.093,106.32 L109.183,106.32 C109.205,106.445 109.219,106.549 109.225,106.634 C109.231,106.719 109.233,106.825 109.233,106.949 C109.233,107.346 109.131,107.643 108.927,107.841 C108.724,108.041 108.344,108.139 107.789,108.139 L104.44,108.139 L104.44,110.944 L108.044,110.944 L108.044,112.763 L104.44,112.763 L104.44,115.909 L108.078,115.909" id="Fill-14" fill="#1A1919"></path>
    <path d="M116.339,109.805 C116.339,109.091 116.152,108.59 115.778,108.3 C115.404,108.011 114.894,107.868 114.248,107.868 C114.045,107.868 113.868,107.874 113.721,107.884 C113.574,107.896 113.449,107.907 113.347,107.919 L113.347,111.845 L114.146,111.845 C114.826,111.845 115.362,111.678 115.753,111.343 C116.144,111.009 116.339,110.497 116.339,109.805 Z M118.787,109.585 C118.787,110.06 118.728,110.48 118.609,110.842 C118.49,111.205 118.328,111.522 118.124,111.795 C117.921,112.066 117.688,112.294 117.427,112.474 C117.167,112.656 116.9,112.798 116.629,112.899 L119.433,117.591 C119.218,117.682 118.991,117.753 118.754,117.803 C118.515,117.855 118.289,117.881 118.073,117.881 C117.654,117.881 117.302,117.79 117.019,117.608 C116.736,117.427 116.475,117.133 116.237,116.724 L114.299,113.426 L113.364,113.426 L113.364,117.711 L111.018,117.711 L111.018,106.388 C111.528,106.332 112.049,106.29 112.582,106.26 C113.115,106.233 113.596,106.218 114.027,106.218 C115.671,106.218 116.875,106.496 117.64,107.051 C118.405,107.607 118.787,108.451 118.787,109.585 L118.787,109.585 Z" id="Fill-15" fill="#1A1919"></path>
    <path d="M120.759,115.092 C121.076,115.341 121.465,115.589 121.924,115.832 C122.383,116.076 122.929,116.197 123.564,116.197 C123.802,116.197 124.034,116.17 124.261,116.112 C124.488,116.055 124.689,115.967 124.865,115.849 C125.04,115.73 125.185,115.574 125.298,115.382 C125.411,115.189 125.468,114.951 125.468,114.668 C125.468,114.373 125.406,114.124 125.281,113.92 C125.156,113.716 124.992,113.543 124.788,113.401 C124.584,113.259 124.346,113.137 124.074,113.036 C123.802,112.933 123.525,112.832 123.241,112.729 C122.879,112.605 122.513,112.468 122.145,112.321 C121.776,112.174 121.445,111.981 121.15,111.744 C120.856,111.506 120.615,111.202 120.428,110.834 C120.241,110.466 120.147,109.999 120.147,109.431 C120.147,108.887 120.255,108.406 120.47,107.986 C120.685,107.567 120.98,107.218 121.354,106.941 C121.728,106.664 122.159,106.454 122.646,106.312 C123.133,106.171 123.649,106.099 124.193,106.099 C124.567,106.099 124.916,106.128 125.239,106.184 C125.562,106.241 125.851,106.309 126.106,106.388 C126.361,106.467 126.576,106.549 126.752,106.634 C126.927,106.719 127.06,106.797 127.151,106.864 C127.468,107.046 127.627,107.3 127.627,107.63 C127.627,107.765 127.567,107.95 127.449,108.182 C127.33,108.415 127.162,108.644 126.947,108.871 C126.664,108.644 126.298,108.428 125.851,108.224 C125.403,108.02 124.924,107.919 124.414,107.919 C124.21,107.919 124.001,107.938 123.785,107.978 C123.57,108.017 123.374,108.086 123.199,108.182 C123.023,108.278 122.879,108.412 122.765,108.582 C122.652,108.752 122.595,108.962 122.595,109.211 C122.595,109.448 122.652,109.655 122.765,109.831 C122.879,110.007 123.031,110.16 123.224,110.29 C123.417,110.421 123.641,110.537 123.896,110.638 C124.15,110.74 124.414,110.842 124.686,110.944 C125.049,111.081 125.417,111.228 125.791,111.386 C126.165,111.546 126.505,111.747 126.811,111.99 C127.117,112.234 127.366,112.54 127.559,112.908 C127.752,113.276 127.848,113.738 127.848,114.294 C127.848,114.894 127.743,115.424 127.534,115.883 C127.324,116.341 127.032,116.73 126.658,117.048 C126.284,117.365 125.834,117.603 125.307,117.761 C124.78,117.92 124.204,118 123.581,118 C122.765,118 122.105,117.917 121.601,117.753 C121.096,117.589 120.731,117.438 120.504,117.302 C120.368,117.212 120.255,117.104 120.164,116.979 C120.073,116.855 120.028,116.714 120.028,116.554 C120.028,116.362 120.105,116.13 120.258,115.857 C120.411,115.586 120.578,115.331 120.759,115.092" id="Fill-16" fill="#1A1919"></path>
    <path d="M129.513,106.338 C129.672,106.315 129.828,106.295 129.982,106.278 C130.134,106.26 130.251,106.253 130.33,106.253 C130.5,106.253 130.672,106.269 130.848,106.303 C131.024,106.338 131.185,106.403 131.334,106.499 C131.48,106.595 131.602,106.728 131.699,106.898 C131.795,107.068 131.843,107.296 131.843,107.579 L131.843,117.711 L129.513,117.711 L129.513,106.338" id="Fill-17" fill="#1A1919"></path>
    <path d="M136.636,108.224 L133.084,108.224 L133.084,108.208 C133.061,108.071 133.046,107.959 133.041,107.868 C133.035,107.777 133.033,107.67 133.033,107.545 C133.033,107.238 133.143,106.958 133.365,106.703 C133.586,106.448 133.957,106.32 134.478,106.32 L142.468,106.32 C142.502,106.558 142.519,106.802 142.519,107.051 C142.519,107.346 142.417,107.615 142.212,107.859 C142.009,108.103 141.646,108.224 141.125,108.224 L138.982,108.224 L138.982,117.711 L136.636,117.711 L136.636,108.224" id="Fill-18" fill="#1A1919"></path>
    <path d="M148.689,113.341 L148.689,117.711 L146.361,117.711 L146.361,113.41 L142.722,106.592 C142.916,106.502 143.142,106.423 143.403,106.354 C143.664,106.287 143.907,106.253 144.134,106.253 C144.542,106.253 144.845,106.329 145.043,106.482 C145.242,106.634 145.42,106.864 145.579,107.171 L147.568,111.132 L149.556,107.205 C149.693,106.932 149.874,106.706 150.101,106.524 C150.328,106.343 150.644,106.253 151.052,106.253 C151.313,106.253 151.54,106.275 151.732,106.32 C151.925,106.366 152.129,106.428 152.345,106.508 L148.689,113.341" id="Fill-19" fill="#1A1919"></path>
    <path d="M164.5,111.999 C164.5,111.455 164.455,110.939 164.364,110.452 C164.273,109.965 164.121,109.536 163.905,109.168 C163.689,108.799 163.412,108.508 163.072,108.293 C162.732,108.077 162.312,107.969 161.814,107.969 C161.293,107.969 160.853,108.077 160.496,108.293 C160.139,108.508 159.85,108.799 159.629,109.168 C159.408,109.536 159.25,109.965 159.154,110.452 C159.056,110.939 159.009,111.455 159.009,111.999 C159.009,112.543 159.056,113.064 159.154,113.562 C159.25,114.061 159.406,114.504 159.621,114.888 C159.836,115.274 160.119,115.58 160.47,115.806 C160.822,116.033 161.254,116.146 161.763,116.146 C162.273,116.146 162.703,116.033 163.054,115.806 C163.406,115.58 163.687,115.274 163.896,114.888 C164.106,114.504 164.259,114.061 164.355,113.562 C164.451,113.064 164.5,112.543 164.5,111.999 Z M166.896,111.981 C166.896,112.798 166.8,113.571 166.608,114.301 C166.416,115.033 166.109,115.674 165.69,116.223 C165.271,116.773 164.732,117.206 164.075,117.523 C163.418,117.841 162.625,118 161.695,118 C160.777,118 159.995,117.838 159.349,117.515 C158.703,117.192 158.175,116.756 157.767,116.206 C157.36,115.656 157.062,115.019 156.875,114.294 C156.688,113.568 156.595,112.803 156.595,111.999 C156.595,111.205 156.697,110.452 156.901,109.737 C157.105,109.023 157.421,108.397 157.853,107.859 C158.283,107.321 158.828,106.893 159.485,106.576 C160.142,106.258 160.923,106.099 161.831,106.099 C162.726,106.099 163.494,106.253 164.134,106.558 C164.775,106.864 165.298,107.281 165.707,107.808 C166.115,108.335 166.416,108.956 166.608,109.67 C166.8,110.383 166.896,111.154 166.896,111.981 L166.896,111.981 Z" id="Fill-20" fill="#1A1919"></path>
    <path d="M171.232,110.792 L174.886,110.792 L174.886,112.61 L171.232,112.61 L171.232,117.711 L168.902,117.711 L168.902,106.32 L176.043,106.32 C176.065,106.445 176.08,106.549 176.086,106.634 C176.09,106.719 176.093,106.825 176.093,106.949 C176.093,107.29 175.994,107.573 175.796,107.799 C175.597,108.026 175.238,108.139 174.716,108.139 L171.232,108.139 L171.232,110.792" id="Fill-21" fill="#1A1919"></path>
    <path d="M44.974,124.378 L43.427,129.222 L46.47,129.222 L44.974,124.378 Z M47.881,133.711 L46.912,130.923 L42.985,130.923 L42.05,133.711 L39.738,133.711 L43.682,122.49 C43.819,122.434 44.008,122.38 44.252,122.329 C44.495,122.278 44.759,122.253 45.042,122.253 C45.167,122.253 45.306,122.263 45.459,122.287 C45.612,122.309 45.762,122.357 45.909,122.431 C46.056,122.505 46.195,122.609 46.326,122.746 C46.456,122.882 46.561,123.068 46.64,123.306 L50.296,133.711 L47.881,133.711 L47.881,133.711 Z" id="Fill-22" fill="#1A1919"></path>
    <path d="M56.993,125.789 C56.993,125.097 56.792,124.604 56.39,124.309 C55.987,124.014 55.463,123.868 54.817,123.868 C54.454,123.868 54.148,123.884 53.899,123.919 L53.899,127.999 L54.46,127.999 C55.287,127.999 55.916,127.837 56.347,127.514 C56.777,127.191 56.993,126.616 56.993,125.789 Z M59.373,125.67 C59.373,126.406 59.248,127.029 58.999,127.54 C58.75,128.049 58.413,128.461 57.987,128.772 C57.563,129.084 57.069,129.307 56.508,129.443 C55.947,129.58 55.355,129.647 54.732,129.647 L53.916,129.647 L53.916,133.711 L51.57,133.711 L51.57,122.388 C52.08,122.332 52.601,122.29 53.134,122.26 C53.667,122.233 54.148,122.218 54.579,122.218 C56.245,122.218 57.461,122.51 58.226,123.093 C58.99,123.677 59.373,124.536 59.373,125.67 L59.373,125.67 Z" id="Fill-23" fill="#1A1919"></path>
    <path d="M66.394,125.789 C66.394,125.097 66.193,124.604 65.791,124.309 C65.388,124.014 64.864,123.868 64.218,123.868 C63.855,123.868 63.549,123.884 63.3,123.919 L63.3,127.999 L63.861,127.999 C64.688,127.999 65.317,127.837 65.748,127.514 C66.178,127.191 66.394,126.616 66.394,125.789 Z M68.774,125.67 C68.774,126.406 68.649,127.029 68.4,127.54 C68.15,128.049 67.814,128.461 67.388,128.772 C66.964,129.084 66.47,129.307 65.909,129.443 C65.348,129.58 64.756,129.647 64.133,129.647 L63.317,129.647 L63.317,133.711 L60.971,133.711 L60.971,122.388 C61.481,122.332 62.002,122.29 62.535,122.26 C63.068,122.233 63.549,122.218 63.98,122.218 C65.646,122.218 66.861,122.51 67.627,123.093 C68.391,123.677 68.774,124.536 68.774,125.67 L68.774,125.67 Z" id="Fill-24" fill="#1A1919"></path>
    <path d="M72.718,131.823 L76.033,131.823 C76.305,131.823 76.531,131.857 76.713,131.925 C76.894,131.994 77.036,132.085 77.138,132.197 C77.24,132.311 77.311,132.441 77.35,132.589 C77.39,132.736 77.41,132.883 77.41,133.03 C77.41,133.144 77.407,133.28 77.402,133.438 C77.396,133.597 77.387,133.688 77.376,133.711 L70.372,133.711 L70.372,122.338 C70.53,122.315 70.686,122.295 70.839,122.278 C70.992,122.26 71.109,122.253 71.188,122.253 C71.358,122.253 71.53,122.269 71.706,122.303 C71.882,122.338 72.047,122.403 72.199,122.499 C72.352,122.595 72.477,122.728 72.573,122.898 C72.67,123.068 72.718,123.296 72.718,123.579 L72.718,131.823" id="Fill-25" fill="#1A1919"></path>
    <path d="M78.855,122.338 C79.013,122.315 79.169,122.295 79.322,122.278 C79.475,122.26 79.591,122.253 79.671,122.253 C79.841,122.253 80.013,122.269 80.189,122.303 C80.365,122.338 80.527,122.403 80.674,122.499 C80.821,122.595 80.943,122.728 81.039,122.898 C81.135,123.068 81.184,123.296 81.184,123.579 L81.184,133.711 L78.855,133.711 L78.855,122.338" id="Fill-26" fill="#1A1919"></path>
    <path d="M89.429,131.909 C89.973,131.909 90.344,132.033 90.542,132.282 C90.74,132.532 90.839,132.809 90.839,133.115 C90.839,133.24 90.837,133.344 90.831,133.43 C90.825,133.515 90.817,133.608 90.806,133.711 L83.444,133.711 L83.444,122.32 L90.534,122.32 C90.556,122.445 90.57,122.549 90.576,122.634 C90.582,122.719 90.585,122.825 90.585,122.949 C90.585,123.346 90.483,123.643 90.278,123.841 C90.075,124.041 89.695,124.139 89.14,124.139 L85.791,124.139 L85.791,126.944 L89.395,126.944 L89.395,128.763 L85.791,128.763 L85.791,131.909 L89.429,131.909" id="Fill-27" fill="#1A1919"></path>
    <path d="M99.033,127.862 C99.033,127.33 98.983,126.831 98.881,126.366 C98.778,125.902 98.603,125.497 98.354,125.151 C98.104,124.805 97.767,124.533 97.342,124.335 C96.917,124.136 96.381,124.038 95.735,124.038 C95.406,124.038 95.066,124.054 94.715,124.089 L94.715,131.925 L95.651,131.925 C96.319,131.925 96.872,131.826 97.308,131.628 C97.744,131.429 98.09,131.152 98.345,130.795 C98.6,130.438 98.778,130.01 98.881,129.511 C98.983,129.012 99.033,128.464 99.033,127.862 Z M101.413,127.829 C101.413,128.633 101.306,129.392 101.09,130.106 C100.875,130.82 100.546,131.444 100.105,131.976 C99.662,132.509 99.098,132.931 98.413,133.243 C97.727,133.554 96.92,133.711 95.99,133.711 L92.369,133.711 L92.369,122.423 C93.094,122.332 93.715,122.275 94.231,122.253 C94.747,122.23 95.191,122.218 95.566,122.218 C96.698,122.218 97.639,122.369 98.387,122.669 C99.135,122.969 99.733,123.375 100.181,123.884 C100.629,124.394 100.946,124.989 101.133,125.67 C101.32,126.349 101.413,127.069 101.413,127.829 L101.413,127.829 Z" id="Fill-28" fill="#1A1919"></path>
    <path d="M107.176,131.092 C107.493,131.341 107.882,131.589 108.341,131.832 C108.8,132.076 109.346,132.197 109.981,132.197 C110.219,132.197 110.451,132.17 110.678,132.112 C110.905,132.055 111.106,131.967 111.282,131.849 C111.457,131.73 111.602,131.574 111.715,131.382 C111.828,131.189 111.885,130.951 111.885,130.668 C111.885,130.373 111.823,130.124 111.698,129.92 C111.573,129.716 111.409,129.543 111.205,129.401 C111.001,129.259 110.763,129.137 110.491,129.036 C110.219,128.933 109.941,128.832 109.658,128.729 C109.296,128.605 108.93,128.468 108.562,128.321 C108.193,128.174 107.862,127.981 107.567,127.744 C107.273,127.506 107.032,127.202 106.845,126.834 C106.658,126.466 106.564,125.999 106.564,125.431 C106.564,124.887 106.672,124.406 106.887,123.986 C107.102,123.567 107.397,123.218 107.771,122.941 C108.145,122.664 108.576,122.454 109.063,122.312 C109.55,122.171 110.066,122.099 110.61,122.099 C110.984,122.099 111.333,122.128 111.656,122.184 C111.979,122.241 112.268,122.309 112.523,122.388 C112.778,122.467 112.993,122.549 113.169,122.634 C113.344,122.719 113.477,122.797 113.568,122.864 C113.885,123.046 114.044,123.3 114.044,123.63 C114.044,123.765 113.984,123.95 113.866,124.182 C113.747,124.415 113.579,124.644 113.364,124.871 C113.081,124.644 112.715,124.428 112.268,124.224 C111.82,124.02 111.341,123.919 110.831,123.919 C110.627,123.919 110.418,123.938 110.202,123.978 C109.987,124.017 109.791,124.086 109.616,124.182 C109.44,124.278 109.296,124.412 109.182,124.582 C109.069,124.752 109.012,124.962 109.012,125.211 C109.012,125.448 109.069,125.655 109.182,125.831 C109.296,126.007 109.448,126.16 109.641,126.29 C109.834,126.421 110.058,126.537 110.313,126.638 C110.567,126.74 110.831,126.842 111.103,126.944 C111.466,127.081 111.834,127.228 112.208,127.386 C112.582,127.546 112.922,127.747 113.228,127.99 C113.534,128.234 113.783,128.54 113.976,128.908 C114.169,129.276 114.265,129.738 114.265,130.294 C114.265,130.894 114.16,131.424 113.951,131.882 C113.741,132.341 113.449,132.73 113.075,133.048 C112.701,133.365 112.251,133.603 111.724,133.761 C111.197,133.92 110.621,134 109.998,134 C109.182,134 108.522,133.917 108.018,133.753 C107.513,133.589 107.148,133.438 106.921,133.302 C106.785,133.212 106.672,133.104 106.581,132.979 C106.49,132.855 106.445,132.714 106.445,132.554 C106.445,132.362 106.522,132.13 106.675,131.857 C106.828,131.586 106.995,131.331 107.176,131.092" id="Fill-29" fill="#1A1919"></path>
    <path d="M124.142,133.064 C124.074,133.132 123.963,133.217 123.81,133.319 C123.657,133.422 123.45,133.523 123.19,133.626 C122.929,133.727 122.614,133.815 122.246,133.889 C121.878,133.963 121.456,134 120.98,134 C120.062,134 119.269,133.852 118.6,133.557 C117.931,133.262 117.379,132.852 116.942,132.325 C116.506,131.798 116.186,131.174 115.982,130.455 C115.778,129.735 115.676,128.945 115.676,128.084 C115.676,127.222 115.786,126.425 116.007,125.695 C116.229,124.964 116.56,124.333 117.002,123.799 C117.444,123.267 117.996,122.85 118.659,122.549 C119.322,122.25 120.102,122.099 120.997,122.099 C121.439,122.099 121.838,122.139 122.195,122.218 C122.552,122.298 122.864,122.391 123.13,122.499 C123.397,122.607 123.617,122.719 123.794,122.839 C123.969,122.958 124.102,123.057 124.193,123.136 C124.295,123.227 124.382,123.335 124.456,123.46 C124.53,123.585 124.567,123.72 124.567,123.868 C124.567,124.094 124.482,124.321 124.312,124.548 C124.142,124.774 123.955,124.984 123.751,125.176 C123.615,125.041 123.462,124.902 123.292,124.759 C123.122,124.618 122.932,124.494 122.722,124.385 C122.512,124.278 122.275,124.188 122.008,124.114 C121.742,124.041 121.444,124.004 121.116,124.004 C120.538,124.004 120.053,124.12 119.662,124.352 C119.272,124.585 118.957,124.887 118.719,125.261 C118.481,125.635 118.311,126.063 118.209,126.545 C118.107,127.027 118.056,127.517 118.056,128.015 C118.056,128.549 118.107,129.058 118.209,129.546 C118.311,130.033 118.486,130.464 118.736,130.838 C118.985,131.212 119.311,131.511 119.713,131.738 C120.115,131.966 120.617,132.079 121.218,132.079 C121.535,132.079 121.827,132.039 122.093,131.96 C122.359,131.881 122.595,131.784 122.799,131.671 C123.003,131.557 123.181,131.438 123.335,131.313 C123.487,131.189 123.615,131.081 123.717,130.99 C123.785,131.07 123.864,131.167 123.955,131.279 C124.046,131.393 124.13,131.511 124.21,131.636 C124.289,131.761 124.357,131.885 124.414,132.01 C124.47,132.135 124.499,132.249 124.499,132.35 C124.499,132.498 124.47,132.623 124.414,132.724 C124.357,132.827 124.266,132.94 124.142,133.064" id="Fill-30" fill="#1A1919"></path>
    <path d="M126.25,122.338 C126.408,122.315 126.564,122.295 126.717,122.278 C126.87,122.26 126.986,122.253 127.066,122.253 C127.236,122.253 127.408,122.269 127.584,122.303 C127.76,122.338 127.921,122.403 128.069,122.499 C128.216,122.595 128.338,122.728 128.434,122.898 C128.53,123.068 128.579,123.296 128.579,123.579 L128.579,133.711 L126.25,133.711 L126.25,122.338" id="Fill-31" fill="#1A1919"></path>
    <path d="M136.824,131.909 C137.368,131.909 137.739,132.033 137.937,132.282 C138.135,132.532 138.234,132.809 138.234,133.115 C138.234,133.24 138.232,133.344 138.226,133.43 C138.22,133.515 138.212,133.608 138.201,133.711 L130.839,133.711 L130.839,122.32 L137.929,122.32 C137.951,122.445 137.965,122.549 137.971,122.634 C137.976,122.719 137.98,122.825 137.98,122.949 C137.98,123.346 137.878,123.643 137.673,123.841 C137.47,124.041 137.089,124.139 136.535,124.139 L133.185,124.139 L133.185,126.944 L136.79,126.944 L136.79,128.763 L133.185,128.763 L133.185,131.909 L136.824,131.909" id="Fill-32" fill="#1A1919"></path>
    <path d="M148.723,133.711 L146.752,133.711 L141.906,126.23 L141.906,133.711 L139.679,133.711 L139.679,122.354 C139.793,122.332 139.945,122.309 140.138,122.287 C140.332,122.263 140.523,122.253 140.716,122.253 C141.08,122.253 141.363,122.315 141.566,122.439 C141.771,122.564 141.952,122.757 142.111,123.017 L146.496,130.174 L146.496,122.338 C146.655,122.315 146.802,122.295 146.939,122.278 C147.074,122.26 147.182,122.253 147.261,122.253 C147.431,122.253 147.601,122.269 147.771,122.303 C147.941,122.338 148.097,122.403 148.239,122.499 C148.38,122.595 148.497,122.728 148.587,122.898 C148.677,123.068 148.723,123.296 148.723,123.579 L148.723,133.711" id="Fill-33" fill="#1A1919"></path>
    <path d="M159.11,133.064 C159.043,133.132 158.931,133.217 158.779,133.319 C158.626,133.422 158.419,133.523 158.158,133.626 C157.897,133.727 157.583,133.815 157.214,133.889 C156.846,133.963 156.423,134 155.949,134 C155.031,134 154.237,133.852 153.568,133.557 C152.9,133.262 152.347,132.852 151.911,132.325 C151.474,131.798 151.154,131.174 150.951,130.455 C150.746,129.735 150.644,128.945 150.644,128.084 C150.644,127.222 150.754,126.425 150.976,125.695 C151.197,124.964 151.528,124.333 151.97,123.799 C152.412,123.267 152.964,122.85 153.628,122.549 C154.291,122.25 155.07,122.099 155.964,122.099 C156.408,122.099 156.806,122.139 157.164,122.218 C157.521,122.298 157.832,122.391 158.099,122.499 C158.365,122.607 158.586,122.719 158.761,122.839 C158.937,122.958 159.07,123.057 159.162,123.136 C159.263,123.227 159.351,123.335 159.424,123.46 C159.498,123.585 159.535,123.72 159.535,123.868 C159.535,124.094 159.451,124.321 159.281,124.548 C159.11,124.774 158.923,124.984 158.719,125.176 C158.584,125.041 158.43,124.902 158.26,124.759 C158.089,124.618 157.9,124.494 157.691,124.385 C157.48,124.278 157.243,124.188 156.976,124.114 C156.711,124.041 156.413,124.004 156.084,124.004 C155.505,124.004 155.021,124.12 154.63,124.352 C154.24,124.585 153.925,124.887 153.687,125.261 C153.449,125.635 153.279,126.063 153.177,126.545 C153.076,127.027 153.024,127.517 153.024,128.015 C153.024,128.549 153.076,129.058 153.177,129.546 C153.279,130.033 153.455,130.464 153.705,130.838 C153.953,131.212 154.279,131.511 154.681,131.738 C155.084,131.966 155.586,132.079 156.186,132.079 C156.504,132.079 156.795,132.039 157.062,131.96 C157.328,131.881 157.563,131.784 157.767,131.671 C157.971,131.557 158.15,131.438 158.302,131.313 C158.456,131.189 158.584,131.081 158.685,130.99 C158.754,131.07 158.832,131.167 158.923,131.279 C159.013,131.393 159.099,131.511 159.178,131.636 C159.257,131.761 159.326,131.885 159.382,132.01 C159.439,132.135 159.466,132.249 159.466,132.35 C159.466,132.498 159.439,132.623 159.382,132.724 C159.326,132.827 159.234,132.94 159.11,133.064" id="Fill-34" fill="#1A1919"></path>
    <path d="M167.287,131.909 C167.832,131.909 168.203,132.033 168.4,132.282 C168.599,132.532 168.698,132.809 168.698,133.115 C168.698,133.24 168.695,133.344 168.689,133.43 C168.683,133.515 168.675,133.608 168.664,133.711 L161.302,133.711 L161.302,122.32 L168.392,122.32 C168.415,122.445 168.429,122.549 168.435,122.634 C168.44,122.719 168.443,122.825 168.443,122.949 C168.443,123.346 168.341,123.643 168.136,123.841 C167.933,124.041 167.553,124.139 166.998,124.139 L163.649,124.139 L163.649,126.944 L167.254,126.944 L167.254,128.763 L163.649,128.763 L163.649,131.909 L167.287,131.909" id="Fill-35" fill="#1A1919"></path>
    <path d="M170.194,131.092 C170.511,131.341 170.9,131.589 171.359,131.832 C171.818,132.076 172.364,132.197 172.999,132.197 C173.237,132.197 173.468,132.17 173.696,132.112 C173.922,132.055 174.124,131.967 174.299,131.849 C174.474,131.73 174.619,131.574 174.733,131.382 C174.845,131.189 174.903,130.951 174.903,130.668 C174.903,130.373 174.84,130.124 174.716,129.92 C174.591,129.716 174.427,129.543 174.222,129.401 C174.019,129.259 173.781,129.137 173.509,129.036 C173.237,128.933 172.959,128.832 172.675,128.729 C172.313,128.605 171.947,128.468 171.58,128.321 C171.211,128.174 170.879,127.981 170.585,127.744 C170.291,127.506 170.049,127.202 169.863,126.834 C169.675,126.466 169.582,125.999 169.582,125.431 C169.582,124.887 169.689,124.406 169.905,123.986 C170.12,123.567 170.415,123.218 170.789,122.941 C171.163,122.664 171.593,122.454 172.081,122.312 C172.568,122.171 173.084,122.099 173.629,122.099 C174.002,122.099 174.35,122.128 174.673,122.184 C174.996,122.241 175.285,122.309 175.541,122.388 C175.796,122.467 176.01,122.549 176.186,122.634 C176.362,122.719 176.495,122.797 176.586,122.864 C176.903,123.046 177.062,123.3 177.062,123.63 C177.062,123.765 177.002,123.95 176.883,124.182 C176.764,124.415 176.597,124.644 176.382,124.871 C176.098,124.644 175.733,124.428 175.285,124.224 C174.837,124.02 174.359,123.919 173.849,123.919 C173.644,123.919 173.435,123.938 173.22,123.978 C173.004,124.017 172.808,124.086 172.633,124.182 C172.458,124.278 172.313,124.412 172.2,124.582 C172.087,124.752 172.03,124.962 172.03,125.211 C172.03,125.448 172.087,125.655 172.2,125.831 C172.313,126.007 172.466,126.16 172.659,126.29 C172.851,126.421 173.076,126.537 173.33,126.638 C173.586,126.74 173.849,126.842 174.121,126.944 C174.484,127.081 174.851,127.228 175.226,127.386 C175.599,127.546 175.939,127.747 176.246,127.99 C176.552,128.234 176.8,128.54 176.994,128.908 C177.186,129.276 177.283,129.738 177.283,130.294 C177.283,130.894 177.177,131.424 176.968,131.882 C176.758,132.341 176.466,132.73 176.093,133.048 C175.718,133.365 175.268,133.603 174.742,133.761 C174.214,133.92 173.638,134 173.015,134 C172.2,134 171.54,133.917 171.035,133.753 C170.531,133.589 170.166,133.438 169.939,133.302 C169.802,133.212 169.689,133.104 169.599,132.979 C169.507,132.855 169.462,132.714 169.462,132.554 C169.462,132.362 169.539,132.13 169.693,131.857 C169.845,131.586 170.012,131.331 170.194,131.092" id="Fill-36" fill="#1A1919"></path>
    <path d="M44.974,140.378 L43.427,145.222 L46.47,145.222 L44.974,140.378 Z M47.881,149.711 L46.912,146.923 L42.985,146.923 L42.05,149.711 L39.738,149.711 L43.682,138.49 C43.819,138.434 44.008,138.38 44.252,138.329 C44.495,138.278 44.759,138.253 45.042,138.253 C45.167,138.253 45.306,138.263 45.459,138.287 C45.612,138.309 45.762,138.357 45.909,138.431 C46.056,138.505 46.195,138.609 46.326,138.746 C46.456,138.882 46.561,139.068 46.64,139.306 L50.296,149.711 L47.881,149.711 L47.881,149.711 Z" id="Fill-37" fill="#1A1919"></path>
    <path d="M60.529,149.711 L58.557,149.711 L53.712,142.23 L53.712,149.711 L51.485,149.711 L51.485,138.354 C51.598,138.332 51.751,138.309 51.944,138.287 C52.137,138.263 52.329,138.253 52.522,138.253 C52.885,138.253 53.168,138.315 53.372,138.439 C53.576,138.564 53.757,138.757 53.916,139.017 L58.302,146.174 L58.302,138.338 C58.461,138.315 58.608,138.295 58.744,138.278 C58.88,138.26 58.988,138.253 59.067,138.253 C59.237,138.253 59.407,138.269 59.577,138.303 C59.747,138.338 59.903,138.403 60.045,138.499 C60.186,138.595 60.302,138.728 60.393,138.898 C60.484,139.068 60.529,139.296 60.529,139.579 L60.529,149.711" id="Fill-38" fill="#1A1919"></path>
    <path d="M69.454,143.862 C69.454,143.33 69.403,142.831 69.301,142.366 C69.199,141.902 69.023,141.497 68.774,141.151 C68.525,140.805 68.187,140.533 67.762,140.335 C67.338,140.136 66.802,140.038 66.156,140.038 C65.827,140.038 65.487,140.054 65.136,140.089 L65.136,147.925 L66.071,147.925 C66.739,147.925 67.292,147.826 67.728,147.628 C68.165,147.429 68.51,147.152 68.765,146.795 C69.02,146.438 69.199,146.01 69.301,145.511 C69.403,145.012 69.454,144.464 69.454,143.862 Z M71.834,143.829 C71.834,144.633 71.726,145.392 71.511,146.106 C71.296,146.82 70.967,147.444 70.525,147.976 C70.083,148.509 69.519,148.931 68.833,149.243 C68.148,149.554 67.34,149.711 66.411,149.711 L62.79,149.711 L62.79,138.423 C63.515,138.332 64.135,138.275 64.652,138.253 C65.167,138.23 65.612,138.218 65.986,138.218 C67.119,138.218 68.06,138.369 68.808,138.669 C69.556,138.969 70.153,139.375 70.601,139.884 C71.049,140.394 71.366,140.989 71.553,141.67 C71.74,142.349 71.834,143.069 71.834,143.829 L71.834,143.829 Z" id="Fill-39" fill="#1A1919"></path>
    <path d="M81.796,140.378 L80.249,145.222 L83.292,145.222 L81.796,140.378 Z M84.703,149.711 L83.734,146.923 L79.807,146.923 L78.872,149.711 L76.56,149.711 L80.504,138.49 C80.64,138.434 80.829,138.38 81.073,138.329 C81.316,138.278 81.58,138.253 81.863,138.253 C81.988,138.253 82.127,138.263 82.28,138.287 C82.433,138.309 82.583,138.357 82.731,138.431 C82.878,138.505 83.017,138.609 83.147,138.746 C83.277,138.882 83.382,139.068 83.462,139.306 L87.117,149.711 L84.703,149.711 L84.703,149.711 Z" id="Fill-40" fill="#1A1919"></path>
    <path d="M93.713,141.805 C93.713,141.091 93.525,140.59 93.152,140.3 C92.777,140.011 92.267,139.868 91.621,139.868 C91.418,139.868 91.241,139.874 91.094,139.884 C90.947,139.896 90.822,139.907 90.72,139.919 L90.72,143.845 L91.519,143.845 C92.199,143.845 92.735,143.678 93.126,143.343 C93.517,143.009 93.713,142.497 93.713,141.805 Z M96.16,141.585 C96.16,142.06 96.101,142.48 95.982,142.842 C95.863,143.205 95.701,143.522 95.497,143.795 C95.294,144.066 95.061,144.294 94.8,144.474 C94.54,144.656 94.274,144.798 94.002,144.899 L96.806,149.591 C96.591,149.682 96.364,149.753 96.127,149.803 C95.888,149.855 95.662,149.881 95.446,149.881 C95.027,149.881 94.675,149.79 94.392,149.608 C94.109,149.427 93.848,149.132 93.61,148.724 L91.673,145.426 L90.737,145.426 L90.737,149.711 L88.391,149.711 L88.391,138.388 C88.901,138.332 89.423,138.29 89.955,138.26 C90.488,138.233 90.969,138.218 91.4,138.218 C93.044,138.218 94.248,138.496 95.013,139.051 C95.778,139.607 96.16,140.451 96.16,141.585 L96.16,141.585 Z" id="Fill-41" fill="#1A1919"></path>
    <g id="Group-45" transform="translate(96.000000, 138.000000)">
      <mask id="mask-4" fill="white">
        <use xlink:href="#path-3"></use>
      </mask>
      <g id="Clip-43"></g>
      <path d="M4.359,2.224 L0.806,2.224 L0.806,2.208 C0.784,2.071 0.77,1.959 0.764,1.868 C0.758,1.777 0.756,1.67 0.756,1.545 C0.756,1.238 0.866,0.958 1.087,0.703 C1.308,0.448 1.679,0.32 2.2,0.32 L10.191,0.32 C10.224,0.558 10.241,0.802 10.241,1.051 C10.241,1.346 10.139,1.615 9.936,1.859 C9.732,2.103 9.369,2.224 8.847,2.224 L6.705,2.224 L6.705,11.711 L4.359,11.711 L4.359,2.224" id="Fill-42" fill="#1A1919" mask="url(#mask-4)"></path>
      <path d="M11.483,9.092 C11.799,9.341 12.188,9.589 12.647,9.832 C13.106,10.076 13.652,10.197 14.287,10.197 C14.525,10.197 14.757,10.17 14.984,10.112 C15.211,10.055 15.412,9.967 15.588,9.849 C15.763,9.73 15.908,9.574 16.022,9.382 C16.134,9.189 16.191,8.951 16.191,8.668 C16.191,8.373 16.129,8.124 16.004,7.92 C15.879,7.716 15.715,7.543 15.511,7.401 C15.307,7.259 15.069,7.137 14.797,7.036 C14.525,6.933 14.248,6.832 13.964,6.729 C13.602,6.605 13.236,6.468 12.868,6.321 C12.5,6.174 12.168,5.981 11.873,5.744 C11.579,5.506 11.338,5.202 11.151,4.834 C10.964,4.466 10.87,3.999 10.87,3.431 C10.87,2.887 10.978,2.406 11.193,1.986 C11.408,1.567 11.703,1.218 12.077,0.941 C12.451,0.664 12.882,0.454 13.369,0.312 C13.857,0.171 14.372,0.099 14.917,0.099 C15.29,0.099 15.639,0.128 15.962,0.184 C16.285,0.241 16.574,0.309 16.829,0.388 C17.084,0.467 17.299,0.549 17.475,0.634 C17.65,0.719 17.783,0.797 17.874,0.864 C18.191,1.046 18.35,1.3 18.35,1.63 C18.35,1.765 18.291,1.95 18.172,2.182 C18.053,2.415 17.885,2.644 17.671,2.871 C17.387,2.644 17.022,2.428 16.574,2.224 C16.126,2.02 15.648,1.919 15.137,1.919 C14.933,1.919 14.724,1.938 14.508,1.978 C14.293,2.017 14.097,2.086 13.922,2.182 C13.746,2.278 13.602,2.412 13.488,2.582 C13.375,2.752 13.318,2.962 13.318,3.211 C13.318,3.448 13.375,3.655 13.488,3.831 C13.602,4.007 13.754,4.16 13.947,4.29 C14.14,4.421 14.364,4.537 14.619,4.638 C14.874,4.74 15.137,4.842 15.409,4.944 C15.772,5.081 16.14,5.228 16.514,5.386 C16.888,5.546 17.228,5.747 17.534,5.99 C17.84,6.234 18.089,6.54 18.282,6.908 C18.475,7.276 18.571,7.738 18.571,8.294 C18.571,8.894 18.466,9.424 18.257,9.882 C18.047,10.341 17.755,10.73 17.381,11.048 C17.007,11.365 16.557,11.603 16.03,11.761 C15.503,11.92 14.927,12 14.304,12 C13.488,12 12.828,11.917 12.324,11.753 C11.819,11.589 11.454,11.438 11.227,11.302 C11.091,11.212 10.978,11.104 10.887,10.979 C10.796,10.855 10.752,10.714 10.752,10.554 C10.752,10.362 10.828,10.13 10.981,9.857 C11.134,9.586 11.301,9.331 11.483,9.092" id="Fill-44" fill="#1A1919" mask="url(#mask-4)"></path>
    </g>
    <path d="M124.397,140.378 L122.85,145.222 L125.893,145.222 L124.397,140.378 Z M127.304,149.711 L126.335,146.923 L122.408,146.923 L121.473,149.711 L119.161,149.711 L123.105,138.49 C123.241,138.434 123.431,138.38 123.675,138.329 C123.918,138.278 124.182,138.253 124.465,138.253 C124.59,138.253 124.729,138.263 124.881,138.287 C125.035,138.309 125.185,138.357 125.332,138.431 C125.479,138.505 125.618,138.609 125.749,138.746 C125.879,138.882 125.984,139.068 126.063,139.306 L129.718,149.711 L127.304,149.711 L127.304,149.711 Z" id="Fill-46" fill="#1A1919"></path>
    <path d="M139.952,149.711 L137.98,149.711 L133.134,142.23 L133.134,149.711 L130.908,149.711 L130.908,138.354 C131.021,138.332 131.173,138.309 131.367,138.287 C131.56,138.263 131.752,138.253 131.945,138.253 C132.308,138.253 132.591,138.315 132.795,138.439 C133,138.564 133.18,138.757 133.339,139.017 L137.724,146.174 L137.724,138.338 C137.883,138.315 138.031,138.295 138.168,138.278 C138.302,138.26 138.411,138.253 138.49,138.253 C138.66,138.253 138.83,138.269 139,138.303 C139.17,138.338 139.326,138.403 139.467,138.499 C139.609,138.595 139.725,138.728 139.816,138.898 C139.906,139.068 139.952,139.296 139.952,139.579 L139.952,149.711" id="Fill-47" fill="#1A1919"></path>
    <path d="M144.746,140.224 L141.193,140.224 L141.193,140.208 C141.17,140.071 141.156,139.959 141.15,139.868 C141.144,139.777 141.142,139.67 141.142,139.545 C141.142,139.238 141.252,138.958 141.473,138.703 C141.694,138.448 142.065,138.32 142.587,138.32 L150.577,138.32 C150.611,138.558 150.628,138.802 150.628,139.051 C150.628,139.346 150.525,139.615 150.322,139.859 C150.118,140.103 149.755,140.224 149.234,140.224 L147.091,140.224 L147.091,149.711 L144.746,149.711 L144.746,140.224" id="Fill-48" fill="#1A1919"></path>
    <path d="M162.222,149.796 L160.3,149.796 L158.379,143.845 L156.527,149.796 L154.623,149.796 L150.832,138.473 C150.967,138.417 151.164,138.366 151.418,138.32 C151.673,138.275 151.891,138.253 152.072,138.253 C152.492,138.253 152.818,138.346 153.05,138.533 C153.283,138.719 153.455,138.995 153.568,139.357 L155.779,146.633 L157.445,141.296 L156.663,138.405 C156.878,138.36 157.08,138.323 157.266,138.295 C157.453,138.266 157.626,138.253 157.785,138.253 C158.214,138.253 158.541,138.348 158.762,138.542 C158.983,138.734 159.144,139.011 159.247,139.375 L161.253,146.446 L163.173,139.51 C163.275,139.148 163.445,138.847 163.683,138.609 C163.921,138.372 164.25,138.253 164.67,138.253 C164.93,138.253 165.157,138.272 165.349,138.312 C165.543,138.351 165.718,138.394 165.877,138.439 L162.222,149.796" id="Fill-49" fill="#1A1919"></path>
    <path d="M173.136,147.909 C173.679,147.909 174.05,148.033 174.25,148.282 C174.447,148.532 174.546,148.809 174.546,149.115 C174.546,149.24 174.544,149.344 174.539,149.43 C174.533,149.515 174.523,149.608 174.513,149.711 L167.152,149.711 L167.152,138.32 L174.241,138.32 C174.263,138.445 174.277,138.549 174.283,138.634 C174.289,138.719 174.292,138.825 174.292,138.949 C174.292,139.346 174.189,139.643 173.986,139.841 C173.782,140.041 173.402,140.139 172.847,140.139 L169.498,140.139 L169.498,142.944 L173.101,142.944 L173.101,144.763 L169.498,144.763 L169.498,147.909 L173.136,147.909" id="Fill-50" fill="#1A1919"></path>
    <path d="M181.398,141.805 C181.398,141.091 181.211,140.59 180.837,140.3 C180.462,140.011 179.953,139.868 179.306,139.868 C179.103,139.868 178.926,139.874 178.779,139.884 C178.632,139.896 178.507,139.907 178.406,139.919 L178.406,143.845 L179.205,143.845 C179.884,143.845 180.42,143.678 180.811,143.343 C181.202,143.009 181.398,142.497 181.398,141.805 Z M183.845,141.585 C183.845,142.06 183.786,142.48 183.668,142.842 C183.548,143.205 183.386,143.522 183.182,143.795 C182.978,144.066 182.746,144.294 182.486,144.474 C182.224,144.656 181.959,144.798 181.687,144.899 L184.492,149.591 C184.276,149.682 184.049,149.753 183.812,149.803 C183.574,149.855 183.347,149.881 183.131,149.881 C182.712,149.881 182.361,149.79 182.078,149.608 C181.795,149.427 181.533,149.132 181.296,148.724 L179.357,145.426 L178.422,145.426 L178.422,149.711 L176.076,149.711 L176.076,138.388 C176.587,138.332 177.107,138.29 177.64,138.26 C178.173,138.233 178.654,138.218 179.086,138.218 C180.728,138.218 181.933,138.496 182.698,139.051 C183.462,139.607 183.845,140.451 183.845,141.585 L183.845,141.585 Z" id="Fill-51" fill="#1A1919"></path>
    <path d="M191.275,141.789 C191.275,141.097 191.073,140.604 190.671,140.309 C190.268,140.014 189.744,139.868 189.098,139.868 C188.736,139.868 188.429,139.884 188.18,139.919 L188.18,143.999 L188.742,143.999 C189.568,143.999 190.197,143.837 190.629,143.514 C191.058,143.191 191.275,142.616 191.275,141.789 Z M193.654,141.67 C193.654,142.406 193.529,143.029 193.281,143.54 C193.031,144.049 192.694,144.461 192.269,144.772 C191.843,145.084 191.351,145.307 190.79,145.443 C190.228,145.58 189.636,145.647 189.013,145.647 L188.197,145.647 L188.197,149.711 L185.851,149.711 L185.851,138.388 C186.361,138.332 186.882,138.29 187.416,138.26 C187.948,138.233 188.429,138.218 188.861,138.218 C190.527,138.218 191.742,138.51 192.507,139.093 C193.271,139.677 193.654,140.536 193.654,141.67 L193.654,141.67 Z" id="Fill-52" fill="#1A1919"></path>
  </g>
</svg>
