<?xml version="1.0" encoding="UTF-8"?>
<svg xmlns="http://www.w3.org/2000/svg" xmlns:xlink="http://www.w3.org/1999/xlink" width="901px" height="370px" viewBox="0 0 901 370" version="1.1">
  <!-- Generator: Sketch 64 (93537) - https://sketch.com -->
  <title>ARTEVELDE_uas_logo BLACK</title>
  <desc>Created with Sketch.</desc>
  <defs>
    <polygon id="path-1" points="0 370.222 900.576 370.222 900.576 0 0 0"></polygon>
  </defs>
  <g id="ARTEVELDE_uas_logo-BLACK" stroke="none" stroke-width="1" fill="none" fill-rule="evenodd">
    <path d="M132.707,119.3103 C112.412,119.3103 95.957,135.7653 95.957,156.0703 C95.957,176.3703 112.412,192.8303 132.707,192.8303 L169.457,192.8303 L169.457,156.0703 C169.457,135.7653 153.007,119.3103 132.707,119.3103 L132.707,119.3103 Z M144.957,168.3203 L132.717,168.3203 L132.707,168.3203 C125.942,168.3203 120.457,162.8353 120.457,156.0703 C120.457,149.3003 125.942,143.8153 132.707,143.8153 C139.472,143.8153 144.957,149.3003 144.957,156.0703 L144.957,168.3203 Z" id="Fill-1" fill="#231F20"></path>
    <path d="M271.3799,119.2341 C263.1249,119.2341 254.3649,120.7291 249.7349,121.8541 C248.2349,122.2291 247.3599,123.2391 247.3599,124.6141 L247.3599,134.7391 C247.3599,136.3691 248.3549,136.9991 249.6099,136.9991 L250.2349,136.9991 C254.1149,136.6241 262.9949,136.1241 271.0049,136.1241 C276.8849,136.1241 280.3849,137.6241 280.3849,144.7541 L280.3849,149.2541 L273.6299,149.2541 C252.2399,149.2541 242.8499,155.7641 242.8499,170.4041 L242.8499,171.5241 C242.8499,187.7941 253.3649,193.0491 264.2499,193.0491 C271.7499,193.0491 276.7599,190.9191 281.6399,187.4141 L281.6399,189.4141 C281.6399,190.7891 282.7649,191.9191 284.1399,191.9191 L298.1499,191.9191 C299.5249,191.9191 300.6499,190.7891 300.6499,189.4141 L300.6499,144.7541 C300.6499,126.4891 289.3949,119.2341 271.3799,119.2341 L271.3799,119.2341 Z M280.7599,175.0291 C277.7549,176.5241 274.2599,177.7791 270.5049,177.7791 C265.2449,177.7791 262.6199,176.7791 262.6199,171.5241 L262.6199,170.4041 C262.6199,164.2691 264.8749,161.2641 273.6299,161.2641 L280.7599,161.2641 L280.7599,175.0291 Z" id="Fill-3" fill="#231F20"></path>
    <path d="M318.3369,191.9182 L333.4769,191.9182 C334.8519,191.9182 335.9769,190.6632 335.9769,189.2882 L335.9769,140.3732 C340.6069,137.8682 345.9869,135.9932 352.1119,135.9932 L353.1169,135.9932 C354.2419,135.9932 354.9919,134.7382 354.9919,133.6182 L354.9919,121.7282 C354.9919,120.3532 353.8619,119.2332 352.4869,119.2332 C346.4819,119.2332 340.2269,121.3532 335.5969,125.2332 L335.5969,122.7282 C335.5969,121.3532 334.4719,120.2332 333.0969,120.2332 L318.2119,120.2332 C316.8319,120.2332 315.7069,121.3532 315.7069,122.7282 L315.7069,189.2882 C315.7069,190.6632 316.9569,191.9182 318.3369,191.9182" id="Fill-5" fill="#231F20"></path>
    <path d="M373.2857,171.6467 C373.2857,189.4127 380.5407,193.0517 394.3007,193.0517 C397.9357,193.0517 400.4357,192.6717 404.1857,192.0427 C405.6857,191.7967 406.5607,190.7877 406.5607,189.5467 L406.5607,179.7867 C406.5607,178.4117 405.5657,177.6567 403.9407,177.6567 L397.8057,177.6567 C394.0507,177.6567 393.6757,176.7817 393.6757,171.7767 L393.6757,135.3717 L403.9407,135.3717 C405.3157,135.3717 406.4407,134.2417 406.4407,132.8667 L406.4407,122.7267 C406.4407,121.3517 405.3157,120.2317 403.9407,120.2317 L393.6757,120.2317 L393.6757,106.9717 C393.6757,105.7167 392.6757,104.8417 391.4257,104.8417 L391.0507,104.8417 L375.7857,107.4667 C374.4107,107.7217 373.2857,108.6017 373.2857,109.9767 L373.2857,120.2317 L363.2757,120.2317 C361.9007,120.2317 360.6507,121.4867 360.6507,122.8617 L360.6507,131.1117 C360.6507,132.4867 361.9007,133.4967 363.2757,133.7417 L373.2857,135.3717 L373.2857,171.6467 Z" id="Fill-7" fill="#231F20"></path>
    <path d="M447.4986,193.05 C458.3836,193.05 465.1436,192.04 473.1486,190.045 C475.2736,189.545 475.7786,188.67 475.7786,186.665 L475.7786,177.16 C475.7786,175.785 474.7736,175.15 473.3986,175.15 L473.0236,175.15 C468.0186,175.65 456.8836,176.28 449.0036,176.28 C439.1186,176.28 436.1136,169.775 436.1136,162.64 L436.1136,162.395 L476.0286,162.395 C477.6536,162.395 478.6536,161.265 478.6536,159.39 L478.6536,152.14 C478.6536,133.24 468.2686,119.235 447.7536,119.235 C427.8586,119.235 416.0986,131.99 416.0986,152.14 L416.0986,160.89 C416.0986,185.045 432.3586,193.05 447.4986,193.05 L447.4986,193.05 Z M436.1136,149.38 C436.1136,140.25 440.7436,135.495 447.6236,135.495 C454.6336,135.495 458.8886,140.13 458.8886,149.38 L458.8886,149.89 L436.1136,149.89 L436.1136,149.38 Z" id="Fill-9" fill="#231F20"></path>
    <path d="M518.3496,193.05 C532.9996,193.05 533.3656,191.045 536.4956,179.91 L552.2596,123.105 C552.3796,122.86 552.3796,122.605 552.3796,122.36 C552.3796,121.11 551.3796,120.235 550.2546,120.235 L533.7406,120.235 C532.4906,120.235 531.4856,121.355 531.1156,122.86 L520.3496,171.9 C519.9796,173.775 519.2246,174.53 518.3496,174.53 C517.4746,174.53 516.8546,173.775 516.4746,171.9 L505.7146,122.86 C505.3396,121.355 504.3396,120.235 503.0896,120.235 L486.5706,120.235 C485.4456,120.235 484.5696,121.11 484.5696,122.36 C484.5696,122.605 484.5696,122.86 484.6956,123.105 L500.3346,179.91 C503.4596,191.045 504.2806,193.05 518.3496,193.05" id="Fill-11" fill="#231F20"></path>
    <path d="M589.5781,193.05 C600.4641,193.05 607.2241,192.04 615.2281,190.045 C617.3531,189.545 617.8581,188.67 617.8581,186.665 L617.8581,177.16 C617.8581,175.785 616.8531,175.15 615.4781,175.15 L615.1031,175.15 C610.0991,175.65 598.9641,176.28 591.0841,176.28 C581.1981,176.28 578.1931,169.775 578.1931,162.64 L578.1931,162.395 L618.1081,162.395 C619.7331,162.395 620.7331,161.265 620.7331,159.39 L620.7331,152.14 C620.7331,133.24 610.3491,119.235 589.8341,119.235 C569.9381,119.235 558.1791,131.99 558.1791,152.14 L558.1791,160.89 C558.1791,185.045 574.4381,193.05 589.5781,193.05 L589.5781,193.05 Z M578.1931,149.38 C578.1931,140.25 582.8231,135.495 589.7031,135.495 C596.7141,135.495 600.9691,140.13 600.9691,149.38 L600.9691,149.89 L578.1931,149.89 L578.1931,149.38 Z" id="Fill-13" fill="#231F20"></path>
    <path d="M651.8008,95.9567 L636.5408,95.9567 C635.1608,95.9567 633.9108,97.0867 633.9108,98.4617 L633.9108,189.2917 C633.9108,190.6667 635.1608,191.9167 636.5408,191.9167 L651.8008,191.9167 C653.1758,191.9167 654.1818,190.6667 654.1818,189.2917 L654.1818,98.4617 C654.1818,97.0867 653.1758,95.9567 651.8008,95.9567" id="Fill-15" fill="#231F20"></path>
    <path d="M698.3604,193.05 C707.9904,193.05 717.8804,191.54 725.0104,189.79 C728.3854,189.045 728.8854,188.17 728.8854,186.165 L728.8854,98.465 C728.8854,97.09 727.6304,95.96 726.2554,95.96 L711.1204,95.96 C709.7454,95.96 708.6204,97.09 708.6204,98.465 L708.6204,120.11 C704.9904,119.6 700.8604,119.235 698.3604,119.235 C677.2144,119.235 666.9604,131.61 666.9604,151.265 L666.9604,161.02 C666.9604,181.285 678.0954,193.05 698.3604,193.05 L698.3604,193.05 Z M687.2254,151.265 C687.2254,142.5 689.4754,135.995 698.3604,135.995 C701.3604,135.995 705.6154,136.245 708.6204,136.625 L708.6204,175.65 C706.2404,176.025 702.4854,176.405 698.3604,176.405 C689.4754,176.405 687.2254,169.895 687.2254,161.02 L687.2254,151.265 Z" id="Fill-17" fill="#231F20"></path>
    <path d="M773.7197,119.2341 C753.8237,119.2341 742.0647,131.9891 742.0647,152.1391 L742.0647,160.8891 C742.0647,185.0441 758.3237,193.0491 773.4647,193.0491 C784.3497,193.0491 791.1097,192.0391 799.1147,190.0441 C801.2397,189.5441 801.7437,188.6691 801.7437,186.6641 L801.7437,177.1591 C801.7437,175.7841 800.7397,175.1491 799.3647,175.1491 L798.9897,175.1491 C793.9847,175.6491 782.8547,176.2791 774.9697,176.2791 C765.0837,176.2791 762.0787,169.7741 762.0787,162.6391 L762.0787,162.3941 L801.9937,162.3941 C803.6187,162.3941 804.6187,161.2641 804.6187,159.3891 L804.6187,152.1391 C804.6187,133.2391 794.2347,119.2341 773.7197,119.2341 L773.7197,119.2341 Z M784.8547,149.8891 L762.0787,149.8891 L762.0787,149.3791 C762.0787,140.2491 766.7087,135.4941 773.5897,135.4941 C780.5997,135.4941 784.8547,140.1291 784.8547,149.3791 L784.8547,149.8891 Z" id="Fill-19" fill="#231F20"></path>
    <path d="M260.0122,240.2854 L257.9172,240.2854 C257.4522,240.2854 257.0672,240.7154 257.0672,241.1394 L257.0672,259.1604 C255.1022,260.1394 253.0972,260.8254 251.3022,260.8254 C248.0572,260.8254 246.6072,259.5004 246.6072,255.1844 L246.6072,241.1394 C246.6072,240.6704 246.2222,240.2854 245.7522,240.2854 L243.7022,240.2854 C243.2372,240.2854 242.8522,240.6704 242.8522,241.1394 L242.8522,255.1844 C242.8522,260.8654 245.1572,264.0644 250.2772,264.0644 C252.7972,264.0644 254.7172,263.4254 257.0672,262.1044 L257.0672,262.9154 C257.0672,263.3804 257.4072,263.7644 257.8772,263.7644 L260.0122,263.7644 C260.4822,263.7644 260.8272,263.3804 260.8272,262.9154 L260.8272,241.1394 C260.8272,240.6704 260.4372,240.2854 260.0122,240.2854" id="Fill-21" fill="#231F20"></path>
    <path d="M277.5747,239.9855 C275.0547,239.9855 273.1297,240.6315 270.7847,241.9515 L270.7847,241.1405 C270.7847,240.6715 270.4447,240.2865 269.9747,240.2865 L267.8397,240.2865 C267.3697,240.2865 267.0297,240.6715 267.0297,241.1405 L267.0297,262.9115 C267.0297,263.3805 267.4147,263.7655 267.8397,263.7655 L269.9297,263.7655 C270.3997,263.7655 270.7847,263.3405 270.7847,262.9115 L270.7847,244.9005 C272.7497,243.9165 274.7547,243.2305 276.5497,243.2305 C279.7897,243.2305 281.2447,244.5555 281.2447,248.8715 L281.2447,262.9115 C281.2447,263.3805 281.6297,263.7655 282.0947,263.7655 L284.1497,263.7655 C284.6197,263.7655 285.0047,263.3805 285.0047,262.9115 L285.0047,248.8715 C285.0047,243.1855 282.6947,239.9855 277.5747,239.9855" id="Fill-23" fill="#231F20"></path>
    <path d="M294.6646,232.4201 L292.4896,232.4201 C292.0146,232.4201 291.6346,232.8001 291.6346,233.2711 L291.6346,235.6751 C291.6346,236.1461 292.0146,236.5301 292.4896,236.5301 L294.6646,236.5301 C295.1346,236.5301 295.5196,236.1461 295.5196,235.6751 L295.5196,233.2711 C295.5196,232.8001 295.1346,232.4201 294.6646,232.4201" id="Fill-25" fill="#231F20"></path>
    <path d="M294.5777,240.2854 L292.5277,240.2854 C292.0627,240.2854 291.6727,240.6704 291.6727,241.1394 L291.6727,262.9154 C291.6727,263.3804 292.0627,263.7644 292.5277,263.7644 L294.5777,263.7644 C295.0477,263.7644 295.4327,263.3804 295.4327,262.9154 L295.4327,241.1394 C295.4327,240.6704 295.0477,240.2854 294.5777,240.2854" id="Fill-27" fill="#231F20"></path>
    <path d="M319.5166,240.2854 L317.1666,240.2854 C316.8266,240.2854 316.5266,240.5404 316.3566,241.1004 L311.4466,259.7104 C311.1916,260.7354 310.9316,260.9504 310.5516,260.9504 C310.1216,260.9504 309.9066,260.7354 309.6566,259.7104 L304.7416,241.1004 C304.5716,240.5404 304.2716,240.2854 303.9316,240.2854 L301.5816,240.2854 C301.1566,240.2854 300.9016,240.5854 300.9016,241.0114 C300.9016,241.1004 300.9016,241.1814 300.9416,241.3104 L306.7066,261.6364 C307.2616,263.5554 307.4316,264.0654 310.5516,264.0654 C313.7466,264.0654 313.8366,263.5554 314.3916,261.6364 L320.1566,241.3104 C320.1966,241.1814 320.1966,241.1004 320.1966,241.0114 C320.1966,240.5854 319.9416,240.2854 319.5166,240.2854" id="Fill-29" fill="#231F20"></path>
    <path d="M333.022,239.9855 C326.912,239.9855 323.542,243.8715 323.542,249.9755 L323.542,253.8215 C323.542,261.7605 328.327,264.0655 333.232,264.0655 C336.097,264.0655 338.442,263.8105 340.877,263.3405 C341.562,263.2115 341.732,262.9115 341.732,262.3605 L341.732,260.9065 C341.732,260.4805 341.387,260.3105 341.047,260.3105 L340.832,260.3105 C338.867,260.6055 335.712,260.7815 333.232,260.7815 C329.307,260.7815 327.302,258.9005 327.302,253.8215 L327.302,253.2255 L341.602,253.2255 C342.112,253.2255 342.412,252.8365 342.412,252.2815 L342.412,249.9755 C342.412,243.9165 339.257,239.9855 333.022,239.9855 L333.022,239.9855 Z M338.612,250.3605 L327.302,250.3605 L327.302,249.9755 C327.302,245.3665 329.347,243.2755 333.022,243.2755 C336.777,243.2755 338.612,245.1505 338.612,249.9755 L338.612,250.3605 Z" id="Fill-31" fill="#231F20"></path>
    <path d="M357.5821,239.9865 C355.6621,239.9865 353.6971,240.5415 351.5621,242.0365 L351.5621,241.1415 C351.5621,240.6715 351.2221,240.2865 350.7521,240.2865 L348.7421,240.2865 C348.2721,240.2865 347.9321,240.6715 347.9321,241.1415 L347.9321,262.9115 C347.9321,263.3815 348.3171,263.7665 348.7421,263.7665 L350.8321,263.7665 C351.3021,263.7665 351.6921,263.3415 351.6921,262.9115 L351.6921,245.0265 C353.8271,243.7465 355.6171,243.2315 357.5821,243.2315 C358.1821,243.2315 358.4771,242.9765 358.4771,242.5065 L358.4771,240.7565 C358.4771,240.2415 358.1821,239.9865 357.5821,239.9865" id="Fill-33" fill="#231F20"></path>
    <path d="M373.0865,251.4308 L368.8615,248.9098 C366.8965,247.7608 365.9165,246.9458 365.9165,245.6648 C365.9165,243.4858 367.4915,243.1908 369.8865,243.1908 C372.2765,243.1908 375.0115,243.4058 376.5015,243.5308 L376.6315,243.5308 C377.0565,243.5308 377.3565,243.3158 377.3565,242.8058 L377.3565,241.3958 C377.3565,240.9308 377.1015,240.6298 376.5465,240.5398 C374.5415,240.2008 372.2765,239.9858 369.8865,239.9858 C365.4865,239.9858 362.1565,241.2258 362.1565,245.6648 C362.1565,248.3558 363.9115,250.1908 366.5115,251.7708 L370.8215,254.3348 C373.2565,255.7808 374.0265,256.5958 374.0265,257.8748 C374.0265,260.1808 372.5765,260.9058 369.7965,260.9058 C368.2615,260.9058 365.1465,260.6958 363.0965,260.4358 L362.9265,260.4358 C362.4965,260.4358 362.1565,260.6958 362.1565,261.0758 L362.1565,262.5708 C362.1565,263.0398 362.4965,263.3008 363.0515,263.4258 C365.1465,263.9358 368.2215,264.0658 369.7965,264.0658 C374.5815,264.0658 377.7815,262.2308 377.7815,257.8748 C377.7815,255.3608 376.6315,253.5208 373.0865,251.4308" id="Fill-35" fill="#231F20"></path>
    <path d="M386.5889,240.2854 L384.5389,240.2854 C384.0739,240.2854 383.6839,240.6704 383.6839,241.1394 L383.6839,262.9154 C383.6839,263.3804 384.0739,263.7644 384.5389,263.7644 L386.5889,263.7644 C387.0589,263.7644 387.4439,263.3804 387.4439,262.9154 L387.4439,241.1394 C387.4439,240.6704 387.0589,240.2854 386.5889,240.2854" id="Fill-37" fill="#231F20"></path>
    <path d="M386.6758,232.4201 L384.5008,232.4201 C384.0258,232.4201 383.6458,232.8001 383.6458,233.2711 L383.6458,235.6751 C383.6458,236.1461 384.0258,236.5301 384.5008,236.5301 L386.6758,236.5301 C387.1458,236.5301 387.5308,236.1461 387.5308,235.6751 L387.5308,233.2711 C387.5308,232.8001 387.1458,232.4201 386.6758,232.4201" id="Fill-39" fill="#231F20"></path>
    <path d="M405.7222,261.0353 L403.3322,261.0353 C401.6222,261.0353 401.0272,260.6953 401.0272,258.3463 L401.0272,243.4453 L405.6372,243.4453 C406.1072,243.4453 406.4922,243.0653 406.4922,242.5963 L406.4922,241.1403 C406.4922,240.6703 406.1072,240.2853 405.6372,240.2853 L401.0272,240.2853 L401.0272,235.6363 C401.0272,235.2053 400.7272,234.9053 400.3872,234.9053 L400.2572,234.9053 L398.0422,235.2503 C397.5722,235.3353 397.2722,235.6753 397.2722,236.1053 L397.2722,240.2853 L393.1272,240.2853 C392.6572,240.2853 392.3172,240.5853 392.3172,241.0563 L392.3172,242.2053 C392.3172,242.6763 392.6572,242.9353 393.1272,242.9753 L397.2722,243.4453 L397.2722,258.3463 C397.2722,263.0403 399.1472,264.0653 403.0772,264.0653 C403.8872,264.0653 404.9972,263.9803 405.8522,263.8553 C406.4072,263.7653 406.6172,263.5113 406.6172,263.1303 L406.6172,261.6363 C406.6172,261.2053 406.3222,261.0353 405.7222,261.0353" id="Fill-41" fill="#231F20"></path>
    <path d="M428.5308,240.2854 L426.1408,240.2854 C425.7508,240.2854 425.4108,240.5854 425.3308,240.9314 L420.1158,260.4354 L419.4358,260.4354 C419.1358,260.4354 418.8408,260.3504 418.6208,259.5004 L413.5858,240.9714 C413.5008,240.6304 413.2008,240.2854 412.8608,240.2854 L410.5108,240.2854 C410.0008,240.2854 409.7458,240.5854 409.7458,241.0114 C409.7458,241.1004 409.7458,241.2254 409.7858,241.3104 L415.4658,260.8254 C416.2358,263.4714 417.3458,263.7654 418.6208,263.7654 L419.2208,263.7654 L418.7958,265.5204 C418.0708,268.5054 417.0058,269.1454 414.5708,269.1454 C413.6308,269.1454 411.7108,268.9754 410.7708,268.8904 L410.6408,268.8904 C410.1708,268.8904 409.8308,269.1054 409.8308,269.5704 L409.8308,271.1554 C409.8308,271.5804 410.2158,271.7054 410.7258,271.8354 C411.6208,272.0514 413.1158,272.2214 414.3108,272.2214 C419.2208,272.2214 420.8008,270.5114 422.1258,265.9004 L429.1708,241.3104 C429.2108,241.2254 429.2108,241.1004 429.2108,241.0114 C429.2108,240.5854 428.9558,240.2854 428.5308,240.2854" id="Fill-43" fill="#231F20"></path>
    <path d="M453.8242,239.9865 C447.5442,239.9865 444.3442,244.1315 444.3442,250.4065 L444.3442,253.6465 C444.3442,259.9265 447.5442,264.0665 453.8242,264.0665 C460.0992,264.0665 463.3452,259.9265 463.3452,253.6465 L463.3452,250.4065 C463.3452,244.1315 460.0992,239.9865 453.8242,239.9865 L453.8242,239.9865 Z M459.5842,253.6465 C459.5842,258.0465 457.7942,260.7765 453.8242,260.7765 C449.8092,260.7765 448.0992,258.0065 448.0992,253.6465 L448.0992,250.4065 C448.0992,246.0065 449.8492,243.2765 453.8242,243.2765 C457.8342,243.2765 459.5842,246.0515 459.5842,250.4065 L459.5842,253.6465 Z" id="Fill-45" fill="#231F20"></path>
    <path d="M479.4102,232.6779 C478.8542,232.5469 478.1752,232.4219 477.0192,232.4219 C473.2602,232.4219 471.0452,233.7869 471.0452,238.3529 L471.0452,241.4279 L466.8992,241.4279 C466.4302,241.4279 466.0902,241.7729 466.0902,242.1979 L466.0902,243.3479 C466.0902,243.7779 466.4302,244.0769 466.8992,244.1169 L471.0452,244.5869 L471.0452,263.1779 C471.0452,263.6029 471.4252,264.0319 471.8942,264.0319 L473.9842,264.0319 C474.4152,264.0319 474.7952,263.6029 474.7952,263.1779 L474.7952,244.5869 L479.2802,244.5869 C479.7502,244.5869 480.0902,244.2869 480.0902,243.8629 L480.0902,242.1979 C480.0902,241.7729 479.7502,241.4279 479.2802,241.4279 L474.7952,241.4279 L474.7952,238.3529 C474.7952,236.0069 475.3942,235.4119 477.4052,235.4119 L479.4502,235.4119 C479.9202,235.4119 480.2202,235.2379 480.2202,234.7679 L480.2202,233.3579 C480.2202,232.9779 479.8802,232.8079 479.4102,232.6779" id="Fill-47" fill="#231F20"></path>
    <path d="M503.5459,239.9855 C500.6409,239.9855 498.6809,240.2465 496.9259,240.5415 C496.3309,240.6315 496.0359,240.8815 496.0359,241.3505 L496.0359,242.8455 C496.0359,243.4065 496.4159,243.5315 496.8009,243.5315 L497.0159,243.5315 C498.7209,243.3605 500.7709,243.1855 503.5459,243.1855 C506.8759,243.1855 508.1159,244.4305 508.1159,248.0105 L508.1159,249.7205 L504.9559,249.7205 C497.3559,249.7205 494.6659,252.0255 494.6659,256.6355 L494.6659,257.1505 C494.6659,262.4915 497.9959,264.0655 501.6259,264.0655 C504.0159,264.0655 506.1499,263.1715 508.2009,261.9755 L508.2009,262.9115 C508.2009,263.3805 508.5809,263.7655 509.0509,263.7655 L511.0159,263.7655 C511.4859,263.7655 511.8709,263.3805 511.8709,262.9115 L511.8709,248.0105 C511.8709,242.9755 509.4809,239.9855 503.5459,239.9855 L503.5459,239.9855 Z M508.1159,259.2865 C506.0659,260.3955 504.3159,260.9965 502.3509,260.9965 C499.8759,260.9965 498.4209,260.1805 498.4209,257.1055 L498.4209,256.5955 C498.4209,253.5655 499.7859,252.4115 504.9559,252.4115 L508.1159,252.4115 L508.1159,259.2865 Z" id="Fill-49" fill="#231F20"></path>
    <path d="M526.8271,239.9865 C524.2221,239.9865 521.2311,240.4165 518.9721,240.9715 C518.2021,241.1415 518.0721,241.3965 518.0721,241.9515 L518.0721,271.3265 C518.0721,271.7965 518.4171,272.1365 518.8421,272.1365 L521.0211,272.1365 C521.4921,272.1365 521.8321,271.7515 521.8321,271.3265 L521.8321,263.5965 C523.4971,263.8965 525.5021,264.0665 526.8271,264.0665 C533.0611,264.0665 536.1321,260.3115 536.1321,253.6065 L536.1321,250.5315 C536.1321,244.1315 533.1861,239.9865 526.8271,239.9865 L526.8271,239.9865 Z M532.3771,253.6065 C532.3771,258.1765 531.0071,260.9065 526.8271,260.9065 C525.4621,260.9065 523.2421,260.7365 521.8321,260.4815 L521.8321,243.5715 C523.0271,243.3615 525.0321,243.1465 526.8271,243.1465 C531.0521,243.1465 532.3771,246.0515 532.3771,250.5315 L532.3771,253.6065 Z" id="Fill-51" fill="#231F20"></path>
    <path d="M550.3203,239.9865 C547.7153,239.9865 544.7243,240.4165 542.4653,240.9715 C541.6953,241.1415 541.5643,241.3965 541.5643,241.9515 L541.5643,271.3265 C541.5643,271.7965 541.9103,272.1365 542.3353,272.1365 L544.5143,272.1365 C544.9853,272.1365 545.3253,271.7515 545.3253,271.3265 L545.3253,263.5965 C546.9903,263.8965 548.9953,264.0665 550.3203,264.0665 C556.5543,264.0665 559.6253,260.3115 559.6253,253.6065 L559.6253,250.5315 C559.6253,244.1315 556.6793,239.9865 550.3203,239.9865 L550.3203,239.9865 Z M555.8703,253.6065 C555.8703,258.1765 554.5003,260.9065 550.3203,260.9065 C548.9553,260.9065 546.7353,260.7365 545.3253,260.4815 L545.3253,243.5715 C546.5193,243.3615 548.5253,243.1465 550.3203,243.1465 C554.5453,243.1465 555.8703,246.0515 555.8703,250.5315 L555.8703,253.6065 Z" id="Fill-53" fill="#231F20"></path>
    <path d="M568.4766,232.4201 L566.2566,232.4201 C565.7866,232.4201 565.4866,232.8001 565.4866,233.2311 L565.4866,262.9101 C565.4866,263.3801 565.8266,263.7661 566.2566,263.7661 L568.4766,263.7661 C568.9466,263.7661 569.2466,263.3411 569.2466,262.9101 L569.2466,233.2311 C569.2466,232.7611 568.9016,232.4201 568.4766,232.4201" id="Fill-55" fill="#231F20"></path>
    <path d="M579.3262,232.4201 L577.1512,232.4201 C576.6762,232.4201 576.2962,232.8001 576.2962,233.2711 L576.2962,235.6751 C576.2962,236.1461 576.6762,236.5301 577.1512,236.5301 L579.3262,236.5301 C579.7962,236.5301 580.1802,236.1461 580.1802,235.6751 L580.1802,233.2711 C580.1802,232.8001 579.7962,232.4201 579.3262,232.4201" id="Fill-57" fill="#231F20"></path>
    <path d="M579.2393,240.2854 L577.1893,240.2854 C576.7243,240.2854 576.3353,240.6704 576.3353,241.1394 L576.3353,262.9154 C576.3353,263.3804 576.7243,263.7644 577.1893,263.7644 L579.2393,263.7644 C579.7103,263.7644 580.0943,263.3804 580.0943,262.9154 L580.0943,241.1394 C580.0943,240.6704 579.7103,240.2854 579.2393,240.2854" id="Fill-59" fill="#231F20"></path>
    <path d="M595.5117,239.9855 C589.4077,239.9855 586.0367,243.8715 586.0367,249.9755 L586.0367,253.8215 C586.0367,261.7605 590.8177,264.0655 595.7267,264.0655 C598.5867,264.0655 600.9377,263.8105 603.3667,263.3405 C604.0517,263.2115 604.2217,262.9115 604.2217,262.3605 L604.2217,260.9065 C604.2217,260.4805 603.8817,260.3105 603.5367,260.3105 L603.3267,260.3105 C601.3627,260.6055 598.2017,260.7815 595.7267,260.7815 C591.7967,260.7815 589.7917,258.9005 589.7917,253.8215 L589.7917,253.2255 L604.0967,253.2255 C604.6077,253.2255 604.9077,252.8365 604.9077,252.2815 L604.9077,249.9755 C604.9077,243.9165 601.7467,239.9855 595.5117,239.9855 L595.5117,239.9855 Z M601.1077,250.3605 L589.7917,250.3605 L589.7917,249.9755 C589.7917,245.3665 591.8417,243.2755 595.5117,243.2755 C599.2727,243.2755 601.1077,245.1505 601.1077,249.9755 L601.1077,250.3605 Z" id="Fill-61" fill="#231F20"></path>
    <path d="M626.9482,232.4201 L624.7732,232.4201 C624.3032,232.4201 623.9592,232.8001 623.9592,233.2311 L623.9592,240.4151 C622.2942,240.1151 620.2892,239.9851 618.9642,239.9851 C612.7282,239.9851 609.6582,243.7451 609.6582,250.4451 L609.6582,253.5211 C609.6582,259.9261 612.6032,264.0651 618.9642,264.0651 C621.5682,264.0651 624.1742,263.8561 626.8182,263.3411 C627.5892,263.2101 627.7192,262.9101 627.7192,262.3601 L627.7192,233.2311 C627.7192,232.7611 627.3792,232.4201 626.9482,232.4201 L626.9482,232.4201 Z M623.9592,260.5251 C622.5092,260.6501 620.4192,260.7751 618.9642,260.7751 C614.7382,260.7751 613.4142,258.1761 613.4142,253.5211 L613.4142,250.4451 C613.4142,245.8801 614.7832,243.2751 618.9642,243.2751 C620.3282,243.2751 622.5492,243.3151 623.9592,243.5751 L623.9592,260.5251 Z" id="Fill-63" fill="#231F20"></path>
    <path d="M655.0166,251.4308 L650.7906,248.9098 C648.8266,247.7608 647.8456,246.9458 647.8456,245.6648 C647.8456,243.4858 649.4206,243.1908 651.8166,243.1908 C654.2056,243.1908 656.9366,243.4058 658.4316,243.5308 L658.5556,243.5308 C658.9866,243.5308 659.2866,243.3158 659.2866,242.8058 L659.2866,241.3958 C659.2866,240.9308 659.0316,240.6298 658.4766,240.5398 C656.4706,240.2008 654.2056,239.9858 651.8166,239.9858 C647.4156,239.9858 644.0856,241.2258 644.0856,245.6648 C644.0856,248.3558 645.8356,250.1908 648.4416,251.7708 L652.7506,254.3348 C655.1866,255.7808 655.9556,256.5958 655.9556,257.8748 C655.9556,260.1808 654.5056,260.9058 651.7266,260.9058 C650.1916,260.9058 647.0766,260.6958 645.0266,260.4358 L644.8566,260.4358 C644.4256,260.4358 644.0856,260.6958 644.0856,261.0758 L644.0856,262.5708 C644.0856,263.0398 644.4256,263.3008 644.9816,263.4258 C647.0766,263.9358 650.1516,264.0658 651.7266,264.0658 C656.5106,264.0658 659.7106,262.2308 659.7106,257.8748 C659.7106,255.3608 658.5556,253.5208 655.0166,251.4308" id="Fill-65" fill="#231F20"></path>
    <path d="M678.8047,240.4553 C677.3947,240.2003 675.4347,239.9853 673.4697,239.9853 C667.6197,239.9853 664.3747,244.0853 664.3747,250.3653 L664.3747,253.6953 C664.3747,259.9663 667.6647,264.0653 673.4697,264.0653 C675.4747,264.0653 677.3947,263.8553 678.8047,263.5963 C679.4897,263.4713 679.6597,263.2103 679.6597,262.6603 L679.6597,261.1203 C679.6597,260.6953 679.3197,260.4803 678.9347,260.4803 L678.7647,260.4803 C676.8847,260.6953 675.5597,260.7803 673.4697,260.7803 C670.0097,260.7803 668.1347,258.4753 668.1347,253.6953 L668.1347,250.3653 C668.1347,245.5353 670.0497,243.2753 673.4697,243.2753 C675.5597,243.2753 676.8847,243.3603 678.7647,243.5753 L678.9347,243.5753 C679.3197,243.5753 679.6597,243.3603 679.6597,242.9353 L679.6597,241.3953 C679.6597,240.8013 679.4897,240.5853 678.8047,240.4553" id="Fill-67" fill="#231F20"></path>
    <path d="M688.2949,232.4201 L686.1199,232.4201 C685.6449,232.4201 685.2649,232.8001 685.2649,233.2711 L685.2649,235.6751 C685.2649,236.1461 685.6449,236.5301 686.1199,236.5301 L688.2949,236.5301 C688.7649,236.5301 689.1489,236.1461 689.1489,235.6751 L689.1489,233.2711 C689.1489,232.8001 688.7649,232.4201 688.2949,232.4201" id="Fill-69" fill="#231F20"></path>
    <path d="M688.208,240.2854 L686.163,240.2854 C685.692,240.2854 685.308,240.6704 685.308,241.1394 L685.308,262.9154 C685.308,263.3804 685.692,263.7644 686.163,263.7644 L688.208,263.7644 C688.678,263.7644 689.062,263.3804 689.062,262.9154 L689.062,241.1394 C689.062,240.6704 688.678,240.2854 688.208,240.2854" id="Fill-71" fill="#231F20"></path>
    <path d="M704.4805,239.9855 C698.3765,239.9855 695.0055,243.8715 695.0055,249.9755 L695.0055,253.8215 C695.0055,261.7605 699.7865,264.0655 704.6955,264.0655 C707.5555,264.0655 709.9065,263.8105 712.3355,263.3405 C713.0205,263.2115 713.1905,262.9115 713.1905,262.3605 L713.1905,260.9065 C713.1905,260.4805 712.8505,260.3105 712.5055,260.3105 L712.2955,260.3105 C710.3315,260.6055 707.1705,260.7815 704.6955,260.7815 C700.7705,260.7815 698.7605,258.9005 698.7605,253.8215 L698.7605,253.2255 L713.0655,253.2255 C713.5765,253.2255 713.8765,252.8365 713.8765,252.2815 L713.8765,249.9755 C713.8765,243.9165 710.7155,239.9855 704.4805,239.9855 L704.4805,239.9855 Z M710.0765,250.3605 L698.7605,250.3605 L698.7605,249.9755 C698.7605,245.3665 700.8105,243.2755 704.4805,243.2755 C708.2415,243.2755 710.0765,245.1505 710.0765,249.9755 L710.0765,250.3605 Z" id="Fill-73" fill="#231F20"></path>
    <path d="M729.9414,239.9855 C727.4204,239.9855 725.4964,240.6315 723.1514,241.9515 L723.1514,241.1405 C723.1514,240.6715 722.8114,240.2865 722.3404,240.2865 L720.2064,240.2865 C719.7364,240.2865 719.3964,240.6715 719.3964,241.1405 L719.3964,262.9115 C719.3964,263.3805 719.7814,263.7655 720.2064,263.7655 L722.2954,263.7655 C722.7664,263.7655 723.1514,263.3405 723.1514,262.9115 L723.1514,244.9005 C725.1164,243.9165 727.1214,243.2305 728.9164,243.2305 C732.1614,243.2305 733.6114,244.5555 733.6114,248.8715 L733.6114,262.9115 C733.6114,263.3805 733.9964,263.7655 734.4664,263.7655 L736.5164,263.7655 C736.9864,263.7655 737.3714,263.3805 737.3714,262.9115 L737.3714,248.8715 C737.3714,243.1855 735.0614,239.9855 729.9414,239.9855" id="Fill-75" fill="#231F20"></path>
    <path d="M757.2334,240.4553 C755.8244,240.2003 753.8644,239.9853 751.8984,239.9853 C746.0484,239.9853 742.8034,244.0853 742.8034,250.3653 L742.8034,253.6953 C742.8034,259.9663 746.0934,264.0653 751.8984,264.0653 C753.9044,264.0653 755.8244,263.8553 757.2334,263.5963 C757.9194,263.4713 758.0884,263.2103 758.0884,262.6603 L758.0884,261.1203 C758.0884,260.6953 757.7444,260.4803 757.3644,260.4803 L757.1934,260.4803 C755.3134,260.6953 753.9894,260.7803 751.8984,260.7803 C748.4384,260.7803 746.5634,258.4753 746.5634,253.6953 L746.5634,250.3653 C746.5634,245.5353 748.4784,243.2753 751.8984,243.2753 C753.9894,243.2753 755.3134,243.3603 757.1934,243.5753 L757.3644,243.5753 C757.7444,243.5753 758.0884,243.3603 758.0884,242.9353 L758.0884,241.3953 C758.0884,240.8013 757.9194,240.5853 757.2334,240.4553" id="Fill-77" fill="#231F20"></path>
    <path d="M771.9697,239.9855 C765.8657,239.9855 762.4947,243.8715 762.4947,249.9755 L762.4947,253.8215 C762.4947,261.7605 767.2747,264.0655 772.1847,264.0655 C775.0447,264.0655 777.3947,263.8105 779.8247,263.3405 C780.5097,263.2115 780.6797,262.9115 780.6797,262.3605 L780.6797,260.9065 C780.6797,260.4805 780.3397,260.3105 779.9947,260.3105 L779.7847,260.3105 C777.8207,260.6055 774.6597,260.7815 772.1847,260.7815 C768.2597,260.7815 766.2497,258.9005 766.2497,253.8215 L766.2497,253.2255 L780.5547,253.2255 C781.0647,253.2255 781.3657,252.8365 781.3657,252.2815 L781.3657,249.9755 C781.3657,243.9165 778.2047,239.9855 771.9697,239.9855 L771.9697,239.9855 Z M777.5647,250.3605 L766.2497,250.3605 L766.2497,249.9755 C766.2497,245.3665 768.2997,243.2755 771.9697,243.2755 C775.7297,243.2755 777.5647,245.1505 777.5647,249.9755 L777.5647,250.3605 Z" id="Fill-79" fill="#231F20"></path>
    <path d="M797.0479,251.4308 L792.8229,248.9098 C790.8579,247.7608 789.8779,246.9458 789.8779,245.6648 C789.8779,243.4858 791.4529,243.1908 793.8479,243.1908 C796.2379,243.1908 798.9729,243.4058 800.4679,243.5308 L800.5879,243.5308 C801.0179,243.5308 801.3189,243.3158 801.3189,242.8058 L801.3189,241.3958 C801.3189,240.9308 801.0579,240.6298 800.5079,240.5398 C798.5029,240.2008 796.2379,239.9858 793.8479,239.9858 C789.4479,239.9858 786.1179,241.2258 786.1179,245.6648 C786.1179,248.3558 787.8729,250.1908 790.4729,251.7708 L794.7829,254.3348 C797.2179,255.7808 797.9879,256.5958 797.9879,257.8748 C797.9879,260.1808 796.5379,260.9058 793.7579,260.9058 C792.2229,260.9058 789.1079,260.6958 787.0579,260.4358 L786.8879,260.4358 C786.4579,260.4358 786.1179,260.6958 786.1179,261.0758 L786.1179,262.5708 C786.1179,263.0398 786.4579,263.3008 787.0129,263.4258 C789.1079,263.9358 792.1829,264.0658 793.7579,264.0658 C798.5429,264.0658 801.7429,262.2308 801.7429,257.8748 C801.7429,255.3608 800.5879,253.5208 797.0479,251.4308" id="Fill-81" fill="#231F20"></path>
    <mask id="mask-2" fill="white">
      <use xlink:href="#path-1"></use>
    </mask>
    <g id="Clip-84"></g>
    <polygon id="Fill-83" fill="#231F20" mask="url(#mask-2)" points="194.022 192.832 218.582 192.832 218.582 168.267 194.022 168.267"></polygon>
    <polygon id="Fill-85" fill="#231F20" mask="url(#mask-2)" points="194.022 143.827 218.582 143.827 218.582 119.262 194.022 119.262"></polygon>
  </g>
</svg>
