<?xml version="1.0" encoding="UTF-8"?>
<svg xmlns="http://www.w3.org/2000/svg" xmlns:xlink="http://www.w3.org/1999/xlink" width="256px" height="189px" viewBox="0 0 256 189" version="1.1">
  <!-- Generator: Sketch 64 (93537) - https://sketch.com -->
  <title>EhB-logo</title>
  <desc>Created with Sketch.</desc>
  <defs>
    <polygon id="path-1" points="0.06 0.863174035 255.118 0.863174035 255.118 160.313 0.06 160.313"></polygon>
  </defs>
  <g id="EhB-logo" stroke="none" stroke-width="1" fill="none" fill-rule="evenodd">
    <g id="Group-4">
      <mask id="mask-2" fill="white">
        <use xlink:href="#path-1"></use>
      </mask>
      <g id="Clip-2"></g>
      <path d="M178.467,33.886 L179.916,32.438 C177.362,28.493 174.618,24.484 171.144,21.013 C146.041,-4.079 108.016,-6.75 82.512,18.741 C61.412,39.831 58.053,71.931 72.422,96.533 L112.873,96.533 C109.196,94.819 105.748,92.448 102.713,89.412 C88.766,75.472 88.766,52.873 102.713,38.934 C113.586,28.065 127.395,26.726 139.327,32.623 L111.676,60.261 L131.878,80.452 L178.467,33.886 Z M153.215,89.412 C150.179,92.448 146.733,94.819 143.054,96.533 L183.494,96.533 C187.379,89.872 189.958,82.664 191.248,75.272 L161.872,75.272 C160.188,80.44 157.323,85.306 153.215,89.412 L153.215,89.412 Z" id="Fill-1" fill="#000000" mask="url(#mask-2)"></path>
      <path d="M244.27,135.313 L254.093,135.313 C253.43,128.277 247.946,124.879 241.256,124.879 C234.807,124.879 228.298,128.874 228.298,135.789 C228.298,140.44 232.276,143.004 236.253,144.434 C237.7,144.971 239.147,145.447 240.593,145.924 C242.401,146.641 245.114,147.356 245.114,149.74 C245.114,151.469 243.124,152.303 241.618,152.303 C239.629,152.303 238.124,151.289 237.821,149.264 L227.876,149.264 C228.66,156.537 234.506,160.233 241.499,160.233 C248.307,160.233 255.118,156.418 255.118,148.965 C255.118,137.279 238.303,140.201 238.303,135.014 C238.303,133.524 239.81,132.809 241.135,132.809 C242.883,132.809 244.209,133.465 244.27,135.313 L244.27,135.313 Z M220.588,156 C223.3,152.662 223.602,149.918 223.602,145.805 L223.602,126.012 L213.597,126.012 L213.597,144.315 C213.597,148.07 212.753,151.067 208.234,151.067 L207.76,151.067 C203.241,151.067 202.397,148.07 202.397,144.315 L202.397,126.012 L192.392,126.012 L192.392,145.805 C192.392,149.918 192.694,152.662 195.406,156 C197.776,158.871 201.791,160.086 205.399,160.229 C205.399,160.229 206.702,160.313 207.999,160.313 C209.335,160.313 210.595,160.229 210.595,160.229 C214.218,160.086 218.218,158.871 220.588,156 L220.588,156 Z M176.518,159.256 L186.523,159.256 L186.523,139.463 C186.523,135.35 186.221,132.606 183.509,129.268 C181.139,126.397 177.139,125.181 173.516,125.039 C173.516,125.039 172.256,124.955 170.919,124.955 C169.624,124.955 168.32,125.039 168.32,125.039 C165.583,125.147 162.614,126.229 160.304,127.826 C158,126.229 155.037,125.147 152.288,125.039 C152.288,125.039 151.028,124.955 149.69,124.955 C148.394,124.955 147.091,125.039 147.091,125.039 C143.482,125.181 139.468,126.397 137.098,129.268 C134.385,132.606 134.085,135.35 134.085,139.463 L134.085,159.256 L144.089,159.256 L144.089,140.953 C144.089,137.197 144.933,134.195 149.453,134.195 L149.925,134.195 C154.446,134.195 155.29,137.197 155.29,140.953 L155.29,159.256 L165.318,159.256 L165.318,140.953 C165.318,137.197 166.162,134.195 170.681,134.195 L171.154,134.195 C175.674,134.195 176.518,137.197 176.518,140.953 L176.518,159.256 Z M112.823,135.014 C112.823,133.524 114.331,132.809 115.657,132.809 C117.405,132.809 118.731,133.465 118.791,135.313 L128.614,135.313 C127.952,128.277 122.467,124.879 115.778,124.879 C109.329,124.879 102.819,128.874 102.819,135.789 C102.819,140.44 106.797,143.004 110.774,144.434 C112.221,144.971 113.668,145.447 115.114,145.924 C116.922,146.641 119.633,147.356 119.633,149.74 C119.633,151.469 117.645,152.303 116.139,152.303 C114.149,152.303 112.643,151.289 112.342,149.264 L102.397,149.264 C103.18,156.537 109.026,160.233 116.018,160.233 C122.829,160.233 129.638,156.418 129.638,148.965 C129.638,137.279 112.823,140.201 112.823,135.014 L112.823,135.014 Z M87.27,159.1 L97.274,159.1 L97.274,126.012 L87.27,126.012 L87.27,129.529 L87.149,129.529 C85.161,126.25 81.063,124.879 77.385,124.879 C67.321,124.879 60.571,132.867 60.571,142.526 C60.571,152.363 67.08,160.233 77.385,160.233 C81.002,160.233 85.34,158.922 87.149,155.524 L87.27,155.524 L87.27,159.1 Z M87.27,142.526 C87.27,147.295 83.774,150.992 78.893,150.992 C74.192,150.992 70.575,147.236 70.575,142.645 C70.575,137.936 73.95,134.119 78.833,134.119 C83.713,134.119 87.27,137.697 87.27,142.526 L87.27,142.526 Z M56.139,134.272 L58.155,134.272 L58.155,124.955 C56.86,124.955 53.778,125.039 53.778,125.039 C50.168,125.181 46.153,126.397 43.784,129.268 C41.071,132.606 40.77,135.35 40.77,139.463 L40.77,159.256 L50.776,159.256 L50.776,140.953 C50.776,137.197 51.619,134.272 56.139,134.272 L56.139,134.272 Z M34.957,145.567 C35.137,144.672 35.198,143.838 35.198,142.943 C35.198,132.986 27.785,124.879 17.539,124.879 C7.715,124.879 0,133.047 0,142.645 C0,152.303 7.956,160.174 17.719,160.174 C25.053,160.174 30.836,155.592 33.808,149.242 L23.362,149.242 C21.854,150.93 20.187,151.826 17.719,151.826 C13.801,151.826 10.487,149.502 9.885,145.567 L34.957,145.567 Z M25.194,138.889 L10.004,138.889 C10.789,135.313 13.983,133.227 17.599,133.227 C21.215,133.227 24.41,135.313 25.194,138.889 L25.194,138.889 Z" id="Fill-3" fill="#000000" mask="url(#mask-2)"></path>
    </g>
    <polyline id="Fill-5" fill="#000000" points="10.816 188.731 10.816 182.531 4.942 182.531 4.942 188.731 2.863 188.731 2.863 174.481 4.942 174.481 4.942 180.623 10.816 180.623 10.816 174.481 12.895 174.481 12.895 188.731 10.816 188.731"></polyline>
    <path d="M24.29,176.117 C22.076,176.117 20.323,177.313 19.457,179.334 C19.147,180.047 18.956,180.817 18.956,181.606 C18.956,182.397 19.147,183.186 19.457,183.916 C20.342,185.92 22.095,187.094 24.29,187.094 C26.639,187.094 28.449,185.746 29.257,183.57 C29.489,182.973 29.624,182.318 29.624,181.664 C29.624,178.641 27.391,176.117 24.29,176.117 M24.29,189 C20.207,189 16.876,185.688 16.876,181.606 C16.876,177.484 20.187,174.211 24.29,174.211 C28.449,174.211 31.703,177.504 31.703,181.645 C31.703,185.707 28.353,189 24.29,189" id="Fill-6" fill="#000000"></path>
    <path d="M45.312,188.307 C44.349,188.75 43.271,189 42.21,189 C38.128,189 34.914,185.707 34.914,181.645 C34.914,177.563 38.071,174.211 42.192,174.211 C44.869,174.211 47.314,175.713 48.585,178.063 L46.159,178.063 C45.099,176.868 43.906,176.117 42.269,176.117 C39.265,176.117 36.993,178.717 36.993,181.645 C36.993,184.533 39.341,187.094 42.289,187.094 C44.56,187.094 46.39,185.651 47.199,183.551 L40.555,183.551 L40.555,181.645 L49.568,181.645 C49.529,184.572 48.007,187.074 45.312,188.307" id="Fill-7" fill="#000000"></path>
    <polyline id="Fill-8" fill="#000000" points="53.239 188.731 53.239 174.481 60.923 174.481 60.923 176.387 55.319 176.387 55.319 180.585 60.923 180.585 60.923 182.492 55.319 182.492 55.319 186.824 60.923 186.824 60.923 188.731 53.239 188.731"></polyline>
    <path d="M68.429,189 C65.829,189 64.038,187.094 64.038,184.514 L66.117,184.514 C66.117,185.901 66.927,187.094 68.429,187.094 C69.853,187.094 70.72,186.074 70.72,184.689 C70.72,183.166 69.622,182.818 68.429,182.358 C66.214,181.51 64.443,180.856 64.443,178.082 C64.443,175.867 66.252,174.211 68.429,174.211 C70.796,174.211 72.511,175.772 72.511,178.178 L70.431,178.178 C70.431,176.945 69.661,176.117 68.429,176.117 C67.388,176.117 66.522,177.024 66.522,178.063 C66.522,181.086 72.8,179.276 72.8,184.689 C72.8,187.248 70.97,189 68.429,189" id="Fill-9" fill="#000000"></path>
    <path d="M87.277,178.121 C86.217,176.889 84.947,176.117 83.271,176.117 C80.267,176.117 77.976,178.602 77.976,181.568 C77.976,184.455 80.267,187.094 83.232,187.094 C84.734,187.094 86.16,186.344 87.123,185.207 L89.683,185.207 C88.336,187.576 85.948,189 83.214,189 C79.15,189 75.896,185.572 75.896,181.549 C75.896,177.467 79.17,174.211 83.232,174.211 C84.754,174.211 86.352,174.713 87.585,175.598 C88.586,176.311 89.183,177.061 89.78,178.121 L87.277,178.121" id="Fill-10" fill="#000000"></path>
    <polyline id="Fill-11" fill="#000000" points="101.386 188.731 101.386 182.531 95.512 182.531 95.512 188.731 93.433 188.731 93.433 174.481 95.512 174.481 95.512 180.623 101.386 180.623 101.386 174.481 103.465 174.481 103.465 188.731 101.386 188.731"></polyline>
    <path d="M114.861,176.117 C112.646,176.117 110.894,177.313 110.027,179.334 C109.718,180.047 109.527,180.817 109.527,181.606 C109.527,182.397 109.718,183.186 110.027,183.916 C110.913,185.92 112.666,187.094 114.861,187.094 C117.21,187.094 119.02,185.746 119.829,183.57 C120.06,182.973 120.195,182.318 120.195,181.664 C120.195,178.641 117.961,176.117 114.861,176.117 M114.861,189 C110.778,189 107.447,185.688 107.447,181.606 C107.447,177.484 110.759,174.211 114.861,174.211 C119.02,174.211 122.275,177.504 122.275,181.645 C122.275,185.707 118.923,189 114.861,189" id="Fill-12" fill="#000000"></path>
    <path d="M132.917,176.117 C130.703,176.117 128.95,177.313 128.083,179.334 C127.775,180.047 127.583,180.817 127.583,181.606 C127.583,182.397 127.775,183.186 128.083,183.916 C128.968,185.92 130.721,187.094 132.917,187.094 C135.265,187.094 137.076,185.746 137.884,183.57 C138.116,182.973 138.251,182.318 138.251,181.664 C138.251,178.641 136.017,176.117 132.917,176.117 M132.917,189 C128.833,189 125.503,185.688 125.503,181.606 C125.503,177.484 128.815,174.211 132.917,174.211 C137.076,174.211 140.33,177.504 140.33,181.645 C140.33,185.707 136.979,189 132.917,189" id="Fill-13" fill="#000000"></path>
    <polyline id="Fill-14" fill="#000000" points="144.369 188.731 144.369 174.481 146.447 174.481 146.447 186.824 151.396 186.824 151.396 188.731 144.369 188.731"></polyline>
    <path d="M175.419,183.186 C174.824,182.397 174.015,182.318 173.089,182.318 L171.087,182.318 L171.087,186.824 L173.341,186.824 C174.69,186.824 175.921,186.055 175.921,184.59 C175.921,184.09 175.728,183.57 175.419,183.186 M172.666,176.387 L171.087,176.387 L171.087,180.412 L172.783,180.412 C174.13,180.412 175.074,179.834 175.074,178.41 C175.074,176.889 173.996,176.387 172.666,176.387 M177.654,186.305 C176.865,188.115 175.113,188.731 173.263,188.731 L169.007,188.731 L169.007,174.481 L172.705,174.481 C174.515,174.481 176.171,175.098 176.865,176.869 C177.056,177.369 177.154,177.908 177.154,178.428 C177.154,179.604 176.75,180.372 175.882,181.125 C177.23,181.895 178.001,182.992 178.001,184.59 C178.001,185.188 177.884,185.766 177.654,186.305" id="Fill-15" fill="#000000"></path>
    <path d="M186.199,176.387 L184.003,176.387 L184.003,181.838 L185.429,181.838 C187.277,181.838 189.357,181.317 189.357,179.045 C189.357,177.234 187.855,176.387 186.199,176.387 M188.74,183.147 C188.316,183.301 187.816,183.416 187.353,183.416 L191.339,188.731 L188.74,188.731 L184.042,182.125 L184.003,182.125 L184.003,188.731 L181.923,188.731 L181.923,174.481 L186.333,174.481 C187.681,174.481 189.126,174.693 190.126,175.676 C191.033,176.541 191.437,177.813 191.437,179.045 C191.437,180.971 190.589,182.492 188.74,183.147" id="Fill-16" fill="#000000"></path>
    <path d="M203.39,187.787 C202.486,188.596 201.273,189 200.06,189 C198.845,189 197.632,188.596 196.728,187.787 C195.669,186.844 195.283,185.517 195.283,184.129 L195.283,174.481 L197.363,174.481 L197.363,184.07 C197.363,185.767 198.289,187.094 200.06,187.094 C201.832,187.094 202.755,185.767 202.755,184.07 L202.755,174.481 L204.835,174.481 L204.835,184.129 C204.835,185.517 204.451,186.844 203.39,187.787" id="Fill-17" fill="#000000"></path>
    <path d="M212.937,189 C210.337,189 208.546,187.094 208.546,184.514 L210.626,184.514 C210.626,185.901 211.435,187.094 212.937,187.094 C214.361,187.094 215.228,186.074 215.228,184.689 C215.228,183.166 214.13,182.818 212.937,182.358 C210.722,181.51 208.951,180.856 208.951,178.082 C208.951,175.867 210.761,174.211 212.937,174.211 C215.304,174.211 217.019,175.772 217.019,178.178 L214.939,178.178 C214.939,176.945 214.169,176.117 212.937,176.117 C211.896,176.117 211.031,177.024 211.031,178.063 C211.031,181.086 217.308,179.276 217.308,184.689 C217.308,187.248 215.478,189 212.937,189" id="Fill-18" fill="#000000"></path>
    <path d="M224.775,189 C222.175,189 220.384,187.094 220.384,184.514 L222.463,184.514 C222.463,185.901 223.273,187.094 224.775,187.094 C226.201,187.094 227.066,186.074 227.066,184.689 C227.066,183.166 225.968,182.818 224.775,182.358 C222.56,181.51 220.789,180.856 220.789,178.082 C220.789,175.867 222.599,174.211 224.775,174.211 C227.144,174.211 228.857,175.772 228.857,178.178 L226.779,178.178 C226.779,176.945 226.007,176.117 224.775,176.117 C223.736,176.117 222.869,177.024 222.869,178.063 C222.869,181.086 229.146,179.276 229.146,184.689 C229.146,187.248 227.318,189 224.775,189" id="Fill-19" fill="#000000"></path>
    <polyline id="Fill-20" fill="#000000" points="233.052 188.731 233.052 174.481 240.734 174.481 240.734 176.387 235.13 176.387 235.13 180.585 240.734 180.585 240.734 182.492 235.13 182.492 235.13 186.824 240.734 186.824 240.734 188.731 233.052 188.731"></polyline>
    <polyline id="Fill-21" fill="#000000" points="245.064 188.731 245.064 174.481 247.142 174.481 247.142 186.824 252.091 186.824 252.091 188.731 245.064 188.731"></polyline>
  </g>
</svg>
