<?xml version="1.0" encoding="UTF-8"?>
<svg xmlns="http://www.w3.org/2000/svg" xmlns:xlink="http://www.w3.org/1999/xlink" width="218px" height="98px" viewBox="0 0 218 98" version="1.1">
  <!-- Generator: Sketch 64 (93537) - https://sketch.com -->
  <title>LOGO-HOWEST_university_of_applied_sciences-QUARDI-ZWART+LIJNTJES</title>
  <desc>Created with Sketch.</desc>
  <g id="LOGO-HOWEST_university_of_applied_sciences-QUARDI-ZWART+LIJNTJES" stroke="none" stroke-width="1" fill="none" fill-rule="evenodd">
    <path d="M2,69.7767205 C2,69.2977429 2.28155755,69 2.72885466,69 C3.17715019,69 3.45870774,69.2977429 3.45870774,69.7767205 L3.45870774,74.4420226 C3.45870774,75.9476654 4.12266438,76.7413145 5.49950078,76.7413145 C6.87633718,76.7413145 7.54029382,75.9476654 7.54029382,74.4420226 L7.54029382,69.7767205 C7.54029382,69.2977429 7.82185138,69 8.26914848,69 C8.71844245,69 9,69.2977429 9,69.7767205 L9,74.4918123 C9,77.0729144 7.27371274,78 5.49950078,78 C3.72528883,78 2,77.0729144 2,74.4918123 L2,69.7767205 Z" id="Fill-1" fill="#1D1D1B"></path>
    <path d="M11,69.7767205 C11,69.2977429 11.2815576,69 11.7288547,69 C12.1781486,69 12.4597062,69.2977429 12.4597062,69.7767205 L12.4597062,70.1252489 L12.4926544,70.1571144 C13.1396377,69.3296083 14.0522037,69 14.9318214,69 C16.2916845,69 18,69.8593715 18,72.340894 L18,77.2222837 C18,77.7012613 17.7184424,78 17.2701469,78 C16.8218514,78 16.5402938,77.7012613 16.5402938,77.2222837 L16.5402938,72.423545 C16.5402938,70.8850409 15.4619883,70.256694 14.4995008,70.256694 C13.5380117,70.256694 12.4597062,70.8850409 12.4597062,72.423545 L12.4597062,77.2222837 C12.4597062,77.7012613 12.1781486,78 11.7288547,78 C11.2815576,78 11,77.7012613 11,77.2222837 L11,69.7767205 Z" id="Fill-3" fill="#1D1D1B"></path>
    <path d="M21.8149387,77.2208181 C21.8149387,77.7006984 21.5005574,78 21.0011148,78 C20.4994426,78 20.1850613,77.7006984 20.1850613,77.2208181 L20.1850613,69.7612238 C20.1850613,69.2813435 20.4994426,68.9830396 21.0011148,68.9830396 C21.5005574,68.9830396 21.8149387,69.2813435 21.8149387,69.7612238 L21.8149387,77.2208181 Z M21.0011148,66 C21.5562988,66 22,66.3970735 22,66.8939142 C22,67.3917526 21.5562988,67.7898237 21.0011148,67.7898237 C20.4448161,67.7898237 20,67.3917526 20,66.8939142 C20,66.3970735 20.4448161,66 21.0011148,66 L21.0011148,66 Z" id="Fill-5" fill="#1D1D1B"></path>
    <path d="M23.1509188,70.2736225 C23.049631,70.0077451 23,69.842443 23,69.677141 C23,69.2479531 23.3190566,69 23.672551,69 C24.1607582,69 24.328896,69.2310246 24.4463898,69.5616287 L26.4832875,75.6489268 L26.5156996,75.6489268 L28.5525973,69.5616287 C28.6700912,69.2310246 28.8382289,69 29.3264361,69 C29.6799305,69 30,69.2479531 30,69.677141 C30,69.842443 29.9493561,70.0077451 29.8480683,70.2736225 L27.2733324,77.3706572 C27.1224135,77.8008409 26.9704818,78 26.5005064,78 C26.0285053,78 25.8765736,77.8008409 25.7256548,77.3706572 L23.1509188,70.2736225 Z" id="Fill-7" fill="#1D1D1B"></path>
    <path d="M37.4946624,72.9702368 C37.4946624,71.712547 36.743537,70.256694 35.0848875,70.256694 C33.2214791,70.1899757 32.5547267,71.6289002 32.5022508,72.9702368 L37.4946624,72.9702368 Z M32.5022508,74.0616287 C32.5022508,75.5672715 33.4941479,76.7413145 35.1877814,76.7413145 C37.1870096,76.7413145 37.6994212,75.5513388 38.2643087,75.5513388 C38.5380064,75.5513388 38.8117042,75.7823634 38.8117042,76.1956185 C38.8117042,76.9066165 36.9482958,78 35.1702894,78 C32.2645659,78 31,75.8321531 31,73.4990042 C31,71.1180571 32.5382637,69 35.0848875,69 C37.5625723,69 39,71.1658553 39,73.2839124 C39,73.7977429 38.8117042,74.0616287 38.1614148,74.0616287 L32.5022508,74.0616287 Z" id="Fill-9" fill="#1D1D1B"></path>
    <path d="M40,69.7767205 C40,69.2977429 40.2621427,69 40.6795259,69 C41.0969091,69 41.3590518,69.2977429 41.3590518,69.7767205 L41.3590518,70.5215756 L41.3897281,70.5215756 C41.6992796,69.842443 42.455961,69 43.2433186,69 C43.7220544,69 44,69.3296083 44,69.7438593 C44,70.1571144 43.7220544,70.421996 43.1512898,70.5385041 C42.3471996,70.6868776 41.3590518,71.3321531 41.3590518,73.0349635 L41.3590518,77.2222837 C41.3590518,77.7012613 41.0969091,78 40.6795259,78 C40.2621427,78 40,77.7012613 40,77.2222837 L40,69.7767205 Z" id="Fill-11" fill="#1D1D1B"></path>
    <path d="M48.6069355,69 C49.9040636,69 51.7519096,69.6442797 51.7519096,70.5544368 C51.7519096,70.8691082 51.5209288,71.1509183 51.0407883,71.1509183 C50.3660251,71.1509183 50.0997556,70.2576898 48.6069355,70.2576898 C47.7183013,70.2576898 46.9547815,70.6211551 46.9547815,71.3650144 C46.9547815,72.9045143 52,72.7392122 52,75.2854614 C52,77.1227041 50.3136266,78 48.5534678,78 C46.5644668,78 45,77.0729144 45,76.3280593 C45,75.9317327 45.3026276,75.6658553 45.6405438,75.6658553 C46.3334861,75.6658553 46.9013138,76.7413145 48.6069355,76.7413145 C49.7436603,76.7413145 50.4376719,76.1468245 50.4376719,75.5513388 C50.4376719,73.8306041 45.3913841,73.9301837 45.3913841,71.4815225 C45.3913841,69.8593715 47.025359,69 48.6069355,69" id="Fill-13" fill="#1D1D1B"></path>
    <path d="M54.8139276,77.2208181 C54.8139276,77.7006984 54.4997214,78 54.0005571,78 C53.5002786,78 53.1860724,77.7006984 53.1860724,77.2208181 L53.1860724,69.7612238 C53.1860724,69.2813435 53.5002786,68.9830396 54.0005571,68.9830396 C54.4997214,68.9830396 54.8139276,69.2813435 54.8139276,69.7612238 L54.8139276,77.2208181 Z M54.0005571,66 C54.556546,66 55,66.3970735 55,66.8939142 C55,67.3917526 54.556546,67.7898237 54.0005571,67.7898237 C53.4445682,67.7898237 53,67.3917526 53,66.8939142 C53,66.3970735 53.4445682,66 54.0005571,66 L54.0005571,66 Z" id="Fill-15" fill="#1D1D1B"></path>
    <path d="M57.2902913,66.8048151 C57.2902913,66.3085125 57.5640777,66 57.9990291,66 C58.4349515,66 58.7097087,66.3085125 58.7097087,66.8048151 L58.7097087,68.7766122 L59.2902913,68.7766122 C59.7582524,68.7766122 60,69.0159931 60,69.427687 C60,69.8393809 59.7582524,70.0787618 59.2902913,70.0787618 L58.7097087,70.0787618 L58.7097087,77.1931212 C58.7097087,77.6904557 58.4349515,78 57.9990291,78 C57.5640777,78 57.2902913,77.6904557 57.2902913,77.1931212 L57.2902913,70.0787618 L56.7087379,70.0787618 C56.2417476,70.0787618 56,69.8393809 56,69.427687 C56,69.0159931 56.2417476,68.7766122 56.7087379,68.7766122 L57.2902913,68.7766122 L57.2902913,66.8048151 Z" id="Fill-17" fill="#1D1D1B"></path>
    <path d="M61.2045221,70.4829568 C61.0339157,69.9661531 61,69.8104893 61,69.6382214 C61,69.2584019 61.3412127,69 61.6824255,69 C62.0585817,69 62.331963,69.2417977 62.4337102,69.5686916 L64.5169579,75.8626966 L64.5508736,75.8626966 L66.6002055,69.5686916 C66.7029805,69.2417977 66.9414183,69 67.3175745,69 C67.6577595,69 68,69.2584019 68,69.6382214 C68,69.8104893 67.9660843,69.9661531 67.7954779,70.4829568 L64.0051387,81.4313084 C63.8848921,81.7582023 63.6464543,82 63.270298,82 C62.9290853,82 62.5878726,81.7415981 62.5878726,81.3617786 C62.5878726,81.1895107 62.6217883,81.0348846 62.8098664,80.5170432 L63.7656732,77.9475533 L61.2045221,70.4829568 Z" id="Fill-19" fill="#1D1D1B"></path>
    <path d="M77,76.7413145 C78.845679,76.7413145 79.4958848,74.9887143 79.4958848,73.4990042 C79.4958848,72.0102899 78.845679,70.256694 77,70.256694 C75.1532922,70.256694 74.5041152,72.0102899 74.5041152,73.4990042 C74.5041152,74.9887143 75.1532922,76.7413145 77,76.7413145 M77,69 C79.563786,69 81,71.1658553 81,73.4990042 C81,75.8321531 79.563786,78 77,78 C74.436214,78 73,75.8321531 73,73.4990042 C73,71.1658553 74.436214,69 77,69" id="Fill-21" fill="#1D1D1B"></path>
    <path d="M85.0650121,77.2145289 C85.0650121,77.6982825 84.7553262,78 84.2622447,78 C83.7691632,78 83.4594773,77.6982825 83.4594773,77.2145289 L83.4594773,70.27905 L82.8016692,70.27905 C82.2734461,70.27905 82,70.0467275 82,69.6454433 C82,69.2431533 82.2734461,69.0108309 82.8016692,69.0108309 L83.4594773,69.0108309 L83.4594773,66.9219403 C83.4594773,65.6346124 84.4269712,65 85.5932352,65 L86.0874149,65 C86.5058203,65 87,65.2343339 87,65.6346124 C87,66.0358966 86.7254557,66.2702305 86.1236547,66.2702305 L85.7217219,66.2702305 C85.2286405,66.2702305 85.0650121,66.4874671 85.0650121,66.8545567 L85.0650121,69.0108309 L86.0687459,69.0108309 C86.5980672,69.0108309 86.8715133,69.2431533 86.8715133,69.6454433 C86.8715133,70.0467275 86.5980672,70.27905 86.0687459,70.27905 L85.0650121,70.27905 L85.0650121,77.2145289 Z" id="Fill-23" fill="#1D1D1B"></path>
    <path d="M96.0431561,76.7413145 C97.9087482,76.7413145 98.5659691,74.9887143 98.5659691,73.4990042 C98.5659691,72.0102899 97.9087482,70.256694 96.0431561,70.256694 C94.1765241,70.256694 93.5203432,72.0102899 93.5203432,73.4990042 C93.5203432,74.9887143 94.1765241,76.7413145 96.0431561,76.7413145 L96.0431561,76.7413145 Z M100,77.2880062 C100,77.7998451 99.5840374,78 99.2907838,78 C98.9798518,78 98.5826076,77.7998451 98.5826076,77.2880062 L98.5826076,76.6755919 L98.5482907,76.6755919 C97.8910698,77.5688205 97.0269076,78 96.0431561,78 C93.4517093,78 92,75.8321531 92,73.4990042 C92,71.1658553 93.4517093,69 96.0431561,69 C97.0976212,69 97.8401144,69.4291879 98.5482907,70.1730471 L98.5826076,70.1730471 L98.5826076,69.710998 C98.5826076,69.1981633 98.9798518,69 99.2907838,69 C99.5840374,69 100,69.1981633 100,69.710998 L100,77.2880062 Z" id="Fill-25" fill="#1D1D1B"></path>
    <path d="M105.920273,77.0681782 C107.803304,77.0681782 108.46525,75.2415775 108.46525,73.6889669 C108.46525,72.1373942 107.803304,70.3097557 105.920273,70.3097557 C104.03829,70.3097557 103.375295,72.1373942 103.375295,73.6889669 C103.375295,75.2415775 104.03829,77.0681782 105.920273,77.0681782 L105.920273,77.0681782 Z M102,69.8095162 C102,69.3092767 102.29583,69 102.765801,69 C103.235772,69 103.5337,69.3092767 103.5337,69.8095162 L103.5337,70.2578636 L103.568319,70.2578636 C104.003672,69.4307041 104.822974,69 106.041962,69 C108.552321,69 110,71.2573048 110,73.6889669 C110,76.1206291 108.552321,78.3800096 106.041962,78.3800096 C104.822974,78.3800096 103.969053,77.7064506 103.568319,77.1377136 L103.5337,77.1377136 L103.5337,81.1904838 C103.5337,81.6896855 103.235772,82 102.765801,82 C102.29583,82 102,81.6896855 102,81.1904838 L102,69.8095162 Z" id="Fill-27" fill="#1D1D1B"></path>
    <path d="M114.921322,77.0681782 C116.803304,77.0681782 117.46525,75.2415775 117.46525,73.6889669 C117.46525,72.1373942 116.803304,70.3097557 114.921322,70.3097557 C113.039339,70.3097557 112.375295,72.1373942 112.375295,73.6889669 C112.375295,75.2415775 113.039339,77.0681782 114.921322,77.0681782 L114.921322,77.0681782 Z M111,69.8095162 C111,69.3092767 111.29583,69 111.765801,69 C112.235772,69 112.532651,69.3092767 112.532651,69.8095162 L112.532651,70.2578636 L112.568319,70.2578636 C113.003672,69.4307041 113.822974,69 115.041962,69 C117.55337,69 119,71.2573048 119,73.6889669 C119,76.1206291 117.55337,78.3800096 115.041962,78.3800096 C113.822974,78.3800096 112.969053,77.7064506 112.568319,77.1377136 L112.532651,77.1377136 L112.532651,81.1904838 C112.532651,81.6896855 112.235772,82 111.765801,82 C111.29583,82 111,81.6896855 111,81.1904838 L111,69.8095162 Z" id="Fill-29" fill="#1D1D1B"></path>
    <path d="M122,77.2145289 C122,77.6982825 121.80643,78 121.5,78 C121.192202,78 121,77.6982825 121,77.2145289 L121,65.7854711 C121,65.3007117 121.192202,65 121.5,65 C121.80643,65 122,65.3007117 122,65.7854711 L122,77.2145289 Z" id="Fill-31" fill="#1D1D1B"></path>
    <path d="M126.813928,77.2208181 C126.813928,77.7006984 126.499721,78 126.000557,78 C125.499164,78 125.186072,77.7006984 125.186072,77.2208181 L125.186072,69.7612238 C125.186072,69.2813435 125.499164,68.9830396 126.000557,68.9830396 C126.499721,68.9830396 126.813928,69.2813435 126.813928,69.7612238 L126.813928,77.2208181 Z M126.000557,66 C126.556546,66 127,66.3970735 127,66.8939142 C127,67.3917526 126.556546,67.7898237 126.000557,67.7898237 C125.444568,67.7898237 125,67.3917526 125,66.8939142 C125,66.3970735 125.444568,66 126.000557,66 L126.000557,66 Z" id="Fill-33" fill="#1D1D1B"></path>
    <path d="M134.495691,72.9702368 C134.495691,71.712547 133.744566,70.256694 132.085916,70.256694 C130.222508,70.1899757 129.555756,71.6289002 129.50328,72.9702368 L134.495691,72.9702368 Z M129.50328,74.0616287 C129.50328,75.5672715 130.495177,76.7413145 132.187781,76.7413145 C134.188039,76.7413145 134.70045,75.5513388 135.265338,75.5513388 C135.539035,75.5513388 135.811704,75.7823634 135.811704,76.1956185 C135.811704,76.9066165 133.949325,78 132.170289,78 C129.264566,78 128,75.8321531 128,73.4990042 C128,71.1180571 129.539293,69 132.085916,69 C134.563601,69 136,71.1658553 136,73.2839124 C136,73.7977429 135.811704,74.0616287 135.161415,74.0616287 L129.50328,74.0616287 Z" id="Fill-35" fill="#1D1D1B"></path>
    <path d="M141.078164,70.1798839 C139.194885,70.1798839 138.532852,71.9511025 138.532852,73.4547776 C138.532852,74.9594584 139.194885,76.7296712 141.078164,76.7296712 C142.961443,76.7296712 143.623475,74.9594584 143.623475,73.4547776 C143.623475,71.9511025 142.961443,70.1798839 141.078164,70.1798839 L141.078164,70.1798839 Z M143.466098,76.7799613 L143.431475,76.7799613 C142.996066,77.5815861 142.176656,78 140.956459,78 C138.44577,78 137,75.8113733 137,73.4547776 C137,71.0981818 138.44577,68.9095551 140.956459,68.9095551 C142.176656,68.9095551 143.030689,69.5613153 143.431475,70.1124952 L143.466098,70.1124952 L143.466098,65.7845261 C143.466098,65.2997292 143.763016,65 144.233049,65 C144.704131,65 145,65.2997292 145,65.7845261 L145,77.2144681 C145,77.699265 144.704131,78 144.233049,78 C143.763016,78 143.466098,77.699265 143.466098,77.2144681 L143.466098,76.7799613 Z" id="Fill-37" fill="#1D1D1B"></path>
    <path d="M154.607487,69 C155.903743,69 157.750802,69.6442797 157.750802,70.5544368 C157.750802,70.8691082 157.520856,71.1509183 157.039572,71.1509183 C156.366845,71.1509183 156.099465,70.2576898 154.607487,70.2576898 C153.718717,70.2576898 152.954011,70.6211551 152.954011,71.3650144 C152.954011,72.9045143 158,72.7392122 158,75.2854614 C158,77.1227041 156.313369,78 154.552941,78 C152.563636,78 151,77.0729144 151,76.3280593 C151,75.9317327 151.301604,75.6658553 151.639572,75.6658553 C152.33262,75.6658553 152.900535,76.7413145 154.607487,76.7413145 C155.743316,76.7413145 156.436364,76.1468245 156.436364,75.5513388 C156.436364,73.8306041 151.390374,73.9301837 151.390374,71.4815225 C151.390374,69.8593715 153.025668,69 154.607487,69" id="Fill-39" fill="#1D1D1B"></path>
    <path d="M162.759195,69 C164.169129,69 165,69.5128347 165,70.1083204 C165,70.4060633 164.765168,70.7207347 164.435083,70.7207347 C163.903175,70.7207347 163.699466,70.2576898 162.759195,70.2576898 C161.051242,70.2576898 160.377869,72.0102899 160.377869,73.5 C160.377869,74.9897101 161.051242,76.7413145 162.759195,76.7413145 C163.730588,76.7413145 163.981452,76.2464041 164.420937,76.2464041 C164.734046,76.2464041 164.952845,76.4614959 164.952845,76.8588183 C164.952845,77.4035185 164.186105,78 162.759195,78 C160.221314,78 159,75.8321531 159,73.5 C159,71.1668511 160.221314,69 162.759195,69" id="Fill-41" fill="#1D1D1B"></path>
    <path d="M168.814939,77.2208181 C168.814939,77.7006984 168.499443,78 168.001115,78 C167.499443,78 167.185061,77.7006984 167.185061,77.2208181 L167.185061,69.7612238 C167.185061,69.2813435 167.499443,68.9830396 168.001115,68.9830396 C168.499443,68.9830396 168.814939,69.2813435 168.814939,69.7612238 L168.814939,77.2208181 Z M168.001115,66 C168.556299,66 169,66.3970735 169,66.8939142 C169,67.3917526 168.556299,67.7898237 168.001115,67.7898237 C167.444816,67.7898237 167,67.3917526 167,66.8939142 C167,66.3970735 167.444816,66 168.001115,66 L168.001115,66 Z" id="Fill-43" fill="#1D1D1B"></path>
    <path d="M176.494662,72.9702368 C176.494662,71.712547 175.742508,70.256694 174.083859,70.256694 C172.221479,70.1899757 171.553698,71.6289002 171.502251,72.9702368 L176.494662,72.9702368 Z M171.502251,74.0616287 C171.502251,75.5672715 172.494148,76.7413145 174.187781,76.7413145 C176.18701,76.7413145 176.699421,75.5513388 177.264309,75.5513388 C177.538006,75.5513388 177.811704,75.7823634 177.811704,76.1956185 C177.811704,76.9066165 175.947267,78 174.170289,78 C171.264566,78 170,75.8321531 170,73.4990042 C170,71.1180571 171.537235,69 174.083859,69 C176.562572,69 178,71.1658553 178,73.2839124 C178,73.7977429 177.811704,74.0616287 177.161415,74.0616287 L171.502251,74.0616287 Z" id="Fill-45" fill="#1D1D1B"></path>
    <path d="M180,69.7767205 C180,69.2977429 180.281558,69 180.729853,69 C181.17715,69 181.459706,69.2977429 181.459706,69.7767205 L181.459706,70.1252489 L181.492654,70.1571144 C182.140636,69.3296083 183.052204,69 183.931821,69 C185.291684,69 187,69.8593715 187,72.340894 L187,77.2222837 C187,77.7012613 186.718442,78 186.270147,78 C185.82285,78 185.540294,77.7012613 185.540294,77.2222837 L185.540294,72.423545 C185.540294,70.8850409 184.461988,70.256694 183.499501,70.256694 C182.538012,70.256694 181.459706,70.8850409 181.459706,72.423545 L181.459706,77.2222837 C181.459706,77.7012613 181.17715,78 180.729853,78 C180.281558,78 180,77.7012613 180,77.2222837 L180,69.7767205 Z" id="Fill-47" fill="#1D1D1B"></path>
    <path d="M192.759547,69 C194.16926,69 195,69.5128347 195,70.1083204 C195,70.4060633 194.765205,70.7207347 194.436115,70.7207347 C193.903347,70.7207347 193.69967,70.2576898 192.759547,70.2576898 C191.050919,70.2576898 190.378595,72.0102899 190.378595,73.5 C190.378595,74.9897101 191.050919,76.7413145 192.759547,76.7413145 C193.729844,76.7413145 193.981612,76.2464041 194.421028,76.2464041 C194.734088,76.2464041 194.952852,76.4614959 194.952852,76.8588183 C194.952852,77.4035185 194.18529,78 192.759547,78 C190.222065,78 189,75.8321531 189,73.5 C189,71.1668511 190.222065,69 192.759547,69" id="Fill-49" fill="#1D1D1B"></path>
    <path d="M202.495691,72.9702368 C202.495691,71.712547 201.744566,70.256694 200.085916,70.256694 C198.223537,70.1899757 197.555756,71.6289002 197.504309,72.9702368 L202.495691,72.9702368 Z M197.504309,74.0616287 C197.504309,75.5672715 198.495177,76.7413145 200.187781,76.7413145 C202.188039,76.7413145 202.70045,75.5513388 203.265338,75.5513388 C203.539035,75.5513388 203.811704,75.7823634 203.811704,76.1956185 C203.811704,76.9066165 201.949325,78 200.170289,78 C197.264566,78 196,75.8321531 196,73.4990042 C196,71.1180571 197.539293,69 200.085916,69 C202.563601,69 204,71.1658553 204,73.2839124 C204,73.7977429 203.811704,74.0616287 203.162444,74.0616287 L197.504309,74.0616287 Z" id="Fill-51" fill="#1D1D1B"></path>
    <path d="M208.605866,69 C209.902994,69 211.75084,69.6442797 211.75084,70.5544368 C211.75084,70.8691082 211.520929,71.1509183 211.039719,71.1509183 C210.366025,71.1509183 210.098686,70.2576898 208.605866,70.2576898 C207.718301,70.2576898 206.954782,70.6211551 206.954782,71.3650144 C206.954782,72.9045143 212,72.7392122 212,75.2854614 C212,77.1227041 210.311488,78 208.552398,78 C206.562328,78 205,77.0729144 205,76.3280593 C205,75.9317327 205.301558,75.6658553 205.640544,75.6658553 C206.331347,75.6658553 206.900244,76.7413145 208.605866,76.7413145 C209.742591,76.7413145 210.436603,76.1468245 210.436603,75.5513388 C210.436603,73.8306041 205.390315,73.9301837 205.390315,71.4815225 C205.390315,69.8593715 207.02429,69 208.605866,69" id="Fill-53" fill="#1D1D1B"></path>
    <path d="M2,16.2582017 C2,13.1030826 3.96072757,11 6.70811206,11 C9.45451076,11 11.4181957,13.1030826 11.4181957,16.2582017 L11.4181957,29.1402016 L11.5483194,29.1402016 C13.5110185,26.7082338 17.1732121,25.8543208 20.1157821,25.8543208 C27.5062168,25.8543208 33,30.5855137 33,38.6045685 L33,56.7437795 C33,59.8969174 31.0373009,62 28.2909022,62 C25.5445035,62 23.5827901,59.8969174 23.5827901,56.7437795 L23.5827901,40.2470136 C23.5827901,35.8437154 20.8354056,33.7406328 17.4344453,33.7406328 C13.5750946,33.7406328 11.4181957,36.5658761 11.4181957,40.2470136 L11.4181957,56.7437795 C11.4181957,59.8969174 9.45451076,62 6.70811206,62 C3.96072757,62 2,59.8969174 2,56.7437795 L2,16.2582017 Z" id="Fill-55" fill="#1D1D1B"></path>
    <path d="M47.4884183,44.5667037 C47.4884183,49.158728 49.8600263,54.2161737 54.9995034,54.2161737 C60.1389806,54.2161737 62.5105886,49.158728 62.5105886,44.5667037 C62.5105886,39.9746794 60.2055207,34.7838263 54.9995034,34.7838263 C49.7934862,34.7838263 47.4884183,39.9746794 47.4884183,44.5667037 M72,44.5667037 C72,54.5491908 65.2129108,63 54.9995034,63 C44.7860961,63 38,54.5491908 38,44.5667037 C38,34.8500285 44.9847232,26 54.9995034,26 C65.0142836,26 72,34.8500285 72,44.5667037" id="Fill-57" fill="#1D1D1B"></path>
    <path d="M75.0011245,35.3381546 C74.3340436,33.4189526 74,32.2279302 74,30.838404 C74,28.7206983 76.0022491,27 78.8064039,27 C81.1426965,27 82.8119081,28.5221945 83.3451705,30.7715711 L88.8860677,48.9720698 L89.0198864,48.9720698 L94.6271899,31.1685786 C95.3606771,28.5880299 96.6958452,27 99.5,27 C102.304155,27 103.638317,28.5880299 104.37281,31.1685786 L109.980114,48.9720698 L110.112926,48.9720698 L115.653823,30.7715711 C116.188092,28.5221945 117.857304,27 120.193596,27 C122.996745,27 125,28.7206983 125,31.632419 C125,32.6917706 124.533144,33.7501247 124.065282,35.2064838 L115.855054,58.1700748 C114.852924,60.9501247 113.184718,63 110.047526,63 C107.109553,63 105.373935,61.3461347 104.506629,58.5670823 L99.5664062,43.2144638 L99.4325876,43.2144638 L94.4933712,58.5670823 C93.6260653,61.3461347 91.8894413,63 88.952474,63 C85.8152817,63 84.1470762,60.9501247 83.1459517,58.1700748 L75.0011245,35.3381546 Z" id="Fill-59" fill="#1D1D1B"></path>
    <path d="M152.529563,41.3057446 C152.004198,37.1129395 149.37242,33.9853878 144.966297,33.9853878 C140.757434,33.9853878 137.930379,37.246347 137.470437,41.3057446 L152.529563,41.3057446 Z M137.666706,47.6942554 C138.324898,52.4196872 142.204665,54.615393 146.610787,54.615393 C151.476851,54.615393 154.831254,50.755605 157.331195,50.755605 C159.369213,50.755605 161.210962,52.8189064 161.210962,54.8822078 C161.210962,59.0068046 152.794227,63 145.756327,63 C135.102332,63 128,55.1480196 128,44.5667037 C128,34.8500285 134.970496,26 144.966297,26 C155.226764,26 162,35.4498604 162,43.4352482 C162,46.2969881 160.75102,47.6942554 157.85656,47.6942554 L137.666706,47.6942554 Z" id="Fill-61" fill="#1D1D1B"></path>
    <path d="M187.212652,37.1801448 C185.416394,37.1801448 181.758724,34.384607 178.632314,34.384607 C176.904217,34.384607 175.373589,35.1840486 175.373589,37.0467373 C175.373589,41.5053542 192,40.8403231 192,51.7546561 C192,58.1421639 186.613231,63 178.367686,63 C172.980918,63 165,59.9386505 165,55.613441 C165,54.1499715 166.463469,51.3544338 169.122772,51.3544338 C172.847602,51.3544338 174.509541,54.615393 179.032262,54.615393 C181.9592,54.615393 182.823248,53.683547 182.823248,51.8870605 C182.823248,47.4956489 166.196837,48.1606799 166.196837,37.1801448 C166.196837,30.524819 171.583606,26 179.165578,26 C183.886769,26 191.135952,28.1957058 191.135952,32.9211375 C191.135952,35.1168433 189.47301,37.1801448 187.212652,37.1801448" id="Fill-63" fill="#1D1D1B"></path>
    <path d="M200.260808,35.4949471 L198.152019,35.4949471 C195.582336,35.4949471 194,33.892926 194,31.2886353 C194,28.8856036 195.779011,27.0833298 198.152019,27.0833298 L200.260808,27.0833298 L200.260808,21.3414122 C200.260808,18.1363636 202.237487,16 205.00583,16 C207.773181,16 209.750853,18.1363636 209.750853,21.3414122 L209.750853,27.0833298 L212.452645,27.0833298 C214.891211,27.0833298 217,28.2174239 217,31.2886353 C217,34.2934313 214.891211,35.4949471 212.452645,35.4949471 L209.750853,35.4949471 L209.750853,57.6595941 C209.750853,60.8636364 207.773181,63 205.00583,63 C202.237487,63 200.260808,60.8636364 200.260808,57.6595941 L200.260808,35.4949471 Z" id="Fill-65" fill="#1D1D1B"></path>
    <path d="M106.668743,22 L112.961397,3.00892621 C113.09586,2.59861012 112.868076,2.16283289 112.448633,2.03552719 C112.0322,1.9072422 111.579642,2.13737175 111.444176,2.54866712 L105,22 L106.668743,22 Z" id="Fill-67" fill="#1D1D1B"></path>
    <path d="M86.2415006,81 L81.0410795,95.9855197 C80.898327,96.3976215 81.1394201,96.8363424 81.5814242,96.9654939 C81.6639034,96.9891552 81.74744,97 81.8299193,97 C82.1873293,97 82.5225333,96.7850761 82.6399076,96.4498737 L88,81 L86.2415006,81 Z" id="Fill-69" fill="#1D1D1B"></path>
  </g>
</svg>
