<?xml version="1.0" encoding="UTF-8"?>
<svg xmlns="http://www.w3.org/2000/svg" xmlns:xlink="http://www.w3.org/1999/xlink" width="210px" height="166px" viewBox="0 0 210 166" version="1.1">
  <!-- Generator: Sketch 64 (93537) - https://sketch.com -->
  <title>huisstijl_-_logo_luca_outlined_transparant_eps</title>
  <desc>Created with Sketch.</desc>
  <g id="huisstijl_-_logo_luca_outlined_transparant_eps" stroke="none" stroke-width="1" fill="none" fill-rule="evenodd">
    <path d="M191.655463,37.582 L184.543151,22.517 L180.421243,13.203 L176.461976,22.517 L165.794506,46.248 L191.655463,37.582 Z M150.761664,56.534 L174.117148,1.459 L185.513012,1.459 L210,56.534 L200.706499,56.534 L195.61473,45.924 L161.18667,56.534 L150.761664,56.534 Z M150.838495,37.015 C148.334019,50.055 138.313123,57.587 124.896716,57.587 C107.683683,57.587 96.127174,45.762 96.127174,28.51 C96.127174,11.745 107.601864,0 124.331962,0 C134.110393,0 142.435031,4.293 147.44498,11.664 L140.41349,18.953 C136.614869,13.607 131.039167,10.611 124.331962,10.611 C113.178563,10.611 105.824784,18.305 105.824784,29.725 C105.824784,41.145 113.097741,48.92 124.735072,48.92 C132.978889,48.92 138.958699,44.628 140.98024,37.015 L150.838495,37.015 Z M77.6968266,48.84 C75.1105313,54.671 69.4540081,57.344 62.2608743,57.344 C51.0276519,57.344 42.1382596,50.784 42.1382596,36.609 L42.1382596,1.459 L51.8358692,1.459 L51.8358692,34.909 C51.8358692,44.223 56.6043512,48.759 64.2814175,48.759 C72.0403034,48.759 77.1310745,44.142 77.1310745,34.909 L77.1310745,1.459 L86.8296819,1.459 L86.8296819,56.534 L77.6968266,56.534 L77.6968266,48.84 Z M37.6900712,56.534 L2.45479111,56.534 L2.45479111,1.459 L12.1524007,1.459 L12.1524007,48.03 L37.6900712,48.03 L37.6900712,56.534 Z M1,75 L39.6297927,75 L39.6297927,66.901 L1,66.901 L1,75 Z" id="Fill-1" fill="#000000"></path>
    <path d="M3.71332064,101.811287 C3.80568691,103.917628 5.29140822,105.777032 8.3552171,105.777032 C10.9856906,105.777032 12.316158,104.538413 12.316158,102.863966 C12.316158,101.532868 11.4504698,100.44674 7.82951545,99.6419819 C2.6304735,98.5578213 0.525701652,96.5429747 0.525701652,93.1970307 C0.525701652,89.6346481 3.34189032,87 7.92188172,87 C11.0475957,87 13.709513,88.3310974 15.4418719,90.6873267 L13.6476079,94.0637689 C12.1923478,92.2358465 9.99520973,91.1211877 7.6742615,91.1211877 C5.38475711,91.1211877 4.20856108,92.1433682 4.20856108,93.6318755 C4.20856108,94.9019766 4.95142173,95.8621769 8.78855248,96.6364368 C14.2666585,97.7205974 16,99.7029783 16,102.739022 C16,106.643771 12.9666523,109 8.23140699,109 C2.53712461,109 0,105.529112 0,101.811287 L3.71332064,101.811287" id="Fill-2" fill="#000000"></path>
    <path d="M40,101.140401 C39.0377544,106.121422 35.1917269,109 30.0426789,109 C23.4359816,109 19,104.482695 19,97.8914393 C19,91.4858661 23.4054498,87 29.8250164,87 C33.5784636,87 36.7734734,88.6406913 38.6969796,91.4554102 L35.9983585,94.2406556 C34.5407091,92.1981423 32.3995404,91.0526057 29.8250164,91.0526057 C25.5446487,91.0526057 22.7219304,93.9930782 22.7219304,98.3561381 C22.7219304,102.717233 25.5141169,105.688161 29.9806303,105.688161 C33.1441234,105.688161 35.4399212,104.049435 36.2150361,101.140401 L40,101.140401" id="Fill-3" fill="#000000"></path>
    <polyline id="Fill-4" fill="#000000" points="57.1293957 99.2919176 46.8716285 99.2919176 46.8716285 108 43 108 43 87 46.8716285 87 46.8716285 95.894383 57.1293957 95.894383 57.1293957 87 61 87 61 108 57.1293957 108 57.1293957 99.2919176"></polyline>
    <path d="M83.2704781,98.3256821 C83.2704781,93.9930782 80.3559184,91.0526057 75.9995025,91.0526057 C71.6749288,91.0526057 68.7603691,93.9930782 68.7603691,98.3561381 C68.7603691,102.717233 71.6440816,105.688161 75.9995025,105.688161 C80.3250712,105.688161 83.2704781,102.717233 83.2704781,98.3256821 Z M75.9995025,87 C82.4555159,87 87,91.4858661 87,97.8914393 C87,104.482695 82.486363,109 75.9995025,109 C69.5444841,109 65,104.482695 65,97.8914393 C65,91.4858661 69.5126419,87 75.9995025,87 L75.9995025,87 Z" id="Fill-5" fill="#000000"></path>
    <path d="M107.270478,98.3256821 C107.270478,93.9930782 104.355918,91.0526057 99.9995025,91.0526057 C95.6749288,91.0526057 92.7613642,93.9930782 92.7613642,98.3561381 C92.7613642,102.717233 95.6440816,105.688161 99.9995025,105.688161 C104.325071,105.688161 107.270478,102.717233 107.270478,98.3256821 Z M99.9995025,87 C106.455516,87 111,91.4858661 111,97.8914393 C111,104.482695 106.487358,109 99.9995025,109 C93.5444841,109 89,104.482695 89,97.8914393 C89,91.4858661 93.513637,87 99.9995025,87 L99.9995025,87 Z" id="Fill-6" fill="#000000"></path>
    <polyline id="Fill-7" fill="#000000" points="129 108 115 108 115 87 118.853314 87 118.853314 104.757389 129 104.757389 129 108"></polyline>
    <path d="M19.2696517,126.323717 C19.2696517,121.992096 16.3562189,119.052606 12,119.052606 C7.67562189,119.052606 4.760199,121.992096 4.760199,126.356138 C4.760199,130.717233 7.64378109,133.688161 12,133.688161 C16.3243781,133.688161 19.2696517,130.717233 19.2696517,126.323717 Z M12,115 C18.4557214,115 23,119.486849 23,125.891439 C23,132.480731 18.4865672,137 12,137 C5.54427861,137 1,132.480731 1,125.891439 C1,119.486849 5.51243781,115 12,115 L12,115 Z" id="Fill-8" fill="#000000"></path>
    <polyline id="Fill-9" fill="#000000" points="27 137 27 116 41 116 41 120.075271 30.7002378 120.075271 30.7002378 125.604735 38.9956637 125.604735 38.9956637 128.816119 30.7002378 128.816119 30.7002378 137 27 137"></polyline>
    <path d="M52.6702093,147.953679 L52.6702093,165 L48.8727369,165 L48.8727369,147.953679 L42.4796382,147.953679 L42.4796382,144 L59,144 L59,147.953679 L52.6702093,147.953679 Z M28.5508831,154.562757 L32.5071279,154.562757 C35.0394461,154.562757 36.4312163,153.51158 36.4312163,151.381771 C36.4312163,149.219602 35.0394461,148.076251 32.5071279,148.076251 L28.5508831,148.076251 L28.5508831,154.562757 Z M28.5508831,165 L24.7534107,165 L24.7534107,144 L32.380512,144 C37.1909117,144 40.1975372,146.840727 40.1975372,151.072889 C40.1975372,154.715727 37.9184508,156.755323 34.5008261,157.249533 L40.8939247,165 L36.6844481,165 L30.0391225,157.61921 L28.5508831,157.61921 L28.5508831,165 Z M12.6595814,152.02895 L11.2356548,148.508685 L9.77957182,152.02895 L7.46933388,157.186776 L14.9376629,157.186776 L12.6595814,152.02895 Z M4.01955274,165 L0,165 L8.70333657,144 L13.3871204,144 L21.9326895,165 L18.3562925,165 L16.3625943,160.428558 L6.04540732,160.428558 L4.01955274,165 L4.01955274,165 Z" id="Fill-10" fill="#000000"></path>
    <path d="M63.7145314,158.811949 C63.8069033,160.919369 65.2927159,162.777872 68.3567129,162.777872 C70.987348,162.777872 72.3178971,161.538214 72.3178971,159.864675 C72.3178971,158.533518 71.4511731,157.449309 67.8299963,156.642547 C62.6306351,155.558338 60.5257339,153.544385 60.5257339,150.197308 C60.5257339,146.634766 63.3430782,144 67.9233509,144 C71.0482742,144 73.710355,145.334108 75.443803,147.687492 L73.6484461,151.066053 C72.1940794,149.238048 69.9968063,148.122356 67.6757155,148.122356 C65.3850878,148.122356 64.2088196,149.144582 64.2088196,150.631188 C64.2088196,151.901346 64.9517258,152.862573 68.7900749,153.636868 C74.2675347,154.722061 76,156.705514 76,159.741693 C76,163.646617 72.9684314,166 68.2328952,166 C62.5382631,166 60,162.529941 60,158.811949 L63.7145314,158.811949" id="Fill-11" fill="#000000"></path>
  </g>
</svg>
