<?xml version="1.0" encoding="UTF-8"?>
<svg xmlns="http://www.w3.org/2000/svg" xmlns:xlink="http://www.w3.org/1999/xlink" width="150px" height="48px" viewBox="0 0 150 48" version="1.1">
  <!-- Generator: Sketch 64 (93537) - https://sketch.com -->
  <title>Odisee_ENG_Zwart-RGB</title>
  <desc>Created with Sketch.</desc>
  <defs>
    <polygon id="path-1" points="-33 81 184 81 184 -32 -33 -32"></polygon>
  </defs>
  <g id="Odisee_ENG_Zwart-RGB" stroke="none" stroke-width="1" fill="none" fill-rule="evenodd">
    <path d="M26.8358002,19 C26.8358002,12.9767499 22.663203,8.59980213 16.5,8.59980213 C10.3358002,8.59980213 6.16419984,12.9767499 6.16419984,19 C6.16419984,25.0242394 10.3358002,29.4476874 16.5,29.4476874 C22.663203,29.4476874 26.8358002,25.0242394 26.8358002,19 M0,19 C0,9.77615632 6.82806742,3 16.5,3 C26.1719326,3 33,9.77615632 33,19 C33,28.2238437 26.1719326,35 16.5,35 C6.82806742,35 0,28.2238437 0,19" id="Fill-1" fill="#181716"></path>
    <path d="M55.3869253,22.7738812 C55.3869253,18.6817005 52.6507993,15.7660589 48.5471062,15.7660589 C44.4434131,15.7660589 41.659685,18.6817005 41.659685,22.7738812 C41.659685,26.8650731 44.4434131,29.7807148 48.5471062,29.7807148 C52.6507993,29.7807148 55.3869253,26.8650731 55.3869253,22.7738812 M36,22.5385734 C36,14.5914973 41.9433139,10.5467737 47.6039906,10.5467737 C50.952993,10.5467737 53.7357293,11.9576318 55.3869253,14.5440402 L55.3869253,1 L61,1 L61,22.5860304 C61,30.1099479 55.9055893,35 48.5937165,35 C41.1886231,35 36,29.9211085 36,22.5385734" id="Fill-3" fill="#181716"></path>
    <mask id="mask-2" fill="white">
      <use xlink:href="#path-1"></use>
    </mask>
    <g id="Clip-6"></g>
    <path d="M65.9612774,34 L71.9876248,34 L71.9876248,10.574654 L65.9612774,10.574654 L65.9612774,34 Z M65,3.79339667 C65,1.61206897 66.6702595,0 68.9994677,0 C71.328676,0 73,1.61206897 73,3.79339667 C73,5.97472437 71.328676,7.53993666 68.9994677,7.53993666 C66.6702595,7.53993666 65,5.97472437 65,3.79339667 L65,3.79339667 Z" id="Fill-5" fill="#181716" mask="url(#mask-2)"></path>
    <path d="M76,27.356366 L81.7831814,27.356366 C81.8308004,28.9423038 83.2279635,30.0006065 86.0233029,30.0006065 C88.9625127,30.0006065 90.2168186,28.7987709 90.2168186,27.356366 C90.2168186,25.5288481 88.0962513,25.2892896 85.5410334,24.9526948 C81.8784195,24.4715562 76.4822695,23.8468847 76.4822695,18.028747 C76.4822695,13.1738972 80.1925025,10 85.9270517,10 C91.7578521,10 95.325228,13.268912 95.4690983,17.4525937 L89.7831814,17.4525937 C89.6372847,16.009178 88.2887538,14.9993935 86.0233029,14.9993935 C83.5167173,14.9993935 82.2644377,16.2022399 82.2644377,17.5971374 C82.2644377,19.4236445 84.4336373,19.712732 86.9868288,20.0493268 C90.1681864,20.4809364 96,21.1056079 96,27.0197712 C96,31.8281244 92.0952381,35 86.0233029,35 C79.9513678,35 76.1448835,31.7796062 76,27.356366" id="Fill-7" fill="#181716" mask="url(#mask-2)"></path>
    <path d="M117.056686,19.9518881 C116.161173,16.7791299 113.613471,15.1922455 110.548098,15.1922455 C107.386529,15.1922455 104.93304,16.8266354 104.037526,19.9518881 L117.056686,19.9518881 Z M98,22.5 C98,15.2892779 103.188623,10 110.548098,10 C117.905589,10 123,15.2892779 123,22.5 L123,24.5204981 L103.895712,24.5204981 C104.650403,27.9813213 107.244714,29.8077545 110.548098,29.8077545 C113.047205,29.8077545 114.886826,29.0870866 116.06696,27.5487184 L122.056884,27.5487184 C120.311476,32.0678014 116.06696,35 110.548098,35 C103.188623,35 98,29.7117328 98,22.5 L98,22.5 Z" id="Fill-8" fill="#181716" mask="url(#mask-2)"></path>
    <path d="M144.056686,19.9518881 C143.161173,16.7791299 140.613471,15.1922455 137.548098,15.1922455 C134.386529,15.1922455 131.93304,16.8266354 131.037526,19.9518881 L144.056686,19.9518881 Z M125,22.5 C125,15.2892779 130.188623,10 137.548098,10 C144.905589,10 150,15.2892779 150,22.5 L150,24.5204981 L130.895712,24.5204981 C131.650403,27.9813213 134.244714,29.8077545 137.548098,29.8077545 C140.047205,29.8077545 141.886826,29.0870866 143.065969,27.5487184 L149.056884,27.5487184 C147.311476,32.0678014 143.065969,35 137.548098,35 C130.188623,35 125,29.7117328 125,22.5 L125,22.5 Z" id="Fill-9" fill="#181716" mask="url(#mask-2)"></path>
    <path d="M2.66509654,48 C4.36443335,48 5.30117025,46.9088983 5.30117025,45.2097458 L5.30117025,41.1345339 L4.34441761,41.1345339 L4.34441761,45.2097458 C4.34441761,46.3432203 3.77496964,47.032839 2.66509654,47.032839 C1.55422266,47.032839 0.984774689,46.3432203 0.984774689,45.2097458 L0.984774689,41.1345339 L0,41.1345339 L0,45.2097458 C0,46.9184322 0.955751858,48 2.66509654,48 L2.66509654,48 Z M6.10180008,47.8665254 L7.08657477,47.8665254 L7.08657477,43.7891949 C7.08657477,42.6567797 7.66603061,41.9682203 8.76689663,41.9682203 C9.87676973,41.9682203 10.4562256,42.6567797 10.4562256,43.7891949 L10.4562256,47.8665254 L11.4410003,47.8665254 L11.4410003,43.7891949 C11.4410003,42.0805085 10.4852484,41 8.76689663,41 C7.05855273,41 6.10180008,42.0805085 6.10180008,43.7891949 L6.10180008,47.8665254 Z M12.4167679,47.8665254 L13.4015425,47.8665254 L13.4015425,41.1345339 L12.4167679,41.1345339 L12.4167679,47.8665254 Z M16.480965,47.8665254 L17.5628161,47.8665254 L19.9476922,41.1345339 L18.9048718,41.1345339 L17.031398,46.6514831 L15.1579242,41.1345339 L14.0870818,41.1345339 L16.480965,47.8665254 Z M20.6142165,47.8665254 L25.2578695,47.8665254 L25.2578695,46.8983051 L21.5979904,46.8983051 L21.5979904,44.9226695 L24.6974286,44.9226695 L24.6974286,43.9544492 L21.5979904,43.9544492 L21.5979904,42.1016949 L25.2578695,42.1016949 L25.2578695,41.1345339 L20.6142165,41.1345339 L20.6142165,47.8665254 Z M26.1555757,47.8665254 L27.1403504,47.8665254 L27.1403504,45.4576271 L28.6465353,45.4576271 L30.1527201,47.8665254 L31.3306468,47.8665254 L29.6603328,45.3654661 C30.6551154,45.0974576 31.0994649,44.3050847 31.0994649,43.2955508 C31.0994649,42.0497881 30.4229327,41.1345339 28.8687101,41.1345339 L26.1555757,41.1345339 L26.1555757,47.8665254 Z M27.1403504,44.4904661 L27.1403504,42.1016949 L28.8777171,42.1016949 C29.786432,42.1016949 30.1046824,42.6059322 30.1046824,43.2955508 C30.1046824,43.9745763 29.7954391,44.4904661 28.8777171,44.4904661 L27.1403504,44.4904661 Z M34.0147583,48 C35.4238668,48 36.3515966,47.1970339 36.3515966,45.9099576 C36.3515966,44.3972458 35.2217077,44.190678 34.2269252,44.0052966 C33.4643253,43.8622881 32.778786,43.7478814 32.778786,43.0381356 C32.778786,42.4205508 33.2321426,41.9682203 34.0437811,41.9682203 C34.8263968,41.9682203 35.2597377,42.4110169 35.2897613,43.0074153 L36.2254974,43.0074153 C36.1874675,41.8019068 35.3177833,41 34.0237654,41 C32.7017254,41 31.833042,41.8432203 31.833042,43.0688559 C31.833042,44.5815678 32.9619301,44.7881356 33.9467047,44.9735169 C34.7103054,45.1175847 35.3858369,45.2309322 35.3858369,45.9417373 C35.3858369,46.6006356 34.8934495,47.032839 34.0147583,47.032839 C33.155082,47.032839 32.6827104,46.6006356 32.6636954,45.9417373 L31.6879278,45.9417373 C31.7169507,47.2182203 32.6336718,48 34.0147583,48 L34.0147583,48 Z M37.1622343,47.8665254 L38.147009,47.8665254 L38.147009,41.1345339 L37.1622343,41.1345339 L37.1622343,47.8665254 Z M40.8791583,47.8665254 L41.863933,47.8665254 L41.863933,42.1016949 L43.872513,42.1016949 L43.872513,41.1345339 L38.8815868,41.1345339 L38.8815868,42.1016949 L40.8791583,42.1016949 L40.8791583,47.8665254 Z M46.5956552,47.8665254 L47.5794292,47.8665254 L47.5794292,44.9523305 L50.0613816,41.1345339 L48.9124778,41.1345339 L47.0870418,44.0677966 L45.2726145,41.1345339 L44.0946878,41.1345339 L46.5956552,44.9830508 L46.5956552,47.8665254 Z M56.0861211,48 C58.0556705,48 59.445764,46.5180085 59.445764,44.5 C59.445764,42.4819915 58.0556705,41 56.0861211,41 C54.1165717,41 52.7254774,42.4819915 52.7254774,44.5 C52.7254774,46.5180085 54.1165717,48 56.0861211,48 L56.0861211,48 Z M56.0861211,47.032839 C54.6860197,47.032839 53.7202599,45.9618644 53.7202599,44.5 C53.7202599,43.0381356 54.6860197,41.9682203 56.0861211,41.9682203 C57.4862225,41.9682203 58.4519822,43.0381356 58.4519822,44.5 C58.4519822,45.9618644 57.4862225,47.032839 56.0861211,47.032839 L56.0861211,47.032839 Z M60.2283797,47.8665254 L61.2121536,47.8665254 L61.2121536,44.9226695 L64.2345312,44.9226695 L64.2345312,43.9544492 L61.2121536,43.9544492 L61.2121536,42.1016949 L64.794972,42.1016949 L64.794972,41.1345339 L60.2283797,41.1345339 L60.2283797,47.8665254 Z M67.7492961,47.8665254 L68.705048,47.8665254 L68.705048,45.7351695 L72.2578428,45.7351695 L72.2578428,47.8665254 L73.2426175,47.8665254 L73.2426175,43.9025424 C73.2426175,42.121822 72.2678507,41 70.4814454,41 C68.7150558,41 67.7492961,42.121822 67.7492961,43.9025424 L67.7492961,47.8665254 Z M68.705048,44.7669492 L68.705048,43.9025424 C68.705048,42.6875 69.3035188,41.9682203 70.4814454,41.9682203 C71.659372,41.9682203 72.2578428,42.6875 72.2578428,43.9025424 L72.2578428,44.7669492 L68.705048,44.7669492 Z M74.1983694,47.8665254 L75.1831441,47.8665254 L75.1831441,45.5709746 L76.844451,45.5709746 C78.4367035,45.5709746 79.1422586,44.6228814 79.1422586,43.3463983 C79.1422586,42.0699153 78.4367035,41.1345339 76.844451,41.1345339 L74.1983694,41.1345339 L74.1983694,47.8665254 Z M75.1831441,44.6027542 L75.1831441,42.1016949 L76.8634659,42.1016949 C77.8092099,42.1016949 78.147476,42.6366525 78.147476,43.3463983 C78.147476,44.0677966 77.8092099,44.6027542 76.8634659,44.6027542 L75.1831441,44.6027542 Z M79.798775,47.8665254 L80.7835497,47.8665254 L80.7835497,45.5709746 L82.4438558,45.5709746 C84.0371092,45.5709746 84.7416634,44.6228814 84.7416634,43.3463983 C84.7416634,42.0699153 84.0371092,41.1345339 82.4438558,41.1345339 L79.798775,41.1345339 L79.798775,47.8665254 Z M80.7835497,44.6027542 L80.7835497,42.1016949 L82.4638716,42.1016949 C83.4096156,42.1016949 83.7468809,42.6366525 83.7468809,43.3463983 C83.7468809,44.0677966 83.4096156,44.6027542 82.4638716,44.6027542 L80.7835497,44.6027542 Z M85.3981799,47.8665254 L89.9267424,47.8665254 L89.9267424,46.8983051 L86.3829546,46.8983051 L86.3829546,41.1345339 L85.3981799,41.1345339 L85.3981799,47.8665254 Z M90.6513124,47.8665254 L91.6360871,47.8665254 L91.6360871,41.1345339 L90.6513124,41.1345339 L90.6513124,47.8665254 Z M92.7549672,47.8665254 L97.399621,47.8665254 L97.399621,46.8983051 L93.7397419,46.8983051 L93.7397419,44.9226695 L96.8391802,44.9226695 L96.8391802,43.9544492 L93.7397419,43.9544492 L93.7397419,42.1016949 L97.399621,42.1016949 L97.399621,41.1345339 L92.7549672,41.1345339 L92.7549672,47.8665254 Z M98.2973272,47.8665254 L100.547097,47.8665254 C102.747828,47.8665254 103.907741,46.5180085 103.907741,44.5 C103.907741,42.4819915 102.747828,41.1345339 100.547097,41.1345339 L98.2973272,41.1345339 L98.2973272,47.8665254 Z M99.2831027,46.8983051 L99.2831027,42.1016949 L100.547097,42.1016949 C102.160366,42.1016949 102.911957,43.0487288 102.911957,44.5 C102.911957,45.9512712 102.160366,46.8983051 100.547097,46.8983051 L99.2831027,46.8983051 Z M109.062796,48 C110.471905,48 111.399634,47.1970339 111.399634,45.9099576 C111.399634,44.3972458 110.269746,44.190678 109.275964,44.0052966 C108.512363,43.8622881 107.826824,43.7478814 107.826824,43.0381356 C107.826824,42.4205508 108.281181,41.9682203 109.091819,41.9682203 C109.874435,41.9682203 110.307775,42.4110169 110.336798,43.0074153 L111.273535,43.0074153 C111.235505,41.8019068 110.366822,41 109.072804,41 C107.748762,41 106.88108,41.8432203 106.88108,43.0688559 C106.88108,44.5815678 108.009968,44.7881356 108.995743,44.9735169 C109.757342,45.1175847 110.433875,45.2309322 110.433875,45.9417373 C110.433875,46.6006356 109.941487,47.032839 109.062796,47.032839 C108.204121,47.032839 107.730748,46.6006356 107.710732,45.9417373 L106.735966,45.9417373 C106.764988,47.2182203 107.68171,48 109.062796,48 L109.062796,48 Z M115.23265,48 C116.844918,48 118.08089,46.9915254 118.466193,45.5084746 L117.423373,45.5084746 C117.086108,46.4247881 116.285478,47.032839 115.23265,47.032839 C113.832548,47.032839 112.866789,45.9618644 112.866789,44.5 C112.866789,43.0381356 113.832548,41.9682203 115.23265,41.9682203 C116.285478,41.9682203 117.086108,42.5752119 117.423373,43.4904661 L118.466193,43.4904661 C118.08089,42.0084746 116.844918,41 115.23265,41 C113.2621,41 111.873007,42.4819915 111.873007,44.5 C111.873007,46.5180085 113.2621,48 115.23265,48 L115.23265,48 Z M119.267824,47.8665254 L120.252599,47.8665254 L120.252599,41.1345339 L119.267824,41.1345339 L119.267824,47.8665254 Z M121.37248,47.8665254 L126.016133,47.8665254 L126.016133,46.8983051 L122.357254,46.8983051 L122.357254,44.9226695 L125.457693,44.9226695 L125.457693,43.9544492 L122.357254,43.9544492 L122.357254,42.1016949 L126.016133,42.1016949 L126.016133,41.1345339 L121.37248,41.1345339 L121.37248,47.8665254 Z M126.769726,47.8665254 L127.755501,47.8665254 L127.755501,43.7891949 C127.755501,42.6567797 128.333956,41.9682203 129.434822,41.9682203 C130.545696,41.9682203 131.124151,42.6567797 131.124151,43.7891949 L131.124151,47.8665254 L132.108926,47.8665254 L132.108926,43.7891949 C132.108926,42.0805085 131.153174,41 129.434822,41 C127.725477,41 126.769726,42.0805085 126.769726,43.7891949 L126.769726,47.8665254 Z M136.10607,48 C137.719339,48 138.954311,46.9915254 139.341615,45.5084746 L138.297794,45.5084746 C137.960529,46.4247881 137.158898,47.032839 136.10607,47.032839 C134.706969,47.032839 133.74121,45.9618644 133.74121,44.5 C133.74121,43.0381356 134.706969,41.9682203 136.10607,41.9682203 C137.158898,41.9682203 137.960529,42.5752119 138.297794,43.4904661 L139.341615,43.4904661 C138.954311,42.0084746 137.719339,41 136.10607,41 C134.137522,41 132.746427,42.4819915 132.746427,44.5 C132.746427,46.5180085 134.137522,48 136.10607,48 L136.10607,48 Z M140.12323,47.8665254 L144.766883,47.8665254 L144.766883,46.8983051 L141.107004,46.8983051 L141.107004,44.9226695 L144.206442,44.9226695 L144.206442,43.9544492 L141.107004,43.9544492 L141.107004,42.1016949 L144.766883,42.1016949 L144.766883,41.1345339 L140.12323,41.1345339 L140.12323,47.8665254 Z M147.663162,48 C149.07227,48 150,47.1970339 150,45.9099576 C150,44.3972458 148.870111,44.190678 147.876329,44.0052966 C147.112729,43.8622881 146.42819,43.7478814 146.42819,43.0381356 C146.42819,42.4205508 146.881547,41.9682203 147.693185,41.9682203 C148.4748,41.9682203 148.908141,42.4110169 148.938165,43.0074153 L149.873901,43.0074153 C149.835871,41.8019068 148.967188,41 147.67317,41 C146.35113,41 145.482446,41.8432203 145.482446,43.0688559 C145.482446,44.5815678 146.611334,44.7881356 147.596109,44.9735169 C148.35971,45.1175847 149.03424,45.2309322 149.03424,45.9417373 C149.03424,46.6006356 148.541853,47.032839 147.663162,47.032839 C146.804486,47.032839 146.331114,46.6006356 146.312099,45.9417373 L145.336331,45.9417373 C145.365354,47.2182203 146.282075,48 147.663162,48 L147.663162,48 Z" id="Fill-10" fill="#181716" mask="url(#mask-2)"></path>
  </g>
</svg>
