<?xml version="1.0" encoding="UTF-8"?>
<!-- Generator: Adobe Illustrator 24.1.2, SVG Export Plug-In . SVG Version: 6.00 Build 0)  -->
<svg preserveAspectRatio="xMidYMid slice" width="1640px" height="585px" xmlns="http://www.w3.org/2000/svg" xmlns:xlink="http://www.w3.org/1999/xlink" version="1.1" id="Laag_1" x="0px" y="0px" viewBox="0 0 1920 686" style="enable-background:new 0 0 1920 686;" xml:space="preserve">
<style type="text/css">
	.st0{fill:#FBDC6E;}
	.st1{fill:#FFFFFF;}
	.st2{fill:#F6CC00;}
	.st3{clip-path:url(#SVGID_2_);}
	.st4{fill:#B2B2B2;}
	.st5{clip-path:url(#SVGID_6_);}
	.st6{clip-path:url(#SVGID_8_);}
	.st7{clip-path:url(#SVGID_10_);}
	.st8{fill:#FAE066;}
	.st9{clip-path:url(#SVGID_13_);}
	.st10{clip-path:url(#SVGID_14_);}
	.st11{fill:#FEF4D3;}
	.st12{fill:#FCF0B2;}
	.st13{fill:#FDF6D1;}
	.st14{clip-path:url(#SVGID_18_);}
	.st15{clip-path:url(#SVGID_19_);}
	.st16{clip-path:url(#SVGID_20_);}
	.st17{clip-path:url(#SVGID_24_);}
	.st18{clip-path:url(#SVGID_25_);}
	.st19{clip-path:url(#SVGID_26_);}
	.st20{clip-path:url(#SVGID_30_);}
	.st21{clip-path:url(#SVGID_31_);}
	.st22{clip-path:url(#SVGID_32_);}
	.st23{clip-path:url(#SVGID_36_);}
	.st24{clip-path:url(#SVGID_37_);}
	.st25{clip-path:url(#SVGID_38_);}
	.st26{clip-path:url(#SVGID_42_);}
	.st27{clip-path:url(#SVGID_43_);}
	.st28{clip-path:url(#SVGID_44_);}
	.st29{clip-path:url(#SVGID_48_);}
	.st30{clip-path:url(#SVGID_49_);}
	.st31{clip-path:url(#SVGID_50_);}
	.st32{clip-path:url(#SVGID_54_);}
	.st33{clip-path:url(#SVGID_55_);}
	.st34{clip-path:url(#SVGID_56_);}
	.st35{clip-path:url(#SVGID_60_);}
	.st36{clip-path:url(#SVGID_61_);}
	.st37{clip-path:url(#SVGID_62_);}
	.st38{clip-path:url(#SVGID_66_);}
	.st39{clip-path:url(#SVGID_67_);}
	.st40{clip-path:url(#SVGID_68_);}
	.st41{clip-path:url(#SVGID_72_);}
	.st42{clip-path:url(#SVGID_73_);}
	.st43{clip-path:url(#SVGID_74_);}
</style>
<g>
	<g>
		<path class="st2" d="M316.61,106.04c-0.3,0-0.61-0.01-0.91-0.04c-5.91-0.5-10.31-5.71-9.82-11.61c0.28-3.36,2.11-6.35,4.93-8.15    l0.02-0.01c0.11-0.07,0.22-0.14,0.34-0.21l0.25-0.15l45.25-26.79l0.03,0.06c1.67-0.76,3.51-1.09,5.35-0.93    c4.21,0.35,7.84,3.16,9.24,7.15l0.19,0.55l-20.15,11.95c0.26,0.8,0.47,1.65,0.62,2.54l20.03-11.88l-0.13,1.38    c-0.28,3.06-1.84,5.81-4.3,7.64l0.03,0.04l-1.09,0.66l-0.47-0.54l0,0l0.36,0.6l-13.72,8.12c1.67,4.1,7.75,5.94,7.82,5.96    l4.51,1.33l-12.41,0.16l-0.58,5.49l-0.81-0.23c-0.39-0.11-9.58-2.83-9.26-9.55c0.45-9.51-5.28-12.32-8.93-13.14l-0.21,0.13    c2.3,0.69,6.18,2.49,7.87,6.94l0.21,0.56l-18.85,11.18l-0.19-0.99c-0.45-2.31-2.41-4.06-4.75-4.25c-1.41-0.12-2.78,0.32-3.87,1.23    s-1.74,2.19-1.86,3.6c-0.24,2.91,1.93,5.48,4.84,5.72c1.39,0.12,2.76-0.31,3.84-1.21l0.09-0.07l21.31-12.64l0.02,1.22    c0.01,0.61-0.01,1.16-0.05,1.69c-0.08,0.94,0.02,1.85,0.3,2.72l0.17,0.54l-19.71,11.67c-0.05,0.03-0.1,0.06-0.15,0.09l-0.19,0.11    l0,0C320.19,105.58,318.42,106.04,316.61,106.04z M312.75,86.72l0.01,0.02l-0.64,0.36c-2.76,1.51-4.56,4.28-4.83,7.4    c-0.43,5.13,3.39,9.65,8.52,10.08c2.03,0.17,4.04-0.32,5.78-1.43l0.55-0.35l0.02,0.02l18-10.65c-0.22-0.88-0.29-1.79-0.21-2.72    c0.01-0.1,0.02-0.2,0.02-0.3l-19.11,11.33c-1.36,1.11-3.07,1.65-4.82,1.5c-3.69-0.31-6.44-3.57-6.13-7.26    c0.15-1.79,0.99-3.41,2.36-4.57c1.37-1.16,3.11-1.71,4.9-1.56c2.64,0.22,4.89,2,5.77,4.45l16.15-9.58    c-2.3-5.07-8.21-5.89-8.27-5.89l-2.02-0.26l3.93-2.37l0.27,0.06c3.28,0.67,10.87,3.45,10.33,14.65c-0.22,4.55,5.31,7.05,7.43,7.84    l0.53-5.02l5.58-0.07c-2.2-1.17-4.87-3.13-5.76-6.08l-0.16-0.53l14.7-8.7l0.02,0.02l0.1-0.07l-0.01-0.02l0.45-0.28    c2-1.3,3.4-3.26,3.98-5.51L350.8,82.72l-0.12-1.1c-0.15-1.4-0.45-2.69-0.88-3.84l-0.21-0.56l20.14-11.94    c-1.34-3.18-4.35-5.38-7.81-5.67c-1.8-0.15-3.59,0.22-5.18,1.07l-0.2,0.11L312.75,86.72z"></path>
	</g>
	<g>
		<path d="M792.03,84.8c-0.13,1.25-0.17,2.73-0.17,4.55v8.38c13.11,10.88,32.34,10.53,45.05-1.04c0-4.15,0-8.3,0-12.45l-23.13,9.64    L792.03,84.8L792.03,84.8z"></path>
	</g>
	<g>
		<path d="M813.78,58.17l-39.12,16.3l10.49,4.37c-1.15,2.34-1.98,5.52-1.98,9.84v7.91c0,0,0,1.01-0.23,1.67    c-0.28,0.81-0.86,1.45-0.86,1.45l-1.94,2.29l5.72,2.55l1.79-2.23c0,0,0.69-0.92,0.95-1.77c0.26-0.85,0.29-2.13,0.29-2.13v-9.74    c0-10.51,6.62-12.38,10.91-12.38l1.39,0.02c-1.3,0.28-3.48,0.93-5.48,2.23c-0.47,0.31-0.93,0.64-1.37,1.03    c-0.78,0.68-1.31,1.44-1.68,2.38l21.13,8.8l23.13-9.63l16-6.66L813.78,58.17L813.78,58.17z"></path>
	</g>
	<g>
		<path class="st4" d="M1631.53,84.8c-0.13,1.25-0.17,2.73-0.17,4.55v8.38c13.11,10.88,32.34,10.53,45.05-1.04c0-4.15,0-8.3,0-12.45    l-23.13,9.64L1631.53,84.8L1631.53,84.8z"></path>
	</g>
	<g>
		<path class="st4" d="M1653.28,58.17l-39.12,16.3l10.49,4.37c-1.15,2.34-1.97,5.52-1.97,9.84v7.91c0,0-0.01,1.01-0.24,1.67    c-0.27,0.81-0.85,1.45-0.85,1.45l-1.95,2.29l5.72,2.55l1.8-2.23c0,0,0.68-0.92,0.94-1.77c0.27-0.85,0.3-2.13,0.3-2.13v-9.74    c0-10.51,6.62-12.38,10.91-12.38l1.38,0.02c-1.29,0.28-3.47,0.93-5.48,2.23c-0.47,0.31-0.93,0.64-1.37,1.03    c-0.77,0.68-1.31,1.44-1.68,2.38l21.12,8.8l23.13-9.63l16-6.66L1653.28,58.17L1653.28,58.17z"></path>
	</g>
	<g>
		<polygon class="st4" points="1689.53,35.97 1683.12,40.41 1676.71,35.97 1677.35,43.74 1670.3,47.07 1677.35,50.4 1676.71,58.17     1683.12,53.73 1689.53,58.17 1688.88,50.4 1695.93,47.07 1688.88,43.74 1689.53,35.97   "></polygon>
	</g>
	<g>
		<polygon class="st4" points="1717.61,35.97 1711.2,40.41 1704.8,35.97 1705.44,43.74 1698.39,47.07 1705.44,50.4 1704.8,58.17     1711.2,53.73 1717.61,58.17 1716.97,50.4 1724.02,47.07 1716.97,43.74 1717.61,35.97   "></polygon>
	</g>
	<g>
		<rect x="1362.96" y="193.08" class="st2" width="227.13" height="1.73"></rect>
	</g>
	<g>
		<path class="st2" d="M1586.63,193.94c0-1.91,1.55-3.46,3.46-3.46c1.91,0,3.46,1.55,3.46,3.46c0,1.91-1.55,3.46-3.46,3.46    C1588.18,197.4,1586.63,195.85,1586.63,193.94L1586.63,193.94z"></path>
	</g>
	<g>
		<rect x="1044.5" y="193.08" class="st2" width="124.9" height="1.73"></rect>
	</g>
	<g>
		<path class="st2" d="M1165.94,193.94c0-1.91,1.55-3.46,3.46-3.46s3.46,1.55,3.46,3.46c0,1.91-1.55,3.46-3.46,3.46    S1165.94,195.85,1165.94,193.94L1165.94,193.94z"></path>
	</g>
	<g>
		<rect x="575.68" y="193.08" class="st2" width="173.97" height="1.73"></rect>
	</g>
	<g>
		<path class="st2" d="M746.19,193.94c0-1.91,1.55-3.46,3.46-3.46c1.91,0,3.46,1.55,3.46,3.46c0,1.91-1.55,3.46-3.46,3.46    C747.74,197.4,746.19,195.85,746.19,193.94L746.19,193.94z"></path>
	</g>
	<g>
		<rect x="575.68" y="510.21" class="st2" width="172.48" height="1.73"></rect>
	</g>
	<g>
		<path class="st2" d="M744.7,511.07c0-1.91,1.55-3.46,3.46-3.46c1.91,0,3.46,1.55,3.46,3.46c0,1.91-1.55,3.46-3.46,3.46    C746.25,514.53,744.7,512.98,744.7,511.07L744.7,511.07z"></path>
	</g>
	<g>
		<rect x="239.15" y="510.21" class="st2" width="43.12" height="1.73"></rect>
	</g>
	<g>
		<path class="st2" d="M278.8,511.07c0-1.91,1.55-3.46,3.46-3.46c1.91,0,3.46,1.55,3.46,3.46c0,1.91-1.55,3.46-3.46,3.46    C280.35,514.53,278.8,512.98,278.8,511.07L278.8,511.07z"></path>
	</g>
	<g>
		<polygon class="st2" points="1737.67,390.09 897.31,390.09 897.31,257.72 899.04,257.72 899.04,388.36 1735.94,388.36     1735.94,257.52 1737.67,257.52   "></polygon>
	</g>
	<g>
		<path class="st2" d="M1736.81,260.98c-1.91,0-3.46-1.55-3.46-3.46c0-1.91,1.55-3.46,3.46-3.46c1.92,0,3.47,1.55,3.47,3.46    C1740.28,259.43,1738.73,260.98,1736.81,260.98L1736.81,260.98z"></path>
	</g>
	<g>
		<rect x="664.62" y="415.01" class="st2" width="1.73" height="96.06"></rect>
	</g>
	<g>
		<path class="st2" d="M665.48,418.47c-1.91,0-3.46-1.55-3.46-3.46c0-1.91,1.55-3.46,3.46-3.46c1.91,0,3.46,1.55,3.46,3.46    C668.95,416.92,667.4,418.47,665.48,418.47L665.48,418.47z"></path>
	</g>
	<g>
		<path class="st2" d="M1211.21,84.8c-0.13,1.25-0.17,2.73-0.17,4.55v8.38c13.11,10.88,32.34,10.53,45.05-1.04c0-4.15,0-8.3,0-12.45    l-23.13,9.64L1211.21,84.8L1211.21,84.8z"></path>
	</g>
	<g>
		<path class="st2" d="M1232.96,58.17l-39.12,16.3l10.49,4.37c-1.15,2.34-1.97,5.52-1.97,9.84v7.91c0,0-0.01,1.01-0.24,1.67    c-0.27,0.81-0.86,1.45-0.86,1.45l-1.94,2.29l5.72,2.55l1.79-2.23c0,0,0.69-0.92,0.95-1.77c0.27-0.85,0.3-2.13,0.3-2.13v-9.74    c0-10.51,6.62-12.38,10.91-12.38l1.38,0.02c-1.3,0.28-3.47,0.93-5.48,2.23c-0.47,0.31-0.93,0.64-1.37,1.03    c-0.78,0.68-1.31,1.44-1.68,2.38l21.12,8.8l23.13-9.63l16-6.66L1232.96,58.17L1232.96,58.17z"></path>
	</g>
	<g>
		<polygon class="st2" points="1269.2,35.97 1262.8,40.41 1256.39,35.97 1257.03,43.74 1249.98,47.07 1257.03,50.4 1256.39,58.17     1262.8,53.73 1269.2,58.17 1268.56,50.4 1275.61,47.07 1268.56,43.74 1269.2,35.97   "></polygon>
	</g>
	<g>
		<polygon class="st2" points="846.39,390.09 767.06,390.09 767.06,388.36 844.66,388.36 844.66,257.52 846.39,257.52   "></polygon>
	</g>
	<g>
		<path class="st2" d="M845.52,260.98c1.91,0,3.46-1.55,3.46-3.46c0-1.91-1.55-3.46-3.46-3.46c-1.91,0-3.46,1.55-3.46,3.46    C842.06,259.43,843.61,260.98,845.52,260.98L845.52,260.98z"></path>
	</g>
	<g>
		<polygon points="747.96,450.75 747.96,578.31 1042.33,578.31 1042.33,450.75 747.96,450.75   "></polygon>
	</g>
	<g>
		<polygon class="st1" points="282.02,451.46 282.02,649.32 574.97,649.32 574.97,451.46 282.02,451.46   "></polygon>
	</g>
	<g>
		<path class="st2" d="M575.68,650.03H281.31V450.75h294.37V650.03z M282.73,648.61h291.53V452.17H282.73V648.61z"></path>
	</g>
	<g>
		<polygon class="st1" points="36.71,451.46 36.71,649.32 238.44,649.32 238.44,451.46 36.71,451.46   "></polygon>
	</g>
	<g>
		<path class="st2" d="M239.15,650.03H36V450.75h203.15V650.03z M37.42,648.61h200.31V452.17H37.42V648.61z"></path>
	</g>
	<g>
		<polygon class="st4" points="1589.63,130.16 1589.63,257.72 1884,257.72 1884,130.16 1589.63,130.16   "></polygon>
	</g>
	<g>
		<polygon class="st1" points="282.02,130.87 282.02,328.73 574.97,328.73 574.97,130.87 282.02,130.87   "></polygon>
	</g>
	<g>
		<path class="st2" d="M575.68,329.44H281.31V130.16h294.37V329.44z M282.73,328.02h291.53V131.58H282.73V328.02z"></path>
	</g>
	<g>
		<polygon points="750.12,130.16 750.12,257.72 1044.5,257.72 1044.5,130.16 750.12,130.16   "></polygon>
	</g>
	<g>
		<polygon class="st1" points="564.62,365.3 564.62,414.89 766.35,414.89 766.35,365.3 564.62,365.3   "></polygon>
	</g>
	<g>
		<path class="st2" d="M767.06,415.6H563.91v-51.01h203.15V415.6z M565.33,414.18h200.31v-48.17H565.33V414.18z"></path>
	</g>
	<g>
		<polygon class="st2" points="1169.88,130.16 1169.88,257.72 1464.25,257.72 1464.25,130.16 1169.88,130.16   "></polygon>
	</g>
	<g>
		<path class="st1" d="M776.1,528.69c1.67-0.58,2.59-1.72,2.59-3.44c0-2.25-1.5-3.83-4.22-4.17c-0.82-0.1-1.31-0.1-2.16-0.1h-5.98    v16.72h6.08c0.95,0,1.48,0,2.33-0.1c2.23-0.31,4.58-1.79,4.58-4.9C779.32,530.56,778.25,529.25,776.1,528.69L776.1,528.69z     M769.67,523.6h2.42c0.39,0,0.82,0.02,1.21,0.07c1.11,0.15,1.89,0.75,1.89,2.01c0,1.21-0.6,1.89-1.82,2.08    c-0.39,0.05-0.77,0.07-1.19,0.07h-2.52V523.6L769.67,523.6z M773.7,535.04c-0.32,0.02-0.73,0.02-1.11,0.02h-2.91v-4.73h2.79    c0.39,0,0.78,0.02,1.19,0.07c1.21,0.12,2.16,0.78,2.16,2.33C775.8,534.15,774.86,534.94,773.7,535.04L773.7,535.04z     M791.55,532.67l1.65,5.04h3.63l-5.91-16.72h-4.19l-6.03,16.72h3.56l1.67-5.04H791.55L791.55,532.67z M788.77,523.85l1.94,6.18    h-3.92L788.77,523.85L788.77,523.85z M805.9,520.65c-4.63,0-8.09,3.32-8.09,8.8c0,5.33,3.2,8.6,7.85,8.6c4.29,0,7-2.33,7.37-5.89    l0.02-0.24h-3.32l-0.05,0.24c-0.44,2.08-1.7,3.39-3.88,3.39c-2.54,0-4.46-2.13-4.46-6.3c0-3.81,1.82-6.11,4.51-6.11    c2.23,0,3.49,1.21,3.9,3.27l0.05,0.24h3.34l-0.02-0.24C812.78,523.12,810.43,520.65,805.9,520.65L805.9,520.65z M830.86,520.99    h-3.32v7.2h-7.83v-7.2h-3.34v16.72h3.34v-6.86h7.83v6.86h3.32V520.99L830.86,520.99z M846.9,535.07h-8.72v-4.41h7.88v-2.64h-7.88    v-4.41h8.48v-2.62h-11.83v16.72h12.07V535.07L846.9,535.07z M862.07,534.92h-8.72v-13.93H850v16.72h12.07V534.92L862.07,534.92z     M871.27,520.65c-5.16,0-8.26,3.44-8.26,8.7c0,5.23,3.1,8.7,8.26,8.7c5.14,0,8.26-3.47,8.26-8.7    C879.54,524.09,876.41,520.65,871.27,520.65L871.27,520.65z M871.27,535.55c-2.98,0-4.77-2.3-4.77-6.2c0-3.93,1.79-6.2,4.77-6.2    c2.96,0,4.75,2.28,4.75,6.2C876.02,533.25,874.23,535.55,871.27,535.55L871.27,535.55z M894.83,533.49    c-0.19-1.87-0.82-3.25-2.47-3.88c1.99-0.56,3.27-1.91,3.27-4.07c0-2.88-1.96-4.14-4.39-4.43c-0.82-0.1-1.45-0.12-2.42-0.12h-6.11    v16.72h3.34v-6.74h1.94c0.44,0,0.85,0,1.31,0.02c1.36,0.1,2.04,1.19,2.25,2.98c0.17,1.58,0.41,2.59,0.82,3.73h3.66    C895.36,536.76,895.04,535.53,894.83,533.49L894.83,533.49z M886.06,528.47v-4.87h2.45c0.61,0,1.02,0.02,1.4,0.07    c1.31,0.17,2.21,0.75,2.21,2.37c0,1.62-1.07,2.28-2.4,2.4c-0.36,0.02-0.77,0.02-1.36,0.02H886.06L886.06,528.47z"></path>
	</g>
	<g>
		<path class="st1" d="M775.39,504.97l1.65,5.04h3.63l-5.91-16.72h-4.19l-6.03,16.72h3.56l1.67-5.04H775.39L775.39,504.97z     M772.61,496.15l1.94,6.18h-3.93L772.61,496.15L772.61,496.15z M790.85,493.39c-0.85-0.1-1.23-0.1-2.13-0.1h-5.77v16.72h5.72    c0.9,0,1.28,0,2.13-0.1c3.88-0.46,6.93-3.37,6.93-8.48C797.73,496.32,794.73,493.85,790.85,493.39L790.85,493.39z M790.05,507.3    c-0.53,0.07-1.04,0.07-1.77,0.07h-1.99v-11.46h2.03c0.75,0,1.24,0.02,1.79,0.1c2.47,0.31,4.07,2.18,4.07,5.48    C794.2,504.9,792.55,506.99,790.05,507.3L790.05,507.3z M809.1,510.01l6.03-16.72h-3.56l-4.51,14.15l-4.43-14.15h-3.64l5.91,16.72    H809.1L809.1,510.01z M824.87,504.97l1.65,5.04h3.64l-5.91-16.72h-4.19l-6.03,16.72h3.56l1.67-5.04H824.87L824.87,504.97z     M822.09,496.15l1.94,6.18h-3.93L822.09,496.15L822.09,496.15z M847.12,510.01l-0.02-16.72h-3.32v7.68c0,1.43,0.02,3.47,0.12,5.26    l-7.03-12.94h-4.43v16.72h3.34v-7.56c0-1.41-0.02-3.32-0.12-5.14l6.88,12.7H847.12L847.12,510.01z M858.26,492.96    c-4.63,0-8.09,3.32-8.09,8.8c0,5.33,3.2,8.6,7.85,8.6c4.29,0,7-2.33,7.37-5.89l0.02-0.24h-3.32l-0.05,0.24    c-0.44,2.08-1.7,3.39-3.88,3.39c-2.54,0-4.46-2.13-4.46-6.3c0-3.8,1.82-6.11,4.51-6.11c2.23,0,3.49,1.21,3.9,3.27l0.05,0.24h3.34    l-0.03-0.24C865.14,495.43,862.79,492.96,858.26,492.96L858.26,492.96z M880.8,507.37h-8.72v-4.41h7.88v-2.64h-7.88v-4.41h8.48    v-2.62h-11.82v16.72h12.07V507.37L880.8,507.37z M891.8,493.39c-0.85-0.1-1.24-0.1-2.13-0.1h-5.77v16.72h5.72    c0.9,0,1.28,0,2.13-0.1c3.88-0.46,6.93-3.37,6.93-8.48C898.68,496.32,895.67,493.85,891.8,493.39L891.8,493.39z M891,507.3    c-0.53,0.07-1.04,0.07-1.77,0.07h-1.99v-11.46h2.04c0.75,0,1.24,0.02,1.79,0.1c2.47,0.31,4.07,2.18,4.07,5.48    C895.14,504.9,893.49,506.99,891,507.3L891,507.3z"></path>
	</g>
	<g>
		<path d="M310.93,577.81h-1.29v9.14c0,0.46-0.02,0.87-0.06,1.27c-0.17,1.81-1.35,3.18-3.74,3.18c-2.41,0-3.59-1.37-3.76-3.18    c-0.04-0.4-0.04-0.81-0.04-1.27v-9.14h-1.29v9.2c0,0.41,0,0.83,0.04,1.33c0.19,2.33,1.77,4.09,5.05,4.09    c3.26,0,4.86-1.77,5.03-4.09c0.04-0.5,0.06-0.91,0.06-1.33V577.81L310.93,577.81z M322.68,584.14c-0.21-2.01-1.54-3.28-3.86-3.28    c-1.23,0-2.2,0.33-3.1,1.23l-0.58,1.18v-2.12h-1.29v10.99h1.29v-5.46c0-3.43,1.6-4.76,3.43-4.76c1.85,0,2.68,1.06,2.83,2.55    c0.04,0.56,0.04,1.04,0.04,1.66v6h1.29v-6.15C322.72,585.1,322.72,584.7,322.68,584.14L322.68,584.14z M326.32,577.91    c-0.48,0-0.87,0.37-0.87,0.87c0,0.48,0.39,0.87,0.87,0.87c0.5,0,0.87-0.39,0.87-0.87C327.19,578.29,326.82,577.91,326.32,577.91    L326.32,577.91z M326.96,592.14v-10.99h-1.29v10.99H326.96L326.96,592.14z M338.7,581.15h-1.37l-3.61,10.03l-3.66-10.03h-1.41    l4.22,10.99h1.6L338.7,581.15L338.7,581.15z M349.12,586.35c0-3.03-1.6-5.48-4.67-5.48c-2.89,0-5.09,2.26-5.09,5.8    c0,3.86,2.14,5.77,4.88,5.77c2.2,0,4.22-1.21,4.73-3.76h-1.35c-0.39,1.81-1.77,2.74-3.3,2.74c-1.79,0-3.43-1.14-3.57-4.38h8.33    C349.12,586.7,349.12,586.49,349.12,586.35L349.12,586.35z M344.41,581.9c1.85,0,3.26,1.29,3.41,4.11h-7.06    C340.94,583.27,342.6,581.9,344.41,581.9L344.41,581.9z M355.41,580.9c-0.71,0-1.39,0.31-1.89,0.83l-0.79,1.41v-1.99h-1.29v10.99    h1.29v-6.17c0-2.93,1.41-4.11,3.32-3.97v-1.02C355.87,580.92,355.64,580.9,355.41,580.9L355.41,580.9z M360.86,580.86    c-2.16,0-3.66,1.25-3.66,3.14c0,1.89,1.56,2.66,3.45,3.16c2.14,0.52,2.93,1.12,2.93,2.35c0,1.27-1.14,1.91-2.53,1.91    c-1.47,0-2.66-0.64-2.97-2.51h-1.33c0.31,2.49,2.04,3.53,4.22,3.53c2.26,0,3.92-1.08,3.92-3.03c0-1.85-1.2-2.76-3.74-3.39    c-1.58-0.39-2.62-0.89-2.62-2.16c0-1.21,0.89-1.95,2.22-1.95c1.47,0,2.37,0.81,2.68,2.33h1.35    C364.53,582.3,363.24,580.86,360.86,580.86L360.86,580.86z M367.73,577.91c-0.48,0-0.87,0.37-0.87,0.87    c0,0.48,0.39,0.87,0.87,0.87c0.5,0,0.87-0.39,0.87-0.87C368.6,578.29,368.23,577.91,367.73,577.91L367.73,577.91z M368.37,592.14    v-10.99h-1.29v10.99H368.37L368.37,592.14z M373.11,582.23h2.1v-1h-2.1v-2.43h-1.29v2.43h-1.41v1h1.41v6.92    c0,0.62,0,1.04,0.02,1.41c0.1,1.2,0.75,1.74,1.97,1.74c0.44,0,0.89-0.02,1.33-0.1v-0.96c-1.47,0.19-1.93-0.08-2.02-1.14    c-0.02-0.29-0.02-0.52-0.02-0.98V582.23L373.11,582.23z M385.9,581.15h-1.41l-3.53,10.03l-3.55-10.03h-1.45l4.34,11.4l-0.23,0.58    c-0.71,1.77-1.45,2.28-2.45,2.28c-0.23,0-0.44,0-0.71-0.04v1.06c0.25,0.06,0.48,0.06,0.85,0.06c1.56,0,2.62-0.87,3.74-3.78    L385.9,581.15L385.9,581.15z M397.97,577.52c-3.93,0-6.67,3.12-6.67,7.52c0,4.36,2.45,7.39,6.38,7.39c3.65,0,5.52-2.2,5.9-4.84    l0.02-0.21h-1.29l-0.04,0.21c-0.44,2.2-1.85,3.8-4.51,3.8c-2.91,0-5.03-2.43-5.03-6.42c0-3.9,2.22-6.42,5.17-6.42    c2.55,0,3.99,1.54,4.42,3.72l0.04,0.21h1.29l-0.02-0.21C403.27,579.55,401.42,577.52,397.97,577.52L397.97,577.52z M410.6,580.86    c-3.49,0-5.34,2.56-5.34,5.8c0,3.22,1.85,5.77,5.34,5.77s5.34-2.55,5.34-5.77C415.94,583.42,414.09,580.86,410.6,580.86    L410.6,580.86z M410.6,591.41c-2.28,0-3.92-1.77-3.92-4.76s1.64-4.76,3.92-4.76c2.28,0,3.93,1.77,3.93,4.76    S412.88,591.41,410.6,591.41L410.6,591.41z M419.28,576.87h-1.29v12.4c0,0.66,0,1.1,0.02,1.47c0.06,1.18,0.71,1.47,1.56,1.47    c0.33,0,0.69,0,1.02-0.06v-0.96c-0.93,0.1-1.25-0.08-1.29-0.79c-0.02-0.33-0.02-0.71-0.02-1.18V576.87L419.28,576.87z     M423.83,576.87h-1.29v12.4c0,0.66,0,1.1,0.02,1.47c0.06,1.18,0.71,1.47,1.56,1.47c0.33,0,0.68,0,1.02-0.06v-0.96    c-0.93,0.1-1.25-0.08-1.29-0.79c-0.02-0.33-0.02-0.71-0.02-1.18V576.87L423.83,576.87z M436.04,586.35c0-3.03-1.6-5.48-4.67-5.48    c-2.89,0-5.09,2.26-5.09,5.8c0,3.86,2.14,5.77,4.88,5.77c2.2,0,4.22-1.21,4.73-3.76h-1.35c-0.39,1.81-1.76,2.74-3.3,2.74    c-1.79,0-3.43-1.14-3.57-4.38H436C436.04,586.7,436.04,586.49,436.04,586.35L436.04,586.35z M431.33,581.9    c1.85,0,3.26,1.29,3.41,4.11h-7.06C427.86,583.27,429.52,581.9,431.33,581.9L431.33,581.9z M447.51,581.13h-1.29v1.91l-0.68-1.18    c-0.69-0.66-1.75-1-2.83-1c-2.78,0-5.23,1.93-5.23,5.92c0,3.26,1.83,5.65,4.9,5.65c1.27,0,2.35-0.35,3.12-1.12l0.73-1.2v0.27    c0,0.58,0,1.02-0.02,1.62c-0.08,2.18-1.33,3.57-3.66,3.57c-1.85,0-3.16-0.87-3.34-2.49l-0.04-0.25h-1.29l0.02,0.25    c0.27,2.39,1.93,3.51,4.65,3.51c3.01,0,4.84-1.72,4.94-4.65c0.02-0.64,0.02-1.5,0.02-2.58V581.13L447.51,581.13z M442.56,591.41    c-2.41,0-3.68-2.16-3.68-4.8c0-2.97,1.62-4.71,3.82-4.71c1.62,0,3.51,1.06,3.51,4.17v0.83    C446.22,590.23,444.51,591.41,442.56,591.41L442.56,591.41z M459.45,586.35c0-3.03-1.6-5.48-4.67-5.48c-2.89,0-5.09,2.26-5.09,5.8    c0,3.86,2.14,5.77,4.88,5.77c2.2,0,4.22-1.21,4.74-3.76h-1.35c-0.4,1.81-1.76,2.74-3.3,2.74c-1.79,0-3.43-1.14-3.57-4.38h8.33    C459.45,586.7,459.45,586.49,459.45,586.35L459.45,586.35z M454.73,581.9c1.85,0,3.26,1.29,3.41,4.11h-7.06    C451.26,583.27,452.93,581.9,454.73,581.9L454.73,581.9z M464.89,580.86c-2.16,0-3.66,1.25-3.66,3.14c0,1.89,1.56,2.66,3.45,3.16    c2.14,0.52,2.93,1.12,2.93,2.35c0,1.27-1.14,1.91-2.53,1.91c-1.47,0-2.66-0.64-2.97-2.51h-1.33c0.31,2.49,2.04,3.53,4.22,3.53    c2.26,0,3.93-1.08,3.93-3.03c0-1.85-1.2-2.76-3.74-3.39c-1.58-0.39-2.62-0.89-2.62-2.16c0-1.21,0.89-1.95,2.22-1.95    c1.47,0,2.37,0.81,2.68,2.33h1.35C468.57,582.3,467.28,580.86,464.89,580.86L464.89,580.86z"></path>
	</g>
	<g>
		<path d="M304.78,556.63c-3.49,0-5.34,2.55-5.34,5.8c0,3.22,1.85,5.77,5.34,5.77c3.49,0,5.34-2.55,5.34-5.77    C310.12,559.19,308.27,556.63,304.78,556.63L304.78,556.63z M304.78,567.18c-2.28,0-3.92-1.77-3.92-4.76    c0-2.99,1.64-4.76,3.92-4.76c2.28,0,3.93,1.77,3.93,4.76C308.71,565.42,307.06,567.18,304.78,567.18L304.78,567.18z M313.73,554.6    c0.12-0.98,0.96-1.45,2.41-1.16v-1.08c-0.37-0.06-0.73-0.1-1.16-0.1c-1.35,0-2.37,0.79-2.53,2.3c-0.04,0.4-0.04,0.85-0.04,1.22    v1.23h-1.18v1.04h1.18v9.87h1.29v-9.87h2.24v-1.04h-2.24v-1.33C313.69,555.36,313.69,554.95,313.73,554.6L313.73,554.6z     M319.3,554.6c0.12-0.98,0.96-1.45,2.41-1.16v-1.08c-0.37-0.06-0.73-0.1-1.16-0.1c-1.35,0-2.37,0.79-2.53,2.3    c-0.04,0.4-0.04,0.85-0.04,1.22v1.23h-1.18v1.04h1.18v9.87h1.29v-9.87h2.24v-1.04h-2.24v-1.33    C319.26,555.36,319.26,554.95,319.3,554.6L319.3,554.6z M332.26,562.11c0-3.03-1.6-5.48-4.67-5.48c-2.89,0-5.09,2.26-5.09,5.8    c0,3.86,2.14,5.77,4.88,5.77c2.2,0,4.22-1.21,4.73-3.76h-1.35c-0.39,1.81-1.77,2.74-3.3,2.74c-1.79,0-3.43-1.14-3.57-4.38h8.33    C332.26,562.47,332.26,562.26,332.26,562.11L332.26,562.11z M327.54,557.67c1.85,0,3.26,1.29,3.41,4.11h-7.06    C324.07,559.04,325.73,557.67,327.54,557.67L327.54,557.67z M338.55,556.67c-0.71,0-1.39,0.31-1.89,0.83l-0.79,1.41v-1.99h-1.29    v10.99h1.29v-6.17c0-2.93,1.41-4.11,3.32-3.97v-1.02C339.01,556.69,338.78,556.67,338.55,556.67L338.55,556.67z M349.56,562.11    c0-3.03-1.6-5.48-4.67-5.48c-2.89,0-5.09,2.26-5.09,5.8c0,3.86,2.14,5.77,4.88,5.77c2.2,0,4.22-1.21,4.73-3.76h-1.35    c-0.39,1.81-1.77,2.74-3.3,2.74c-1.79,0-3.43-1.14-3.57-4.38h8.33C349.56,562.47,349.56,562.26,349.56,562.11L349.56,562.11z     M344.84,557.67c1.85,0,3.26,1.29,3.41,4.11h-7.06C341.37,559.04,343.04,557.67,344.84,557.67L344.84,557.67z M361.02,552.64    h-1.29v6.17l-0.68-1.18c-0.69-0.66-1.75-1-2.83-1c-2.78,0-5.23,1.93-5.23,5.92c0,3.26,1.83,5.65,4.9,5.65    c1.27,0,2.35-0.35,3.11-1.12l0.73-1.21v2.04h1.29V552.64L361.02,552.64z M356.08,567.18c-2.41,0-3.68-2.16-3.68-4.8    c0-2.97,1.62-4.71,3.82-4.71c1.62,0,3.51,1.06,3.51,4.17v0.83C359.73,566,358.03,567.18,356.08,567.18L356.08,567.18z     M374.92,567.91h1.29c-0.15-1.31-0.21-2.1-0.21-3.07v-3.84c0-0.52,0-0.98-0.04-1.45c-0.17-1.81-1.31-2.91-3.74-2.91    c-2.33,0-3.97,1.39-4.11,3.55h1.35c0.17-1.7,1.25-2.51,2.76-2.51c1.58,0,2.35,0.73,2.45,1.99c0.04,0.44,0.04,0.85,0.04,1.35v0.4    H374c-3.97,0-6.36,1.22-6.36,3.74c0,1.99,1.45,3.05,3.49,3.05c1.2,0,2.28-0.35,3.05-1.12l0.54-1.16L374.92,567.91L374.92,567.91z     M371.53,567.18c-1.6,0-2.47-0.75-2.47-2.14c0-2.12,2.55-2.85,5.65-2.64v1.27C374.71,565.73,373.44,567.18,371.53,567.18    L371.53,567.18z M380.73,558h2.1v-1h-2.1v-2.43h-1.29v2.43h-1.41v1h1.41v6.92c0,0.62,0,1.04,0.02,1.41    c0.1,1.21,0.75,1.74,1.97,1.74c0.44,0,0.89-0.02,1.33-0.1v-0.96c-1.48,0.19-1.93-0.08-2.02-1.14c-0.02-0.29-0.02-0.52-0.02-0.98    V558L380.73,558z"></path>
	</g>
	<g>
		<path class="st2" d="M310.86,506.28c1.67-0.58,2.59-1.72,2.59-3.44c0-2.25-1.5-3.83-4.22-4.17c-0.82-0.1-1.31-0.1-2.16-0.1h-5.99    v16.72h6.08c0.95,0,1.48,0,2.33-0.1c2.23-0.32,4.58-1.79,4.58-4.89C314.08,508.15,313.02,506.84,310.86,506.28L310.86,506.28z     M304.44,501.2h2.42c0.39,0,0.82,0.02,1.21,0.07c1.12,0.15,1.89,0.75,1.89,2.01c0,1.21-0.6,1.89-1.82,2.08    c-0.39,0.05-0.77,0.07-1.19,0.07h-2.52V501.2L304.44,501.2z M308.46,512.63c-0.32,0.02-0.73,0.02-1.12,0.02h-2.91v-4.73h2.79    c0.39,0,0.78,0.02,1.19,0.07c1.21,0.12,2.16,0.77,2.16,2.33C310.57,511.74,309.62,512.54,308.46,512.63L308.46,512.63z     M326.32,510.26l1.65,5.04h3.64l-5.91-16.72h-4.19l-6.03,16.72h3.56l1.67-5.04H326.32L326.32,510.26z M323.53,501.44l1.94,6.18    h-3.93L323.53,501.44L323.53,501.44z M340.67,498.24c-4.63,0-8.09,3.32-8.09,8.8c0,5.33,3.2,8.6,7.85,8.6c4.29,0,7-2.33,7.37-5.89    l0.02-0.24h-3.32l-0.05,0.24c-0.44,2.08-1.7,3.39-3.88,3.39c-2.54,0-4.46-2.13-4.46-6.3c0-3.8,1.82-6.11,4.51-6.11    c2.23,0,3.49,1.21,3.9,3.27l0.05,0.24h3.34l-0.02-0.24C347.55,500.71,345.2,498.24,340.67,498.24L340.67,498.24z M365.62,498.58    h-3.32v7.2h-7.83v-7.2h-3.34v16.72h3.34v-6.86h7.83v6.86h3.32V498.58L365.62,498.58z M381.66,512.66h-8.72v-4.41h7.88v-2.64h-7.88    v-4.41h8.48v-2.62H369.6v16.72h12.07V512.66L381.66,512.66z M396.83,512.51h-8.72v-13.93h-3.34v16.72h12.07V512.51L396.83,512.51z     M406.04,498.24c-5.16,0-8.26,3.44-8.26,8.7c0,5.23,3.1,8.7,8.26,8.7c5.14,0,8.26-3.47,8.26-8.7    C414.3,501.68,411.18,498.24,406.04,498.24L406.04,498.24z M406.04,513.14c-2.98,0-4.77-2.3-4.77-6.2c0-3.93,1.79-6.2,4.77-6.2    c2.96,0,4.75,2.28,4.75,6.2C410.79,510.84,409,513.14,406.04,513.14L406.04,513.14z M429.59,511.08    c-0.19-1.87-0.82-3.25-2.47-3.88c1.99-0.56,3.27-1.91,3.27-4.07c0-2.88-1.96-4.14-4.39-4.43c-0.82-0.1-1.45-0.12-2.42-0.12h-6.11    v16.72h3.34v-6.74h1.94c0.44,0,0.85,0,1.31,0.02c1.36,0.1,2.03,1.19,2.25,2.98c0.17,1.58,0.41,2.59,0.82,3.73h3.66    C430.13,514.35,429.81,513.12,429.59,511.08L429.59,511.08z M420.82,506.07v-4.87h2.45c0.61,0,1.02,0.02,1.4,0.07    c1.31,0.17,2.2,0.75,2.2,2.37c0,1.62-1.07,2.28-2.4,2.4c-0.36,0.02-0.78,0.02-1.36,0.02H420.82L420.82,506.07z"></path>
	</g>
	<g>
		<path class="st2" d="M309.31,470.32c-0.82-0.1-1.45-0.12-2.42-0.12h-5.79v16.72h3.34v-6.3h2.45c0.97,0,1.6-0.02,2.42-0.12    c2.42-0.29,4.51-2.01,4.51-5.09C313.82,472.33,311.85,470.61,309.31,470.32L309.31,470.32z M308.32,477.9    c-0.36,0.05-0.87,0.07-1.48,0.07h-2.4v-5.14h2.4c0.61,0,1.11,0.02,1.48,0.07c1.16,0.17,1.99,0.92,1.99,2.5    C310.3,476.98,309.48,477.73,308.32,477.9L308.32,477.9z M328.55,482.7c-0.19-1.87-0.82-3.25-2.47-3.88    c1.99-0.56,3.27-1.91,3.27-4.07c0-2.88-1.96-4.14-4.39-4.43c-0.82-0.1-1.45-0.12-2.42-0.12h-6.11v16.72h3.34v-6.74h1.94    c0.44,0,0.85,0,1.31,0.02c1.36,0.1,2.03,1.19,2.25,2.98c0.17,1.57,0.41,2.59,0.82,3.73h3.66    C329.08,485.97,328.77,484.74,328.55,482.7L328.55,482.7z M319.78,477.69v-4.87h2.45c0.61,0,1.02,0.02,1.41,0.07    c1.31,0.17,2.21,0.75,2.21,2.38c0,1.62-1.07,2.28-2.4,2.4c-0.36,0.02-0.77,0.02-1.36,0.02H319.78L319.78,477.69z M339.86,469.86    c-5.16,0-8.26,3.44-8.26,8.7c0,5.23,3.1,8.7,8.26,8.7c5.14,0,8.26-3.47,8.26-8.7C348.13,473.3,345,469.86,339.86,469.86    L339.86,469.86z M339.86,484.76c-2.98,0-4.77-2.3-4.77-6.2c0-3.92,1.79-6.2,4.77-6.2c2.96,0,4.75,2.28,4.75,6.2    C344.61,482.46,342.82,484.76,339.86,484.76L339.86,484.76z M354.65,472.82h8.48v-2.62H351.3v16.72h3.34v-7.05h7.63v-2.64h-7.63    V472.82L354.65,472.82z M377.98,484.28h-8.72v-4.41h7.88v-2.64h-7.88v-4.41h8.48v-2.62h-11.83v16.72h12.07V484.28L377.98,484.28z     M386.63,469.86c-3.2,0-5.98,1.82-5.98,4.9c0,3.08,2.16,4.26,5.57,5.09c2.47,0.58,3.34,1.41,3.34,2.81c0,1.28-1.21,2.11-2.74,2.11    c-1.7,0-3.1-0.94-3.47-2.79h-3.42c0.32,3.51,2.93,5.28,6.93,5.28c3.3,0,6.18-1.79,6.18-4.94c0-2.69-1.65-4.39-5.33-5.23    c-2.67-0.63-3.56-1.33-3.56-2.74c0-1.36,1.02-1.99,2.35-1.99c1.75,0,2.69,1.07,2.88,2.76h3.42    C392.45,472.14,390.63,469.86,386.63,469.86L386.63,469.86z M401.6,469.86c-3.2,0-5.99,1.82-5.99,4.9c0,3.08,2.16,4.26,5.57,5.09    c2.47,0.58,3.34,1.41,3.34,2.81c0,1.28-1.21,2.11-2.74,2.11c-1.7,0-3.1-0.94-3.47-2.79h-3.42c0.32,3.51,2.93,5.28,6.93,5.28    c3.3,0,6.18-1.79,6.18-4.94c0-2.69-1.65-4.39-5.33-5.23c-2.67-0.63-3.56-1.33-3.56-2.74c0-1.36,1.02-1.99,2.35-1.99    c1.74,0,2.69,1.07,2.88,2.76h3.42C407.42,472.14,405.6,469.86,401.6,469.86L401.6,469.86z M414.37,486.92V470.2h-3.34v16.72    H414.37L414.37,486.92z M425.69,469.86c-5.16,0-8.26,3.44-8.26,8.7c0,5.23,3.1,8.7,8.26,8.7c5.14,0,8.26-3.47,8.26-8.7    C433.95,473.3,430.83,469.86,425.69,469.86L425.69,469.86z M425.69,484.76c-2.98,0-4.77-2.3-4.77-6.2c0-3.92,1.79-6.2,4.77-6.2    c2.96,0,4.75,2.28,4.75,6.2C430.44,482.46,428.65,484.76,425.69,484.76L425.69,484.76z M451.81,486.92l-0.03-16.72h-3.32v7.68    c0,1.43,0.02,3.47,0.12,5.26l-7.03-12.94h-4.43v16.72h3.34v-7.56c0-1.41-0.02-3.32-0.12-5.14l6.88,12.7H451.81L451.81,486.92z     M464.85,481.88l1.65,5.04h3.64l-5.91-16.72h-4.19l-6.03,16.72h3.56l1.67-5.04H464.85L464.85,481.88z M462.06,473.06l1.94,6.18    h-3.93L462.06,473.06L462.06,473.06z M484.47,484.13h-8.72V470.2h-3.34v16.72h12.07V484.13L484.47,484.13z"></path>
	</g>
	<g>
		<path d="M65.5,577.81h-1.27v9.14c0,0.46-0.02,0.87-0.06,1.27c-0.16,1.81-1.34,3.18-3.7,3.18c-2.39,0-3.56-1.37-3.72-3.18    c-0.04-0.4-0.04-0.81-0.04-1.27v-9.14h-1.27v9.2c0,0.41,0,0.83,0.04,1.33c0.19,2.33,1.75,4.09,5,4.09c3.23,0,4.81-1.77,4.98-4.09    c0.04-0.5,0.06-0.91,0.06-1.33V577.81L65.5,577.81z M76.72,584.14c-0.21-2.01-1.52-3.28-3.82-3.28c-1.21,0-2.18,0.33-3.06,1.23    l-0.58,1.18v-2.12h-1.27v10.99h1.27v-5.46c0-3.43,1.58-4.76,3.39-4.76c1.83,0,2.65,1.06,2.8,2.55c0.04,0.56,0.04,1.04,0.04,1.66v6    h1.27v-6.15C76.76,585.1,76.76,584.7,76.72,584.14L76.72,584.14z M79.91,577.91c-0.47,0-0.86,0.37-0.86,0.87    c0,0.48,0.39,0.87,0.86,0.87c0.49,0,0.86-0.39,0.86-0.87C80.77,578.29,80.4,577.91,79.91,577.91L79.91,577.91z M80.55,592.14    v-10.99h-1.27v10.99H80.55L80.55,592.14z M91.75,581.15H90.4l-3.58,10.03l-3.62-10.03h-1.4l4.17,10.99h1.58L91.75,581.15    L91.75,581.15z M101.66,586.35c0-3.03-1.58-5.48-4.63-5.48c-2.86,0-5.04,2.26-5.04,5.8c0,3.86,2.12,5.77,4.83,5.77    c2.18,0,4.17-1.21,4.69-3.76h-1.34c-0.39,1.81-1.75,2.74-3.27,2.74c-1.77,0-3.39-1.14-3.54-4.38h8.25    C101.66,586.7,101.66,586.49,101.66,586.35L101.66,586.35z M97,581.9c1.83,0,3.23,1.29,3.37,4.11h-6.99    C93.56,583.27,95.21,581.9,97,581.9L97,581.9z M107.48,580.9c-0.7,0-1.38,0.31-1.87,0.83l-0.78,1.41v-1.99h-1.27v10.99h1.27v-6.17    c0-2.93,1.4-4.11,3.29-3.97v-1.02C107.93,580.92,107.71,580.9,107.48,580.9L107.48,580.9z M112.46,580.86    c-2.14,0-3.62,1.25-3.62,3.14c0,1.89,1.54,2.66,3.41,3.16c2.12,0.52,2.9,1.12,2.9,2.35c0,1.27-1.13,1.91-2.51,1.91    c-1.46,0-2.63-0.64-2.94-2.51h-1.32c0.31,2.49,2.02,3.53,4.17,3.53c2.24,0,3.89-1.08,3.89-3.03c0-1.85-1.19-2.76-3.7-3.39    c-1.56-0.39-2.59-0.89-2.59-2.16c0-1.21,0.89-1.95,2.2-1.95c1.46,0,2.34,0.81,2.65,2.33h1.34    C116.1,582.3,114.82,580.86,112.46,580.86L112.46,580.86z M118.85,577.91c-0.47,0-0.86,0.37-0.86,0.87c0,0.48,0.39,0.87,0.86,0.87    c0.49,0,0.86-0.39,0.86-0.87C119.72,578.29,119.35,577.91,118.85,577.91L118.85,577.91z M119.49,592.14v-10.99h-1.27v10.99H119.49    L119.49,592.14z M123.77,582.23h2.08v-1h-2.08v-2.43h-1.28v2.43h-1.4v1h1.4v6.92c0,0.62,0,1.04,0.02,1.41    c0.1,1.2,0.74,1.74,1.95,1.74c0.43,0,0.88-0.02,1.32-0.1v-0.96c-1.46,0.19-1.91-0.08-1.99-1.14c-0.02-0.29-0.02-0.52-0.02-0.98    V582.23L123.77,582.23z M136.02,581.15h-1.4l-3.5,10.03l-3.52-10.03h-1.44l4.3,11.4l-0.23,0.58c-0.7,1.77-1.44,2.28-2.43,2.28    c-0.23,0-0.43,0-0.7-0.04v1.06c0.25,0.06,0.47,0.06,0.84,0.06c1.54,0,2.59-0.87,3.7-3.78L136.02,581.15L136.02,581.15z     M147.22,577.52c-3.93,0-6.67,3.12-6.67,7.52c0,4.36,2.45,7.39,6.38,7.39c3.65,0,5.52-2.2,5.9-4.84l0.02-0.21h-1.29l-0.04,0.21    c-0.44,2.2-1.85,3.8-4.51,3.8c-2.91,0-5.03-2.43-5.03-6.42c0-3.9,2.22-6.42,5.17-6.42c2.55,0,3.99,1.54,4.42,3.72l0.04,0.21h1.29    l-0.02-0.21C152.52,579.55,150.67,577.52,147.22,577.52L147.22,577.52z M159.85,580.86c-3.49,0-5.34,2.56-5.34,5.8    c0,3.22,1.85,5.77,5.34,5.77c3.49,0,5.34-2.55,5.34-5.77C165.19,583.42,163.34,580.86,159.85,580.86L159.85,580.86z     M159.85,591.41c-2.29,0-3.92-1.77-3.92-4.76s1.64-4.76,3.92-4.76c2.28,0,3.93,1.77,3.93,4.76S162.13,591.41,159.85,591.41    L159.85,591.41z M168.53,576.87h-1.29v12.4c0,0.66,0,1.1,0.02,1.47c0.06,1.18,0.71,1.47,1.56,1.47c0.33,0,0.69,0,1.02-0.06v-0.96    c-0.93,0.1-1.25-0.08-1.29-0.79c-0.02-0.33-0.02-0.71-0.02-1.18V576.87L168.53,576.87z M173.08,576.87h-1.29v12.4    c0,0.66,0,1.1,0.02,1.47c0.06,1.18,0.71,1.47,1.56,1.47c0.33,0,0.68,0,1.02-0.06v-0.96c-0.93,0.1-1.25-0.08-1.29-0.79    c-0.02-0.33-0.02-0.71-0.02-1.18V576.87L173.08,576.87z M185.29,586.35c0-3.03-1.6-5.48-4.67-5.48c-2.89,0-5.09,2.26-5.09,5.8    c0,3.86,2.14,5.77,4.88,5.77c2.2,0,4.22-1.21,4.74-3.76h-1.35c-0.4,1.81-1.77,2.74-3.3,2.74c-1.79,0-3.43-1.14-3.57-4.38h8.33    C185.29,586.7,185.29,586.49,185.29,586.35L185.29,586.35z M180.58,581.9c1.85,0,3.26,1.29,3.41,4.11h-7.06    C177.11,583.27,178.77,581.9,180.58,581.9L180.58,581.9z M196.76,581.13h-1.29v1.91l-0.68-1.18c-0.69-0.66-1.75-1-2.83-1    c-2.78,0-5.23,1.93-5.23,5.92c0,3.26,1.83,5.65,4.9,5.65c1.27,0,2.35-0.35,3.12-1.12l0.73-1.2v0.27c0,0.58,0,1.02-0.02,1.62    c-0.08,2.18-1.33,3.57-3.66,3.57c-1.85,0-3.16-0.87-3.34-2.49l-0.04-0.25h-1.29l0.02,0.25c0.27,2.39,1.93,3.51,4.65,3.51    c3.01,0,4.84-1.72,4.94-4.65c0.02-0.64,0.02-1.5,0.02-2.58V581.13L196.76,581.13z M191.81,591.41c-2.41,0-3.68-2.16-3.68-4.8    c0-2.97,1.62-4.71,3.82-4.71c1.62,0,3.51,1.06,3.51,4.17v0.83C195.47,590.23,193.77,591.41,191.81,591.41L191.81,591.41z     M208.7,586.35c0-3.03-1.6-5.48-4.67-5.48c-2.89,0-5.09,2.26-5.09,5.8c0,3.86,2.14,5.77,4.88,5.77c2.2,0,4.22-1.21,4.74-3.76    h-1.35c-0.4,1.81-1.77,2.74-3.3,2.74c-1.79,0-3.43-1.14-3.57-4.38h8.33C208.7,586.7,208.7,586.49,208.7,586.35L208.7,586.35z     M203.99,581.9c1.85,0,3.26,1.29,3.41,4.11h-7.06C200.52,583.27,202.18,581.9,203.99,581.9L203.99,581.9z M214.14,580.86    c-2.16,0-3.66,1.25-3.66,3.14c0,1.89,1.56,2.66,3.45,3.16c2.14,0.52,2.93,1.12,2.93,2.35c0,1.27-1.14,1.91-2.53,1.91    c-1.47,0-2.66-0.64-2.97-2.51h-1.33c0.31,2.49,2.04,3.53,4.22,3.53c2.26,0,3.93-1.08,3.93-3.03c0-1.85-1.2-2.76-3.74-3.39    c-1.58-0.39-2.62-0.89-2.62-2.16c0-1.21,0.89-1.95,2.22-1.95c1.47,0,2.37,0.81,2.68,2.33h1.35    C217.82,582.3,216.53,580.86,214.14,580.86L214.14,580.86z"></path>
	</g>
	<g>
		<path d="M59.41,556.63c-3.45,0-5.28,2.55-5.28,5.8c0,3.22,1.83,5.77,5.28,5.77s5.28-2.55,5.28-5.77    C64.69,559.19,62.86,556.63,59.41,556.63L59.41,556.63z M59.41,567.18c-2.26,0-3.89-1.77-3.89-4.76c0-2.99,1.62-4.76,3.89-4.76    s3.89,1.77,3.89,4.76C63.3,565.42,61.67,567.18,59.41,567.18L59.41,567.18z M67.86,554.6c0.12-0.98,0.95-1.45,2.39-1.16v-1.08    c-0.37-0.06-0.72-0.1-1.15-0.1c-1.34,0-2.34,0.79-2.51,2.3c-0.04,0.4-0.04,0.85-0.04,1.22v1.23h-1.17v1.04h1.17v9.87h1.27v-9.87    h2.22v-1.04h-2.22v-1.33C67.82,555.36,67.82,554.95,67.86,554.6L67.86,554.6z M72.96,554.6c0.12-0.98,0.95-1.45,2.39-1.16v-1.08    c-0.37-0.06-0.72-0.1-1.15-0.1c-1.34,0-2.34,0.79-2.51,2.3c-0.04,0.4-0.04,0.85-0.04,1.22v1.23h-1.17v1.04h1.17v9.87h1.27v-9.87    h2.22v-1.04h-2.22v-1.33C72.92,555.36,72.92,554.95,72.96,554.6L72.96,554.6z M85.38,562.11c0-3.03-1.58-5.48-4.63-5.48    c-2.86,0-5.04,2.26-5.04,5.8c0,3.86,2.12,5.77,4.83,5.77c2.18,0,4.17-1.21,4.69-3.76H83.9c-0.39,1.81-1.75,2.74-3.27,2.74    c-1.77,0-3.39-1.14-3.54-4.38h8.25C85.38,562.47,85.38,562.26,85.38,562.11L85.38,562.11z M80.71,557.67    c1.83,0,3.23,1.29,3.37,4.11h-6.99C77.28,559.04,78.92,557.67,80.71,557.67L80.71,557.67z M91.2,556.67    c-0.7,0-1.38,0.31-1.87,0.83l-0.78,1.41v-1.99h-1.27v10.99h1.27v-6.17c0-2.93,1.4-4.11,3.29-3.97v-1.02    C91.65,556.69,91.42,556.67,91.2,556.67L91.2,556.67z M101.68,562.11c0-3.03-1.58-5.48-4.63-5.48c-2.86,0-5.04,2.26-5.04,5.8    c0,3.86,2.12,5.77,4.83,5.77c2.18,0,4.17-1.21,4.69-3.76h-1.34c-0.39,1.81-1.75,2.74-3.27,2.74c-1.77,0-3.39-1.14-3.54-4.38h8.25    C101.68,562.47,101.68,562.26,101.68,562.11L101.68,562.11z M97.02,557.67c1.83,0,3.23,1.29,3.37,4.11H93.4    C93.58,559.04,95.23,557.67,97.02,557.67L97.02,557.67z M112.62,552.64h-1.27v6.17l-0.68-1.18c-0.68-0.66-1.73-1-2.8-1    c-2.75,0-5.18,1.93-5.18,5.92c0,3.26,1.81,5.65,4.85,5.65c1.25,0,2.32-0.35,3.08-1.12l0.72-1.21v2.04h1.27V552.64L112.62,552.64z     M107.73,567.18c-2.38,0-3.64-2.16-3.64-4.8c0-2.97,1.6-4.71,3.78-4.71c1.6,0,3.48,1.06,3.48,4.17v0.83    C111.35,566,109.66,567.18,107.73,567.18L107.73,567.18z M125.56,567.91h1.27c-0.14-1.31-0.21-2.1-0.21-3.07v-3.84    c0-0.52,0-0.98-0.04-1.45c-0.16-1.81-1.29-2.91-3.7-2.91c-2.3,0-3.93,1.39-4.07,3.55h1.34c0.17-1.7,1.23-2.51,2.73-2.51    c1.56,0,2.32,0.73,2.43,1.99c0.04,0.44,0.04,0.85,0.04,1.35v0.4h-0.7c-3.93,0-6.29,1.22-6.29,3.74c0,1.99,1.44,3.05,3.45,3.05    c1.19,0,2.26-0.35,3.02-1.12l0.54-1.16L125.56,567.91L125.56,567.91z M122.21,567.18c-1.58,0-2.45-0.75-2.45-2.14    c0-2.12,2.53-2.85,5.59-2.64v1.27C125.35,565.73,124.1,567.18,122.21,567.18L122.21,567.18z M130.9,558h2.08v-1h-2.08v-2.43h-1.27    v2.43h-1.4v1h1.4v6.92c0,0.62,0,1.04,0.02,1.41c0.1,1.21,0.74,1.74,1.95,1.74c0.43,0,0.88-0.02,1.32-0.1v-0.96    c-1.46,0.19-1.91-0.08-1.99-1.14c-0.02-0.29-0.02-0.52-0.02-0.98V558L130.9,558z"></path>
	</g>
	<g>
		<path class="st2" d="M63.69,498.68c-0.85-0.1-1.24-0.1-2.13-0.1h-5.77v16.72h5.72c0.9,0,1.28,0,2.13-0.1    c3.88-0.46,6.93-3.37,6.93-8.48C70.57,501.61,67.56,499.14,63.69,498.68L63.69,498.68z M62.89,512.58    c-0.53,0.07-1.04,0.07-1.77,0.07h-1.99V501.2h2.04c0.75,0,1.24,0.02,1.79,0.1c2.47,0.32,4.07,2.18,4.07,5.48    C67.03,510.19,65.38,512.27,62.89,512.58L62.89,512.58z M85.81,512.66h-8.72v-4.41h7.88v-2.64h-7.88v-4.41h8.48v-2.62H73.74v16.72    h12.07V512.66L85.81,512.66z M96.57,506.77v2.62h3.54c-0.34,2.35-1.87,3.76-4.02,3.76c-2.62,0-4.56-2.13-4.56-6.3    c0-3.8,1.94-6.11,4.65-6.11c2.23,0,3.49,1.21,3.9,3.27l0.05,0.24h3.34l-0.02-0.24c-0.34-3.3-2.69-5.77-7.22-5.77    c-4.68,0-8.24,3.32-8.24,8.8c0,5.31,2.93,8.6,7.58,8.6c1.84,0,3.13-0.44,4.07-1.36l0.75-1.7l0.22,2.71h2.69v-8.53H96.57    L96.57,506.77z M119.13,511.08c-0.19-1.87-0.82-3.25-2.47-3.88c1.99-0.56,3.27-1.91,3.27-4.07c0-2.88-1.96-4.14-4.39-4.43    c-0.82-0.1-1.45-0.12-2.42-0.12h-6.11v16.72h3.34v-6.74h1.94c0.44,0,0.85,0,1.31,0.02c1.36,0.1,2.04,1.19,2.25,2.98    c0.17,1.58,0.41,2.59,0.82,3.73h3.66C119.66,514.35,119.34,513.12,119.13,511.08L119.13,511.08z M110.35,506.07v-4.87h2.45    c0.61,0,1.02,0.02,1.41,0.07c1.31,0.17,2.21,0.75,2.21,2.37c0,1.62-1.07,2.28-2.4,2.4c-0.36,0.02-0.78,0.02-1.36,0.02H110.35    L110.35,506.07z M135.17,512.66h-8.72v-4.41h7.88v-2.64h-7.88v-4.41h8.48v-2.62H123.1v16.72h12.07V512.66L135.17,512.66z     M150.34,512.66h-8.72v-4.41h7.88v-2.64h-7.88v-4.41h8.48v-2.62h-11.82v16.72h12.07V512.66L150.34,512.66z M158.99,498.24    c-3.2,0-5.99,1.82-5.99,4.89c0,3.08,2.16,4.26,5.57,5.09c2.47,0.58,3.34,1.41,3.34,2.81c0,1.28-1.21,2.11-2.74,2.11    c-1.7,0-3.1-0.94-3.46-2.79h-3.42c0.32,3.51,2.93,5.28,6.93,5.28c3.3,0,6.18-1.79,6.18-4.94c0-2.69-1.65-4.39-5.33-5.23    c-2.66-0.63-3.56-1.33-3.56-2.74c0-1.36,1.02-1.99,2.35-1.99c1.74,0,2.69,1.07,2.88,2.76h3.42    C164.8,500.52,162.98,498.24,158.99,498.24L158.99,498.24z"></path>
	</g>
	<g>
		<path class="st2" d="M64.85,481.88l1.65,5.04h3.63l-5.91-16.72h-4.19l-6.03,16.72h3.56l1.67-5.04H64.85L64.85,481.88z     M62.06,473.06l1.94,6.18h-3.93L62.06,473.06L62.06,473.06z M77.69,469.86c-3.2,0-5.99,1.82-5.99,4.9c0,3.08,2.16,4.26,5.57,5.09    c2.47,0.58,3.34,1.41,3.34,2.81c0,1.28-1.21,2.11-2.74,2.11c-1.7,0-3.1-0.94-3.47-2.79H71c0.32,3.51,2.93,5.28,6.93,5.28    c3.3,0,6.18-1.79,6.18-4.94c0-2.69-1.65-4.39-5.33-5.23c-2.67-0.63-3.56-1.33-3.56-2.74c0-1.36,1.02-1.99,2.35-1.99    c1.74,0,2.69,1.07,2.88,2.76h3.42C83.51,472.14,81.69,469.86,77.69,469.86L77.69,469.86z M92.67,469.86c-3.2,0-5.99,1.82-5.99,4.9    c0,3.08,2.16,4.26,5.57,5.09c2.47,0.58,3.34,1.41,3.34,2.81c0,1.28-1.21,2.11-2.74,2.11c-1.7,0-3.1-0.94-3.46-2.79h-3.42    c0.32,3.51,2.93,5.28,6.93,5.28c3.3,0,6.18-1.79,6.18-4.94c0-2.69-1.65-4.39-5.33-5.23c-2.67-0.63-3.56-1.33-3.56-2.74    c0-1.36,1.02-1.99,2.35-1.99c1.74,0,2.69,1.07,2.88,2.76h3.42C98.48,472.14,96.66,469.86,92.67,469.86L92.67,469.86z     M109.43,469.86c-5.16,0-8.26,3.44-8.26,8.7c0,5.23,3.1,8.7,8.26,8.7c5.14,0,8.26-3.47,8.26-8.7    C117.7,473.3,114.57,469.86,109.43,469.86L109.43,469.86z M109.43,484.76c-2.98,0-4.77-2.3-4.77-6.2c0-3.92,1.79-6.2,4.77-6.2    c2.96,0,4.75,2.28,4.75,6.2C114.18,482.46,112.39,484.76,109.43,484.76L109.43,484.76z M128.04,469.86c-4.63,0-8.09,3.32-8.09,8.8    c0,5.33,3.2,8.6,7.85,8.6c4.29,0,7-2.33,7.37-5.89l0.03-0.24h-3.32l-0.05,0.24c-0.44,2.08-1.7,3.39-3.88,3.39    c-2.54,0-4.46-2.13-4.46-6.3c0-3.8,1.82-6.11,4.51-6.11c2.23,0,3.49,1.21,3.9,3.27l0.05,0.24h3.34l-0.02-0.24    C134.92,472.33,132.57,469.86,128.04,469.86L128.04,469.86z M141.85,486.92V470.2h-3.34v16.72H141.85L141.85,486.92z     M154.89,481.88l1.65,5.04h3.63l-5.91-16.72h-4.19l-6.03,16.72h3.56l1.67-5.04H154.89L154.89,481.88z M152.1,473.06l1.94,6.18    h-3.93L152.1,473.06L152.1,473.06z M173.79,472.82v-2.62h-14.68v2.62h5.67v14.1h3.34v-14.1H173.79L173.79,472.82z M188.11,484.28    h-8.72v-4.41h7.88v-2.64h-7.88v-4.41h8.48v-2.62h-11.82v16.72h12.07V484.28L188.11,484.28z"></path>
	</g>
	<g>
		<path d="M1616.09,186.33c-0.82-0.1-1.45-0.12-2.42-0.12h-5.8v16.72h3.35v-6.3h2.45c0.97,0,1.6-0.02,2.42-0.12    c2.42-0.29,4.51-2.01,4.51-5.09C1620.6,188.34,1618.63,186.62,1616.09,186.33L1616.09,186.33z M1615.1,193.91    c-0.37,0.05-0.88,0.07-1.48,0.07h-2.4v-5.14h2.4c0.6,0,1.11,0.02,1.48,0.07c1.16,0.17,1.98,0.92,1.98,2.5    S1616.26,193.74,1615.1,193.91L1615.1,193.91z M1634.36,193.31c-0.27-2.25-1.84-3.61-4.58-3.61c-1.24,0-2.18,0.24-3.1,0.9l-1,1.53    v-7.12h-3.34v17.93h3.34v-5.89c0-3.59,1.29-4.97,2.91-4.99c1.63,0,2.38,0.92,2.47,2.28c0.05,0.65,0.05,1.26,0.05,1.79v6.81h3.35    v-7.27C1634.46,194.61,1634.43,193.96,1634.36,193.31L1634.36,193.31z M1645.92,186.3c-0.85-0.1-1.24-0.1-2.14-0.1h-5.76v16.72    h5.72c0.89,0,1.28,0,2.13-0.1c3.88-0.46,6.93-3.37,6.93-8.48S1649.79,186.76,1645.92,186.3L1645.92,186.3z M1645.12,200.21    c-0.54,0.07-1.04,0.07-1.77,0.07h-1.99v-11.46h2.04c0.75,0,1.23,0.02,1.79,0.1c2.47,0.32,4.07,2.18,4.07,5.48    C1649.26,197.81,1647.61,199.9,1645.12,200.21L1645.12,200.21z"></path>
	</g>
	<g>
		<path d="M308.41,290.53l1.87,5.25h1.39l-5.17-14.33h-1.72l-5.3,14.33h1.37l1.85-5.25H308.41L308.41,290.53z M303.08,289.45    l2.53-6.96l2.43,6.96H303.08L303.08,289.45z M322.25,287.78c-0.21-2.01-1.54-3.28-3.86-3.28c-1.22,0-2.2,0.33-3.09,1.23    l-0.58,1.18v-2.12h-1.29v10.99h1.29v-5.46c0-3.43,1.6-4.76,3.43-4.76c1.85,0,2.68,1.06,2.82,2.55c0.04,0.56,0.04,1.04,0.04,1.66v6    h1.29v-6.15C322.29,288.74,322.29,288.34,322.25,287.78L322.25,287.78z M326.9,285.87h2.1v-1h-2.1v-2.43h-1.29v2.43h-1.41v1h1.41    v6.92c0,0.62,0,1.04,0.02,1.41c0.1,1.2,0.75,1.74,1.97,1.74c0.44,0,0.89-0.02,1.33-0.1v-0.96c-1.47,0.19-1.93-0.08-2.01-1.14    c-0.02-0.29-0.02-0.52-0.02-0.98V285.87L326.9,285.87z M345.24,284.79h-1.37l-2.8,9.7l-2.7-9.68h-1.64l-2.68,9.78l-2.83-9.8h-1.47    l3.49,10.99h1.58l2.7-9.68l2.7,9.68h1.56L345.24,284.79L345.24,284.79z M355.77,289.99c0-3.03-1.6-5.48-4.67-5.48    c-2.89,0-5.09,2.26-5.09,5.79c0,3.86,2.14,5.77,4.88,5.77c2.2,0,4.22-1.2,4.73-3.76h-1.35c-0.39,1.81-1.77,2.74-3.3,2.74    c-1.79,0-3.43-1.14-3.57-4.38h8.33C355.77,290.34,355.77,290.13,355.77,289.99L355.77,289.99z M351.05,285.54    c1.85,0,3.26,1.29,3.41,4.11h-7.06C347.58,286.91,349.25,285.54,351.05,285.54L351.05,285.54z M362.06,284.54    c-0.71,0-1.39,0.31-1.89,0.83l-0.79,1.41v-1.99h-1.29v10.99h1.29v-6.17c0-2.93,1.41-4.11,3.32-3.97v-1.02    C362.52,284.56,362.29,284.54,362.06,284.54L362.06,284.54z M369.52,284.5c-1.27,0-2.35,0.37-3.12,1.12l-0.73,1.2v-2.1h-1.29    v15.12h1.29v-5.94l0.69,1.18c0.68,0.64,1.74,0.98,2.82,0.98c2.78,0,5.23-1.93,5.23-5.92C374.42,286.89,372.59,284.5,369.52,284.5    L369.52,284.5z M369.18,295.05c-1.62,0-3.51-1.06-3.51-4.2v-0.83c0-3.32,1.7-4.49,3.66-4.49c2.41,0,3.68,2.14,3.68,4.78    C373.01,293.29,371.39,295.05,369.18,295.05L369.18,295.05z M395.15,281.45h-2.06l-4.82,13.25l-4.84-13.25h-2.1v14.33h1.29v-7.73    c0-1.79,0-3.78-0.04-5.44c0.54,1.64,1.27,3.65,1.91,5.4l2.93,7.77h1.62l2.91-7.75c0.66-1.77,1.39-3.78,1.95-5.44    c-0.04,1.66-0.04,3.66-0.04,5.46v7.73h1.29V281.45L395.15,281.45z M404.8,295.78h1.29c-0.15-1.31-0.21-2.1-0.21-3.07v-3.84    c0-0.52,0-0.98-0.04-1.45c-0.17-1.81-1.31-2.91-3.74-2.91c-2.33,0-3.97,1.39-4.11,3.55h1.35c0.17-1.7,1.25-2.51,2.76-2.51    c1.58,0,2.35,0.73,2.45,1.99c0.04,0.44,0.04,0.85,0.04,1.35v0.4h-0.71c-3.97,0-6.36,1.22-6.36,3.74c0,1.99,1.45,3.05,3.49,3.05    c1.2,0,2.28-0.35,3.05-1.12l0.54-1.16L404.8,295.78L404.8,295.78z M401.42,295.05c-1.6,0-2.47-0.75-2.47-2.14    c0-2.12,2.55-2.84,5.65-2.64v1.27C404.6,293.6,403.33,295.05,401.42,295.05L401.42,295.05z M412.93,284.54    c-0.71,0-1.39,0.31-1.89,0.83l-0.79,1.41v-1.99h-1.29v10.99h1.29v-6.17c0-2.93,1.41-4.11,3.32-3.97v-1.02    C413.38,284.56,413.15,284.54,412.93,284.54L412.93,284.54z M415.9,281.55c-0.48,0-0.87,0.37-0.87,0.87    c0,0.48,0.39,0.87,0.87,0.87c0.5,0,0.87-0.39,0.87-0.87C416.77,281.93,416.39,281.55,415.9,281.55L415.9,281.55z M416.54,295.78    v-10.99h-1.29v10.99H416.54L416.54,295.78z M421.27,285.87h2.1v-1h-2.1v-2.43h-1.29v2.43h-1.41v1h1.41v6.92    c0,0.62,0,1.04,0.02,1.41c0.1,1.2,0.75,1.74,1.97,1.74c0.44,0,0.89-0.02,1.33-0.1v-0.96c-1.47,0.19-1.93-0.08-2.02-1.14    c-0.02-0.29-0.02-0.52-0.02-0.98V285.87L421.27,285.87z M426.15,281.55c-0.48,0-0.87,0.37-0.87,0.87c0,0.48,0.39,0.87,0.87,0.87    c0.5,0,0.87-0.39,0.87-0.87C427.03,281.93,426.65,281.55,426.15,281.55L426.15,281.55z M426.8,295.78v-10.99h-1.29v10.99H426.8    L426.8,295.78z M444.22,287.45c-0.25-1.75-1.35-2.95-3.32-2.95c-1.04,0-1.91,0.29-2.53,0.96l-0.85,1.39    c-0.37-1.41-1.45-2.35-3.2-2.35c-1.04,0-1.89,0.29-2.53,0.96l-0.62,1.23v-1.89h-1.29v10.99h1.29v-5.75c0-3.26,1.2-4.49,2.76-4.49    c1.45,0,2.26,0.85,2.45,2.33c0.06,0.56,0.08,1.12,0.08,2.01v5.9h1.29v-5.75c0-3.26,1.2-4.49,2.76-4.49c1.45,0,2.26,0.85,2.45,2.33    c0.06,0.56,0.08,1.12,0.08,2.01v5.9h1.29v-6.48C444.33,288.41,444.31,288.01,444.22,287.45L444.22,287.45z M456.14,289.99    c0-3.03-1.6-5.48-4.67-5.48c-2.89,0-5.09,2.26-5.09,5.79c0,3.86,2.14,5.77,4.88,5.77c2.2,0,4.22-1.2,4.73-3.76h-1.35    c-0.4,1.81-1.77,2.74-3.3,2.74c-1.79,0-3.43-1.14-3.57-4.38h8.33C456.14,290.34,456.14,290.13,456.14,289.99L456.14,289.99z     M451.43,285.54c1.85,0,3.26,1.29,3.41,4.11h-7.06C447.96,286.91,449.62,285.54,451.43,285.54L451.43,285.54z M470.79,290.53    l1.87,5.25h1.39l-5.17-14.33h-1.72l-5.3,14.33h1.37l1.85-5.25H470.79L470.79,290.53z M465.45,289.45l2.53-6.96l2.43,6.96H465.45    L465.45,289.45z M480.01,284.5c-2.76,0-5.11,2.16-5.11,5.79c0,3.88,2.14,5.77,4.88,5.77c2.37,0,4.17-1.29,4.67-3.72h-1.33    c-0.39,1.77-1.64,2.7-3.26,2.7c-1.85,0-3.55-1.48-3.55-4.86c0-3.18,1.81-4.67,3.65-4.67c1.77,0,2.87,1.02,3.24,2.87h1.35    C484.23,286.06,482.54,284.5,480.01,284.5L480.01,284.5z M493.28,295.78h1.29c-0.15-1.31-0.21-2.1-0.21-3.07v-3.84    c0-0.52,0-0.98-0.04-1.45c-0.17-1.81-1.31-2.91-3.74-2.91c-2.33,0-3.97,1.39-4.11,3.55h1.35c0.17-1.7,1.25-2.51,2.76-2.51    c1.58,0,2.35,0.73,2.45,1.99c0.04,0.44,0.04,0.85,0.04,1.35v0.4h-0.71c-3.97,0-6.36,1.22-6.36,3.74c0,1.99,1.45,3.05,3.49,3.05    c1.2,0,2.28-0.35,3.05-1.12l0.54-1.16L493.28,295.78L493.28,295.78z M489.89,295.05c-1.6,0-2.47-0.75-2.47-2.14    c0-2.12,2.55-2.84,5.65-2.64v1.27C493.07,293.6,491.81,295.05,489.89,295.05L489.89,295.05z M506.57,280.51h-1.29v6.17l-0.68-1.18    c-0.69-0.67-1.74-1-2.83-1c-2.78,0-5.23,1.93-5.23,5.92c0,3.26,1.83,5.65,4.9,5.65c1.27,0,2.35-0.35,3.12-1.12l0.73-1.2v2.03h1.29    V280.51L506.57,280.51z M501.63,295.05c-2.41,0-3.68-2.16-3.68-4.8c0-2.97,1.62-4.71,3.82-4.71c1.62,0,3.51,1.06,3.51,4.18v0.83    C505.29,293.87,503.58,295.05,501.63,295.05L501.63,295.05z M518.52,289.99c0-3.03-1.6-5.48-4.67-5.48    c-2.89,0-5.09,2.26-5.09,5.79c0,3.86,2.14,5.77,4.88,5.77c2.2,0,4.22-1.2,4.74-3.76h-1.35c-0.4,1.81-1.77,2.74-3.3,2.74    c-1.79,0-3.43-1.14-3.57-4.38h8.33C518.52,290.34,518.52,290.13,518.52,289.99L518.52,289.99z M513.8,285.54    c1.85,0,3.26,1.29,3.41,4.11h-7.06C510.33,286.91,511.99,285.54,513.8,285.54L513.8,285.54z M535.19,287.45    c-0.25-1.75-1.35-2.95-3.32-2.95c-1.04,0-1.91,0.29-2.53,0.96l-0.85,1.39c-0.37-1.41-1.45-2.35-3.2-2.35    c-1.04,0-1.89,0.29-2.53,0.96l-0.62,1.23v-1.89h-1.29v10.99h1.29v-5.75c0-3.26,1.2-4.49,2.76-4.49c1.45,0,2.26,0.85,2.45,2.33    c0.06,0.56,0.08,1.12,0.08,2.01v5.9h1.29v-5.75c0-3.26,1.21-4.49,2.76-4.49c1.45,0,2.26,0.85,2.45,2.33    c0.06,0.56,0.08,1.12,0.08,2.01v5.9h1.29v-6.48C535.3,288.41,535.28,288.01,535.19,287.45L535.19,287.45z M546.8,284.79h-1.41    l-3.53,10.03l-3.55-10.03h-1.45l4.34,11.4l-0.23,0.58c-0.71,1.77-1.45,2.28-2.45,2.28c-0.23,0-0.44,0-0.71-0.04v1.06    c0.25,0.06,0.48,0.06,0.85,0.06c1.56,0,2.62-0.87,3.74-3.78L546.8,284.79L546.8,284.79z"></path>
	</g>
	<g>
		<path d="M303.45,260.27c-2.16,0-3.65,1.25-3.65,3.14c0,1.89,1.56,2.66,3.45,3.16c2.14,0.52,2.93,1.12,2.93,2.35    c0,1.27-1.14,1.91-2.53,1.91c-1.47,0-2.66-0.64-2.97-2.51h-1.33c0.31,2.49,2.03,3.53,4.22,3.53c2.26,0,3.93-1.08,3.93-3.03    c0-1.85-1.2-2.76-3.74-3.39c-1.58-0.39-2.62-0.89-2.62-2.16c0-1.2,0.89-1.95,2.22-1.95c1.47,0,2.37,0.81,2.68,2.33h1.35    C307.13,261.7,305.84,260.27,303.45,260.27L303.45,260.27z M313.9,260.27c-2.76,0-5.11,2.16-5.11,5.79c0,3.88,2.14,5.77,4.88,5.77    c2.37,0,4.17-1.29,4.67-3.72h-1.33c-0.39,1.77-1.64,2.7-3.26,2.7c-1.85,0-3.55-1.47-3.55-4.86c0-3.18,1.81-4.67,3.65-4.67    c1.77,0,2.87,1.02,3.24,2.87h1.35C318.11,261.83,316.43,260.27,313.9,260.27L313.9,260.27z M329.41,263.55    c-0.21-2.02-1.54-3.28-3.86-3.28c-1.23,0-2.2,0.33-3.09,1.23l-0.58,1.18v-6.5h-1.29v15.37h1.29v-5.46c0-3.43,1.6-4.74,3.43-4.76    c1.85-0.02,2.68,1.06,2.82,2.55c0.04,0.56,0.04,1.04,0.04,1.66v6h1.29v-6.15C329.45,264.51,329.45,264.11,329.41,263.55    L329.41,263.55z M336.85,260.27c-3.49,0-5.34,2.55-5.34,5.79c0,3.22,1.85,5.77,5.34,5.77c3.49,0,5.34-2.55,5.34-5.77    C342.18,262.83,340.34,260.27,336.85,260.27L336.85,260.27z M336.85,270.82c-2.28,0-3.93-1.76-3.93-4.76s1.64-4.76,3.93-4.76    c2.29,0,3.93,1.77,3.93,4.76S339.13,270.82,336.85,270.82L336.85,270.82z M348.77,260.27c-3.49,0-5.34,2.55-5.34,5.79    c0,3.22,1.85,5.77,5.34,5.77c3.49,0,5.34-2.55,5.34-5.77C354.11,262.83,352.26,260.27,348.77,260.27L348.77,260.27z     M348.77,270.82c-2.28,0-3.92-1.76-3.92-4.76s1.64-4.76,3.92-4.76c2.28,0,3.93,1.77,3.93,4.76S351.05,270.82,348.77,270.82    L348.77,270.82z M357.45,256.28h-1.29v12.4c0,0.67,0,1.1,0.02,1.48c0.06,1.18,0.71,1.47,1.56,1.47c0.33,0,0.68,0,1.02-0.06v-0.96    c-0.93,0.1-1.25-0.08-1.29-0.79c-0.02-0.33-0.02-0.71-0.02-1.18V256.28L357.45,256.28z M363.91,260.27    c-2.16,0-3.66,1.25-3.66,3.14c0,1.89,1.56,2.66,3.45,3.16c2.14,0.52,2.93,1.12,2.93,2.35c0,1.27-1.14,1.91-2.53,1.91    c-1.47,0-2.66-0.64-2.97-2.51h-1.33c0.31,2.49,2.04,3.53,4.22,3.53c2.26,0,3.93-1.08,3.93-3.03c0-1.85-1.2-2.76-3.74-3.39    c-1.58-0.39-2.62-0.89-2.62-2.16c0-1.2,0.89-1.95,2.22-1.95c1.48,0,2.37,0.81,2.68,2.33h1.35    C367.59,261.7,366.3,260.27,363.91,260.27L363.91,260.27z M378.82,260.27c-3.49,0-5.34,2.55-5.34,5.79c0,3.22,1.85,5.77,5.34,5.77    c3.49,0,5.34-2.55,5.34-5.77C384.16,262.83,382.31,260.27,378.82,260.27L378.82,260.27z M378.82,270.82    c-2.28,0-3.92-1.76-3.92-4.76s1.64-4.76,3.92-4.76c2.28,0,3.93,1.77,3.93,4.76S381.11,270.82,378.82,270.82L378.82,270.82z     M387.77,258.24c0.13-0.98,0.96-1.45,2.41-1.16v-1.08c-0.37-0.06-0.73-0.1-1.16-0.1c-1.35,0-2.37,0.79-2.53,2.31    c-0.04,0.39-0.04,0.85-0.04,1.23v1.22h-1.18v1.04h1.18v9.86h1.29v-9.86h2.24v-1.04h-2.24v-1.33    C387.73,259,387.73,258.59,387.77,258.24L387.77,258.24z M402.68,271.55h1.29c-0.15-1.31-0.21-2.1-0.21-3.07v-3.84    c0-0.52,0-0.98-0.04-1.45c-0.17-1.81-1.31-2.91-3.74-2.91c-2.33,0-3.97,1.39-4.11,3.55h1.35c0.17-1.7,1.25-2.51,2.76-2.51    c1.58,0,2.35,0.73,2.45,1.99c0.04,0.44,0.04,0.85,0.04,1.35v0.39h-0.71c-3.97,0-6.36,1.23-6.36,3.74c0,1.99,1.45,3.05,3.49,3.05    c1.21,0,2.29-0.35,3.05-1.12l0.54-1.16L402.68,271.55L402.68,271.55z M399.3,270.82c-1.6,0-2.47-0.75-2.47-2.14    c0-2.12,2.55-2.85,5.65-2.64v1.27C402.48,269.37,401.21,270.82,399.3,270.82L399.3,270.82z M410.81,260.31    c-0.71,0-1.39,0.31-1.89,0.83l-0.79,1.41v-1.99h-1.29v10.99h1.29v-6.17c0-2.93,1.41-4.11,3.32-3.97v-1.02    C411.26,260.33,411.03,260.31,410.81,260.31L410.81,260.31z M414.79,261.64h2.1v-1h-2.1v-2.43h-1.29v2.43h-1.41v1h1.41v6.92    c0,0.62,0,1.04,0.02,1.41c0.1,1.2,0.75,1.74,1.97,1.74c0.44,0,0.89-0.02,1.33-0.1v-0.96c-1.48,0.19-1.93-0.08-2.02-1.14    c-0.02-0.29-0.02-0.52-0.02-0.98V261.64L414.79,261.64z M422.15,260.27c-2.16,0-3.65,1.25-3.65,3.14c0,1.89,1.56,2.66,3.45,3.16    c2.14,0.52,2.93,1.12,2.93,2.35c0,1.27-1.14,1.91-2.53,1.91c-1.47,0-2.66-0.64-2.97-2.51h-1.33c0.31,2.49,2.04,3.53,4.22,3.53    c2.26,0,3.92-1.08,3.92-3.03c0-1.85-1.2-2.76-3.74-3.39c-1.58-0.39-2.62-0.89-2.62-2.16c0-1.2,0.89-1.95,2.22-1.95    c1.47,0,2.37,0.81,2.68,2.33h1.35C425.82,261.7,424.53,260.27,422.15,260.27L422.15,260.27z M439.2,271.55h1.29    c-0.14-1.31-0.21-2.1-0.21-3.07v-3.84c0-0.52,0-0.98-0.04-1.45c-0.17-1.81-1.31-2.91-3.74-2.91c-2.33,0-3.97,1.39-4.11,3.55h1.35    c0.17-1.7,1.25-2.51,2.76-2.51c1.58,0,2.35,0.73,2.45,1.99c0.04,0.44,0.04,0.85,0.04,1.35v0.39h-0.71c-3.97,0-6.36,1.23-6.36,3.74    c0,1.99,1.45,3.05,3.49,3.05c1.2,0,2.28-0.35,3.05-1.12l0.54-1.16L439.2,271.55L439.2,271.55z M435.81,270.82    c-1.6,0-2.47-0.75-2.47-2.14c0-2.12,2.55-2.85,5.65-2.64v1.27C438.99,269.37,437.72,270.82,435.81,270.82L435.81,270.82z     M452.18,263.55c-0.21-2.02-1.54-3.28-3.86-3.28c-1.22,0-2.2,0.33-3.09,1.23l-0.58,1.18v-2.12h-1.29v10.99h1.29v-5.46    c0-3.43,1.6-4.76,3.43-4.76c1.85,0,2.68,1.06,2.82,2.55c0.04,0.56,0.04,1.04,0.04,1.66v6h1.29v-6.15    C452.22,264.51,452.22,264.11,452.18,263.55L452.18,263.55z M464.31,256.28h-1.29v6.17l-0.69-1.18c-0.69-0.66-1.74-1-2.82-1    c-2.78,0-5.23,1.93-5.23,5.92c0,3.26,1.83,5.65,4.9,5.65c1.27,0,2.35-0.35,3.11-1.12l0.73-1.21v2.04h1.29V256.28L464.31,256.28z     M459.36,270.82c-2.41,0-3.68-2.16-3.68-4.8c0-2.97,1.62-4.72,3.82-4.72c1.62,0,3.51,1.06,3.51,4.17v0.83    C463.02,269.64,461.32,270.82,459.36,270.82L459.36,270.82z M473.28,261.64h2.1v-1h-2.1v-2.43h-1.29v2.43h-1.41v1h1.41v6.92    c0,0.62,0,1.04,0.02,1.41c0.1,1.2,0.75,1.74,1.97,1.74c0.44,0,0.89-0.02,1.33-0.1v-0.96c-1.47,0.19-1.93-0.08-2.01-1.14    c-0.02-0.29-0.02-0.52-0.02-0.98V261.64L473.28,261.64z M486.34,263.55c-0.21-2.02-1.54-3.28-3.86-3.28c-1.23,0-2.2,0.33-3.1,1.23    l-0.58,1.18v-6.5h-1.29v15.37h1.29v-5.46c0-3.43,1.6-4.74,3.43-4.76c1.85-0.02,2.68,1.06,2.82,2.55c0.04,0.56,0.04,1.04,0.04,1.66    v6h1.29v-6.15C486.39,264.51,486.39,264.11,486.34,263.55L486.34,263.55z M498.2,265.75c0-3.03-1.6-5.48-4.67-5.48    c-2.89,0-5.09,2.26-5.09,5.79c0,3.86,2.14,5.77,4.88,5.77c2.2,0,4.22-1.2,4.74-3.76h-1.35c-0.4,1.81-1.77,2.74-3.3,2.74    c-1.79,0-3.43-1.14-3.57-4.38h8.33C498.2,266.11,498.2,265.9,498.2,265.75L498.2,265.75z M493.49,261.31    c1.85,0,3.26,1.29,3.41,4.11h-7.06C490.02,262.68,491.68,261.31,493.49,261.31L493.49,261.31z"></path>
	</g>
	<g>
		<path d="M304.78,236.04c-3.49,0-5.34,2.55-5.34,5.8c0,3.22,1.85,5.77,5.34,5.77c3.49,0,5.34-2.55,5.34-5.77    C310.12,238.59,308.27,236.04,304.78,236.04L304.78,236.04z M304.78,246.59c-2.28,0-3.92-1.77-3.92-4.76    c0-2.99,1.64-4.76,3.92-4.76c2.28,0,3.93,1.76,3.93,4.76C308.71,244.83,307.06,246.59,304.78,246.59L304.78,246.59z M313.73,234    c0.12-0.98,0.96-1.45,2.41-1.16v-1.08c-0.37-0.06-0.73-0.1-1.16-0.1c-1.35,0-2.37,0.79-2.53,2.3c-0.04,0.4-0.04,0.85-0.04,1.23    v1.23h-1.18v1.04h1.18v9.87h1.29v-9.87h2.24v-1.04h-2.24v-1.33C313.69,234.77,313.69,234.36,313.73,234L313.73,234z M319.3,234    c0.12-0.98,0.96-1.45,2.41-1.16v-1.08c-0.37-0.06-0.73-0.1-1.16-0.1c-1.35,0-2.37,0.79-2.53,2.3c-0.04,0.4-0.04,0.85-0.04,1.23    v1.23h-1.18v1.04h1.18v9.87h1.29v-9.87h2.24v-1.04h-2.24v-1.33C319.26,234.77,319.26,234.36,319.3,234L319.3,234z M332.26,241.52    c0-3.03-1.6-5.48-4.67-5.48c-2.89,0-5.09,2.26-5.09,5.8c0,3.86,2.14,5.77,4.88,5.77c2.2,0,4.22-1.2,4.73-3.76h-1.35    c-0.39,1.81-1.77,2.74-3.3,2.74c-1.79,0-3.43-1.14-3.57-4.38h8.33C332.26,241.88,332.26,241.67,332.26,241.52L332.26,241.52z     M327.54,237.08c1.85,0,3.26,1.29,3.41,4.11h-7.06C324.07,238.45,325.73,237.08,327.54,237.08L327.54,237.08z M338.55,236.08    c-0.71,0-1.39,0.31-1.89,0.83l-0.79,1.41v-1.99h-1.29v10.99h1.29v-6.17c0-2.93,1.41-4.11,3.32-3.97v-1.02    C339.01,236.1,338.78,236.08,338.55,236.08L338.55,236.08z M349.56,241.52c0-3.03-1.6-5.48-4.67-5.48c-2.89,0-5.09,2.26-5.09,5.8    c0,3.86,2.14,5.77,4.88,5.77c2.2,0,4.22-1.2,4.73-3.76h-1.35c-0.39,1.81-1.77,2.74-3.3,2.74c-1.79,0-3.43-1.14-3.57-4.38h8.33    C349.56,241.88,349.56,241.67,349.56,241.52L349.56,241.52z M344.84,237.08c1.85,0,3.26,1.29,3.41,4.11h-7.06    C341.37,238.45,343.04,237.08,344.84,237.08L344.84,237.08z M361.02,232.05h-1.29v6.17l-0.68-1.18c-0.69-0.66-1.75-1-2.83-1    c-2.78,0-5.23,1.93-5.23,5.92c0,3.26,1.83,5.65,4.9,5.65c1.27,0,2.35-0.35,3.11-1.12l0.73-1.2v2.04h1.29V232.05L361.02,232.05z     M356.08,246.59c-2.41,0-3.68-2.16-3.68-4.8c0-2.97,1.62-4.71,3.82-4.71c1.62,0,3.51,1.06,3.51,4.17v0.83    C359.73,245.41,358.03,246.59,356.08,246.59L356.08,246.59z M374.92,247.32h1.29c-0.15-1.31-0.21-2.1-0.21-3.07v-3.84    c0-0.52,0-0.98-0.04-1.45c-0.17-1.81-1.31-2.91-3.74-2.91c-2.33,0-3.97,1.39-4.11,3.55h1.35c0.17-1.7,1.25-2.51,2.76-2.51    c1.58,0,2.35,0.73,2.45,1.99c0.04,0.44,0.04,0.85,0.04,1.35v0.39H374c-3.97,0-6.36,1.23-6.36,3.74c0,1.99,1.45,3.05,3.49,3.05    c1.2,0,2.28-0.35,3.05-1.12l0.54-1.16L374.92,247.32L374.92,247.32z M371.53,246.59c-1.6,0-2.47-0.75-2.47-2.14    c0-2.12,2.55-2.85,5.65-2.64v1.27C374.71,245.14,373.44,246.59,371.53,246.59L371.53,246.59z M380.73,237.41h2.1v-1h-2.1v-2.43    h-1.29v2.43h-1.41v1h1.41v6.92c0,0.62,0,1.04,0.02,1.41c0.1,1.2,0.75,1.74,1.97,1.74c0.44,0,0.89-0.02,1.33-0.1v-0.96    c-1.48,0.19-1.93-0.08-2.02-1.14c-0.02-0.29-0.02-0.52-0.02-0.98V237.41L380.73,237.41z M397.91,236.33h-1.29v5.46    c0,3.45-1.56,4.78-3.39,4.78c-1.7,0-2.66-1.02-2.82-2.47c-0.06-0.56-0.08-1.12-0.08-1.64v-6.13h-1.29v6.42    c0,0.89,0.02,1.29,0.08,1.85c0.25,1.74,1.58,3.01,3.82,3.01c1.2,0,2.2-0.33,3.07-1.18l0.6-1.22v2.12h1.29V236.33L397.91,236.33z     M409.81,239.32c-0.21-2.02-1.54-3.28-3.86-3.28c-1.23,0-2.2,0.33-3.09,1.23l-0.58,1.18v-2.12h-1.29v10.99h1.29v-5.46    c0-3.43,1.6-4.76,3.43-4.76c1.85,0,2.68,1.06,2.82,2.55c0.04,0.56,0.04,1.04,0.04,1.66v6h1.29v-6.15    C409.85,240.28,409.85,239.88,409.81,239.32L409.81,239.32z M413.44,233.09c-0.48,0-0.87,0.37-0.87,0.87    c0,0.48,0.4,0.87,0.87,0.87c0.5,0,0.87-0.4,0.87-0.87C414.32,233.46,413.94,233.09,413.44,233.09L413.44,233.09z M414.09,247.32    v-10.99h-1.29v10.99H414.09L414.09,247.32z M425.82,236.33h-1.37l-3.61,10.03l-3.65-10.03h-1.41l4.22,10.99h1.6L425.82,236.33    L425.82,236.33z M436.25,241.52c0-3.03-1.6-5.48-4.67-5.48c-2.89,0-5.09,2.26-5.09,5.8c0,3.86,2.14,5.77,4.88,5.77    c2.2,0,4.22-1.2,4.74-3.76h-1.35c-0.39,1.81-1.76,2.74-3.3,2.74c-1.79,0-3.43-1.14-3.57-4.38h8.33    C436.25,241.88,436.25,241.67,436.25,241.52L436.25,241.52z M431.53,237.08c1.85,0,3.26,1.29,3.41,4.11h-7.06    C428.07,238.45,429.73,237.08,431.53,237.08L431.53,237.08z M442.54,236.08c-0.71,0-1.39,0.31-1.89,0.83l-0.79,1.41v-1.99h-1.29    v10.99h1.29v-6.17c0-2.93,1.41-4.11,3.32-3.97v-1.02C443,236.1,442.77,236.08,442.54,236.08L442.54,236.08z M447.98,236.04    c-2.16,0-3.66,1.25-3.66,3.14c0,1.89,1.56,2.66,3.45,3.16c2.14,0.52,2.93,1.12,2.93,2.35c0,1.27-1.14,1.91-2.53,1.91    c-1.48,0-2.66-0.64-2.97-2.51h-1.33c0.31,2.49,2.04,3.53,4.22,3.53c2.26,0,3.92-1.08,3.92-3.03c0-1.85-1.21-2.76-3.74-3.39    c-1.58-0.39-2.62-0.89-2.62-2.16c0-1.2,0.89-1.95,2.22-1.95c1.47,0,2.37,0.81,2.68,2.33h1.35    C451.66,237.47,450.37,236.04,447.98,236.04L447.98,236.04z M454.86,233.09c-0.48,0-0.87,0.37-0.87,0.87    c0,0.48,0.4,0.87,0.87,0.87c0.5,0,0.87-0.4,0.87-0.87C455.73,233.46,455.36,233.09,454.86,233.09L454.86,233.09z M455.5,247.32    v-10.99h-1.29v10.99H455.5L455.5,247.32z M460.24,237.41h2.1v-1h-2.1v-2.43h-1.29v2.43h-1.41v1h1.41v6.92c0,0.62,0,1.04,0.02,1.41    c0.1,1.2,0.75,1.74,1.97,1.74c0.44,0,0.89-0.02,1.33-0.1v-0.96c-1.48,0.19-1.93-0.08-2.02-1.14c-0.02-0.29-0.02-0.52-0.02-0.98    V237.41L460.24,237.41z M465.12,233.09c-0.48,0-0.87,0.37-0.87,0.87c0,0.48,0.4,0.87,0.87,0.87c0.5,0,0.87-0.4,0.87-0.87    C465.99,233.46,465.62,233.09,465.12,233.09L465.12,233.09z M465.76,247.32v-10.99h-1.29v10.99H465.76L465.76,247.32z     M477.7,241.52c0-3.03-1.6-5.48-4.67-5.48c-2.89,0-5.09,2.26-5.09,5.8c0,3.86,2.14,5.77,4.88,5.77c2.2,0,4.22-1.2,4.74-3.76h-1.35    c-0.4,1.81-1.77,2.74-3.3,2.74c-1.79,0-3.43-1.14-3.57-4.38h8.33C477.7,241.88,477.7,241.67,477.7,241.52L477.7,241.52z     M472.99,237.08c1.85,0,3.26,1.29,3.41,4.11h-7.06C469.52,238.45,471.18,237.08,472.99,237.08L472.99,237.08z M483.14,236.04    c-2.16,0-3.66,1.25-3.66,3.14c0,1.89,1.56,2.66,3.45,3.16c2.14,0.52,2.93,1.12,2.93,2.35c0,1.27-1.14,1.91-2.53,1.91    c-1.48,0-2.66-0.64-2.97-2.51h-1.33c0.31,2.49,2.04,3.53,4.22,3.53c2.26,0,3.93-1.08,3.93-3.03c0-1.85-1.21-2.76-3.74-3.39    c-1.58-0.39-2.62-0.89-2.62-2.16c0-1.2,0.89-1.95,2.22-1.95c1.48,0,2.37,0.81,2.68,2.33h1.35    C486.82,237.47,485.53,236.04,483.14,236.04L483.14,236.04z M490.21,246.01v-0.19h-1.39l-1.37,3.97h1.2L490.21,246.01    L490.21,246.01z"></path>
	</g>
	<g>
		<path class="st2" d="M310.86,185.69c1.67-0.58,2.59-1.72,2.59-3.44c0-2.25-1.5-3.83-4.22-4.17c-0.82-0.1-1.31-0.1-2.16-0.1h-5.99    v16.72h6.08c0.95,0,1.48,0,2.33-0.1c2.23-0.32,4.58-1.79,4.58-4.89C314.08,187.56,313.02,186.25,310.86,185.69L310.86,185.69z     M304.44,180.6h2.42c0.39,0,0.82,0.02,1.21,0.07c1.12,0.15,1.89,0.75,1.89,2.01c0,1.21-0.6,1.89-1.82,2.08    c-0.39,0.05-0.77,0.07-1.19,0.07h-2.52V180.6L304.44,180.6z M308.46,192.04c-0.32,0.02-0.73,0.02-1.12,0.02h-2.91v-4.73h2.79    c0.39,0,0.78,0.02,1.19,0.07c1.21,0.12,2.16,0.78,2.16,2.33C310.57,191.14,309.62,191.94,308.46,192.04L308.46,192.04z     M326.32,189.67l1.65,5.04h3.64l-5.91-16.72h-4.19l-6.03,16.72h3.56l1.67-5.04H326.32L326.32,189.67z M323.53,180.85l1.94,6.18    h-3.93L323.53,180.85L323.53,180.85z M340.67,177.65c-4.63,0-8.09,3.32-8.09,8.8c0,5.33,3.2,8.6,7.85,8.6c4.29,0,7-2.33,7.37-5.89    l0.02-0.24h-3.32l-0.05,0.24c-0.44,2.08-1.7,3.39-3.88,3.39c-2.54,0-4.46-2.13-4.46-6.3c0-3.8,1.82-6.11,4.51-6.11    c2.23,0,3.49,1.21,3.9,3.27l0.05,0.24h3.34l-0.02-0.24C347.55,180.12,345.2,177.65,340.67,177.65L340.67,177.65z M365.62,177.99    h-3.32v7.2h-7.83v-7.2h-3.34v16.72h3.34v-6.86h7.83v6.86h3.32V177.99L365.62,177.99z M381.66,192.07h-8.72v-4.41h7.88v-2.64h-7.88    v-4.41h8.48v-2.62H369.6v16.72h12.07V192.07L381.66,192.07z M396.83,191.92h-8.72v-13.93h-3.34v16.72h12.07V191.92L396.83,191.92z     M406.04,177.65c-5.16,0-8.26,3.44-8.26,8.7c0,5.23,3.1,8.7,8.26,8.7c5.14,0,8.26-3.47,8.26-8.7    C414.3,181.09,411.18,177.65,406.04,177.65L406.04,177.65z M406.04,192.55c-2.98,0-4.77-2.3-4.77-6.2c0-3.93,1.79-6.2,4.77-6.2    c2.96,0,4.75,2.28,4.75,6.2C410.79,190.25,409,192.55,406.04,192.55L406.04,192.55z M429.59,190.49    c-0.19-1.87-0.82-3.25-2.47-3.88c1.99-0.56,3.27-1.92,3.27-4.07c0-2.88-1.96-4.14-4.39-4.43c-0.82-0.1-1.45-0.12-2.42-0.12h-6.11    v16.72h3.34v-6.74h1.94c0.44,0,0.85,0,1.31,0.02c1.36,0.1,2.03,1.19,2.25,2.98c0.17,1.57,0.41,2.59,0.82,3.73h3.66    C430.13,193.76,429.81,192.53,429.59,190.49L429.59,190.49z M420.82,185.47v-4.87h2.45c0.61,0,1.02,0.02,1.4,0.07    c1.31,0.17,2.2,0.75,2.2,2.38c0,1.62-1.07,2.28-2.4,2.4c-0.36,0.02-0.78,0.02-1.36,0.02H420.82L420.82,185.47z"></path>
	</g>
	<g>
		<path class="st2" d="M310.16,161.29l1.65,5.04h3.64l-5.91-16.72h-4.19l-6.03,16.72h3.56l1.67-5.04H310.16L310.16,161.29z     M307.37,152.47l1.94,6.18h-3.92L307.37,152.47L307.37,152.47z M324.5,149.27c-4.63,0-8.09,3.32-8.09,8.8c0,5.33,3.2,8.6,7.85,8.6    c4.29,0,7-2.33,7.37-5.89l0.02-0.24h-3.32l-0.05,0.24c-0.44,2.08-1.7,3.39-3.88,3.39c-2.54,0-4.46-2.13-4.46-6.3    c0-3.8,1.82-6.11,4.51-6.11c2.23,0,3.49,1.21,3.9,3.27l0.05,0.24h3.34l-0.02-0.24C331.39,151.74,329.03,149.27,324.5,149.27    L324.5,149.27z M343.48,161.29l1.65,5.04h3.64l-5.91-16.72h-4.19l-6.03,16.72h3.56l1.67-5.04H343.48L343.48,161.29z     M340.69,152.47l1.94,6.18h-3.93L340.69,152.47L340.69,152.47z M358.94,149.7c-0.85-0.1-1.24-0.1-2.13-0.1h-5.77v16.72h5.72    c0.9,0,1.28,0,2.13-0.1c3.88-0.46,6.93-3.37,6.93-8.48C365.82,152.64,362.81,150.16,358.94,149.7L358.94,149.7z M358.14,163.61    c-0.53,0.07-1.04,0.07-1.77,0.07h-1.99v-11.46h2.04c0.75,0,1.24,0.02,1.79,0.1c2.47,0.31,4.07,2.18,4.07,5.48    C362.28,161.21,360.63,163.3,358.14,163.61L358.14,163.61z M381.06,163.68h-8.72v-4.41h7.88v-2.64h-7.88v-4.41h8.48v-2.62h-11.83    v16.72h12.07V163.68L381.06,163.68z M402.19,149.61H397l-3.78,13.64l-3.78-13.64h-5.28v16.72h3.34v-7.73c0-1.75,0-3.95-0.05-5.7    c0.39,1.72,0.99,3.95,1.5,5.65l2.4,7.78h3.63l2.35-7.75c0.53-1.72,1.14-3.95,1.55-5.69c-0.05,1.75-0.05,3.97-0.05,5.72v7.73h3.34    V149.61L402.19,149.61z M409.48,166.33v-16.72h-3.34v16.72H409.48L409.48,166.33z M420.63,149.27c-4.63,0-8.09,3.32-8.09,8.8    c0,5.33,3.2,8.6,7.85,8.6c4.29,0,7-2.33,7.37-5.89l0.02-0.24h-3.32l-0.05,0.24c-0.44,2.08-1.7,3.39-3.88,3.39    c-2.54,0-4.46-2.13-4.46-6.3c0-3.8,1.82-6.11,4.51-6.11c2.23,0,3.49,1.21,3.9,3.27l0.05,0.24h3.34l-0.02-0.24    C427.51,151.74,425.16,149.27,420.63,149.27L420.63,149.27z"></path>
	</g>
	<g>
		<path class="st1" d="M786.52,186.55h-5.19l-3.78,13.64l-3.78-13.64h-5.28v16.72h3.34v-7.73c0-1.74,0-3.95-0.05-5.69    c0.39,1.72,0.99,3.95,1.5,5.65l2.4,7.78h3.63l2.35-7.75c0.53-1.72,1.14-3.95,1.55-5.69c-0.05,1.74-0.05,3.97-0.05,5.72v7.73h3.34    V186.55L786.52,186.55z M799.53,198.23l1.65,5.04h3.64l-5.91-16.72h-4.19l-6.03,16.72h3.56l1.67-5.04H799.53L799.53,198.23z     M796.74,189.41l1.94,6.18h-3.92L796.74,189.41L796.74,189.41z M812.37,186.21c-3.2,0-5.98,1.82-5.98,4.89    c0,3.08,2.16,4.26,5.57,5.09c2.47,0.58,3.34,1.4,3.34,2.81c0,1.28-1.21,2.11-2.74,2.11c-1.7,0-3.1-0.94-3.47-2.79h-3.42    c0.31,3.51,2.93,5.28,6.93,5.28c3.3,0,6.18-1.79,6.18-4.94c0-2.69-1.65-4.39-5.33-5.23c-2.67-0.63-3.56-1.33-3.56-2.74    c0-1.36,1.02-1.99,2.35-1.99c1.74,0,2.69,1.07,2.88,2.76h3.42C818.19,188.49,816.37,186.21,812.37,186.21L812.37,186.21z     M834.88,189.17v-2.62H820.2v2.62h5.67v14.1h3.34v-14.1H834.88L834.88,189.17z M849.2,200.63h-8.72v-4.41h7.88v-2.64h-7.88v-4.41    h8.48v-2.62h-11.83v16.72h12.07V200.63L849.2,200.63z M864.42,199.05c-0.19-1.87-0.82-3.25-2.47-3.88    c1.99-0.56,3.27-1.91,3.27-4.07c0-2.88-1.96-4.14-4.39-4.43c-0.82-0.1-1.45-0.12-2.42-0.12h-6.11v16.72h3.34v-6.74h1.94    c0.44,0,0.85,0,1.31,0.02c1.36,0.1,2.04,1.19,2.25,2.98c0.17,1.57,0.41,2.59,0.82,3.73h3.66    C864.95,202.32,864.64,201.09,864.42,199.05L864.42,199.05z M855.65,194.04v-4.87h2.45c0.61,0,1.02,0.02,1.41,0.07    c1.31,0.17,2.2,0.75,2.2,2.37c0,1.62-1.07,2.28-2.4,2.4c-0.36,0.02-0.78,0.02-1.36,0.02H855.65L855.65,194.04z"></path>
	</g>
	<g>
		<path class="st1" d="M1206.27,200.4h-5.18l-3.78,13.64l-3.78-13.64h-5.29v16.72h3.35v-7.73c0-1.75,0-3.95-0.05-5.69    c0.39,1.72,0.99,3.95,1.5,5.65l2.4,7.78h3.63l2.35-7.75c0.54-1.72,1.14-3.95,1.56-5.69c-0.05,1.74-0.05,3.97-0.05,5.72v7.73h3.34    V200.4L1206.27,200.4z M1219.28,212.08l1.65,5.04h3.64l-5.92-16.72h-4.19l-6.03,16.72h3.56l1.67-5.04H1219.28L1219.28,212.08z     M1216.5,203.26l1.93,6.18h-3.92L1216.5,203.26L1216.5,203.26z M1232.13,200.06c-3.2,0-5.99,1.82-5.99,4.9    c0,3.08,2.16,4.26,5.57,5.09c2.48,0.58,3.35,1.41,3.35,2.81c0,1.28-1.21,2.11-2.74,2.11c-1.7,0-3.1-0.95-3.47-2.79h-3.41    c0.31,3.51,2.93,5.28,6.93,5.28c3.29,0,6.18-1.79,6.18-4.94c0-2.69-1.65-4.39-5.33-5.23c-2.67-0.63-3.57-1.33-3.57-2.74    c0-1.36,1.02-1.99,2.35-1.99c1.75,0,2.69,1.07,2.89,2.76h3.41C1237.94,202.33,1236.12,200.06,1232.13,200.06L1232.13,200.06z     M1254.64,203.01v-2.62h-14.69v2.62h5.67v14.1h3.35v-14.1H1254.64L1254.64,203.01z M1268.96,214.47h-8.73v-4.41h7.88v-2.64h-7.88    v-4.41h8.48v-2.62h-11.82v16.72h12.07V214.47L1268.96,214.47z M1284.17,212.9c-0.19-1.87-0.82-3.25-2.47-3.88    c1.99-0.56,3.27-1.91,3.27-4.07c0-2.88-1.96-4.14-4.38-4.43c-0.83-0.1-1.46-0.12-2.43-0.12h-6.1v16.72h3.34v-6.74h1.94    c0.44,0,0.85,0,1.31,0.02c1.35,0.1,2.03,1.19,2.25,2.98c0.17,1.58,0.41,2.59,0.83,3.73h3.65    C1284.71,216.17,1284.39,214.93,1284.17,212.9L1284.17,212.9z M1275.4,207.88v-4.87h2.45c0.6,0,1.02,0.03,1.4,0.07    c1.31,0.17,2.21,0.75,2.21,2.38c0,1.62-1.07,2.28-2.4,2.4c-0.36,0.02-0.78,0.02-1.36,0.02H1275.4L1275.4,207.88z"></path>
	</g>
	<g>
		<path class="st1" d="M1197.31,184.38l1.64,5.04h3.64l-5.91-16.72h-4.2l-6.03,16.72h3.56l1.67-5.04H1197.31L1197.31,184.38z     M1194.52,175.56l1.94,6.18h-3.93L1194.52,175.56L1194.52,175.56z M1212.76,172.8c-0.84-0.1-1.23-0.1-2.13-0.1h-5.76v16.72h5.71    c0.9,0,1.29,0,2.14-0.1c3.87-0.46,6.93-3.37,6.93-8.48C1219.65,175.73,1216.64,173.26,1212.76,172.8L1212.76,172.8z     M1211.97,186.71c-0.54,0.07-1.05,0.07-1.77,0.07h-1.99v-11.46h2.03c0.76,0,1.24,0.02,1.8,0.1c2.47,0.32,4.07,2.18,4.07,5.48    C1216.11,184.31,1214.46,186.39,1211.97,186.71L1211.97,186.71z M1231.01,189.42l6.03-16.72h-3.56l-4.5,14.15l-4.44-14.15h-3.63    l5.91,16.72H1231.01L1231.01,189.42z M1246.79,184.38l1.64,5.04h3.64l-5.91-16.72h-4.2l-6.03,16.72h3.56l1.67-5.04H1246.79    L1246.79,184.38z M1244,175.56l1.94,6.18h-3.93L1244,175.56L1244,175.56z M1269.03,189.42L1269,172.7h-3.31v7.68    c0,1.43,0.02,3.46,0.12,5.26l-7.03-12.94h-4.44v16.72h3.35v-7.56c0-1.4-0.03-3.32-0.12-5.14l6.88,12.7H1269.03L1269.03,189.42z     M1280.17,172.36c-4.62,0-8.09,3.32-8.09,8.8c0,5.33,3.2,8.6,7.85,8.6c4.29,0,7.01-2.33,7.37-5.89l0.02-0.24H1284l-0.04,0.24    c-0.44,2.08-1.7,3.39-3.88,3.39c-2.55,0-4.46-2.13-4.46-6.3c0-3.8,1.82-6.11,4.51-6.11c2.23,0,3.49,1.21,3.9,3.27l0.05,0.24h3.34    l-0.02-0.24C1287.06,174.84,1284.71,172.36,1280.17,172.36L1280.17,172.36z M1302.71,186.78h-8.72v-4.41h7.87v-2.64h-7.87v-4.41    h8.48v-2.62h-11.83v16.72h12.07V186.78L1302.71,186.78z M1313.71,172.8c-0.85-0.1-1.24-0.1-2.13-0.1h-5.77v16.72h5.72    c0.9,0,1.28,0,2.13-0.1c3.88-0.46,6.93-3.37,6.93-8.48C1320.59,175.73,1317.59,173.26,1313.71,172.8L1313.71,172.8z     M1312.91,186.71c-0.53,0.07-1.04,0.07-1.77,0.07h-1.99v-11.46h2.04c0.75,0,1.24,0.02,1.79,0.1c2.47,0.32,4.07,2.18,4.07,5.48    C1317.05,184.31,1315.41,186.39,1312.91,186.71L1312.91,186.71z"></path>
	</g>
	<g>
		<path class="st2" d="M588.07,386.81c-1.27,0-2.35,0.37-3.12,1.12l-0.73,1.21v-6.31h-1.29v15.27h1.29v-1.87l0.69,1.18    c0.68,0.64,1.74,0.98,2.82,0.98c2.78,0,5.23-1.93,5.23-5.92C592.97,389.2,591.14,386.81,588.07,386.81L588.07,386.81z     M587.73,397.36c-1.62,0-3.51-1.06-3.51-4.19v-0.83c0-3.32,1.7-4.49,3.66-4.49c2.41,0,3.68,2.14,3.68,4.78    C591.55,395.6,589.94,397.36,587.73,397.36L587.73,397.36z M599.07,386.85c-0.71,0-1.39,0.31-1.89,0.83l-0.79,1.41v-1.99h-1.29    v10.99h1.29v-6.17c0-2.93,1.41-4.11,3.32-3.97v-1.02C599.53,386.88,599.3,386.85,599.07,386.85L599.07,386.85z M602.04,383.86    c-0.48,0-0.87,0.37-0.87,0.87c0,0.48,0.4,0.87,0.87,0.87c0.5,0,0.87-0.4,0.87-0.87C602.92,384.24,602.54,383.86,602.04,383.86    L602.04,383.86z M602.69,398.09V387.1h-1.29v10.99H602.69L602.69,398.09z M614.9,382.83h-1.29v6.17l-0.69-1.18    c-0.68-0.66-1.74-1-2.82-1c-2.78,0-5.23,1.93-5.23,5.92c0,3.26,1.83,5.65,4.9,5.65c1.27,0,2.35-0.35,3.12-1.12l0.73-1.2v2.04h1.29    V382.83L614.9,382.83z M609.96,397.36c-2.41,0-3.68-2.16-3.68-4.8c0-2.97,1.62-4.71,3.82-4.71c1.62,0,3.51,1.06,3.51,4.17v0.83    C613.61,396.18,611.91,397.36,609.96,397.36L609.96,397.36z M627.11,387.08h-1.29v1.91l-0.68-1.18c-0.69-0.66-1.74-1-2.82-1    c-2.78,0-5.23,1.93-5.23,5.92c0,3.26,1.83,5.65,4.9,5.65c1.27,0,2.35-0.35,3.11-1.12l0.73-1.2v0.27c0,0.58,0,1.02-0.02,1.62    c-0.08,2.18-1.33,3.57-3.65,3.57c-1.85,0-3.16-0.87-3.34-2.49l-0.04-0.25h-1.29l0.02,0.25c0.27,2.39,1.93,3.51,4.65,3.51    c3.01,0,4.84-1.72,4.94-4.65c0.02-0.64,0.02-1.49,0.02-2.58V387.08L627.11,387.08z M622.17,397.36c-2.41,0-3.68-2.16-3.68-4.8    c0-2.97,1.62-4.71,3.82-4.71c1.62,0,3.51,1.06,3.51,4.17v0.83C625.82,396.18,624.12,397.36,622.17,397.36L622.17,397.36z     M639.05,392.3c0-3.03-1.6-5.48-4.67-5.48c-2.89,0-5.09,2.26-5.09,5.8c0,3.86,2.14,5.77,4.88,5.77c2.2,0,4.22-1.2,4.74-3.76h-1.35    c-0.4,1.81-1.77,2.74-3.3,2.74c-1.79,0-3.43-1.14-3.57-4.38h8.33C639.05,392.65,639.05,392.44,639.05,392.3L639.05,392.3z     M634.34,387.85c1.85,0,3.26,1.29,3.41,4.11h-7.06C630.87,389.22,632.53,387.85,634.34,387.85L634.34,387.85z M650.75,386.81    c-1.27,0-2.35,0.37-3.12,1.12l-0.73,1.21v-2.1h-1.29v15.12h1.29v-5.94l0.69,1.18c0.69,0.64,1.74,0.98,2.82,0.98    c2.78,0,5.23-1.93,5.23-5.92C655.65,389.2,653.82,386.81,650.75,386.81L650.75,386.81z M650.41,397.36    c-1.62,0-3.51-1.06-3.51-4.19v-0.83c0-3.32,1.7-4.49,3.65-4.49c2.41,0,3.68,2.14,3.68,4.78    C654.24,395.6,652.62,397.36,650.41,397.36L650.41,397.36z M661.76,386.85c-0.71,0-1.39,0.31-1.89,0.83l-0.79,1.41v-1.99h-1.29    v10.99h1.29v-6.17c0-2.93,1.41-4.11,3.32-3.97v-1.02C662.21,386.88,661.98,386.85,661.76,386.85L661.76,386.85z M668.34,386.81    c-3.49,0-5.34,2.56-5.34,5.8c0,3.22,1.85,5.77,5.34,5.77s5.34-2.55,5.34-5.77C673.68,389.37,671.83,386.81,668.34,386.81    L668.34,386.81z M668.34,397.36c-2.28,0-3.92-1.77-3.92-4.76c0-2.99,1.64-4.76,3.92-4.76c2.29,0,3.93,1.77,3.93,4.76    C672.27,395.6,670.62,397.36,668.34,397.36L668.34,397.36z M684.96,387.08h-1.29v1.91l-0.69-1.18c-0.69-0.66-1.74-1-2.82-1    c-2.78,0-5.23,1.93-5.23,5.92c0,3.26,1.83,5.65,4.9,5.65c1.27,0,2.35-0.35,3.12-1.12l0.73-1.2v0.27c0,0.58,0,1.02-0.02,1.62    c-0.08,2.18-1.33,3.57-3.65,3.57c-1.85,0-3.16-0.87-3.34-2.49l-0.04-0.25h-1.29l0.02,0.25c0.27,2.39,1.93,3.51,4.65,3.51    c3.01,0,4.84-1.72,4.94-4.65c0.02-0.64,0.02-1.49,0.02-2.58V387.08L684.96,387.08z M680.01,397.36c-2.41,0-3.68-2.16-3.68-4.8    c0-2.97,1.62-4.71,3.82-4.71c1.62,0,3.51,1.06,3.51,4.17v0.83C683.67,396.18,681.96,397.36,680.01,397.36L680.01,397.36z     M691.99,386.85c-0.71,0-1.39,0.31-1.89,0.83l-0.79,1.41v-1.99h-1.29v10.99h1.29v-6.17c0-2.93,1.41-4.11,3.32-3.97v-1.02    C692.45,386.88,692.22,386.85,691.99,386.85L691.99,386.85z M700.91,398.09h1.29c-0.15-1.31-0.21-2.1-0.21-3.07v-3.84    c0-0.52,0-0.98-0.04-1.45c-0.17-1.81-1.31-2.91-3.74-2.91c-2.33,0-3.97,1.39-4.11,3.55h1.35c0.17-1.7,1.25-2.51,2.76-2.51    c1.58,0,2.35,0.73,2.45,1.99c0.04,0.44,0.04,0.85,0.04,1.35v0.39h-0.71c-3.97,0-6.36,1.23-6.36,3.74c0,1.99,1.45,3.05,3.49,3.05    c1.2,0,2.28-0.35,3.05-1.12l0.54-1.16L700.91,398.09L700.91,398.09z M697.52,397.36c-1.6,0-2.47-0.75-2.47-2.14    c0-2.12,2.56-2.85,5.65-2.64v1.27C700.7,395.91,699.43,397.36,697.52,397.36L697.52,397.36z M719.41,389.76    c-0.25-1.74-1.35-2.95-3.32-2.95c-1.04,0-1.91,0.29-2.53,0.96l-0.85,1.39c-0.37-1.41-1.45-2.35-3.2-2.35    c-1.04,0-1.89,0.29-2.53,0.96l-0.62,1.22v-1.89h-1.29v10.99h1.29v-5.75c0-3.26,1.21-4.49,2.76-4.49c1.45,0,2.26,0.85,2.45,2.33    c0.06,0.56,0.08,1.12,0.08,2.01v5.9h1.29v-5.75c0-3.26,1.2-4.49,2.76-4.49c1.45,0,2.26,0.85,2.45,2.33    c0.06,0.56,0.08,1.12,0.08,2.01v5.9h1.29v-6.48C719.52,390.72,719.49,390.32,719.41,389.76L719.41,389.76z M736.82,389.76    c-0.25-1.74-1.35-2.95-3.32-2.95c-1.04,0-1.91,0.29-2.53,0.96l-0.85,1.39c-0.37-1.41-1.45-2.35-3.2-2.35    c-1.04,0-1.89,0.29-2.53,0.96l-0.62,1.22v-1.89h-1.29v10.99h1.29v-5.75c0-3.26,1.2-4.49,2.76-4.49c1.45,0,2.26,0.85,2.45,2.33    c0.06,0.56,0.08,1.12,0.08,2.01v5.9h1.29v-5.75c0-3.26,1.2-4.49,2.76-4.49c1.45,0,2.26,0.85,2.45,2.33    c0.06,0.56,0.08,1.12,0.08,2.01v5.9h1.29v-6.48C736.92,390.72,736.9,390.32,736.82,389.76L736.82,389.76z M748.74,392.3    c0-3.03-1.6-5.48-4.67-5.48c-2.89,0-5.09,2.26-5.09,5.8c0,3.86,2.14,5.77,4.88,5.77c2.2,0,4.22-1.2,4.73-3.76h-1.35    c-0.4,1.81-1.77,2.74-3.3,2.74c-1.79,0-3.43-1.14-3.57-4.38h8.33C748.74,392.65,748.74,392.44,748.74,392.3L748.74,392.3z     M744.02,387.85c1.85,0,3.26,1.29,3.41,4.11h-7.06C740.55,389.22,742.22,387.85,744.02,387.85L744.02,387.85z"></path>
	</g>
</g>
<g>
	<g>
		<defs>
			<polyline id="SVGID_5_" points="-1940,-197 -1940,883 -20,883 -20.01,-197 -1940,-197    "></polyline>
		</defs>
		<clipPath id="SVGID_2_">
			<use xlink:href="#SVGID_5_" style="overflow:visible;"></use>
		</clipPath>
		<g class="st3">
			<polyline class="st0" points="-6837.06,4438.77 5063.71,4438.77 5063.71,-2152.07 -6837.06,-2152.07 -6837.06,4438.77    "></polyline>
		</g>
	</g>
	<g>
		<defs>
			<polyline id="SVGID_7_" points="-1940,-197 -1940,883 -20,883 -20.01,-197 -1940,-197    "></polyline>
		</defs>
		<clipPath id="SVGID_4_">
			<use xlink:href="#SVGID_7_" style="overflow:visible;"></use>
		</clipPath>
		<g style="clip-path:url(#SVGID_4_);">
			<path class="st2" d="M-1188.35,326.87l-28.33,9.53l-5.47,31.4l-69.71,27.72l-27.12-16.77l-6.13,43.71l-77.44,3.57l5.71,21.77     l86.9,45.64l15.08,67.73l-20.3,52.64l-175.3-17.18l-50.52,26.66l17.4,39.76l-11.84,110.9l14.13,14.09c0,0-10.73,46.25-4.55,45.71     c6.18-0.54,65.52-0.03,65.52-0.03l21.11,31.22l13.46,3.45l48.39-23.5l54.27-1.64l65.36-65.66l-14.87-24.33l103.2-103.08     l1.39-26.79l40.03-12.55l43.06,14.16l74.52-44.91l46.27,13.8l40.92,58.05l120.38,81.36l12.2,36.13l-7.38,34.94l14.54-1.18     l24.95-43.79l-16.06-26.4l18.38-17.43l29.93,24.7l7.54-11.74l-69.47-54.6l-32.83-8.45l-80.38-91.8l2.56-35.33l34.85-9.51     l11.82,26.21l123.73,87.99l39.36,27.05l-3.44,48.78l49.43,61.56l48.39,7.86l19.27,11.2l18.41,0.09l-33.14-30.69l5.35-10.59     l-9.89-38.73l37.68-11.84l73.89,7.77l61.4-30.1l-22.74-34.26l4.81-29.91l28.23-59.8l30.04-31.84l9.91-24.09l56.07-9.7     l-4.52,16.77l36.04,1.55l-3.33,14.04l-23.83,14.98l36.32,9.88l-1.48,21.23l52.22-20.34l30.45-3.21l1.9-4.64l-66.14-34.97     l133.81-36.09l6.04,6.54l-30.03,20.78l11.33,13.54l-44.04,35.62l109.24,73.19l31.83,53.35l-94.63,22.3l-94.03-32.46     l-129.23,27.04l-44.26-4.81l-77.67,35.87l-8.28,24.26l34.08,81.31l42.19,25.78l58.53-9.09l44.76,16.14l108.01-20.58     l-19.22,102.89l-36.48,76.69l-60.04,8.13l-37.18-16.16l-79.92,17.23l-83.99-18.02L-646.5,971.4l-29.94,39.32l-17.6,46.25     l-111.94-37.69L-816,989.04l-139.19-42.52l-9.68-19.04l31.65-42.27c0,0-22.08-59.52-27.6-57.83c-5.52,1.69-92.17,8.94-92.17,8.94     l-47.04,11.91l-106.1,2.46l-136.32,45.08l-76.37-16.44l-16.77-0.98l-55.53,72.68l-60.03,69.37v36.57l-138.56,145.6l-71.53,144.44     l23.55,112.41l-35.78,78.78l148.36,223.84l134.2,78.33l361.33-53.12c0,0,39.48,64.27,45.73,62.48     c6.25-1.78,99.16-12.81,99.16-12.81l-9.59,160.11l41.34,76.15l77.98,168.37l10.64,88.07l-53.79,162.68l82.34,178.01l70.19,200.05     l33.48,95.92l51.57,75.52l109.46-23.47l97.03-13.2l170.44-186.77l4.9-69.1l73.07-38.09l-14.69-145.7l171.09-132.56l2.36-146.11     l-46.56-182.53l235.88-230.15l123.42-239.15l-14.81-13.29l-202.61,35.78L5.19,1619.7l-109.16-107.89l-72.54-190.92     l-101.47-164.88l-18.48-48.72l43.68,26.26l9.84-11.68l79.77,107.02l80.74,143.82l78.32,121.73l18.15,103.09l38.84,6.1     l263.6-126.18l175.46-171.06l-105.28-112.73l-69.34,60.79l-62.95,3l-74.26-114.1l-27.87-63.17l52.48-17.44     c0,0,33.96,75.17,41.16,73.31c3.59-0.93,30.14,9.74,56.01,20.41c26,10.72,51.32,21.44,52.02,20.4     c1.39-2.08,62.36-12.14,62.36-12.14l24.94,40.4c0,0,152.81,14.14,155.75,14.31c2.93,0.18,86.24-8.54,86.24-8.54l53.95,49.17     l68.65,35.47l-31.74,25.55l45.7,35.27l53.77-28.54l11.9,98.25l49.72,149.4l70.42,157.14l27.55-1.54l54.86-78.12l8.94-134.81     l132.6-101.86l66.12-77.58l74.7-25.22l35.21-26.53l72.01,90.33l41.34,100.63l-12.47,20.7l56.54,12.47l42.71-33.17l32.42,132     l-10.17,106.41l58.6,84.5l20.3,59.98l82.51,73.72l23.92-9.12l-31.64-64.6l-35.51-72.52l-51.9-36.83c0,0-33.26-79.11-30.62-88.31     c2.64-9.19,29.77-87.55,29.77-87.55l101.82,84.34l32.76,71.14c0,0,129.1-104.79,131.22-110c2.12-5.21-20.74-128.28-20.74-128.28     l-71.15-53.99l-22.03-61.52l87.53-55.55l23.94,13.06l17.36,39.02l26.08-36.43l164.03-59.96l94.82-80.65l29.91-73.3l23.47-115.92     l-70.87-99.2l70.87-58.34l38.06-5.82v-29.03l-66.52-9.1l-31.85,24.6l-44.65-48.84l98.06-78.55l6.9,37.35l5.82,28.91l74.01-36.78     l23.51,69.11l56.93,17.07l-11.25,110.2l85.78-28.39l7.34-36.28l-35.34-92.61l-13.93-34.09l48.75-33.97l66.18-84.75l55.5,12.95     l134.75-131.85l52.73-78.16l23.24-124.11l4.86-62.29l-33.57-37.95l-34.44,5.9l-33.21,22l-35.42-18.06l-18.86-47.06L2907.8-0.67     l110.38-5.83l128.5-24.2l69.71,24.03l85.89,1.36l-7.59-44.42l71.07-74.84l88.92-1.33l-4.28,56.63l25.12-7.07l65.54-75.44     l42.09,1.61l-46.09,88.8l-134.2,100.72l-58.72,21.52l-26.16,90.64l28.4,172.72l48.49-47.11l84.81-101.49l34.93-10.81l11.26-46.18     l13.3-65.59l-28.72-17.95l45.74-59.87l63.12-30.11l103.06-10.82c0,0,17.15,23,20.39,25.03c3.24,2.03,39.61-27.14,39.61-27.14     l164.33-93.67l79.48,15.31l13.13-29.72l-90.63-75.05l24.11-20.79l61.1-0.67l95.23-16.79l103.92,52.64l34.11-21.04l-3.43-41.64     l46.34-0.65l26.52-20.34l-99.36-56.27l-42.41,19.96l-14.56-35.18l-124.64-69.95l-167.87-51.22l-126.16-7.62l-3.49,22.52     l9.31,34.18l-38.4,4.61l-46.71-47.89l-221.55,4.11l-10.99-51.9l-149.03-20.39l-76.32,16.7l-76.68-51.29l-44.73-40.21     l-227.17-31.6l-31.79,57.6l4.53,22.22l-98.71-3.45l-55.98,3.45l-58.59-17.91l-37.72,58.8l-83.3-62.69l35.01-15.58l-17.94-54.24     l-65.3-21.77h-103.94l-6.2,34.83l-141.82-15.03l-110.59-29.47l-105.62-14.63l-135.76,51.93l3.35-14.36l229.71-111.08l1.66-34.09     l-192.91-73.18l-105.61-47.4l-101.45,60.7l-134.86,54.76l-87.67-9.2l-179.73,78.13l5.31,44.98l-180.93,20.74l1.67,65.88     l45.61,37.52l-19.05,6.56l-195.63-59.11l-38.04,159l101.45,48.96l-12.11,8.15l-69.65-3.59L820.25-324.15l-13.15-39.91     l85.65-99.78l-39.92-162.36l37.42-62.98l-123.34-18.29l-50.45,124.95l-4.16,74.72l54.61,48.96l-23.97,24.73L620.7-498.77     l-103.81-13.3l1.66,64.86l-70.66-14.77l-102.27,32.09l-29.49-34.34l-50.27,18.8l-92.51,40.62l-42.3,53.23l-35.75-1.66     l-34.33-35.42l50.06-23.34l-20.32-29.1l-49.8-6.25l-13.63,66.69l20.38,27.75l-26.11,23.38l-41.79-13.29l-72.09,46.97l21.54,47.06     l-100.42-30.84l-15.86,17.82l44.58,30.12l-18.58,17.72l-77.21-41.39l0.13-59.51l-73.19-58.97l179.41,52.33l93.35-51.67     l-22.46-36.59l-138.34-61.79l-110.88-32.29c0,0-77.59-2.32-76.72-3.19c0.87-0.88-20.6-20.53-20.6-20.53l51.89-7.18l-56.27-29.86     l-73.99-17.9l-107.87,28.93l-121.29,61.49l-80.07,83.71L-908.74-275.7l-87.94,87.99l-71.73,30.22l-39.43,39.08l9.7,62.15     l11.42,42.28l-8.7,35.04l40.55,21.62l78.14-42.47l29.93-13.86l32.56,54.45l18.02,51.8l4.12,32.29c0,0,9.34,32.67,16.32,31.38     c6.98-1.28,33.98-6.16,33.98-6.16l6.66-20.58l36.76-3.45l30.03-103.78l37.79-24.64l25.91-34.77l-48.32-39.8l19.48-94.32     l87.56-48.14l8.6-42.41l31.95-50.41l74.52,3.01l13.15,41.83l-18.14,13.88l-89.79,80.65l-8.17,26.37l4.58,80.79l48.65,19.39     l67.75-6.6l88.35-18.89l50.78,26.34l-14.13,8.97l-64.28,20.17l-111.24,3.98l-8.54,31.82l30.39,15.89l-3.75,34.56l-23.03,11.34     l-32.48-17.69h-36.57l-11.04,57.14l16.89,41.03l-44.42,22.08l-27.79,12.19l-15.03-15.44l-83.22,19.5l-42.08,14.02l-19.87-7.41     l-22.55-9.81l-51.79,13.64l-6.26-11.61l-27.41-23.76l-8.51-26.86l29.67-32.91l-4.81-17.99l1.81-33.81l-36.13,12.24l-36.16,12.54     l8.84,45.63l7.61,25.69l5.08,21.62l3.12,28.82l-2.76,10.32l-48.51,9.01l-8.21,6.84l-48.37-0.06l-20.44,42.94l-20.24,21.53     l-15.66,17.22L-1188.35,326.87"></path>
		</g>
	</g>
</g>
</svg>
