<?xml version="1.0" encoding="UTF-8"?>
<svg xmlns="http://www.w3.org/2000/svg" xmlns:xlink="http://www.w3.org/1999/xlink" width="86px" height="100px" viewBox="0 0 86 100" version="1.1">
  <!-- Generator: Sketch 62 (91390) - https://sketch.com -->
  <title>Universiteit_Antwerpen_logo</title>
  <desc>Created with Sketch.</desc>
  <g id="Study-in-Flanders" stroke="none" stroke-width="1" fill="none" fill-rule="evenodd">
    <g id="Why-Flanders-&gt;-Structure-of-education" transform="translate(-360.000000, -3049.000000)" fill="#1D1D1B" fill-rule="nonzero">
      <g id="Universiteit_Antwerpen_logo" transform="translate(360.000000, 3049.500000)">
        <g id="Group" transform="translate(0.000000, 63.000902)">
          <path d="M4.68687025,12.6770713 C1.24364773,12.6770713 0.042165958,11.0588906 0.042165958,7.88503415 L0.042165958,0.199916248 L1.55269939,0.199916248 L1.55269939,7.7962376 C1.55269939,10.2572413 2.37419147,11.4413606 4.77814715,11.4413606 C7.27189151,11.4413606 8.12860456,10.1257828 8.12860456,7.63551089 L8.12860456,0.200412318 L9.56720783,0.200412318 L9.56720783,7.64940085 C9.56720783,10.6387192 8.0566744,12.6770713 4.68687025,12.6770713 Z" id="Path"></path>
          <path d="M17.7097024,12.5669437 L17.7097024,6.44940729 C17.7097024,5.71869604 17.4730769,5.13730189 16.5811429,5.13730189 C15.8697784,5.13730189 14.7942984,5.64676588 13.8477967,6.59277155 L13.8477967,12.5669437 L12.392327,12.5669437 L12.392327,4.09902719 L13.6295258,3.99038784 C13.7391573,4.22701327 13.8125757,4.82775416 13.828946,5.44585749 C14.9947107,4.35499936 16.0711828,3.91498518 17.0891187,3.91498518 C18.655708,3.91498518 19.1850148,4.70175235 19.1850148,6.23064038 L19.1850148,12.5669437 L17.7097024,12.5669437 Z" id="Path"></path>
          <path d="M21.9352274,2.16881845 L21.9352274,0.765932225 L23.5578727,0.765932225 L23.5578727,2.16881845 L21.9352274,2.16881845 Z M22.0260082,12.5669437 L22.0260082,4.09902719 L23.4834622,4.00576601 L23.4834622,12.5669437 L22.0260082,12.5669437 L22.0260082,12.5669437 Z" id="Shape"></path>
          <path d="M28.9293197,10.2741077 C29.037959,10.6382232 29.0746682,10.8902268 29.0746682,11.1288365 C29.0746682,10.8902268 29.129732,10.6000258 29.2577181,10.2741077 L31.6810205,4.11787785 L33.06456,4.11787785 L29.6034789,12.5664476 L28.3459412,12.5664476 L25.1224778,4.11787785 L26.6513658,4.11787785 L28.9293197,10.2741077 Z" id="Path"></path>
          <path d="M37.7082721,12.6770713 C35.5602886,12.6770713 34.0844801,11.6035756 34.0844801,8.76059786 C34.0844801,5.60956062 35.6684319,3.93383585 38.1646566,3.93383585 C40.0402976,3.93383585 41.0597217,5.24594124 41.0597217,7.10421982 C41.0597217,7.48619379 41.0597217,7.85030924 41.0066422,8.43567195 L35.5245716,8.43567195 C35.5245716,10.6000258 36.3237405,11.5127947 38.0555212,11.5127947 C38.9479513,11.5127947 39.8230189,11.1834042 40.7333076,10.6213568 L41.1693532,11.6035756 C40.2228514,12.2762466 39.1483636,12.6770713 37.7082721,12.6770713 Z M39.7491045,7.21087489 C39.7491045,5.84866641 39.1483636,5.04652107 38.0371666,5.04652107 C36.7250612,5.04652107 35.7979062,5.82931968 35.5974939,7.41426363 L39.7491045,7.41426363 L39.7491045,7.21087489 Z" id="Shape"></path>
          <path d="M47.8196689,5.24594124 C47.5453421,5.22857879 47.4371988,5.22857879 47.2908581,5.22857879 C46.4157905,5.22857879 46.1603144,5.40865224 44.8849182,7.68561397 L44.8849182,12.5669437 L43.4284564,12.5669437 L43.4284564,4.09902719 L44.5758665,3.9710411 C44.7038526,4.24239144 44.777271,5.22857879 44.7946334,6.24998712 C45.7237727,4.30043165 46.2148821,3.93433192 47.0725873,3.93433192 C47.417356,3.93433192 47.7636129,3.99038784 47.9456707,4.04495555 L47.8196689,5.24594124 Z" id="Path"></path>
          <path d="M51.7167955,12.7137804 C50.6239531,12.7137804 49.6387579,12.4578083 48.7840291,11.9850535 L49.1481446,10.8361551 C50.0772839,11.2935318 51.041148,11.5842288 51.8988532,11.5842288 C53.1544066,11.5842288 53.6281536,11.0588906 53.6281536,10.4546772 C53.6281536,9.81722716 53.4103788,9.45261564 51.8249388,8.94315166 C49.6576086,8.24964566 49.165507,7.61566808 49.165507,6.3928553 C49.165507,4.97260662 50.3129171,3.91448911 52.3348989,3.91448911 C53.3920242,3.91448911 54.2482412,4.11787785 54.940259,4.51721428 L54.5389383,5.62741915 C54.0111197,5.35408453 53.0457673,5.13730189 52.2272516,5.13730189 C50.969714,5.13730189 50.6046064,5.64676588 50.6046064,6.28620023 C50.6046064,6.99359619 50.8595864,7.26693081 52.4812395,7.77639479 C54.6312073,8.46990079 55.0508826,9.16191857 55.0508826,10.2567453 C55.0503865,11.5475196 54.1028927,12.7137804 51.7167955,12.7137804 Z" id="Path"></path>
          <path d="M57.2182129,2.16881845 L57.2182129,0.765932225 L58.8373856,0.765932225 L58.8373856,2.16881845 L57.2182129,2.16881845 Z M57.3080015,12.5669437 L57.3080015,4.09902719 L58.7654555,4.00576601 L58.7654555,12.5669437 L57.3080015,12.5669437 L57.3080015,12.5669437 Z" id="Shape"></path>
          <path d="M63.8298351,12.6944337 C62.4443113,12.6944337 61.7894988,12.0763304 61.7894988,10.6560817 L61.7894988,5.22857879 L60.6425847,5.17450715 L60.7328695,4.17095735 L61.8073573,4.11886999 L62.0067775,1.38254735 L63.2643152,1.25852983 L63.2643152,4.09952326 L66.0507409,4.09952326 L65.9604561,5.24693338 L63.2638191,5.24693338 L63.2638191,10.5290877 C63.2638191,11.238468 63.5014367,11.4959284 64.1755959,11.4959284 C64.721273,11.4959284 65.2867929,11.3639737 65.9604561,11.0752609 L66.2704999,12.1120474 C65.5958446,12.4950135 64.7763368,12.6944337 63.8298351,12.6944337 Z" id="Path"></path>
          <path d="M71.041206,12.6770713 C68.8922304,12.6770713 67.417414,11.6035756 67.417414,8.76059786 C67.417414,5.60956062 69.0023579,3.93383585 71.4985827,3.93383585 C73.3742237,3.93383585 74.3946399,5.24594124 74.3946399,7.10421982 C74.3946399,7.48619379 74.3946399,7.85030924 74.3395761,8.43567195 L68.8555212,8.43567195 C68.8555212,10.6000258 69.6586587,11.5127947 71.387463,11.5127947 C72.2818773,11.5127947 73.1564489,11.1834042 74.0662415,10.6213568 L74.5032792,11.6035756 C73.5562814,12.2762466 72.4808014,12.6770713 71.041206,12.6770713 Z M73.0825345,7.21087489 C73.0825345,5.84866641 72.4808014,5.04652107 71.3696044,5.04652107 C70.0584912,5.04652107 69.1293519,5.82931968 68.9299317,7.41426363 L73.0825345,7.41426363 L73.0825345,7.21087489 Z" id="Shape"></path>
          <path d="M76.6701134,2.16881845 L76.6701134,0.765932225 L78.2902783,0.765932225 L78.2902783,2.16881845 L76.6701134,2.16881845 Z M76.7603981,12.5669437 L76.7603981,4.09902719 L78.2183482,4.00576601 L78.2183482,12.5669437 L76.7603981,12.5669437 L76.7603981,12.5669437 Z" id="Shape"></path>
          <path d="M83.2812395,12.6944337 C81.8967079,12.6944337 81.2409032,12.0763304 81.2409032,10.6560817 L81.2409032,5.22857879 L80.0954774,5.17450715 L80.1857621,4.17095735 L81.26025,4.11886999 L81.4606623,1.38254735 L82.7182,1.25852983 L82.7182,4.09952326 L85.5046257,4.09952326 L85.4113645,5.24693338 L82.7177039,5.24693338 L82.7177039,10.5290877 C82.7177039,11.238468 82.9548254,11.4959284 83.6284886,11.4959284 C84.1731736,11.4959284 84.7386935,11.3639737 85.4113645,11.0752609 L85.7224005,12.1120474 C85.0482412,12.4950135 84.2297256,12.6944337 83.2812395,12.6944337 Z" id="Path"></path>
        </g>
        <g id="Group" transform="translate(0.992140, 82.347636)">
          <path d="M9.19317098,12.6716145 L7.86370313,8.88511145 L3.25570803,8.88511145 L1.79825409,12.6716145 L0.343280505,12.6716145 L5.02320577,0.306571318 L6.44543873,0.306571318 L10.8346669,12.6716145 L9.19317098,12.6716145 Z M3.62031955,7.79028476 L7.51893442,7.79028476 L5.84271357,2.83950522 C5.71472748,2.45604304 5.66264012,2.09143152 5.66264012,1.85331787 C5.66264012,2.09143152 5.57136323,2.49275222 5.44387321,2.83950522 L3.62031955,7.79028476 Z" id="Shape"></path>
          <path d="M17.9016815,12.6716145 L17.9016815,6.55606236 C17.9016815,5.82535111 17.665056,5.24246875 16.7741142,5.24246875 C16.0627496,5.24246875 14.9872697,5.75391702 14.0397758,6.69793841 L14.0397758,12.6721106 L12.5823219,12.6721106 L12.5823219,4.20617833 L13.8205128,4.0955547 C13.9291522,4.33366834 14.0045548,4.93440923 14.0219173,5.55102435 C15.1866899,4.46016622 16.2621698,4.02213632 17.2830821,4.02213632 C18.8486793,4.02213632 19.3779861,4.80691921 19.3779861,6.33580724 L19.3779861,12.6721106 L17.9016815,12.6721106 L17.9016815,12.6716145 Z" id="Path"></path>
          <path d="M24.4046643,12.8010888 C23.0191406,12.8010888 22.3643281,12.1810012 22.3643281,10.7607525 L22.3643281,5.33324958 L21.2154297,5.27917794 L21.3067066,4.27711635 L22.3821866,4.22304471 L22.583591,1.48870635 L23.8391444,1.36468883 L23.8391444,4.20568226 L26.6275544,4.20568226 L26.5342933,5.3511081 L23.8386484,5.3511081 L23.8386484,10.6352467 C23.8386484,11.344627 24.0747777,11.6001031 24.7494331,11.6001031 C25.2980866,11.6001031 25.8616222,11.4701327 26.5342933,11.1794356 L26.8463214,12.2182064 C26.1721621,12.5996843 25.3501739,12.8010888 24.4046643,12.8010888 Z" id="Path"></path>
          <path d="M31.2355495,12.6716145 L30.0320835,12.6716145 L27.4277155,4.22304471 L28.8673109,4.22304471 L30.6715178,10.3232187 C30.7801572,10.6893184 30.8168664,10.9433063 30.8168664,11.1799317 C30.8168664,10.9433063 30.8883005,10.6352467 30.9989241,10.3232187 L32.9832045,4.22304471 L34.204033,4.14962634 L36.2443693,10.3232187 C36.3703711,10.6893184 36.4070803,10.9433063 36.4070803,11.1799317 C36.4070803,10.9433063 36.4611519,10.6352467 36.5717755,10.3232187 L38.5367092,4.22304471 L39.8309561,4.22304471 L36.9899626,12.6716145 L35.7324249,12.6716145 L33.6568677,6.53671563 C33.5482283,6.22667182 33.5115191,5.91662801 33.5115191,5.68000258 C33.5115191,5.91662801 33.4574475,6.20732509 33.3448396,6.53671563 L31.2355495,12.6716145 Z" id="Path"></path>
          <path d="M44.5495748,12.7837263 C42.4005991,12.7837263 40.9237985,11.7102306 40.9237985,8.86725293 C40.9237985,5.71621569 42.5087424,4.04049092 45.0044711,4.04049092 C46.8801121,4.04049092 47.9015204,5.35061203 47.9015204,7.21087489 C47.9015204,7.59284886 47.9015204,7.95696431 47.8454645,8.54034274 L42.36389,8.54034274 C42.36389,10.7066808 43.164051,11.6174655 44.8963278,11.6174655 C45.7877658,11.6174655 46.6618413,11.2900593 47.5741142,10.7260276 L48.0101598,11.7102306 C47.063162,12.3809174 45.9896663,12.7837263 44.5495748,12.7837263 Z M46.5904072,7.31752996 C46.5904072,5.9533372 45.9896663,5.15119186 44.8774771,5.15119186 C43.567356,5.15119186 42.6372246,5.93399047 42.4358201,7.51893442 L46.5904072,7.51893442 L46.5904072,7.31752996 Z" id="Shape"></path>
          <path d="M54.6609715,5.35061203 C54.3856526,5.33324958 54.2755251,5.33324958 54.1301765,5.33324958 C53.256101,5.33324958 53.0026092,5.51530731 51.7252287,7.79028476 L51.7252287,12.6716145 L50.2697591,12.6716145 L50.2697591,4.20568226 L51.4171692,4.07571189 C51.5451553,4.34904651 51.6165894,5.33324958 51.6344479,6.3546579 C52.5645793,4.40510244 53.0566808,4.04098699 53.9114096,4.04098699 C54.2581626,4.04098699 54.6034274,4.09505863 54.7874694,4.14962634 L54.6609715,5.35061203 Z" id="Path"></path>
          <path d="M59.5948847,12.7643796 C58.9028669,12.7643796 58.3199845,12.6711184 57.8665765,12.4176266 L57.8665765,16.2080982 L56.3724133,16.2973908 L56.3724133,4.20568226 L57.6106043,4.07571189 C57.7192437,4.33366834 57.792662,4.78707641 57.8100245,5.2052635 C58.5194047,4.47653653 59.484261,4.02114418 60.5230318,4.02114418 C62.5460057,4.02114418 63.6934158,5.33324958 63.6934158,8.15638449 C63.6929197,10.7260276 62.4180196,12.7643796 59.5948847,12.7643796 Z M60.1043487,5.22262595 C59.1955483,5.22262595 58.3740562,5.77127947 57.8660804,6.3348151 L57.8660804,11.2702165 C58.3388352,11.5068419 58.9936477,11.7102306 59.6509406,11.7102306 C61.288468,11.7102306 62.1813942,10.4700554 62.1813942,8.26502384 C62.1813942,6.44345445 61.5632908,5.22262595 60.1043487,5.22262595 Z" id="Shape"></path>
          <path d="M68.9383649,12.7837263 C66.7893893,12.7837263 65.3125886,11.7102306 65.3125886,8.86725293 C65.3125886,5.71621569 66.8995168,4.04049092 69.3937572,4.04049092 C71.2713826,4.04049092 72.2908066,5.35061203 72.2908066,7.21087489 C72.2908066,7.59284886 72.2908066,7.95696431 72.2347507,8.54034274 L66.7526801,8.54034274 C66.7526801,10.7066808 67.5548254,11.6174655 69.2871022,11.6174655 C70.1785401,11.6174655 71.0526156,11.2900593 71.9614161,10.7260276 L72.3994459,11.7102306 C71.4539363,12.3809174 70.3784564,12.7837263 68.9383649,12.7837263 Z M70.9791973,7.31752996 C70.9791973,5.9533372 70.3784564,5.15119186 69.2662672,5.15119186 C67.9561461,5.15119186 67.0260147,5.93399047 66.8265945,7.51893442 L70.9791973,7.51893442 L70.9791973,7.31752996 Z" id="Shape"></path>
          <path d="M79.9779088,12.6716145 L79.9779088,6.55606236 C79.9779088,5.82535111 79.7397951,5.24246875 78.8483572,5.24246875 C78.1369927,5.24246875 77.0615127,5.75391702 76.1160031,6.69793841 L76.1160031,12.6721106 L74.6605334,12.6721106 L74.6605334,4.20617833 L75.8967401,4.0955547 C76.0053795,4.33366834 76.0807821,4.93440923 76.0961603,5.55102435 C77.2629171,4.46016622 78.3383971,4.02213632 79.3573251,4.02213632 C80.9229223,4.02213632 81.4522291,4.80691921 81.4522291,6.33580724 L81.4522291,12.6721106 L79.9779088,12.6721106 L79.9779088,12.6716145 Z" id="Path"></path>
        </g>
        <g id="Group" transform="translate(18.354593, 0.000000)">
          <path d="M42.1565327,0.0426620281 L42.1565327,28.6654104 C42.1565327,38.5461345 35.895632,44.8050509 27.1891058,44.8050509 C18.3898145,44.8050509 12.0296998,38.5461345 12.0296998,28.6654104 L12.0296998,0.0426620281 L4.7905489,0.0426620281 L4.7905489,0.0545677103 L0.191483056,0.0545677103 L0.191483056,29.2626788 C0.191483056,40.0869282 6.89735859,48.0746489 16.150058,50.609071 C16.3013594,50.6557016 16.4700232,50.7038204 16.6684512,50.750451 C16.8614225,50.7950973 17.0648112,50.8278379 17.261255,50.8704999 C17.6566229,50.9578083 18.0509986,51.0466048 18.4538075,51.1125821 C21.9565584,51.7306855 25.7708414,51.8080724 29.1996779,51.3586329 C29.7780956,51.3065455 30.3565133,51.2365997 30.9235215,51.147307 C31.4389383,51.0386677 31.9449298,50.8972877 32.4444724,50.7539235 C32.4484409,50.7539235 32.4534016,50.7539235 32.455882,50.7499549 C32.4618348,50.7459863 32.4672916,50.7459863 32.4732444,50.7440021 C32.5942855,50.7112614 32.7163188,50.6780247 32.8353756,50.6432998 C32.8691084,50.6299059 32.8944079,50.6199845 32.9236761,50.6120474 C41.6862582,47.8603466 48.0344672,40.0298802 48.0344672,29.5002964 L48.0344672,0.0426620281 L42.1565327,0.0426620281 Z" id="Path"></path>
          <path d="M36.624359,26.673689 C20.8577632,19.1145729 15.0567195,23.354484 15.0567195,23.354484 C15.0567195,23.354484 22.6654426,8.84641799 38.9097539,15.6420822 C56.4468239,22.9690375 61.5672594,22.1237341 63.8898596,18.0083366 C65.8557853,25.6969269 56.6358266,36.2557789 36.624359,26.673689 Z" id="Path"></path>
        </g>
      </g>
    </g>
  </g>
</svg>
