<?xml version="1.0" encoding="UTF-8"?>
<svg xmlns="http://www.w3.org/2000/svg" xmlns:xlink="http://www.w3.org/1999/xlink" width="115px" height="101px" viewBox="0 0 115 101" version="1.1">
  <!-- Generator: Sketch 62 (91390) - https://sketch.com -->
  <title>logo_ugent_en</title>
  <desc>Created with Sketch.</desc>
  <g id="Study-in-Flanders" stroke="none" stroke-width="1" fill="none" fill-rule="evenodd">
    <g id="Why-Flanders-&gt;-Structure-of-education" transform="translate(-213.000000, -3049.000000)" fill="#1D1D1B" fill-rule="nonzero">
      <g id="logo_ugent_en" transform="translate(211.115385, 3049.500000)">
        <path d="M23.4708333,34.3833333 L26.0666667,34.3833333 L26.0666667,17.5125 L23.4708333,17.5125 L23.4708333,34.3833333 Z M18.2770833,34.3833333 L20.8729167,34.3833333 L20.8729167,17.5125 L18.2770833,17.5125 L18.2770833,34.3833333 Z M13.0770833,34.3833333 L15.6729167,34.3833333 L15.6729167,17.5125 L13.0770833,17.5125 L13.0770833,34.3833333 Z M7.88541667,34.3833333 L10.48125,34.3833333 L10.48125,17.5125 L7.88541667,17.5125 L7.88541667,34.3833333 Z M28.6708333,34.3833333 L31.2666667,34.3833333 L31.2666667,17.5125 L28.6708333,17.5125 L28.6708333,34.3833333 Z M33.8625,34.3833333 L36.4583333,34.3833333 L36.4583333,17.5125 L33.8625,17.5125 L33.8625,34.3833333 Z M39.0625,34.3833333 L41.6583333,34.3833333 L41.6583333,17.5125 L39.0625,17.5125 L39.0625,34.3833333 Z M5.225,39.5833333 L44.3208333,39.5833333 L44.3208333,36.9791667 L5.225,36.9791667 L5.225,39.5833333 Z M41.6583333,14.9166667 L7.88541667,14.9166667 L5.28125,12.3208333 L44.2541667,12.3208333 L41.6583333,14.9166667 Z M2.62916667,44.775 L46.9166667,44.775 L46.9166667,42.1791667 L2.62916667,42.1791667 L2.62916667,44.775 Z M46.9166667,8.12083333 L24.7729167,0.275 L2.62916667,8.12083333 L2.62916667,10.8708333 L24.7729167,3.03333333 L46.9166667,10.8708333 L46.9166667,8.12083333 Z M24.1291667,65.2020833 L18.5291667,65.2020833 L18.5291667,73.5354167 L15.925,73.5354167 L15.925,55.16875 L18.5291667,55.16875 L18.5291667,62.9979167 L24.1291667,62.9979167 L24.1291667,55.16875 L26.725,55.16875 L26.725,73.5354167 L24.1291667,73.5354167 L24.1291667,65.2020833 Z M81.0625,82.975 C82.2104167,82.9666667 83.2916667,83.35 83.7895833,83.7395833 L83.7895833,81.3958333 C83.29375,81.0875 82.0729167,80.7520833 80.8354167,80.7520833 C77.3854167,80.7520833 75.4895833,82.7125 75.4895833,85.5541667 C75.4895833,87.93125 76.4895833,89.0708333 78.1104167,90.4604167 L79.5916667,91.7375 C80.8125,92.7625 81.56875,93.54375 81.56875,95.075 C81.56875,96.85625 80.3895833,97.5729167 78.6145833,97.5729167 C77.2708333,97.5729167 76.15625,97.1979167 75.5145833,96.75 L75.5145833,99.1354167 C76.0770833,99.4604167 77.25625,99.79375 78.84375,99.79375 C82.2854167,99.7854167 84.18125,97.8333333 84.1895833,94.9833333 C84.1895833,92.6145833 83.18125,91.475 81.56875,90.0770833 L80.0875,88.8 C78.8666667,87.75 78.1020833,87.0020833 78.1104167,85.4708333 C78.1104167,83.6729167 79.28125,82.9729167 81.0645833,82.9729167 M65.0958333,83.2916667 L65.0958333,89.76875 L66.4791667,89.76875 C68.5145833,89.76875 69.8729167,89.3375 69.8729167,86.5145833 C69.8729167,83.7145833 68.5145833,83.2916667 66.4791667,83.2916667 L65.0958333,83.2916667 Z M62.4916667,81.0875 L66.73125,81.0875 C70.125,81.0875 72.5583333,82.35625 72.5583333,86.5145833 C72.5583333,89.4208333 71.1416667,90.8354167 69.3604167,91.4875 L73.2666667,99.4541667 L70.2958333,99.4541667 L66.8458333,91.9666667 L65.0958333,91.9666667 L65.0958333,99.4541667 L62.4916667,99.4541667 L62.4916667,81.0875 M2.62916667,93.9208333 L2.62916667,81.0875 L5.225,81.0875 L5.225,94.0354167 C5.225,96.7458333 6.16041667,97.5354167 8.04791667,97.5354167 C9.94375,97.5354167 10.8708333,96.7458333 10.8708333,94.0354167 L10.8708333,81.0875 L13.475,81.0875 L13.475,93.9208333 C13.475,98.1041667 11.725,99.7958333 8.04791667,99.7958333 C4.32083333,99.7958333 2.62708333,98.1604167 2.62708333,93.9208333 M16.8375,81.0875 L19.8333333,81.0875 L25.6270833,95.7270833 C25.43125,94.2291667 25.2604167,92.4791667 25.2604167,90.8354167 L25.2604167,81.0854167 L27.75,81.0854167 L27.75,99.4520833 L24.7541667,99.4520833 L18.9020833,84.7625 C19.1208333,86.2604167 19.325,88.0416667 19.325,89.7020833 L19.325,99.4520833 L16.8354167,99.4520833 L16.8375,81.0875 Z M31.4291667,99.4541667 L34.025,99.4541667 L34.025,81.0875 L31.4291667,81.0875 L31.4291667,99.4541667 Z M36.4416667,81.0875 L39.1604167,81.0875 L41.4708333,90.6416667 C41.8125,92.08125 42.2354167,94.5145833 42.4958333,96.4354167 C42.7479167,94.5145833 43.1708333,92.08125 43.5625,90.6416667 L45.8583333,81.0875 L48.4875,81.0875 L43.825,99.4541667 L41.10625,99.4541667 L36.4416667,81.0875 Z M50.9041667,81.0875 L59.4895833,81.0875 L59.4895833,83.29375 L53.5,83.29375 L53.5,88.9166667 L58.3333333,88.9166667 L58.3333333,91.0895833 L53.5,91.0895833 L53.5,97.2583333 L59.4895833,97.2583333 L59.4895833,99.45625 L50.9041667,99.45625 L50.9041667,81.0875 Z M87.2729167,99.4541667 L89.86875,99.4541667 L89.86875,81.0875 L87.2729167,81.0875 L87.2729167,99.4541667 Z M2.05833333,64.35625 C2.05833333,57.1208333 3.97916667,54.8270833 8.75625,54.8270833 C10.1145833,54.8270833 11.55625,55.19375 12.175,55.5666667 L12.175,57.9666667 C11.5,57.56875 10.1979167,57.14375 8.95208333,57.14375 C5.9,57.14375 4.74375,58.275 4.74375,64.3541667 C4.74375,70.36875 5.56666667,71.6125 8.21875,71.6125 C9.04166667,71.6125 9.71666667,71.4979167 10.2291667,71.3604167 L10.2291667,65.225 L7.51041667,65.225 L7.51041667,63.0270833 L12.825,63.0270833 L12.825,72.9395833 C12.2875,73.28125 10.1395833,73.875 8.25208333,73.875 C3.27083333,73.875 2.05833333,71.2791667 2.05833333,64.3541667 M30.4041667,55.1666667 L38.9979167,55.1666667 L38.9979167,57.3729167 L33.0083333,57.3729167 L33.0083333,62.9958333 L37.8416667,62.9958333 L37.8416667,65.16875 L33.0083333,65.16875 L33.0083333,71.3291667 L38.9979167,71.3291667 L38.9979167,73.5354167 L30.4041667,73.5354167 L30.4041667,55.1666667 Z M42,55.1666667 L44.9958333,55.1666667 L50.7895833,69.80625 C50.59375,68.3083333 50.4229167,66.5583333 50.4229167,64.9145833 L50.4229167,55.1645833 L52.9125,55.1645833 L52.9125,73.53125 L49.9104167,73.53125 L44.0666667,58.8333333 C44.2854167,60.3395833 44.4895833,62.1125 44.4895833,63.78125 L44.4895833,73.53125 L42,73.53125 L42,55.1666667 Z M55.2895833,55.1666667 L65.8291667,55.1666667 L65.8291667,57.3729167 L61.85,57.3729167 L61.85,73.5354167 L59.2458333,73.5354167 L59.2458333,57.3729167 L55.2916667,57.3729167 L55.2895833,55.1666667 Z M108.935417,91.8291667 L103.90625,81.0875 L106.7625,81.0875 L108.935417,86.0354167 C109.447917,87.2229167 109.929167,88.49375 110.2375,89.625 C110.579167,88.49375 111.083333,87.225 111.595833,86.0354167 L113.76875,81.0875 L116.54375,81.0875 L111.539583,91.8291667 L111.539583,99.4541667 L108.935417,99.4541667 L108.935417,91.8291667 Z M92.3416667,81.0875 L102.88125,81.0875 L102.88125,83.29375 L98.89375,83.29375 L98.89375,99.45625 L96.2979167,99.45625 L96.2979167,83.29375 L92.34375,83.29375 L92.3416667,81.0875 Z" id="Shape"></path>
      </g>
    </g>
  </g>
</svg>
