<?xml version="1.0" encoding="UTF-8"?>
<svg xmlns="http://www.w3.org/2000/svg" xmlns:xlink="http://www.w3.org/1999/xlink" width="151px" height="54px" viewBox="0 0 151 54" version="1.1">
  <!-- Generator: Sketch 62 (91390) - https://sketch.com -->
  <title>logo-white</title>
  <desc>Created with Sketch.</desc>
  <g id="Study-in-Flanders" stroke="none" stroke-width="1" fill="none" fill-rule="evenodd">
    <g id="Why-Flanders-&gt;-Structure-of-education" transform="translate(-246.000000, -3189.000000)" fill="#1D1D1B" fill-rule="nonzero">
      <g id="logo-white" transform="translate(246.884615, 3189.000000)">
        <path d="M72.0609472,17.2915373 L76.2263199,7.23718944 L75.134705,7.23718944 L71.5725932,16.0419255 L68.0535714,7.23718944 L66.9475932,7.23718944 L71.0986025,17.2915373 L72.0609472,17.2915373 Z M78.7829969,8.1564441 L80.3773292,8.1564441 C81.1673137,8.1564441 81.9860248,8.1564441 82.6467391,8.63043478 C83.2356366,9.04697205 83.5803571,9.70768634 83.5947205,10.425854 C83.6090839,11.3020186 83.0920031,12.1063665 82.2876553,12.4654503 C81.626941,12.7670807 80.8082298,12.738354 80.1044255,12.738354 L79.802795,12.738354 L83.2212733,17.2915373 L84.4708851,17.2915373 L81.6413043,13.5427019 C83.2787267,13.4996118 84.6001553,12.1638199 84.6001553,10.5263975 C84.6001553,9.36296584 84.0543478,8.32880435 83.0345497,7.73990683 C82.1871118,7.26591615 81.1242236,7.2515528 80.1762422,7.2515528 L77.7919255,7.2515528 L77.7919255,17.3059006 L78.7973602,17.3059006 L78.7829969,8.1564441 L78.7829969,8.1564441 Z M86.4243012,7.23718944 L87.429736,7.23718944 L87.429736,17.2915373 L86.4243012,17.2915373 L86.4243012,7.23718944 Z M91.6669255,17.4638975 C92.5,17.4782609 93.2899845,17.119177 93.8214286,16.4728261 C94.3528727,15.8121118 94.3097826,15.251941 94.367236,14.4619565 L94.367236,7.23718944 L93.3618012,7.23718944 L93.3618012,14.1603261 C93.3618012,14.5768634 93.3761646,15.0939441 93.2468944,15.496118 C93.0170807,16.1137422 92.4281832,16.5159161 91.7818323,16.5015528 C90.8338509,16.5015528 90.0725932,15.8695652 90.0007764,14.9072205 L89.009705,14.9072205 C89.0240683,16.3579193 90.2305901,17.4926242 91.6669255,17.4638975 Z M102.295807,16.386646 L97.814441,16.386646 L97.814441,12.6809006 L102.152174,12.6809006 L102.152174,11.7760093 L97.814441,11.7760093 L97.814441,8.1564441 L102.295807,8.1564441 L102.295807,7.23718944 L96.8090062,7.23718944 L96.8090062,17.2915373 L102.295807,17.2915373 L102.295807,16.386646 Z M73.6840062,27.7624224 C73.6840062,28.5524068 73.6121894,29.3567547 73.1238354,30.0031056 C72.3338509,31.0229037 70.8544255,31.2096273 69.8346273,30.4196429 C69.6335404,30.261646 69.4611801,30.0749224 69.3175466,29.859472 C68.9153727,29.2274845 68.8579193,28.4662267 68.8579193,27.748059 L68.8579193,21.6436335 L67.8524845,21.6436335 L67.8524845,27.748059 C67.8524845,28.8109472 67.9673913,29.816382 68.6568323,30.6781832 C69.3175466,31.4538043 70.2798913,31.884705 71.2853261,31.8703416 C72.3194876,31.884705 73.310559,31.4107143 73.9569099,30.5920031 C74.6032609,29.7445652 74.7038043,28.7678571 74.7038043,27.748059 L74.7038043,21.6436335 L73.6983696,21.6436335 L73.6840062,27.7624224 L73.6840062,27.7624224 Z M85.1459627,21.6579969 L84.140528,21.6579969 L84.140528,29.9887422 L78.4957298,21.6579969 L77.1455745,21.6579969 L77.1455745,31.6979814 L78.1510093,31.6979814 L78.1510093,22.8645186 L84.140528,31.6979814 L85.1459627,31.6979814 L85.1459627,21.6579969 Z M87.5877329,21.6579969 L88.5931677,21.6579969 L88.5931677,31.7123447 L87.5877329,31.7123447 L87.5877329,21.6579969 Z M94.7694099,30.4483696 L91.2503882,21.6579969 L90.1444099,21.6579969 L94.2954193,31.6979814 L95.2434006,31.6979814 L99.4231366,21.6579969 L98.3171584,21.6579969 L94.7694099,30.4483696 Z M106.46118,22.5628882 L106.46118,21.6579969 L100.974379,21.6579969 L100.974379,31.6979814 L106.46118,31.6979814 L106.46118,30.7930901 L101.979814,30.7930901 L101.979814,27.0873447 L106.317547,27.0873447 L106.317547,26.1824534 L101.979814,26.1824534 L101.979814,22.5628882 L106.46118,22.5628882 Z M115.45264,24.9328416 C115.45264,23.7694099 114.906832,22.7352484 113.887034,22.1463509 C113.039596,21.6723602 111.976708,21.6579969 111.028727,21.6579969 L108.630047,21.6579969 L108.630047,31.7123447 L109.635481,31.7123447 L109.635481,22.5628882 L111.229814,22.5628882 C112.019798,22.5628882 112.838509,22.5628882 113.499224,23.0368789 C114.073758,23.4534161 114.432842,24.1141304 114.432842,24.8322981 C114.447205,25.7084627 113.930124,26.5128106 113.125776,26.8718944 C112.465062,27.1735248 111.646351,27.1447981 110.942547,27.1447981 L110.640916,27.1447981 L114.059394,31.6979814 L115.309006,31.6979814 L112.479425,27.949146 C114.131211,27.9060559 115.438276,26.570264 115.45264,24.9328416 L115.45264,24.9328416 Z M121.772516,26.8288043 C121.183618,26.2973602 120.565994,26.1680901 119.833463,25.9670031 C118.856755,25.6940994 117.85132,25.4068323 117.85132,24.2003106 C117.836957,23.2379658 118.612578,22.4623447 119.560559,22.4479814 L119.574922,22.4479814 C120.609084,22.4479814 121.341615,23.1805124 121.413432,24.2003106 L122.461957,24.2003106 C122.47632,22.6634317 121.226708,21.4856366 119.704193,21.4856366 C118.124224,21.4856366 116.845885,22.5772516 116.845885,24.1859472 C116.831522,24.9041149 117.147516,25.5935559 117.693323,26.0675466 C118.19604,26.4984472 118.842391,26.6708075 119.460016,26.8288043 C120.03455,26.9724379 120.55163,27.1160714 121.011258,27.4895186 C121.442158,27.8342391 121.700699,28.3656832 121.700699,28.9114907 C121.700699,30.060559 120.767081,30.8936335 119.618012,30.8936335 C118.512034,30.8792702 117.607143,29.9743789 117.607143,28.8684006 L116.529891,28.8684006 C116.515528,30.6207298 117.9375,31.8559783 119.646739,31.8559783 C121.284161,31.8559783 122.706134,30.5776398 122.706134,28.925854 C122.720497,28.1358696 122.375776,27.3746118 121.772516,26.8288043 L121.772516,26.8288043 Z M124.429736,21.6579969 L125.435171,21.6579969 L125.435171,31.7123447 L124.429736,31.7123447 L124.429736,21.6579969 Z M126.943323,22.5628882 L129.255823,22.5628882 L129.255823,31.6979814 L130.261258,31.6979814 L130.261258,22.5628882 L132.545031,22.5628882 L132.545031,21.6579969 L126.943323,21.6579969 L126.943323,22.5628882 Z M134.053183,31.6979814 L139.554348,31.6979814 L139.554348,30.7930901 L135.072981,30.7930901 L135.072981,27.0873447 L139.410714,27.0873447 L139.410714,26.1824534 L135.072981,26.1824534 L135.072981,22.5628882 L139.554348,22.5628882 L139.554348,21.6579969 L134.053183,21.6579969 L134.053183,31.6979814 Z M141.737578,21.6579969 L142.743012,21.6579969 L142.743012,31.7123447 L141.737578,31.7123447 L141.737578,21.6579969 Z M144.251165,21.6579969 L144.251165,22.5628882 L146.563665,22.5628882 L146.563665,31.6979814 L147.569099,31.6979814 L147.569099,22.5628882 L149.852873,22.5628882 L149.852873,21.6579969 L144.251165,21.6579969 Z M72.5636646,40.7468944 C73.2531056,40.2585404 73.6840062,39.5978261 73.6840062,38.7360248 C73.6696429,37.8598602 73.2243789,37.0555124 72.5062112,36.5671584 C71.8167702,36.1218944 71.0267857,36.064441 70.2224379,36.064441 L67.8668478,36.064441 L67.8668478,46.1187888 L70.2368012,46.1187888 C71.242236,46.1044255 72.1184006,46.1331522 72.9945652,45.5729814 C73.7701863,45.070264 74.2298137,44.1940994 74.2298137,43.2748447 C74.2154503,42.1257764 73.6121894,41.177795 72.5636646,40.7468944 L72.5636646,40.7468944 Z M68.8579193,36.9836957 L70.0213509,36.9836957 C70.6246118,36.9549689 71.3427795,36.9693323 71.8598602,37.2853261 C72.3338509,37.5869565 72.6354814,38.1040373 72.6642081,38.6785714 C72.6642081,39.2531056 72.3482143,39.7845497 71.8454969,40.0861801 C71.2709627,40.4021739 70.5815217,40.3878106 69.9351708,40.3878106 L68.8435559,40.3878106 L68.8579193,36.9836957 L68.8579193,36.9836957 Z M72.2189441,44.9122671 C71.6013199,45.2282609 70.7826087,45.2282609 70.0931677,45.2138975 L68.8579193,45.2138975 L68.8579193,41.2783385 L69.9208075,41.2783385 C70.5815217,41.2783385 71.3284161,41.2639752 71.9460404,41.4794255 C72.7216615,41.7379658 73.2243789,42.4704969 73.1956522,43.2892081 C73.1812888,43.9642857 72.8078416,44.5819099 72.2189441,44.9122671 L72.2189441,44.9122671 Z M82.8478261,39.3536491 C82.8478261,38.1902174 82.3020186,37.1560559 81.2822205,36.5671584 C80.4347826,36.0931677 79.3718944,36.0788043 78.423913,36.0788043 L76.0252329,36.0788043 L76.0252329,46.1331522 L77.0306677,46.1331522 L77.0306677,36.9836957 L78.625,36.9836957 C79.4149845,36.9836957 80.2336957,36.9836957 80.8944099,37.4576863 C81.4689441,37.8742236 81.828028,38.5349379 81.828028,39.2531056 C81.8423913,40.1292702 81.3253106,40.933618 80.5209627,41.2927019 C79.8602484,41.5943323 79.0415373,41.5656056 78.3377329,41.5656056 L78.0361025,41.5656056 L81.4545807,46.1187888 L82.7041925,46.1187888 L79.8746118,42.3699534 C81.5263975,42.3268634 82.8478261,40.9910714 82.8478261,39.3536491 L82.8478261,39.3536491 Z M90.5178571,42.1688665 C90.5178571,42.9588509 90.4460404,43.7631988 89.9576863,44.4095497 C89.1677019,45.4293478 87.6882764,45.6160714 86.6684783,44.826087 C86.4673913,44.6680901 86.2950311,44.4813665 86.1513975,44.2659161 C85.7492236,43.6339286 85.6917702,42.8726708 85.6917702,42.1545031 L85.6917702,36.0500776 L84.6863354,36.0500776 L84.6863354,42.1545031 C84.6863354,43.2173913 84.8012422,44.2228261 85.4906832,45.0846273 C86.1513975,45.8602484 87.1137422,46.2911491 88.119177,46.2767857 C89.1533385,46.2911491 90.1444099,45.8171584 90.7907609,44.9984472 C91.4371118,44.1510093 91.5376553,43.1743012 91.5376553,42.1545031 L91.5376553,36.0500776 L90.5322205,36.0500776 L90.5178571,42.1688665 Z M98.4607919,41.2496118 C97.8718944,40.7181677 97.2542702,40.6032609 96.5217391,40.3878106 C95.5450311,40.1149068 94.5395963,39.8276398 94.5395963,38.621118 C94.5252329,37.6587733 95.300854,36.8831522 96.2488354,36.8687888 L96.2631988,36.8687888 C97.2973602,36.8687888 98.0298913,37.6013199 98.1017081,38.621118 L99.1502329,38.621118 C99.1645963,37.0842391 97.9149845,35.9064441 96.3924689,35.9064441 C94.8125,35.9064441 93.5341615,36.998059 93.5341615,38.6067547 C93.5197981,39.3249224 93.8357919,40.0143634 94.3815994,40.488354 C94.8843168,40.9192547 95.5306677,41.0916149 96.1482919,41.2496118 C96.7228261,41.3932453 97.2399068,41.5368789 97.6995342,41.9103261 C98.1304348,42.2550466 98.3889752,42.7864907 98.3889752,43.3322981 C98.3889752,44.4813665 97.4553571,45.314441 96.3062888,45.314441 C95.2003106,45.3000776 94.2954193,44.3951863 94.2954193,43.2892081 L93.2181677,43.2892081 C93.2038043,45.0415373 94.6257764,46.2767857 96.3350155,46.2767857 C97.9724379,46.2767857 99.3944099,44.9984472 99.3944099,43.3322981 C99.4087733,42.556677 99.0640528,41.7810559 98.4607919,41.2496118 Z M105.613742,41.2496118 C105.024845,40.7181677 104.40722,40.6032609 103.674689,40.3878106 C102.697981,40.1149068 101.692547,39.8276398 101.692547,38.621118 C101.678183,37.6587733 102.453804,36.8831522 103.401786,36.8687888 L103.416149,36.8687888 C104.450311,36.8687888 105.182842,37.6013199 105.254658,38.621118 L106.303183,38.621118 C106.317547,37.0842391 105.067935,35.9064441 103.545419,35.9064441 C101.96545,35.9064441 100.687112,36.998059 100.687112,38.6067547 C100.672748,39.3249224 100.988742,40.0143634 101.53455,40.488354 C102.037267,40.9192547 102.683618,41.0916149 103.301242,41.2496118 C103.875776,41.3932453 104.392857,41.5368789 104.852484,41.9103261 C105.283385,42.2550466 105.541925,42.7864907 105.541925,43.3322981 C105.541925,44.4813665 104.608307,45.314441 103.459239,45.314441 C102.353261,45.3000776 101.44837,44.3951863 101.44837,43.2892081 L100.385481,43.2892081 C100.371118,45.0415373 101.79309,46.2767857 103.502329,46.2767857 C105.139752,46.2767857 106.561724,44.9984472 106.561724,43.3322981 C106.561724,42.5423137 106.217003,41.7810559 105.613742,41.2496118 L105.613742,41.2496118 Z M108.270963,46.1187888 L113.772127,46.1187888 L113.772127,45.2138975 L109.276398,45.2138975 L109.276398,41.5081522 L113.61413,41.5081522 L113.61413,40.6032609 L109.276398,40.6032609 L109.276398,36.9836957 L113.772127,36.9836957 L113.772127,36.064441 L108.270963,36.064441 L108.270963,46.1187888 Z M116.946429,36.064441 L115.940994,36.064441 L115.940994,46.1187888 L121.111801,46.1187888 L121.111801,45.2138975 L116.946429,45.2138975 L116.946429,36.064441 Z M25.7678571,30.304736 L25.7678571,30.0892857 L25.7678571,30.304736 Z M46.6521739,23.8986801 C47.6145186,23.8986801 48.8928571,23.9274068 49.7546584,23.5252329 C50.6164596,23.0943323 51.1622671,22.2181677 51.1622671,21.255823 C51.1622671,20.2503882 50.5302795,19.4604037 49.6253882,19.0869565 C48.763587,18.6847826 47.5857919,18.8571429 46.6234472,18.8571429 L44.5551242,18.8571429 L44.5551242,23.8843168 L46.6521739,23.8843168 L46.6521739,23.8986801 Z M4.98408385,0.357142857 L4.98408385,53.185559 L57.8125,53.185559 L57.8125,0.357142857 L4.98408385,0.357142857 Z M38.5799689,29.8307453 C38.5799689,31.6692547 38.4650621,33.4215839 37.7181677,35.0015528 C36.3680124,37.6875 33.552795,39.554736 30.263587,39.6983696 L29.5166925,39.6983696 C28.5256211,39.6552795 27.548913,39.4541925 26.6296584,39.109472 C25.3225932,38.578028 24.1591615,37.7593168 23.2111801,36.7107919 C21.4157609,34.6711957 21.2146739,32.4017857 21.2146739,29.8451087 L21.2146739,18.7996894 L21.2003106,18.8284161 L13.3435559,39.0807453 L9.58035714,39.0807453 L4.98408385,27.2453416 L4.98408385,14.4475932 L11.4475932,32.7034161 L17.9111025,14.4475932 L25.7678571,14.4475932 L25.7678571,30.6063665 C25.7678571,31.4825311 25.8253106,32.3586957 26.2418478,33.1630435 C26.3136646,33.306677 26.3998447,33.4359472 26.4860248,33.5795807 C27.1754658,34.5275621 28.2239907,35.1451863 29.3874224,35.2744565 L29.5166925,35.2888199 C29.6315994,35.3031832 29.7608696,35.3031832 29.8757764,35.3031832 C30.0050466,35.3031832 30.1199534,35.3031832 30.2492236,35.2888199 L30.3928571,35.2744565 C31.6999224,35.130823 32.8489907,34.3839286 33.509705,33.2492236 C33.8975155,32.4879658 33.9836957,31.6692547 33.998059,30.8218168 L33.998059,14.4475932 L38.5656056,14.4475932 L38.5656056,29.8307453 L38.5799689,29.8307453 Z M54.2360248,37.4576863 C52.2682453,38.8940217 49.7690217,39.0232919 47.3990683,39.0951087 L39.9588509,39.0951087 L39.9588509,14.4475932 L45.6754658,14.4332298 C47.9161491,14.4332298 50.185559,14.3326863 52.253882,15.3668478 C54.2934783,16.4010093 55.7298137,18.6129658 55.7298137,20.9111025 C55.7298137,22.8501553 54.8249224,24.7604814 53.0295031,25.6222826 C55.7298137,26.4840839 57.2379658,28.7965839 57.2379658,31.5974379 C57.2379658,33.996118 56.1319876,36.0213509 54.2360248,37.4576863 L54.2360248,37.4576863 Z M51.0186335,28.8540373 C49.984472,28.3225932 48.8784938,28.3513199 47.7868789,28.3513199 L44.5407609,28.3513199 L44.5407609,34.6424689 L47.6863354,34.6424689 C49.0221273,34.6424689 50.2573758,34.5850155 51.4638975,33.7806677 C52.296972,33.2061335 52.6704193,32.4161491 52.6704193,31.3819876 C52.6560559,30.1898292 52.0958851,29.4429348 51.0186335,28.8540373 Z M4.0602442e-14,14.4475932 L4.98408385,27.259705 L4.98408385,14.4475932 L4.0602442e-14,14.4475932 Z" id="Shape"></path>
      </g>
    </g>
  </g>
</svg>
